<svg width="428" height="926" viewBox="0 0 428 926" fill="none" xmlns="http://www.w3.org/2000/svg">
<rect width="428" height="926" fill="#A4BBD6"/>
<g filter="url(#filter0_d_2_2704)">
<path d="M39 311H64V308.5H66.5V298.5H64V296H56.5H49V291H66.5V286H41.5V288.5H39V298.5H41.5V301H56.5V306H39V311ZM78.9805 303.5H81.4805V306H83.9805V308.5H86.4805V311H98.9805V306H96.4805V303.5H93.9805V301H91.4805V296H93.9805V293.5H96.4805V291H98.9805V286H96.4805H86.4805V288.5H83.9805V291H81.4805V293.5H78.9805V286H68.9805V311H78.9805V303.5ZM111.5 301H119V311H129V301H126.5V296H129V288.5H126.5V286H119H111.5H101.5V311H111.5V301ZM111.5 291H119V296H111.5V291ZM131.48 291H138.98V306H131.48V311H156.48V306H148.98V291H156.48V286H131.48V291ZM183.971 308.5H186.471V301H183.971V296H186.471V288.5H183.971V286H168.971H158.971V311H183.971V308.5ZM168.971 301H176.471V306H168.971V301ZM168.971 291H176.471V296H168.971V291ZM213.951 308.5H216.451V301H213.951V296H216.451V288.5H213.951V286H198.951H188.951V311H213.951V308.5ZM198.951 301H206.451V306H198.951V301ZM198.951 291H206.451V296H198.951V291ZM218.932 311H246.432V306H228.932V286H218.932V311ZM291.393 308.5H293.893V298.5H291.393V296H278.893V301H283.893V306H276.393V291H293.893V286H268.893V288.5H266.393V308.5H268.893V311H291.393V308.5ZM306.373 301H313.873V311H323.873V288.5H321.373V286H313.873H298.873V288.5H296.373V311H306.373V301ZM306.373 291H313.873V296H306.373V291ZM336.354 298.5H338.854V301H341.354V303.5H343.854V301H346.354V298.5H348.854V311H358.854V286H348.854V288.5H346.354V291H343.854V293.5H341.354V291H338.854V288.5H336.354V286H326.354V311H336.354V298.5ZM363.863 311H388.863V306H371.363V301H378.863V296H371.363V291H388.863V286H363.863V288.5H361.363V308.5H363.863V311Z" fill="#FFC700"/>
<path d="M39 311H37V313H39V311ZM64 311V313H66V311H64ZM64 308.5V306.5H62V308.5H64ZM66.5 308.5V310.5H68.5V308.5H66.5ZM66.5 298.5H68.5V296.5H66.5V298.5ZM64 298.5H62V300.5H64V298.5ZM64 296H66V294H64V296ZM49 296H47V298H49V296ZM49 291V289H47V291H49ZM66.5 291V293H68.5V291H66.5ZM66.5 286H68.5V284H66.5V286ZM41.5 286V284H39.5V286H41.5ZM41.5 288.5V290.5H43.5V288.5H41.5ZM39 288.5V286.5H37V288.5H39ZM39 298.5H37V300.5H39V298.5ZM41.5 298.5H43.5V296.5H41.5V298.5ZM41.5 301H39.5V303H41.5V301ZM56.5 301H58.5V299H56.5V301ZM56.5 306V308H58.5V306H56.5ZM39 306V304H37V306H39ZM39 313H64V309H39V313ZM66 311V308.5H62V311H66ZM64 310.5H66.5V306.5H64V310.5ZM68.5 308.5V298.5H64.5V308.5H68.5ZM66.5 296.5H64V300.5H66.5V296.5ZM66 298.5V296H62V298.5H66ZM64 294H56.5V298H64V294ZM56.5 294H49V298H56.5V294ZM51 296V291H47V296H51ZM49 293H66.5V289H49V293ZM68.5 291V286H64.5V291H68.5ZM66.5 284H41.5V288H66.5V284ZM39.5 286V288.5H43.5V286H39.5ZM41.5 286.5H39V290.5H41.5V286.5ZM37 288.5V298.5H41V288.5H37ZM39 300.5H41.5V296.5H39V300.5ZM39.5 298.5V301H43.5V298.5H39.5ZM41.5 303H56.5V299H41.5V303ZM54.5 301V306H58.5V301H54.5ZM56.5 304H39V308H56.5V304ZM37 306V311H41V306H37ZM78.9805 303.5V301.5H76.9805V303.5H78.9805ZM81.4805 303.5H83.4805V301.5H81.4805V303.5ZM81.4805 306H79.4805V308H81.4805V306ZM83.9805 306H85.9805V304H83.9805V306ZM83.9805 308.5H81.9805V310.5H83.9805V308.5ZM86.4805 308.5H88.4805V306.5H86.4805V308.5ZM86.4805 311H84.4805V313H86.4805V311ZM98.9805 311V313H100.98V311H98.9805ZM98.9805 306H100.98V304H98.9805V306ZM96.4805 306H94.4805V308H96.4805V306ZM96.4805 303.5H98.4805V301.5H96.4805V303.5ZM93.9805 303.5H91.9805V305.5H93.9805V303.5ZM93.9805 301H95.9805V299H93.9805V301ZM91.4805 301H89.4805V303H91.4805V301ZM91.4805 296V294H89.4805V296H91.4805ZM93.9805 296V298H95.9805V296H93.9805ZM93.9805 293.5V291.5H91.9805V293.5H93.9805ZM96.4805 293.5V295.5H98.4805V293.5H96.4805ZM96.4805 291V289H94.4805V291H96.4805ZM98.9805 291V293H100.98V291H98.9805ZM98.9805 286H100.98V284H98.9805V286ZM86.4805 286V284H84.4805V286H86.4805ZM86.4805 288.5V290.5H88.4805V288.5H86.4805ZM83.9805 288.5V286.5H81.9805V288.5H83.9805ZM83.9805 291V293H85.9805V291H83.9805ZM81.4805 291V289H79.4805V291H81.4805ZM81.4805 293.5V295.5H83.4805V293.5H81.4805ZM78.9805 293.5H76.9805V295.5H78.9805V293.5ZM78.9805 286H80.9805V284H78.9805V286ZM68.9805 286V284H66.9805V286H68.9805ZM68.9805 311H66.9805V313H68.9805V311ZM78.9805 311V313H80.9805V311H78.9805ZM78.9805 305.5H81.4805V301.5H78.9805V305.5ZM79.4805 303.5V306H83.4805V303.5H79.4805ZM81.4805 308H83.9805V304H81.4805V308ZM81.9805 306V308.5H85.9805V306H81.9805ZM83.9805 310.5H86.4805V306.5H83.9805V310.5ZM84.4805 308.5V311H88.4805V308.5H84.4805ZM86.4805 313H98.9805V309H86.4805V313ZM100.98 311V306H96.9805V311H100.98ZM98.9805 304H96.4805V308H98.9805V304ZM98.4805 306V303.5H94.4805V306H98.4805ZM96.4805 301.5H93.9805V305.5H96.4805V301.5ZM95.9805 303.5V301H91.9805V303.5H95.9805ZM93.9805 299H91.4805V303H93.9805V299ZM93.4805 301V296H89.4805V301H93.4805ZM91.4805 298H93.9805V294H91.4805V298ZM95.9805 296V293.5H91.9805V296H95.9805ZM93.9805 295.5H96.4805V291.5H93.9805V295.5ZM98.4805 293.5V291H94.4805V293.5H98.4805ZM96.4805 293H98.9805V289H96.4805V293ZM100.98 291V286H96.9805V291H100.98ZM98.9805 284H96.4805V288H98.9805V284ZM96.4805 284H86.4805V288H96.4805V284ZM84.4805 286V288.5H88.4805V286H84.4805ZM86.4805 286.5H83.9805V290.5H86.4805V286.5ZM81.9805 288.5V291H85.9805V288.5H81.9805ZM83.9805 289H81.4805V293H83.9805V289ZM79.4805 291V293.5H83.4805V291H79.4805ZM81.4805 291.5H78.9805V295.5H81.4805V291.5ZM80.9805 293.5V286H76.9805V293.5H80.9805ZM78.9805 284H68.9805V288H78.9805V284ZM66.9805 286V311H70.9805V286H66.9805ZM68.9805 313H78.9805V309H68.9805V313ZM80.9805 311V303.5H76.9805V311H80.9805ZM111.5 301V299H109.5V301H111.5ZM119 301H121V299H119V301ZM119 311H117V313H119V311ZM129 311V313H131V311H129ZM129 301H131V299H129V301ZM126.5 301H124.5V303H126.5V301ZM126.5 296V294H124.5V296H126.5ZM129 296V298H131V296H129ZM129 288.5H131V286.5H129V288.5ZM126.5 288.5H124.5V290.5H126.5V288.5ZM126.5 286H128.5V284H126.5V286ZM101.5 286V284H99.5V286H101.5ZM101.5 311H99.5V313H101.5V311ZM111.5 311V313H113.5V311H111.5ZM111.5 291V289H109.5V291H111.5ZM119 291H121V289H119V291ZM119 296V298H121V296H119ZM111.5 296H109.5V298H111.5V296ZM111.5 303H119V299H111.5V303ZM117 301V311H121V301H117ZM119 313H129V309H119V313ZM131 311V301H127V311H131ZM129 299H126.5V303H129V299ZM128.5 301V296H124.5V301H128.5ZM126.5 298H129V294H126.5V298ZM131 296V288.5H127V296H131ZM129 286.5H126.5V290.5H129V286.5ZM128.5 288.5V286H124.5V288.5H128.5ZM126.5 284H119V288H126.5V284ZM119 284H111.5V288H119V284ZM111.5 284H101.5V288H111.5V284ZM99.5 286V311H103.5V286H99.5ZM101.5 313H111.5V309H101.5V313ZM113.5 311V301H109.5V311H113.5ZM111.5 293H119V289H111.5V293ZM117 291V296H121V291H117ZM119 294H111.5V298H119V294ZM113.5 296V291H109.5V296H113.5ZM131.48 291H129.48V293H131.48V291ZM138.98 291H140.98V289H138.98V291ZM138.98 306V308H140.98V306H138.98ZM131.48 306V304H129.48V306H131.48ZM131.48 311H129.48V313H131.48V311ZM156.48 311V313H158.48V311H156.48ZM156.48 306H158.48V304H156.48V306ZM148.98 306H146.98V308H148.98V306ZM148.98 291V289H146.98V291H148.98ZM156.48 291V293H158.48V291H156.48ZM156.48 286H158.48V284H156.48V286ZM131.48 286V284H129.48V286H131.48ZM131.48 293H138.98V289H131.48V293ZM136.98 291V306H140.98V291H136.98ZM138.98 304H131.48V308H138.98V304ZM129.48 306V311H133.48V306H129.48ZM131.48 313H156.48V309H131.48V313ZM158.48 311V306H154.48V311H158.48ZM156.48 304H148.98V308H156.48V304ZM150.98 306V291H146.98V306H150.98ZM148.98 293H156.48V289H148.98V293ZM158.48 291V286H154.48V291H158.48ZM156.48 284H131.48V288H156.48V284ZM129.48 286V291H133.48V286H129.48ZM183.971 308.5V306.5H181.971V308.5H183.971ZM186.471 308.5V310.5H188.471V308.5H186.471ZM186.471 301H188.471V299H186.471V301ZM183.971 301H181.971V303H183.971V301ZM183.971 296V294H181.971V296H183.971ZM186.471 296V298H188.471V296H186.471ZM186.471 288.5H188.471V286.5H186.471V288.5ZM183.971 288.5H181.971V290.5H183.971V288.5ZM183.971 286H185.971V284H183.971V286ZM158.971 286V284H156.971V286H158.971ZM158.971 311H156.971V313H158.971V311ZM183.971 311V313H185.971V311H183.971ZM168.971 301V299H166.971V301H168.971ZM176.471 301H178.471V299H176.471V301ZM176.471 306V308H178.471V306H176.471ZM168.971 306H166.971V308H168.971V306ZM168.971 291V289H166.971V291H168.971ZM176.471 291H178.471V289H176.471V291ZM176.471 296V298H178.471V296H176.471ZM168.971 296H166.971V298H168.971V296ZM183.971 310.5H186.471V306.5H183.971V310.5ZM188.471 308.5V301H184.471V308.5H188.471ZM186.471 299H183.971V303H186.471V299ZM185.971 301V296H181.971V301H185.971ZM183.971 298H186.471V294H183.971V298ZM188.471 296V288.5H184.471V296H188.471ZM186.471 286.5H183.971V290.5H186.471V286.5ZM185.971 288.5V286H181.971V288.5H185.971ZM183.971 284H168.971V288H183.971V284ZM168.971 284H158.971V288H168.971V284ZM156.971 286V311H160.971V286H156.971ZM158.971 313H183.971V309H158.971V313ZM185.971 311V308.5H181.971V311H185.971ZM168.971 303H176.471V299H168.971V303ZM174.471 301V306H178.471V301H174.471ZM176.471 304H168.971V308H176.471V304ZM170.971 306V301H166.971V306H170.971ZM168.971 293H176.471V289H168.971V293ZM174.471 291V296H178.471V291H174.471ZM176.471 294H168.971V298H176.471V294ZM170.971 296V291H166.971V296H170.971ZM213.951 308.5V306.5H211.951V308.5H213.951ZM216.451 308.5V310.5H218.451V308.5H216.451ZM216.451 301H218.451V299H216.451V301ZM213.951 301H211.951V303H213.951V301ZM213.951 296V294H211.951V296H213.951ZM216.451 296V298H218.451V296H216.451ZM216.451 288.5H218.451V286.5H216.451V288.5ZM213.951 288.5H211.951V290.5H213.951V288.5ZM213.951 286H215.951V284H213.951V286ZM188.951 286V284H186.951V286H188.951ZM188.951 311H186.951V313H188.951V311ZM213.951 311V313H215.951V311H213.951ZM198.951 301V299H196.951V301H198.951ZM206.451 301H208.451V299H206.451V301ZM206.451 306V308H208.451V306H206.451ZM198.951 306H196.951V308H198.951V306ZM198.951 291V289H196.951V291H198.951ZM206.451 291H208.451V289H206.451V291ZM206.451 296V298H208.451V296H206.451ZM198.951 296H196.951V298H198.951V296ZM213.951 310.5H216.451V306.5H213.951V310.5ZM218.451 308.5V301H214.451V308.5H218.451ZM216.451 299H213.951V303H216.451V299ZM215.951 301V296H211.951V301H215.951ZM213.951 298H216.451V294H213.951V298ZM218.451 296V288.5H214.451V296H218.451ZM216.451 286.5H213.951V290.5H216.451V286.5ZM215.951 288.5V286H211.951V288.5H215.951ZM213.951 284H198.951V288H213.951V284ZM198.951 284H188.951V288H198.951V284ZM186.951 286V311H190.951V286H186.951ZM188.951 313H213.951V309H188.951V313ZM215.951 311V308.5H211.951V311H215.951ZM198.951 303H206.451V299H198.951V303ZM204.451 301V306H208.451V301H204.451ZM206.451 304H198.951V308H206.451V304ZM200.951 306V301H196.951V306H200.951ZM198.951 293H206.451V289H198.951V293ZM204.451 291V296H208.451V291H204.451ZM206.451 294H198.951V298H206.451V294ZM200.951 296V291H196.951V296H200.951ZM218.932 311H216.932V313H218.932V311ZM246.432 311V313H248.432V311H246.432ZM246.432 306H248.432V304H246.432V306ZM228.932 306H226.932V308H228.932V306ZM228.932 286H230.932V284H228.932V286ZM218.932 286V284H216.932V286H218.932ZM218.932 313H246.432V309H218.932V313ZM248.432 311V306H244.432V311H248.432ZM246.432 304H228.932V308H246.432V304ZM230.932 306V286H226.932V306H230.932ZM228.932 284H218.932V288H228.932V284ZM216.932 286V311H220.932V286H216.932ZM291.393 308.5V306.5H289.393V308.5H291.393ZM293.893 308.5V310.5H295.893V308.5H293.893ZM293.893 298.5H295.893V296.5H293.893V298.5ZM291.393 298.5H289.393V300.5H291.393V298.5ZM291.393 296H293.393V294H291.393V296ZM278.893 296V294H276.893V296H278.893ZM278.893 301H276.893V303H278.893V301ZM283.893 301H285.893V299H283.893V301ZM283.893 306V308H285.893V306H283.893ZM276.393 306H274.393V308H276.393V306ZM276.393 291V289H274.393V291H276.393ZM293.893 291V293H295.893V291H293.893ZM293.893 286H295.893V284H293.893V286ZM268.893 286V284H266.893V286H268.893ZM268.893 288.5V290.5H270.893V288.5H268.893ZM266.393 288.5V286.5H264.393V288.5H266.393ZM266.393 308.5H264.393V310.5H266.393V308.5ZM268.893 308.5H270.893V306.5H268.893V308.5ZM268.893 311H266.893V313H268.893V311ZM291.393 311V313H293.393V311H291.393ZM291.393 310.5H293.893V306.5H291.393V310.5ZM295.893 308.5V298.5H291.893V308.5H295.893ZM293.893 296.5H291.393V300.5H293.893V296.5ZM293.393 298.5V296H289.393V298.5H293.393ZM291.393 294H278.893V298H291.393V294ZM276.893 296V301H280.893V296H276.893ZM278.893 303H283.893V299H278.893V303ZM281.893 301V306H285.893V301H281.893ZM283.893 304H276.393V308H283.893V304ZM278.393 306V291H274.393V306H278.393ZM276.393 293H293.893V289H276.393V293ZM295.893 291V286H291.893V291H295.893ZM293.893 284H268.893V288H293.893V284ZM266.893 286V288.5H270.893V286H266.893ZM268.893 286.5H266.393V290.5H268.893V286.5ZM264.393 288.5V308.5H268.393V288.5H264.393ZM266.393 310.5H268.893V306.5H266.393V310.5ZM266.893 308.5V311H270.893V308.5H266.893ZM268.893 313H291.393V309H268.893V313ZM293.393 311V308.5H289.393V311H293.393ZM306.373 301V299H304.373V301H306.373ZM313.873 301H315.873V299H313.873V301ZM313.873 311H311.873V313H313.873V311ZM323.873 311V313H325.873V311H323.873ZM323.873 288.5H325.873V286.5H323.873V288.5ZM321.373 288.5H319.373V290.5H321.373V288.5ZM321.373 286H323.373V284H321.373V286ZM298.873 286V284H296.873V286H298.873ZM298.873 288.5V290.5H300.873V288.5H298.873ZM296.373 288.5V286.5H294.373V288.5H296.373ZM296.373 311H294.373V313H296.373V311ZM306.373 311V313H308.373V311H306.373ZM306.373 291V289H304.373V291H306.373ZM313.873 291H315.873V289H313.873V291ZM313.873 296V298H315.873V296H313.873ZM306.373 296H304.373V298H306.373V296ZM306.373 303H313.873V299H306.373V303ZM311.873 301V311H315.873V301H311.873ZM313.873 313H323.873V309H313.873V313ZM325.873 311V288.5H321.873V311H325.873ZM323.873 286.5H321.373V290.5H323.873V286.5ZM323.373 288.5V286H319.373V288.5H323.373ZM321.373 284H313.873V288H321.373V284ZM313.873 284H298.873V288H313.873V284ZM296.873 286V288.5H300.873V286H296.873ZM298.873 286.5H296.373V290.5H298.873V286.5ZM294.373 288.5V311H298.373V288.5H294.373ZM296.373 313H306.373V309H296.373V313ZM308.373 311V301H304.373V311H308.373ZM306.373 293H313.873V289H306.373V293ZM311.873 291V296H315.873V291H311.873ZM313.873 294H306.373V298H313.873V294ZM308.373 296V291H304.373V296H308.373ZM336.354 298.5V296.5H334.354V298.5H336.354ZM338.854 298.5H340.854V296.5H338.854V298.5ZM338.854 301H336.854V303H338.854V301ZM341.354 301H343.354V299H341.354V301ZM341.354 303.5H339.354V305.5H341.354V303.5ZM343.854 303.5V305.5H345.854V303.5H343.854ZM343.854 301V299H341.854V301H343.854ZM346.354 301V303H348.354V301H346.354ZM346.354 298.5V296.5H344.354V298.5H346.354ZM348.854 298.5H350.854V296.5H348.854V298.5ZM348.854 311H346.854V313H348.854V311ZM358.854 311V313H360.854V311H358.854ZM358.854 286H360.854V284H358.854V286ZM348.854 286V284H346.854V286H348.854ZM348.854 288.5V290.5H350.854V288.5H348.854ZM346.354 288.5V286.5H344.354V288.5H346.354ZM346.354 291V293H348.354V291H346.354ZM343.854 291V289H341.854V291H343.854ZM343.854 293.5V295.5H345.854V293.5H343.854ZM341.354 293.5H339.354V295.5H341.354V293.5ZM341.354 291H343.354V289H341.354V291ZM338.854 291H336.854V293H338.854V291ZM338.854 288.5H340.854V286.5H338.854V288.5ZM336.354 288.5H334.354V290.5H336.354V288.5ZM336.354 286H338.354V284H336.354V286ZM326.354 286V284H324.354V286H326.354ZM326.354 311H324.354V313H326.354V311ZM336.354 311V313H338.354V311H336.354ZM336.354 300.5H338.854V296.5H336.354V300.5ZM336.854 298.5V301H340.854V298.5H336.854ZM338.854 303H341.354V299H338.854V303ZM339.354 301V303.5H343.354V301H339.354ZM341.354 305.5H343.854V301.5H341.354V305.5ZM345.854 303.5V301H341.854V303.5H345.854ZM343.854 303H346.354V299H343.854V303ZM348.354 301V298.5H344.354V301H348.354ZM346.354 300.5H348.854V296.5H346.354V300.5ZM346.854 298.5V311H350.854V298.5H346.854ZM348.854 313H358.854V309H348.854V313ZM360.854 311V286H356.854V311H360.854ZM358.854 284H348.854V288H358.854V284ZM346.854 286V288.5H350.854V286H346.854ZM348.854 286.5H346.354V290.5H348.854V286.5ZM344.354 288.5V291H348.354V288.5H344.354ZM346.354 289H343.854V293H346.354V289ZM341.854 291V293.5H345.854V291H341.854ZM343.854 291.5H341.354V295.5H343.854V291.5ZM343.354 293.5V291H339.354V293.5H343.354ZM341.354 289H338.854V293H341.354V289ZM340.854 291V288.5H336.854V291H340.854ZM338.854 286.5H336.354V290.5H338.854V286.5ZM338.354 288.5V286H334.354V288.5H338.354ZM336.354 284H326.354V288H336.354V284ZM324.354 286V311H328.354V286H324.354ZM326.354 313H336.354V309H326.354V313ZM338.354 311V298.5H334.354V311H338.354ZM363.863 311H361.863V313H363.863V311ZM388.863 311V313H390.863V311H388.863ZM388.863 306H390.863V304H388.863V306ZM371.363 306H369.363V308H371.363V306ZM371.363 301V299H369.363V301H371.363ZM378.863 301V303H380.863V301H378.863ZM378.863 296H380.863V294H378.863V296ZM371.363 296H369.363V298H371.363V296ZM371.363 291V289H369.363V291H371.363ZM388.863 291V293H390.863V291H388.863ZM388.863 286H390.863V284H388.863V286ZM363.863 286V284H361.863V286H363.863ZM363.863 288.5V290.5H365.863V288.5H363.863ZM361.363 288.5V286.5H359.363V288.5H361.363ZM361.363 308.5H359.363V310.5H361.363V308.5ZM363.863 308.5H365.863V306.5H363.863V308.5ZM363.863 313H388.863V309H363.863V313ZM390.863 311V306H386.863V311H390.863ZM388.863 304H371.363V308H388.863V304ZM373.363 306V301H369.363V306H373.363ZM371.363 303H378.863V299H371.363V303ZM380.863 301V296H376.863V301H380.863ZM378.863 294H371.363V298H378.863V294ZM373.363 296V291H369.363V296H373.363ZM371.363 293H388.863V289H371.363V293ZM390.863 291V286H386.863V291H390.863ZM388.863 284H363.863V288H388.863V284ZM361.863 286V288.5H365.863V286H361.863ZM363.863 286.5H361.363V290.5H363.863V286.5ZM359.363 288.5V308.5H363.363V288.5H359.363ZM361.363 310.5H363.863V306.5H361.363V310.5ZM361.863 308.5V311H365.863V308.5H361.863Z" fill="black"/>
</g>
<path d="M78.5 286.5H69.5V290.5H78.5V286.5Z" fill="#FCE740"/>
<path d="M98.5 286.5H87V289H84.5V290.5H98.5V286.5Z" fill="#FCE740"/>
<path d="M126 286.5H102V290.5H128V289H126V286.5Z" fill="#FCE740"/>
<path d="M156 286.5H132V290.5H156V286.5Z" fill="#FCE740"/>
<path d="M186 290.5H159.5V286.5H183.5V289H186V290.5Z" fill="#FCE740"/>
<path d="M213.5 286.5H189.5V290.5H216V289H213.5V286.5Z" fill="#FCE740"/>
<path d="M228 286.5H219.5V290.5H228.5V286.5H228Z" fill="#FCE740"/>
<path d="M293.5 290.5H267V290V289H269.5V286.5H293.5V290.5Z" fill="#FCE740"/>
<path d="M323.5 290.5H297V289H299.5V286.5H321V289H323.5V290.5Z" fill="#FCE740"/>
<path d="M327 286.5V290.5H338.5V289H336V286.5H327Z" fill="#FCE740"/>
<path d="M347 289V290.5H358.5V286.5H349.5V289H347Z" fill="#FCE740"/>
<path d="M388.5 290.5H362V289H364.5V286.5H388.5V290.5Z" fill="#FCE740"/>
<path d="M78.5 286.5H69.5V290.5H78.5V286.5Z" stroke="#FCE740"/>
<path d="M98.5 286.5H87V289H84.5V290.5H98.5V286.5Z" stroke="#FCE740"/>
<path d="M126 286.5H102V290.5H128V289H126V286.5Z" stroke="#FCE740"/>
<path d="M156 286.5H132V290.5H156V286.5Z" stroke="#FCE740"/>
<path d="M186 290.5H159.5V286.5H183.5V289H186V290.5Z" stroke="#FCE740"/>
<path d="M213.5 286.5H189.5V290.5H216V289H213.5V286.5Z" stroke="#FCE740"/>
<path d="M228 286.5H219.5V290.5H228.5V286.5H228Z" stroke="#FCE740"/>
<path d="M293.5 290.5H267V290V289H269.5V286.5H293.5V290.5Z" stroke="#FCE740"/>
<path d="M323.5 290.5H297V289H299.5V286.5H321V289H323.5V290.5Z" stroke="#FCE740"/>
<path d="M327 286.5V290.5H338.5V289H336V286.5H327Z" stroke="#FCE740"/>
<path d="M347 289V290.5H358.5V286.5H349.5V289H347Z" stroke="#FCE740"/>
<path d="M388.5 290.5H362V289H364.5V286.5H388.5V290.5Z" stroke="#FCE740"/>
<path d="M39.5 306.5V310.5H63.5V308H66V301.5H57V306.5H39.5Z" fill="#FFA800" stroke="#FFA800"/>
<path d="M111 301.5H102V310.5H111V301.5Z" fill="#FFA800"/>
<path d="M128.5 301.5H119.5V310.5H128.5V301.5Z" fill="#FFA800"/>
<path d="M148.5 301.5H139.5V306.5H132V310.5H156V306.5H148.5V301.5Z" fill="#FFA800"/>
<path d="M159.5 310.5V301.5H168.5V306.5H177V301.5H186V308H183.5V310.5H159.5Z" fill="#FFA800"/>
<path d="M189.5 310.5V301.5H198.5V306.5H207V301.5H216V308H213.5V310.5H189.5Z" fill="#FFA800"/>
<path d="M228.5 301.5H219.5V310.5H246V306.5H228.5V301.5Z" fill="#FFA800"/>
<path d="M276 301.5H267V308H269.5V310.5H291V308H293.5V301.5H284.5V306.5H276V301.5Z" fill="#FFA800"/>
<path d="M297 310.5V301.5H306V310.5H297Z" fill="#FFA800"/>
<path d="M323.5 301.5H314.5V310.5H323.5V301.5Z" fill="#FFA800"/>
<path d="M335.5 301.5H327V310.5H335.5V301.5Z" fill="#FFA800"/>
<path d="M358.5 301.5H349.5V310.5H358.5V301.5Z" fill="#FFA800"/>
<path d="M371 301.5H362V308H364.5V310.5H388V306.5H371V301.5Z" fill="#FFA800"/>
<path d="M111 301.5H102V310.5H111V301.5Z" stroke="#FFA800"/>
<path d="M128.5 301.5H119.5V310.5H128.5V301.5Z" stroke="#FFA800"/>
<path d="M148.5 301.5H139.5V306.5H132V310.5H156V306.5H148.5V301.5Z" stroke="#FFA800"/>
<path d="M159.5 310.5V301.5H168.5V306.5H177V301.5H186V308H183.5V310.5H159.5Z" stroke="#FFA800"/>
<path d="M189.5 310.5V301.5H198.5V306.5H207V301.5H216V308H213.5V310.5H189.5Z" stroke="#FFA800"/>
<path d="M228.5 301.5H219.5V310.5H246V306.5H228.5V301.5Z" stroke="#FFA800"/>
<path d="M276 301.5H267V308H269.5V310.5H291V308H293.5V301.5H284.5V306.5H276V301.5Z" stroke="#FFA800"/>
<path d="M297 310.5V301.5H306V310.5H297Z" stroke="#FFA800"/>
<path d="M323.5 301.5H314.5V310.5H323.5V301.5Z" stroke="#FFA800"/>
<path d="M335.5 301.5H327V310.5H335.5V301.5Z" stroke="#FFA800"/>
<path d="M358.5 301.5H349.5V310.5H358.5V301.5Z" stroke="#FFA800"/>
<path d="M371 301.5H362V308H364.5V310.5H388V306.5H371V301.5Z" stroke="#FFA800"/>
<path d="M66 286.5V290.5H39.5V289H42V286.5H66Z" fill="#FCE740" stroke="#FCE740"/>
<path d="M78.5 310.5H69.5V301.5H91H93.5V304H96V306.5H98.5V310.5H87V308H84.5V305.5H82V303H78.5V310.5Z" fill="#FFA800" stroke="#FFA800"/>
<g filter="url(#filter1_d_2_2704)">
<rect x="39" y="419" width="352" height="65" fill="#FFC700"/>
<rect x="37.5" y="417.5" width="355" height="68" stroke="black" stroke-width="3"/>
</g>
<g filter="url(#filter2_d_2_2704)">
<rect x="61" y="425" width="296" height="40" fill="#FFA800"/>
</g>
<g filter="url(#filter3_d_2_2704)">
<rect x="43" y="425" width="344" height="53" fill="#FAF1AC"/>
</g>
<g filter="url(#filter4_b_2_2704)">
<rect y="635" width="428" height="291" fill="#D0D3D9" fill-opacity="0.9"/>
</g>
<rect x="146" y="913" width="135" height="5" rx="2.5" fill="black"/>
<path fill-rule="evenodd" clip-rule="evenodd" d="M371.357 884.667C371.357 884.04 371.783 883.667 372.499 883.667C372.834 883.667 373.26 884.04 373.26 884.667C373.26 889.858 375.433 892.333 380.108 892.333C384.402 892.333 386.575 889.858 386.575 884.667C386.575 884.04 387.001 883.667 387.716 883.667C388.051 883.667 388.477 884.04 388.477 884.667C388.477 890.411 385.846 893.681 380.868 893.978V896.333H384.6C385.061 896.333 385.434 896.706 385.434 897.167C385.434 897.627 385.061 898 384.6 898H380.868H378.966H375.234C374.774 898 374.401 897.627 374.401 897.167C374.401 896.706 374.774 896.333 375.234 896.333H378.966V893.955C373.88 893.543 371.357 890.291 371.357 884.667ZM379.917 874.667C378.131 874.667 376.684 875.935 376.684 877.5V886.5C376.684 888.065 378.131 889.333 379.917 889.333C381.703 889.333 383.151 888.065 383.151 886.5V877.5C383.151 875.935 381.703 874.667 379.917 874.667ZM379.917 873C382.754 873 385.053 875.015 385.053 877.5V886.5C385.053 888.985 382.754 891 379.917 891C377.081 891 374.781 888.985 374.781 886.5V877.5C374.781 875.015 377.081 873 379.917 873Z" fill="#50555C"/>
<path fill-rule="evenodd" clip-rule="evenodd" d="M41.5119 871C49.7063 871 56.3492 876.82 56.3492 884C56.3492 891.18 49.7063 897 41.5119 897C33.3175 897 26.6746 891.18 26.6746 884C26.6746 876.82 33.3175 871 41.5119 871ZM41.5119 872.514C48.7515 872.515 54.6197 877.658 54.6192 884.001C54.6186 890.344 48.7495 895.486 41.5099 895.486C34.2703 895.485 28.4016 890.343 28.4016 884C28.4017 880.954 29.7831 878.032 32.2417 875.878C34.7004 873.724 38.035 872.514 41.5119 872.514ZM36.8181 878.361C36.3595 878.356 35.9179 878.513 35.5921 878.796C35.2663 879.079 35.0835 879.464 35.0847 879.866C35.0847 880.705 35.8608 881.385 36.8181 881.385C37.7754 881.385 38.5515 880.705 38.5515 879.866C38.5527 879.464 38.37 879.079 38.0442 878.796C37.7184 878.513 37.2767 878.356 36.8181 878.361ZM41.5077 893.303C36.5707 893.437 32.0937 890.025 31.2357 886.303C31.0877 885.404 32.3309 885.186 33.1436 885.359C35.8624 886.047 38.6819 886.382 41.5119 886.353C44.3354 886.382 47.1486 886.048 49.8616 885.362C50.6517 885.186 51.8782 885.385 51.7676 886.303C50.9902 889.98 46.4891 893.437 41.5077 893.303ZM48.4832 886.827C48.4751 886.831 48.7362 886.756 48.7284 886.759C46.3824 887.325 43.9573 887.6 41.71 887.672C38.6205 887.575 36.0236 887.292 34.2364 886.73C32.9407 886.392 33.1893 887.728 34.0999 888.137C36.4296 889.066 38.9642 889.535 41.71 889.672C44.5684 889.509 47.2814 888.888 49.0734 888.085C49.9213 887.608 50.089 886.327 48.7176 886.759C48.6405 886.785 48.5622 886.805 48.4832 886.827ZM46.2153 878.361C45.7567 878.356 45.315 878.513 44.9892 878.796C44.6633 879.079 44.4805 879.464 44.4816 879.866C44.4724 880.414 44.8008 880.924 45.341 881.2C45.8811 881.476 46.5492 881.476 47.0893 881.2C47.6294 880.924 47.9578 880.414 47.9487 879.866C47.9498 879.464 47.767 879.079 47.4413 878.796C47.1155 878.513 46.6739 878.357 46.2153 878.361Z" fill="#50555C"/>
<g filter="url(#filter5_d_2_2704)">
<rect x="322.28" y="804" width="99.296" height="42" rx="5" fill="#ACB3BF"/>
</g>
<path d="M351.468 830H352.827V824.938C352.827 823.789 353.514 823.031 354.569 823.031C354.897 823.031 355.186 823.07 355.296 823.109V821.789C355.186 821.773 354.983 821.734 354.749 821.734C353.796 821.734 353.046 822.305 352.78 823.203H352.749V821.875H351.468V830ZM359.872 822.914C361.153 822.914 362.005 823.883 362.036 825.242H357.622C357.708 823.891 358.599 822.914 359.872 822.914ZM362.005 827.672C361.778 828.438 361.021 828.961 359.989 828.961C358.528 828.961 357.614 827.938 357.614 826.383V826.305H363.443V825.789C363.443 823.328 362.091 821.734 359.896 821.734C357.653 821.734 356.216 823.445 356.216 825.969C356.216 828.523 357.63 830.141 359.958 830.141C361.732 830.141 363.107 829.094 363.341 827.672H362.005ZM365.855 819.914V821.875H364.644V822.992H365.855V827.891C365.855 829.453 366.433 830.062 367.925 830.062C368.246 830.062 368.621 830.039 368.785 830V828.859C368.691 828.875 368.378 828.898 368.222 828.898C367.527 828.898 367.214 828.562 367.214 827.82V822.992H368.793V821.875H367.214V819.914H365.855ZM377.518 821.875H376.158V826.648C376.158 828.031 375.361 828.938 374.041 828.938C372.783 828.938 372.166 828.227 372.166 826.906V821.875H370.807V827.148C370.807 828.992 371.846 830.141 373.619 830.141C374.869 830.141 375.713 829.617 376.197 828.68H376.228V830H377.518V821.875ZM379.883 830H381.243V824.938C381.243 823.789 381.93 823.031 382.985 823.031C383.313 823.031 383.602 823.07 383.711 823.109V821.789C383.602 821.773 383.399 821.734 383.164 821.734C382.211 821.734 381.461 822.305 381.196 823.203H381.164V821.875H379.883V830ZM385.421 830H386.78V825.219C386.78 823.844 387.616 822.938 388.897 822.938C390.147 822.938 390.764 823.656 390.764 824.969V830H392.124V824.727C392.124 822.883 391.093 821.734 389.311 821.734C388.053 821.734 387.186 822.297 386.733 823.172H386.702V821.875H385.421V830Z" fill="black"/>
<g filter="url(#filter6_d_2_2704)">
<rect x="106.568" y="804" width="208.864" height="42" rx="5" fill="white"/>
</g>
<path d="M190.36 824.117C190.36 825.227 191.063 825.961 192.493 826.328L193.923 826.695C194.837 826.938 195.173 827.25 195.173 827.828C195.173 828.562 194.493 829.031 193.391 829.031C192.29 829.031 191.649 828.578 191.501 827.734H190.141C190.282 829.172 191.524 830.141 193.305 830.141C195.204 830.141 196.54 829.141 196.54 827.727C196.54 826.531 195.946 825.938 194.305 825.523L193.048 825.219C192.126 824.984 191.696 824.609 191.696 824.047C191.696 823.336 192.352 822.844 193.344 822.844C194.344 822.844 194.977 823.328 195.071 824.109H196.368C196.305 822.734 195.071 821.734 193.391 821.734C191.602 821.734 190.36 822.727 190.36 824.117ZM202.499 821.734C201.319 821.734 200.374 822.336 199.874 823.25H199.843V821.875H198.554V832.711H199.913V828.68H199.944C200.429 829.57 201.366 830.141 202.53 830.141C204.577 830.141 205.976 828.484 205.976 825.938C205.976 823.391 204.569 821.734 202.499 821.734ZM202.233 828.945C200.843 828.945 199.905 827.75 199.905 825.938C199.905 824.133 200.843 822.93 202.233 822.93C203.679 822.93 204.585 824.102 204.585 825.938C204.585 827.781 203.679 828.945 202.233 828.945ZM210.63 828.984C209.654 828.984 209.005 828.477 209.005 827.703C209.005 826.938 209.63 826.453 210.724 826.383L212.896 826.25V826.914C212.896 828.086 211.912 828.984 210.63 828.984ZM210.326 830.141C211.419 830.141 212.451 829.531 212.935 828.602H212.966V830H214.255V824.383C214.255 822.766 213.052 821.734 211.146 821.734C209.224 821.734 208.021 822.812 207.927 824.219H209.24C209.412 823.422 210.068 822.93 211.115 822.93C212.24 822.93 212.896 823.523 212.896 824.516V825.195L210.568 825.328C208.693 825.438 207.623 826.312 207.623 827.703C207.623 829.164 208.708 830.141 210.326 830.141ZM223.332 824.539C223.16 823.078 221.949 821.734 219.918 821.734C217.676 821.734 216.183 823.375 216.183 825.938C216.183 828.555 217.683 830.141 219.933 830.141C221.777 830.141 223.137 829 223.348 827.383H222.012C221.777 828.359 221.051 828.945 219.941 828.945C218.535 828.945 217.566 827.828 217.566 825.938C217.566 824.094 218.519 822.93 219.926 822.93C221.121 822.93 221.808 823.656 222.004 824.539H223.332ZM228.455 822.914C229.737 822.914 230.588 823.883 230.619 825.242H226.205C226.291 823.891 227.182 822.914 228.455 822.914ZM230.588 827.672C230.362 828.438 229.604 828.961 228.573 828.961C227.112 828.961 226.198 827.938 226.198 826.383V826.305H232.026V825.789C232.026 823.328 230.674 821.734 228.479 821.734C226.237 821.734 224.799 823.445 224.799 825.969C224.799 828.523 226.213 830.141 228.541 830.141C230.315 830.141 231.69 829.094 231.924 827.672H230.588Z" fill="black"/>
<g filter="url(#filter7_d_2_2704)">
<rect x="3.42407" y="805" width="99.296" height="42" rx="5" fill="#ACB3BF"/>
</g>
<path d="M44.59 832H45.9494V820.727H44.5744L41.5744 822.883V824.367L44.5587 822.219H44.59V832ZM49.3384 823.977V823.984H50.6978V823.977C50.6978 822.719 51.6978 821.766 53.0181 821.766C54.2603 821.766 55.2525 822.633 55.2525 823.719C55.2525 824.656 54.8931 825.258 53.3775 826.852L49.4087 831.031V832H56.8462V830.75H51.354V830.719L54.2056 827.773C56.0884 825.828 56.6587 824.891 56.6587 823.633C56.6587 821.906 55.0728 820.539 53.0572 820.539C50.9322 820.539 49.3384 822.008 49.3384 823.977ZM61.3681 826.797H62.7822C64.3915 826.797 65.3915 827.617 65.3915 828.945C65.3915 830.125 64.3212 830.969 62.829 830.969C61.3134 830.969 60.3525 830.172 60.2275 829.016H58.8759C58.9775 830.883 60.4853 832.188 62.8447 832.188C65.0556 832.188 66.8212 830.836 66.8212 828.898C66.8212 827.312 65.7275 826.258 64.0244 826.156V826.125C65.4306 825.875 66.3369 824.859 66.3369 823.445C66.3369 821.75 64.8134 820.539 62.7978 820.539C60.6806 820.539 59.2587 821.766 59.1025 823.68H60.454C60.579 822.5 61.4384 821.758 62.7353 821.758C64.165 821.758 64.9228 822.516 64.9228 823.633C64.9228 824.773 64.0165 825.609 62.7197 825.609H61.3681V826.797Z" fill="black"/>
<g filter="url(#filter8_d_2_2704)">
<rect x="376.64" y="751" width="47.936" height="42" rx="5" fill="#ACB3BF"/>
</g>
<path d="M396.202 765.521C396.819 764.977 397.614 764.676 398.437 764.676H410.556C412.237 764.676 413.6 766.039 413.6 767.721V777.279C413.6 778.961 412.237 780.324 410.556 780.324H398.437C397.614 780.324 396.819 780.023 396.202 779.479L389.142 773.261C388.683 772.857 388.683 772.143 389.142 771.739L396.202 765.521Z" stroke="black" stroke-width="1.35294"/>
<path fill-rule="evenodd" clip-rule="evenodd" d="M407.91 769.299C408.211 769.563 408.211 769.992 407.91 770.256L405.16 772.665L407.91 775.074C408.211 775.338 408.211 775.767 407.91 776.031C407.608 776.295 407.119 776.295 406.818 776.031L404.068 773.622L401.319 776.031C401.017 776.295 400.528 776.295 400.227 776.031C399.925 775.767 399.925 775.338 400.227 775.074L402.976 772.665L400.227 770.256C399.925 769.992 399.925 769.563 400.227 769.299C400.528 769.035 401.017 769.035 401.319 769.299L404.068 771.708L406.818 769.299C407.119 769.035 407.608 769.035 407.91 769.299Z" fill="black"/>
<g filter="url(#filter9_d_2_2704)">
<rect x="3.42407" y="751" width="47.936" height="42" rx="5" fill="#ACB3BF"/>
</g>
<mask id="path-26-inside-1_2_2704" fill="white">
<path fill-rule="evenodd" clip-rule="evenodd" d="M28.2484 763.505C27.8662 763.155 27.2801 763.155 26.8979 763.505L16.7265 772.816C16.0535 773.432 16.4893 774.554 17.4017 774.554H22.0567V777.887C22.0567 778.821 22.0567 779.287 22.2383 779.644C22.3981 779.957 22.6531 780.212 22.9667 780.372C23.3232 780.554 23.7899 780.554 24.7234 780.554H30.4229C31.3563 780.554 31.823 780.554 32.1796 780.372C32.4932 780.212 32.7481 779.957 32.9079 779.644C33.0896 779.287 33.0896 778.821 33.0896 777.887V774.554H37.7446C38.6569 774.554 39.0928 773.432 38.4198 772.816L28.2484 763.505Z"/>
</mask>
<path d="M26.8979 763.505L27.7982 764.489L26.8979 763.505ZM28.2484 763.505L27.3481 764.489L28.2484 763.505ZM16.7265 772.816L15.8262 771.833L15.8262 771.833L16.7265 772.816ZM22.0567 774.554H23.39V773.22H22.0567V774.554ZM22.2383 779.644L21.0503 780.249L21.0503 780.249L22.2383 779.644ZM22.9667 780.372L23.572 779.184L23.572 779.184L22.9667 780.372ZM32.1796 780.372L31.5742 779.184L31.5742 779.184L32.1796 780.372ZM32.9079 779.644L34.0959 780.249L34.0959 780.249L32.9079 779.644ZM33.0896 774.554V773.22H31.7562V774.554H33.0896ZM38.4198 772.816L39.3201 771.833V771.833L38.4198 772.816ZM27.7982 764.489C27.6708 764.605 27.4755 764.605 27.3481 764.489L29.1486 762.522C28.2569 761.705 26.8894 761.705 25.9976 762.522L27.7982 764.489ZM17.6267 773.8L27.7982 764.489L25.9976 762.522L15.8262 771.833L17.6267 773.8ZM17.4017 773.22C17.7058 773.22 17.8511 773.594 17.6267 773.8L15.8262 771.833C14.2559 773.27 15.2729 775.887 17.4017 775.887V773.22ZM22.0567 773.22H17.4017V775.887H22.0567V773.22ZM23.39 777.887V774.554H20.7234V777.887H23.39ZM23.4264 779.038C23.4473 779.079 23.4243 779.069 23.4083 778.873C23.3911 778.662 23.39 778.376 23.39 777.887H20.7234C20.7234 778.332 20.7223 778.746 20.7505 779.09C20.7799 779.451 20.8478 779.852 21.0503 780.249L23.4264 779.038ZM23.572 779.184C23.5093 779.152 23.4583 779.101 23.4264 779.038L21.0503 780.249C21.338 780.814 21.7969 781.272 22.3614 781.56L23.572 779.184ZM24.7234 779.22C24.2346 779.22 23.9483 779.219 23.7373 779.202C23.5418 779.186 23.531 779.163 23.572 779.184L22.3614 781.56C22.7589 781.763 23.1597 781.831 23.5201 781.86C23.8649 781.888 24.2786 781.887 24.7234 781.887V779.22ZM30.4229 779.22H24.7234V781.887H30.4229V779.22ZM31.5742 779.184C31.6153 779.163 31.6045 779.186 31.409 779.202C31.198 779.219 30.9116 779.22 30.4229 779.22V781.887C30.8676 781.887 31.2813 781.888 31.6262 781.86C31.9865 781.831 32.3873 781.763 32.7849 781.56L31.5742 779.184ZM31.7199 779.038C31.688 779.101 31.637 779.152 31.5742 779.184L32.7849 781.56C33.3494 781.272 33.8083 780.814 34.0959 780.249L31.7199 779.038ZM31.7562 777.887C31.7562 778.376 31.7552 778.662 31.738 778.873C31.722 779.069 31.699 779.079 31.7199 779.038L34.0959 780.249C34.2985 779.852 34.3663 779.451 34.3958 779.09C34.424 778.746 34.4229 778.332 34.4229 777.887H31.7562ZM31.7562 774.554V777.887H34.4229V774.554H31.7562ZM37.7446 773.22H33.0896V775.887H37.7446V773.22ZM37.5195 773.8C37.2952 773.594 37.4405 773.22 37.7446 773.22V775.887C39.8734 775.887 40.8903 773.27 39.3201 771.833L37.5195 773.8ZM27.3481 764.489L37.5195 773.8L39.3201 771.833L29.1486 762.522L27.3481 764.489Z" fill="black" mask="url(#path-26-inside-1_2_2704)"/>
<g filter="url(#filter10_d_2_2704)">
<rect x="325.28" y="751" width="35.3813" height="42" rx="5" fill="white"/>
</g>
<path d="M335.033 778H336.644V770.2C336.644 768.039 337.987 766.538 339.855 766.538C341.588 766.538 342.76 767.722 342.76 769.541V778H344.384V770.004C344.384 767.978 345.678 766.538 347.558 766.538C349.401 766.538 350.499 767.722 350.499 769.687V778H352.111V769.321C352.111 766.757 350.487 765.097 348.009 765.097C346.093 765.097 344.603 766.208 344.005 767.771H343.969C343.493 766.171 342.15 765.097 340.294 765.097C338.451 765.097 337.145 766.159 336.596 767.648H336.559V765.305H335.033V778Z" fill="black"/>
<g filter="url(#filter11_d_2_2704)">
<rect x="281.909" y="751" width="35.3813" height="42" rx="5" fill="white"/>
</g>
<path d="M295.651 778H297.262V770.48C297.262 768.125 298.739 766.538 300.937 766.538C303.061 766.538 304.281 767.807 304.281 770.029V778H305.893V769.772C305.893 766.892 304.184 765.097 301.401 765.097C299.35 765.097 297.861 766.11 297.214 767.648H297.177V765.305H295.651V778Z" fill="black"/>
<g filter="url(#filter12_d_2_2704)">
<rect x="239.68" y="751" width="35.3813" height="42" rx="5" fill="white"/>
</g>
<path d="M258.613 778.208C261.811 778.208 263.984 775.607 263.984 771.652C263.984 767.697 261.811 765.097 258.625 765.097C256.635 765.097 254.999 766.208 254.279 767.954H254.243V760.385H252.619V778H254.169V775.314H254.206C254.963 777.097 256.586 778.208 258.613 778.208ZM258.308 766.525C260.749 766.525 262.324 768.552 262.324 771.652C262.324 774.765 260.749 776.779 258.308 776.779C255.915 776.779 254.23 774.704 254.23 771.652C254.23 768.613 255.927 766.525 258.308 766.525Z" fill="black"/>
<g filter="url(#filter13_d_2_2704)">
<rect x="196.309" y="751" width="35.3813" height="42" rx="5" fill="white"/>
</g>
<path d="M220.149 765.305H218.465L214.595 776.303H214.558L210.701 765.305H208.992L213.716 778H215.437L220.149 765.305Z" fill="black"/>
<g filter="url(#filter14_d_2_2704)">
<rect x="152.939" y="751" width="35.3813" height="42" rx="5" fill="white"/>
</g>
<path d="M177.313 769.321C176.995 767.05 175.079 765.097 172.088 765.097C168.634 765.097 166.351 767.648 166.351 771.652C166.351 775.717 168.634 778.208 172.1 778.208C174.908 778.208 176.971 776.499 177.325 774.069H175.726C175.36 775.717 174.029 776.779 172.113 776.779C169.634 776.779 167.999 774.838 167.999 771.652C167.999 768.515 169.622 766.525 172.1 766.525C174.102 766.525 175.384 767.758 175.726 769.321H177.313Z" fill="black"/>
<g filter="url(#filter15_d_2_2704)">
<rect x="110.709" y="751" width="35.3813" height="42" rx="5" fill="white"/>
</g>
<path d="M128.971 772.788L132.45 778H134.269L129.874 771.555L134.305 765.305H132.486L129.02 770.395H128.983L125.504 765.305H123.673L128.08 771.616L123.624 778H125.431L128.934 772.788H128.971Z" fill="black"/>
<g filter="url(#filter16_d_2_2704)">
<rect x="67.3386" y="751" width="35.3813" height="42" rx="5" fill="white"/>
</g>
<path d="M80.888 778H90.3241V776.657H82.7435V776.621L90.2997 766.525V765.305H80.888V766.647H88.4442V766.684L80.888 776.804V778Z" fill="black"/>
<g filter="url(#filter17_d_2_2704)">
<rect x="367.509" y="697" width="35.3813" height="42" rx="5" fill="white"/>
</g>
<path d="M385.536 724H387.147V706.385H385.536V724Z" fill="black"/>
<g filter="url(#filter18_d_2_2704)">
<rect x="324.139" y="697" width="35.3813" height="42" rx="5" fill="white"/>
</g>
<path d="M339.678 717.311V706.385H338.054V724H339.678V719.081L341.094 717.774L346.172 724H348.064L342.254 716.786L347.954 711.305H345.952L339.678 717.311Z" fill="black"/>
<g filter="url(#filter19_d_2_2704)">
<rect x="281.909" y="697" width="35.3813" height="42" rx="5" fill="white"/>
</g>
<path d="M301.547 711.305H299.936V724.83C299.936 726.368 299.338 726.954 297.836 726.954C297.824 726.954 297.519 726.954 297.507 726.954V728.321C297.519 728.333 297.861 728.333 297.897 728.333C300.375 728.333 301.547 727.271 301.547 724.806V711.305ZM300.741 708.741C301.34 708.741 301.828 708.265 301.828 707.667C301.828 707.081 301.34 706.605 300.741 706.605C300.155 706.605 299.667 707.081 299.667 707.667C299.667 708.265 300.155 708.741 300.741 708.741Z" fill="black"/>
<g filter="url(#filter20_d_2_2704)">
<rect x="238.539" y="697" width="35.3813" height="42" rx="5" fill="white"/>
</g>
<path d="M251.698 724H253.321V716.529C253.321 714.137 254.798 712.538 257.081 712.538C259.229 712.538 260.462 713.868 260.462 716.065V724H262.086V715.797C262.086 712.953 260.328 711.097 257.545 711.097C255.518 711.097 254.005 712.086 253.358 713.648H253.321V706.385H251.698V724Z" fill="black"/>
<g filter="url(#filter21_d_2_2704)">
<rect x="196.309" y="697" width="35.3813" height="42" rx="5" fill="white"/>
</g>
<path d="M214.217 722.694C211.824 722.694 210.225 720.692 210.225 717.628C210.225 714.54 211.824 712.525 214.217 712.525C216.658 712.525 218.306 714.576 218.306 717.616C218.306 720.655 216.658 722.694 214.217 722.694ZM214.375 728.7C217.769 728.7 219.93 726.747 219.93 723.792V711.305H218.391V713.99H218.355C217.61 712.257 215.987 711.097 213.96 711.097C210.713 711.097 208.565 713.673 208.565 717.616C208.565 721.546 210.713 724.122 213.924 724.122C215.95 724.122 217.586 722.938 218.269 721.302H218.306V723.854C218.306 725.929 216.829 727.308 214.449 727.308C212.605 727.308 211.25 726.417 210.835 725.172H209.163C209.517 727.174 211.604 728.7 214.375 728.7Z" fill="black"/>
<g filter="url(#filter22_d_2_2704)">
<rect x="152.939" y="697" width="35.3813" height="42" rx="5" fill="white"/>
</g>
<path d="M169.686 724H171.31V712.647H174.032V711.305H171.298V709.73C171.298 708.314 171.945 707.691 173.165 707.691C173.507 707.691 173.849 707.728 174.105 707.777V706.446C173.837 706.397 173.373 706.349 172.933 706.349C170.809 706.349 169.686 707.398 169.686 709.693V711.305H167.916V712.647H169.686V724Z" fill="black"/>
<g filter="url(#filter23_d_2_2704)">
<rect x="110.709" y="697" width="35.3813" height="42" rx="5" fill="white"/>
</g>
<path d="M128.324 724.208C130.375 724.208 131.998 723.023 132.718 721.314H132.755V724H134.293V706.385H132.67V713.917H132.633C131.962 712.269 130.338 711.097 128.287 711.097C125.101 711.097 122.892 713.697 122.892 717.652C122.892 721.595 125.113 724.208 128.324 724.208ZM128.605 712.525C131.022 712.525 132.682 714.588 132.682 717.652C132.682 720.729 131.022 722.779 128.605 722.779C126.163 722.779 124.552 720.753 124.552 717.652C124.552 714.552 126.163 712.525 128.605 712.525Z" fill="black"/>
<g filter="url(#filter24_d_2_2704)">
<rect x="67.3386" y="697" width="35.3813" height="42" rx="5" fill="white"/>
</g>
<path d="M81.0711 714.698C81.0711 716.383 82.1698 717.469 84.4647 718.043L86.5277 718.556C88.2245 718.971 88.8592 719.557 88.8592 720.655C88.8592 721.986 87.6019 722.877 85.6976 722.877C83.7933 722.877 82.5482 721.949 82.3163 720.448H80.7049C80.9125 722.682 82.8778 724.208 85.6 724.208C88.4686 724.208 90.4828 722.682 90.4828 720.533C90.4828 718.714 89.5306 717.787 86.9916 717.152L85.1117 716.7C83.4149 716.285 82.6703 715.65 82.6703 714.613C82.6703 713.343 83.8543 712.428 85.5877 712.428C87.3456 712.428 88.5052 713.355 88.7005 714.857H90.2508C90.0921 712.623 88.2367 711.097 85.6366 711.097C82.951 711.097 81.0711 712.599 81.0711 714.698Z" fill="black"/>
<g filter="url(#filter25_d_2_2704)">
<rect x="25.1094" y="697" width="35.3813" height="42" rx="5" fill="white"/>
</g>
<path d="M43.2334 722.816C41.5122 722.816 40.3281 721.864 40.3281 720.484C40.3281 719.081 41.4389 718.214 43.4409 718.08L47.2007 717.823V719.227C47.2007 721.241 45.455 722.816 43.2334 722.816ZM42.9038 724.208C44.7959 724.208 46.5293 723.158 47.2373 721.583H47.2739V724H48.812V715.309C48.812 712.721 46.9931 711.097 44.1001 711.097C41.207 711.097 39.3393 712.708 39.1562 714.979H40.7187C40.9995 713.441 42.1958 712.525 44.0634 712.525C46.041 712.525 47.2007 713.624 47.2007 715.455V716.554L43.2456 716.798C40.3159 716.993 38.6923 718.312 38.6923 720.484C38.6923 722.706 40.4013 724.208 42.9038 724.208Z" fill="black"/>
<g filter="url(#filter26_d_2_2704)">
<rect x="389.195" y="643" width="35.3813" height="42" rx="5" fill="white"/>
</g>
<path d="M408.03 657.097C405.967 657.097 404.355 658.306 403.66 659.99H403.611V657.305H402.085V674.199H403.696V667.388H403.745C404.416 669.036 406.016 670.208 408.066 670.208C411.252 670.208 413.437 667.607 413.437 663.652C413.437 659.709 411.24 657.097 408.03 657.097ZM407.749 668.779C405.344 668.779 403.696 666.716 403.696 663.652C403.696 660.601 405.344 658.525 407.749 658.525C410.203 658.525 411.79 660.564 411.79 663.652C411.79 666.753 410.203 668.779 407.749 668.779Z" fill="black"/>
<g filter="url(#filter27_d_2_2704)">
<rect x="345.824" y="643" width="35.3813" height="42" rx="5" fill="white"/>
</g>
<path d="M364.085 670.208C367.54 670.208 369.872 667.681 369.872 663.652C369.872 659.612 367.54 657.097 364.085 657.097C360.643 657.097 358.299 659.612 358.299 663.652C358.299 667.681 360.631 670.208 364.085 670.208ZM364.085 668.779C361.595 668.779 359.947 666.875 359.947 663.652C359.947 660.43 361.595 658.525 364.085 658.525C366.576 658.525 368.236 660.43 368.236 663.652C368.236 666.875 366.576 668.779 364.085 668.779Z" fill="black"/>
<g filter="url(#filter28_d_2_2704)">
<rect x="303.595" y="643" width="35.3813" height="42" rx="5" fill="white"/>
</g>
<path d="M321.621 670H323.232V657.305H321.621V670ZM322.427 654.741C323.025 654.741 323.513 654.265 323.513 653.667C323.513 653.081 323.025 652.605 322.427 652.605C321.841 652.605 321.352 653.081 321.352 653.667C321.352 654.265 321.841 654.741 322.427 654.741Z" fill="black"/>
<g filter="url(#filter29_d_2_2704)">
<rect x="260.224" y="643" width="35.3813" height="42" rx="5" fill="white"/>
</g>
<path d="M284.146 657.305H282.535V664.836C282.535 667.217 281.046 668.767 278.836 668.767C276.712 668.767 275.516 667.522 275.516 665.276V657.305H273.893V665.557C273.893 668.413 275.614 670.208 278.373 670.208C280.387 670.208 281.913 669.207 282.584 667.644H282.621V670H284.146V657.305Z" fill="black"/>
<g filter="url(#filter30_d_2_2704)">
<rect x="217.995" y="643" width="35.3813" height="42" rx="5" fill="white"/>
</g>
<path d="M232.753 674.59C234.84 674.59 235.744 673.76 236.854 670.769L241.847 657.305H240.15L236.281 668.389H236.244L232.387 657.305H230.653L235.414 670.085L235.072 671.038C234.511 672.625 233.876 673.21 232.716 673.21C232.46 673.21 232.142 673.186 231.947 673.137V674.517C232.13 674.553 232.496 674.59 232.753 674.59Z" fill="black"/>
<g filter="url(#filter31_d_2_2704)">
<rect x="174.624" y="643" width="35.3813" height="42" rx="5" fill="white"/>
</g>
<path d="M191.421 654.131V657.305H189.528V658.647H191.421V666.875C191.421 669.17 192.275 670.073 194.399 670.073C194.741 670.073 195.424 670.037 195.595 670V668.621C195.498 668.645 194.887 668.669 194.716 668.669C193.545 668.669 193.032 668.108 193.032 666.802V658.647H195.534V657.305H193.032V654.131H191.421Z" fill="black"/>
<g filter="url(#filter32_d_2_2704)">
<rect x="132.395" y="643" width="35.3813" height="42" rx="5" fill="white"/>
</g>
<path d="M148.288 670H149.899V662.09C149.899 660.039 151.047 658.635 152.853 658.635C153.403 658.635 153.854 658.721 154.062 658.818V657.231C153.867 657.183 153.488 657.097 153.061 657.097C151.498 657.097 150.314 658.013 149.85 659.563H149.814V657.305H148.288V670Z" fill="black"/>
<g filter="url(#filter33_d_2_2704)">
<rect x="89.0242" y="643" width="35.3813" height="42" rx="5" fill="white"/>
</g>
<path d="M107.917 658.513C110.212 658.513 111.738 660.259 111.775 662.761H103.938C104.072 660.259 105.647 658.513 107.917 658.513ZM111.677 666.399C111.323 667.791 109.992 668.792 108.076 668.792C105.549 668.792 103.926 667.009 103.926 664.141V664.043H113.435V663.359C113.435 659.575 111.311 657.097 107.942 657.097C104.499 657.097 102.265 659.746 102.265 663.689C102.265 667.717 104.475 670.208 108.039 670.208C110.835 670.208 112.898 668.596 113.276 666.399H111.677Z" fill="black"/>
<g filter="url(#filter34_d_2_2704)">
<rect x="46.7947" y="643" width="35.3813" height="42" rx="5" fill="white"/>
</g>
<path d="M73.5398 657.305H71.9163L69.0721 668.193H69.0354L65.8738 657.305H64.2381L61.0764 668.193H61.0398L58.1956 657.305H56.5598L60.1731 670H61.8821L65.0315 659.465H65.0681L68.2298 670H69.9387L73.5398 657.305Z" fill="black"/>
<g filter="url(#filter35_d_2_2704)">
<rect x="3.42407" y="643" width="35.3813" height="42" rx="5" fill="white"/>
</g>
<path d="M21.075 657.097C17.8524 657.097 15.6673 659.697 15.6673 663.652C15.6673 667.607 17.8402 670.208 21.0506 670.208C23.077 670.208 24.7127 669.036 25.4085 667.351H25.4451V674.199H27.0687V657.305H25.5306V659.99H25.4818C24.7616 658.281 23.1502 657.097 21.075 657.097ZM21.3436 668.779C18.9144 668.779 17.3275 666.765 17.3275 663.652C17.3275 660.54 18.9144 658.525 21.3436 658.525C23.7484 658.525 25.4451 660.588 25.4451 663.652C25.4451 666.716 23.7484 668.779 21.3436 668.779Z" fill="black"/>
<rect x="322" y="804" width="103" height="43" rx="6" fill="#0F77F0"/>
<path d="M321 809.5C321 809.224 321.224 809 321.5 809C321.776 809 322 809.224 322 809.5V841.5C322 841.776 321.776 842 321.5 842C321.224 842 321 841.776 321 841.5V809.5Z" fill="#C0C3C9"/>
<path d="M370.226 831.266C373.109 831.266 375.015 829.422 375.015 826.641V825.266H370.445V826.5H373.609V826.773C373.609 828.68 372.25 829.969 370.234 829.969C367.968 829.969 366.554 828.203 366.554 825.367V825.352C366.554 822.555 367.992 820.758 370.226 820.758C371.906 820.758 373.039 821.555 373.5 823.008L373.523 823.086H374.945L374.929 823.008C374.484 820.867 372.726 819.461 370.226 819.461C367.14 819.461 365.117 821.797 365.117 825.352V825.367C365.117 828.969 367.109 831.266 370.226 831.266ZM380.477 831.148C382.875 831.148 384.359 829.492 384.359 826.797V826.781C384.359 824.078 382.875 822.43 380.477 822.43C378.078 822.43 376.594 824.078 376.594 826.781V826.797C376.594 829.492 378.078 831.148 380.477 831.148ZM380.477 829.945C378.883 829.945 377.984 828.781 377.984 826.797V826.781C377.984 824.789 378.883 823.633 380.477 823.633C382.07 823.633 382.969 824.789 382.969 826.781V826.797C382.969 828.781 382.07 829.945 380.477 829.945Z" fill="white"/>
<rect x="25.5" y="103.5" width="106" height="5" fill="#FFA800" stroke="black"/>
<rect x="296.5" y="103.5" width="106" height="5" fill="#FAF1AC" stroke="black"/>
<rect x="160.5" y="103.5" width="106" height="5" fill="#FAF1AC" stroke="black"/>
<path fill-rule="evenodd" clip-rule="evenodd" d="M328.805 17.5768H327.458C326.715 17.5768 326.112 18.158 326.112 18.8749V30.1249C326.112 30.8418 326.715 31.423 327.458 31.423H328.805C329.548 31.423 330.151 30.8418 330.151 30.1249V18.8749C330.151 18.158 329.548 17.5768 328.805 17.5768ZM321.124 20.6059H322.47C323.213 20.6059 323.816 21.187 323.816 21.9039V30.1251C323.816 30.842 323.213 31.4232 322.47 31.4232H321.124C320.38 31.4232 319.777 30.842 319.777 30.1251V21.9039C319.777 21.187 320.38 20.6059 321.124 20.6059ZM316.135 23.6345H314.789C314.045 23.6345 313.443 24.2156 313.443 24.9325V30.1248C313.443 30.8417 314.045 31.4229 314.789 31.4229H316.135C316.878 31.4229 317.481 30.8417 317.481 30.1248V24.9325C317.481 24.2156 316.878 23.6345 316.135 23.6345ZM309.8 26.2306H308.454C307.71 26.2306 307.108 26.8117 307.108 27.5286V30.1248C307.108 30.8417 307.71 31.4229 308.454 31.4229H309.8C310.543 31.4229 311.146 30.8417 311.146 30.1248V27.5286C311.146 26.8117 310.543 26.2306 309.8 26.2306Z" fill="black"/>
<path d="M340.983 31.4107C343.38 31.4107 345.068 29.8016 345.068 27.4669V27.4511C345.068 25.2662 343.538 23.6729 341.401 23.6729C340.352 23.6729 339.46 24.1146 338.979 24.8797H338.845L339.192 21.2514H344.422V19.7528H337.804L337.236 26.3626H338.758C338.892 26.1023 339.074 25.8815 339.279 25.7C339.728 25.2899 340.32 25.0848 341.014 25.0848C342.387 25.0848 343.38 26.0786 343.38 27.4826V27.4984C343.38 28.9261 342.402 29.9278 340.998 29.9278C339.752 29.9278 338.845 29.1312 338.695 28.1294L338.687 28.0663H337.031L337.039 28.1689C337.197 30.0146 338.743 31.4107 340.983 31.4107ZM352.108 31.4107C355.089 31.4107 357.022 29.5413 357.022 26.6544V25.2426H352.352V26.6702H355.279V26.9226C355.263 28.6737 353.993 29.8489 352.132 29.8489C349.994 29.8489 348.653 28.161 348.653 25.4398V25.424C348.653 22.7422 349.986 21.0385 352.092 21.0385C353.654 21.0385 354.742 21.7957 355.153 23.1445L355.176 23.2233H356.943L356.927 23.1445C356.517 20.9438 354.679 19.4767 352.092 19.4767C348.906 19.4767 346.847 21.8193 346.847 25.4319V25.4476C346.847 29.1075 348.882 31.4107 352.108 31.4107Z" fill="black"/>
<rect opacity="0.4" x="364.343" y="17.5769" width="27.6923" height="13.8462" rx="4.03846" stroke="black" stroke-width="1.15385"/>
<path opacity="0.5" d="M393.766 22.1923V26.8077C394.696 26.4168 395.301 25.5075 395.301 24.5C395.301 23.4925 394.696 22.5832 393.766 22.1923Z" fill="black"/>
<rect x="366.074" y="19.3077" width="19.6154" height="10.3846" rx="2.30769" fill="black"/>
<path d="M51.2676 11.001C48.5166 11.001 46.5566 12.8818 46.5566 15.457V15.4746C46.5566 17.8828 48.2617 19.6582 50.6963 19.6582C52.4365 19.6582 53.5439 18.7705 54.0098 17.7686H54.1855C54.1855 17.8652 54.1768 17.9619 54.1768 18.0586C54.0801 20.4844 53.2275 22.4531 51.2148 22.4531C50.0986 22.4531 49.3164 21.873 48.9824 20.9854L48.9561 20.8975H46.7236L46.7412 20.9941C47.1455 22.9365 48.8857 24.3164 51.2148 24.3164C54.4053 24.3164 56.3301 21.7852 56.3301 17.5137V17.4961C56.3301 12.9258 53.9746 11.001 51.2676 11.001ZM51.2588 17.918C49.8174 17.918 48.7715 16.8633 48.7715 15.3955V15.3779C48.7715 13.9629 49.8877 12.8467 51.2852 12.8467C52.6914 12.8467 53.79 13.9805 53.79 15.4307V15.4482C53.79 16.8809 52.6914 17.918 51.2588 17.918ZM59.8203 15.7822C60.6289 15.7822 61.2178 15.167 61.2178 14.3936C61.2178 13.6113 60.6289 13.0049 59.8203 13.0049C59.0205 13.0049 58.4229 13.6113 58.4229 14.3936C58.4229 15.167 59.0205 15.7822 59.8203 15.7822ZM59.8203 22.3037C60.6289 22.3037 61.2178 21.6973 61.2178 20.915C61.2178 20.1328 60.6289 19.5264 59.8203 19.5264C59.0205 19.5264 58.4229 20.1328 58.4229 20.915C58.4229 21.6973 59.0205 22.3037 59.8203 22.3037ZM69.4629 24H71.6338V21.5654H73.3389V19.6934H71.6338V11.3174H68.4258C66.7031 13.9365 64.9014 16.8545 63.2578 19.7109V21.5654H69.4629V24ZM65.3672 19.7461V19.6143C66.5977 17.4609 68.0654 15.1143 69.3662 13.1279H69.498V19.7461H65.3672ZM78.0947 24H80.3623V11.3174H78.1035L74.79 13.6465V15.7822L77.9453 13.5498H78.0947V24Z" fill="black"/>
<path d="M87.9448 17.937L93.2036 17.9517C93.2915 17.9517 93.3062 17.959 93.3062 18.0542L93.3208 23.291C93.3208 24.6533 95.042 24.9536 95.6426 23.6499L101.019 11.9751C101.656 10.5981 100.594 9.63867 99.2461 10.2539L87.52 15.6519C86.3042 16.2085 86.5605 17.9297 87.9448 17.937Z" fill="black"/>
<path d="M24.376 41H25.6382L26.3418 38.9053H29.3066L30.0049 41H31.2725L28.4741 33.2495H27.1743L24.376 41ZM27.7759 34.6084H27.8672L28.9844 37.9385H26.6641L27.7759 34.6084ZM32.4913 42.9443H33.6569V40.0762H33.7428C34.0543 40.7046 34.7364 41.0967 35.5367 41.0967C37.0192 41.0967 37.9537 39.9365 37.9537 38.0889V38.0781C37.9537 36.2412 37.0084 35.0649 35.5367 35.0649C34.7203 35.0649 34.0812 35.4463 33.7428 36.0854H33.6569V35.167H32.4913V42.9443ZM35.2091 40.103C34.2369 40.103 33.6354 39.335 33.6354 38.0889V38.0781C33.6354 36.832 34.2369 36.064 35.2091 36.064C36.1813 36.064 36.7667 36.8213 36.7667 38.0781V38.0889C36.7667 39.3403 36.1813 40.103 35.2091 40.103ZM39.3606 42.9443H40.5261V40.0762H40.6121C40.9236 40.7046 41.6057 41.0967 42.406 41.0967C43.8884 41.0967 44.823 39.9365 44.823 38.0889V38.0781C44.823 36.2412 43.8777 35.0649 42.406 35.0649C41.5896 35.0649 40.9504 35.4463 40.6121 36.0854H40.5261V35.167H39.3606V42.9443ZM42.0784 40.103C41.1062 40.103 40.5046 39.335 40.5046 38.0889V38.0781C40.5046 36.832 41.1062 36.064 42.0784 36.064C43.0505 36.064 43.636 36.8213 43.636 38.0781V38.0889C43.636 39.3403 43.0505 40.103 42.0784 40.103ZM51.998 41.188C53.8027 41.188 54.9575 40.2642 54.9575 38.7817V38.7764C54.9575 37.627 54.2915 36.9717 52.664 36.6226L51.8208 36.4346C50.8164 36.2197 50.4082 35.8438 50.4082 35.269V35.2637C50.4082 34.5332 51.0796 34.1089 51.9873 34.1089C52.9272 34.1035 53.5342 34.5654 53.6362 35.1992L53.647 35.269H54.8125L54.8071 35.1938C54.7212 33.9907 53.647 33.0615 52.0034 33.0615C50.3598 33.0615 49.1997 33.9854 49.1943 35.3228V35.3281C49.1943 36.4722 49.8711 37.2026 51.4448 37.5356L52.2934 37.7183C53.3193 37.9385 53.7383 38.3252 53.7383 38.9214V38.9268C53.7383 39.6465 53.0346 40.1406 52.0464 40.1406C51.0097 40.1406 50.2632 39.6895 50.1987 38.9858L50.1933 38.9268H49.0117L49.0171 38.9966C49.1245 40.3018 50.2471 41.188 51.998 41.188ZM58.6148 41.0376C58.8404 41.0376 59.0553 41.0107 59.2433 40.9785V40.0493C59.0821 40.0654 58.9801 40.0708 58.8028 40.0708C58.2281 40.0708 57.9918 39.813 57.9918 39.1846V36.0854H59.2433V35.167H57.9918V33.6953H56.8048V35.167H55.8917V36.0854H56.8048V39.4639C56.8048 40.5864 57.3312 41.0376 58.6148 41.0376ZM63.0134 41.1128C64.7214 41.1128 65.7688 39.9688 65.7688 38.0889V38.0781C65.7688 36.1982 64.716 35.0542 63.0134 35.0542C61.3054 35.0542 60.2527 36.2036 60.2527 38.0781V38.0889C60.2527 39.9688 61.3 41.1128 63.0134 41.1128ZM63.0134 40.1406C62.009 40.1406 61.445 39.3833 61.445 38.0889V38.0781C61.445 36.7837 62.009 36.0264 63.0134 36.0264C64.0124 36.0264 64.5818 36.7837 64.5818 38.0781V38.0889C64.5818 39.3779 64.0124 40.1406 63.0134 40.1406ZM67.1649 41H68.3304V37.5142C68.3304 36.6709 68.9373 36.123 69.8289 36.123C70.0492 36.123 70.2479 36.1499 70.4574 36.1929V35.1187C70.3392 35.0918 70.1351 35.0649 69.9471 35.0649C69.1683 35.0649 68.6258 35.4302 68.4163 36.0479H68.3304V35.167H67.1649V41ZM73.873 41.1128C75.3662 41.1128 76.1718 40.2534 76.3652 39.4854L76.3759 39.437L75.2534 39.4424L75.2319 39.4854C75.0922 39.7861 74.6464 40.1567 73.8999 40.1567C72.9384 40.1567 72.3261 39.5068 72.3046 38.3896H76.4404V37.9814C76.4404 36.2305 75.4414 35.0542 73.8139 35.0542C72.1865 35.0542 71.1338 36.2734 71.1338 38.0942V38.0996C71.1338 39.9473 72.165 41.1128 73.873 41.1128ZM73.8193 36.0103C74.6088 36.0103 75.1943 36.5151 75.2856 37.5571H72.3208C72.4228 36.5527 73.0244 36.0103 73.8193 36.0103Z" fill="black"/>
<path d="M19.5234 33.8115C19.3345 33.8115 19.1851 33.8906 18.9785 33.9917L13.4326 36.6768C13.0415 36.8657 12.8965 37.0635 12.8965 37.3315C12.8965 37.5996 13.0415 37.7974 13.4326 37.9907L18.9785 40.6714C19.1895 40.7725 19.3389 40.8516 19.5234 40.8516C19.875 40.8516 20.1211 40.5835 20.1211 40.1528V34.5103C20.1211 34.084 19.875 33.8115 19.5234 33.8115Z" fill="black"/>
<defs>
<filter id="filter0_d_2_2704" x="39" y="286" width="357.863" height="33" filterUnits="userSpaceOnUse" color-interpolation-filters="sRGB">
<feFlood flood-opacity="0" result="BackgroundImageFix"/>
<feColorMatrix in="SourceAlpha" type="matrix" values="0 0 0 0 0 0 0 0 0 0 0 0 0 0 0 0 0 0 127 0" result="hardAlpha"/>
<feOffset dx="4" dy="4"/>
<feGaussianBlur stdDeviation="2"/>
<feComposite in2="hardAlpha" operator="out"/>
<feColorMatrix type="matrix" values="0 0 0 0 0 0 0 0 0 0 0 0 0 0 0 0 0 0 0.25 0"/>
<feBlend mode="normal" in2="BackgroundImageFix" result="effect1_dropShadow_2_2704"/>
<feBlend mode="normal" in="SourceGraphic" in2="effect1_dropShadow_2_2704" result="shape"/>
</filter>
<filter id="filter1_d_2_2704" x="32" y="416" width="366" height="79" filterUnits="userSpaceOnUse" color-interpolation-filters="sRGB">
<feFlood flood-opacity="0" result="BackgroundImageFix"/>
<feColorMatrix in="SourceAlpha" type="matrix" values="0 0 0 0 0 0 0 0 0 0 0 0 0 0 0 0 0 0 127 0" result="hardAlpha"/>
<feOffset dy="4"/>
<feGaussianBlur stdDeviation="2"/>
<feComposite in2="hardAlpha" operator="out"/>
<feColorMatrix type="matrix" values="0 0 0 0 0 0 0 0 0 0 0 0 0 0 0 0 0 0 0.25 0"/>
<feBlend mode="normal" in2="BackgroundImageFix" result="effect1_dropShadow_2_2704"/>
<feBlend mode="normal" in="SourceGraphic" in2="effect1_dropShadow_2_2704" result="shape"/>
</filter>
<filter id="filter2_d_2_2704" x="57" y="425" width="304" height="48" filterUnits="userSpaceOnUse" color-interpolation-filters="sRGB">
<feFlood flood-opacity="0" result="BackgroundImageFix"/>
<feColorMatrix in="SourceAlpha" type="matrix" values="0 0 0 0 0 0 0 0 0 0 0 0 0 0 0 0 0 0 127 0" result="hardAlpha"/>
<feOffset dy="4"/>
<feGaussianBlur stdDeviation="2"/>
<feComposite in2="hardAlpha" operator="out"/>
<feColorMatrix type="matrix" values="0 0 0 0 0 0 0 0 0 0 0 0 0 0 0 0 0 0 0.25 0"/>
<feBlend mode="normal" in2="BackgroundImageFix" result="effect1_dropShadow_2_2704"/>
<feBlend mode="normal" in="SourceGraphic" in2="effect1_dropShadow_2_2704" result="shape"/>
</filter>
<filter id="filter3_d_2_2704" x="39" y="425" width="352" height="61" filterUnits="userSpaceOnUse" color-interpolation-filters="sRGB">
<feFlood flood-opacity="0" result="BackgroundImageFix"/>
<feColorMatrix in="SourceAlpha" type="matrix" values="0 0 0 0 0 0 0 0 0 0 0 0 0 0 0 0 0 0 127 0" result="hardAlpha"/>
<feOffset dy="4"/>
<feGaussianBlur stdDeviation="2"/>
<feComposite in2="hardAlpha" operator="out"/>
<feColorMatrix type="matrix" values="0 0 0 0 0 0 0 0 0 0 0 0 0 0 0 0 0 0 0.25 0"/>
<feBlend mode="normal" in2="BackgroundImageFix" result="effect1_dropShadow_2_2704"/>
<feBlend mode="normal" in="SourceGraphic" in2="effect1_dropShadow_2_2704" result="shape"/>
</filter>
<filter id="filter4_b_2_2704" x="-81.5485" y="553.452" width="591.097" height="454.097" filterUnits="userSpaceOnUse" color-interpolation-filters="sRGB">
<feFlood flood-opacity="0" result="BackgroundImageFix"/>
<feGaussianBlur in="BackgroundImage" stdDeviation="40.7742"/>
<feComposite in2="SourceAlpha" operator="in" result="effect1_backgroundBlur_2_2704"/>
<feBlend mode="normal" in="SourceGraphic" in2="effect1_backgroundBlur_2_2704" result="shape"/>
</filter>
<filter id="filter5_d_2_2704" x="322.28" y="804" width="99.296" height="43" filterUnits="userSpaceOnUse" color-interpolation-filters="sRGB">
<feFlood flood-opacity="0" result="BackgroundImageFix"/>
<feColorMatrix in="SourceAlpha" type="matrix" values="0 0 0 0 0 0 0 0 0 0 0 0 0 0 0 0 0 0 127 0" result="hardAlpha"/>
<feOffset dy="1"/>
<feColorMatrix type="matrix" values="0 0 0 0 0 0 0 0 0 0 0 0 0 0 0 0 0 0 0.35 0"/>
<feBlend mode="normal" in2="BackgroundImageFix" result="effect1_dropShadow_2_2704"/>
<feBlend mode="normal" in="SourceGraphic" in2="effect1_dropShadow_2_2704" result="shape"/>
</filter>
<filter id="filter6_d_2_2704" x="106.568" y="804" width="208.864" height="43" filterUnits="userSpaceOnUse" color-interpolation-filters="sRGB">
<feFlood flood-opacity="0" result="BackgroundImageFix"/>
<feColorMatrix in="SourceAlpha" type="matrix" values="0 0 0 0 0 0 0 0 0 0 0 0 0 0 0 0 0 0 127 0" result="hardAlpha"/>
<feOffset dy="1"/>
<feColorMatrix type="matrix" values="0 0 0 0 0 0 0 0 0 0 0 0 0 0 0 0 0 0 0.35 0"/>
<feBlend mode="normal" in2="BackgroundImageFix" result="effect1_dropShadow_2_2704"/>
<feBlend mode="normal" in="SourceGraphic" in2="effect1_dropShadow_2_2704" result="shape"/>
</filter>
<filter id="filter7_d_2_2704" x="3.42407" y="805" width="99.2959" height="43" filterUnits="userSpaceOnUse" color-interpolation-filters="sRGB">
<feFlood flood-opacity="0" result="BackgroundImageFix"/>
<feColorMatrix in="SourceAlpha" type="matrix" values="0 0 0 0 0 0 0 0 0 0 0 0 0 0 0 0 0 0 127 0" result="hardAlpha"/>
<feOffset dy="1"/>
<feColorMatrix type="matrix" values="0 0 0 0 0 0 0 0 0 0 0 0 0 0 0 0 0 0 0.35 0"/>
<feBlend mode="normal" in2="BackgroundImageFix" result="effect1_dropShadow_2_2704"/>
<feBlend mode="normal" in="SourceGraphic" in2="effect1_dropShadow_2_2704" result="shape"/>
</filter>
<filter id="filter8_d_2_2704" x="376.64" y="751" width="47.936" height="43" filterUnits="userSpaceOnUse" color-interpolation-filters="sRGB">
<feFlood flood-opacity="0" result="BackgroundImageFix"/>
<feColorMatrix in="SourceAlpha" type="matrix" values="0 0 0 0 0 0 0 0 0 0 0 0 0 0 0 0 0 0 127 0" result="hardAlpha"/>
<feOffset dy="1"/>
<feColorMatrix type="matrix" values="0 0 0 0 0 0 0 0 0 0 0 0 0 0 0 0 0 0 0.35 0"/>
<feBlend mode="normal" in2="BackgroundImageFix" result="effect1_dropShadow_2_2704"/>
<feBlend mode="normal" in="SourceGraphic" in2="effect1_dropShadow_2_2704" result="shape"/>
</filter>
<filter id="filter9_d_2_2704" x="3.42407" y="751" width="47.936" height="43" filterUnits="userSpaceOnUse" color-interpolation-filters="sRGB">
<feFlood flood-opacity="0" result="BackgroundImageFix"/>
<feColorMatrix in="SourceAlpha" type="matrix" values="0 0 0 0 0 0 0 0 0 0 0 0 0 0 0 0 0 0 127 0" result="hardAlpha"/>
<feOffset dy="1"/>
<feColorMatrix type="matrix" values="0 0 0 0 0 0 0 0 0 0 0 0 0 0 0 0 0 0 0.35 0"/>
<feBlend mode="normal" in2="BackgroundImageFix" result="effect1_dropShadow_2_2704"/>
<feBlend mode="normal" in="SourceGraphic" in2="effect1_dropShadow_2_2704" result="shape"/>
</filter>
<filter id="filter10_d_2_2704" x="325.28" y="751" width="35.3813" height="43" filterUnits="userSpaceOnUse" color-interpolation-filters="sRGB">
<feFlood flood-opacity="0" result="BackgroundImageFix"/>
<feColorMatrix in="SourceAlpha" type="matrix" values="0 0 0 0 0 0 0 0 0 0 0 0 0 0 0 0 0 0 127 0" result="hardAlpha"/>
<feOffset dy="1"/>
<feColorMatrix type="matrix" values="0 0 0 0 0 0 0 0 0 0 0 0 0 0 0 0 0 0 0.35 0"/>
<feBlend mode="normal" in2="BackgroundImageFix" result="effect1_dropShadow_2_2704"/>
<feBlend mode="normal" in="SourceGraphic" in2="effect1_dropShadow_2_2704" result="shape"/>
</filter>
<filter id="filter11_d_2_2704" x="281.909" y="751" width="35.3813" height="43" filterUnits="userSpaceOnUse" color-interpolation-filters="sRGB">
<feFlood flood-opacity="0" result="BackgroundImageFix"/>
<feColorMatrix in="SourceAlpha" type="matrix" values="0 0 0 0 0 0 0 0 0 0 0 0 0 0 0 0 0 0 127 0" result="hardAlpha"/>
<feOffset dy="1"/>
<feColorMatrix type="matrix" values="0 0 0 0 0 0 0 0 0 0 0 0 0 0 0 0 0 0 0.35 0"/>
<feBlend mode="normal" in2="BackgroundImageFix" result="effect1_dropShadow_2_2704"/>
<feBlend mode="normal" in="SourceGraphic" in2="effect1_dropShadow_2_2704" result="shape"/>
</filter>
<filter id="filter12_d_2_2704" x="239.68" y="751" width="35.3813" height="43" filterUnits="userSpaceOnUse" color-interpolation-filters="sRGB">
<feFlood flood-opacity="0" result="BackgroundImageFix"/>
<feColorMatrix in="SourceAlpha" type="matrix" values="0 0 0 0 0 0 0 0 0 0 0 0 0 0 0 0 0 0 127 0" result="hardAlpha"/>
<feOffset dy="1"/>
<feColorMatrix type="matrix" values="0 0 0 0 0 0 0 0 0 0 0 0 0 0 0 0 0 0 0.35 0"/>
<feBlend mode="normal" in2="BackgroundImageFix" result="effect1_dropShadow_2_2704"/>
<feBlend mode="normal" in="SourceGraphic" in2="effect1_dropShadow_2_2704" result="shape"/>
</filter>
<filter id="filter13_d_2_2704" x="196.309" y="751" width="35.3813" height="43" filterUnits="userSpaceOnUse" color-interpolation-filters="sRGB">
<feFlood flood-opacity="0" result="BackgroundImageFix"/>
<feColorMatrix in="SourceAlpha" type="matrix" values="0 0 0 0 0 0 0 0 0 0 0 0 0 0 0 0 0 0 127 0" result="hardAlpha"/>
<feOffset dy="1"/>
<feColorMatrix type="matrix" values="0 0 0 0 0 0 0 0 0 0 0 0 0 0 0 0 0 0 0.35 0"/>
<feBlend mode="normal" in2="BackgroundImageFix" result="effect1_dropShadow_2_2704"/>
<feBlend mode="normal" in="SourceGraphic" in2="effect1_dropShadow_2_2704" result="shape"/>
</filter>
<filter id="filter14_d_2_2704" x="152.939" y="751" width="35.3813" height="43" filterUnits="userSpaceOnUse" color-interpolation-filters="sRGB">
<feFlood flood-opacity="0" result="BackgroundImageFix"/>
<feColorMatrix in="SourceAlpha" type="matrix" values="0 0 0 0 0 0 0 0 0 0 0 0 0 0 0 0 0 0 127 0" result="hardAlpha"/>
<feOffset dy="1"/>
<feColorMatrix type="matrix" values="0 0 0 0 0 0 0 0 0 0 0 0 0 0 0 0 0 0 0.35 0"/>
<feBlend mode="normal" in2="BackgroundImageFix" result="effect1_dropShadow_2_2704"/>
<feBlend mode="normal" in="SourceGraphic" in2="effect1_dropShadow_2_2704" result="shape"/>
</filter>
<filter id="filter15_d_2_2704" x="110.709" y="751" width="35.3813" height="43" filterUnits="userSpaceOnUse" color-interpolation-filters="sRGB">
<feFlood flood-opacity="0" result="BackgroundImageFix"/>
<feColorMatrix in="SourceAlpha" type="matrix" values="0 0 0 0 0 0 0 0 0 0 0 0 0 0 0 0 0 0 127 0" result="hardAlpha"/>
<feOffset dy="1"/>
<feColorMatrix type="matrix" values="0 0 0 0 0 0 0 0 0 0 0 0 0 0 0 0 0 0 0.35 0"/>
<feBlend mode="normal" in2="BackgroundImageFix" result="effect1_dropShadow_2_2704"/>
<feBlend mode="normal" in="SourceGraphic" in2="effect1_dropShadow_2_2704" result="shape"/>
</filter>
<filter id="filter16_d_2_2704" x="67.3386" y="751" width="35.3813" height="43" filterUnits="userSpaceOnUse" color-interpolation-filters="sRGB">
<feFlood flood-opacity="0" result="BackgroundImageFix"/>
<feColorMatrix in="SourceAlpha" type="matrix" values="0 0 0 0 0 0 0 0 0 0 0 0 0 0 0 0 0 0 127 0" result="hardAlpha"/>
<feOffset dy="1"/>
<feColorMatrix type="matrix" values="0 0 0 0 0 0 0 0 0 0 0 0 0 0 0 0 0 0 0.35 0"/>
<feBlend mode="normal" in2="BackgroundImageFix" result="effect1_dropShadow_2_2704"/>
<feBlend mode="normal" in="SourceGraphic" in2="effect1_dropShadow_2_2704" result="shape"/>
</filter>
<filter id="filter17_d_2_2704" x="367.509" y="697" width="35.3813" height="43" filterUnits="userSpaceOnUse" color-interpolation-filters="sRGB">
<feFlood flood-opacity="0" result="BackgroundImageFix"/>
<feColorMatrix in="SourceAlpha" type="matrix" values="0 0 0 0 0 0 0 0 0 0 0 0 0 0 0 0 0 0 127 0" result="hardAlpha"/>
<feOffset dy="1"/>
<feColorMatrix type="matrix" values="0 0 0 0 0 0 0 0 0 0 0 0 0 0 0 0 0 0 0.35 0"/>
<feBlend mode="normal" in2="BackgroundImageFix" result="effect1_dropShadow_2_2704"/>
<feBlend mode="normal" in="SourceGraphic" in2="effect1_dropShadow_2_2704" result="shape"/>
</filter>
<filter id="filter18_d_2_2704" x="324.139" y="697" width="35.3813" height="43" filterUnits="userSpaceOnUse" color-interpolation-filters="sRGB">
<feFlood flood-opacity="0" result="BackgroundImageFix"/>
<feColorMatrix in="SourceAlpha" type="matrix" values="0 0 0 0 0 0 0 0 0 0 0 0 0 0 0 0 0 0 127 0" result="hardAlpha"/>
<feOffset dy="1"/>
<feColorMatrix type="matrix" values="0 0 0 0 0 0 0 0 0 0 0 0 0 0 0 0 0 0 0.35 0"/>
<feBlend mode="normal" in2="BackgroundImageFix" result="effect1_dropShadow_2_2704"/>
<feBlend mode="normal" in="SourceGraphic" in2="effect1_dropShadow_2_2704" result="shape"/>
</filter>
<filter id="filter19_d_2_2704" x="281.909" y="697" width="35.3813" height="43" filterUnits="userSpaceOnUse" color-interpolation-filters="sRGB">
<feFlood flood-opacity="0" result="BackgroundImageFix"/>
<feColorMatrix in="SourceAlpha" type="matrix" values="0 0 0 0 0 0 0 0 0 0 0 0 0 0 0 0 0 0 127 0" result="hardAlpha"/>
<feOffset dy="1"/>
<feColorMatrix type="matrix" values="0 0 0 0 0 0 0 0 0 0 0 0 0 0 0 0 0 0 0.35 0"/>
<feBlend mode="normal" in2="BackgroundImageFix" result="effect1_dropShadow_2_2704"/>
<feBlend mode="normal" in="SourceGraphic" in2="effect1_dropShadow_2_2704" result="shape"/>
</filter>
<filter id="filter20_d_2_2704" x="238.539" y="697" width="35.3813" height="43" filterUnits="userSpaceOnUse" color-interpolation-filters="sRGB">
<feFlood flood-opacity="0" result="BackgroundImageFix"/>
<feColorMatrix in="SourceAlpha" type="matrix" values="0 0 0 0 0 0 0 0 0 0 0 0 0 0 0 0 0 0 127 0" result="hardAlpha"/>
<feOffset dy="1"/>
<feColorMatrix type="matrix" values="0 0 0 0 0 0 0 0 0 0 0 0 0 0 0 0 0 0 0.35 0"/>
<feBlend mode="normal" in2="BackgroundImageFix" result="effect1_dropShadow_2_2704"/>
<feBlend mode="normal" in="SourceGraphic" in2="effect1_dropShadow_2_2704" result="shape"/>
</filter>
<filter id="filter21_d_2_2704" x="196.309" y="697" width="35.3813" height="43" filterUnits="userSpaceOnUse" color-interpolation-filters="sRGB">
<feFlood flood-opacity="0" result="BackgroundImageFix"/>
<feColorMatrix in="SourceAlpha" type="matrix" values="0 0 0 0 0 0 0 0 0 0 0 0 0 0 0 0 0 0 127 0" result="hardAlpha"/>
<feOffset dy="1"/>
<feColorMatrix type="matrix" values="0 0 0 0 0 0 0 0 0 0 0 0 0 0 0 0 0 0 0.35 0"/>
<feBlend mode="normal" in2="BackgroundImageFix" result="effect1_dropShadow_2_2704"/>
<feBlend mode="normal" in="SourceGraphic" in2="effect1_dropShadow_2_2704" result="shape"/>
</filter>
<filter id="filter22_d_2_2704" x="152.939" y="697" width="35.3813" height="43" filterUnits="userSpaceOnUse" color-interpolation-filters="sRGB">
<feFlood flood-opacity="0" result="BackgroundImageFix"/>
<feColorMatrix in="SourceAlpha" type="matrix" values="0 0 0 0 0 0 0 0 0 0 0 0 0 0 0 0 0 0 127 0" result="hardAlpha"/>
<feOffset dy="1"/>
<feColorMatrix type="matrix" values="0 0 0 0 0 0 0 0 0 0 0 0 0 0 0 0 0 0 0.35 0"/>
<feBlend mode="normal" in2="BackgroundImageFix" result="effect1_dropShadow_2_2704"/>
<feBlend mode="normal" in="SourceGraphic" in2="effect1_dropShadow_2_2704" result="shape"/>
</filter>
<filter id="filter23_d_2_2704" x="110.709" y="697" width="35.3813" height="43" filterUnits="userSpaceOnUse" color-interpolation-filters="sRGB">
<feFlood flood-opacity="0" result="BackgroundImageFix"/>
<feColorMatrix in="SourceAlpha" type="matrix" values="0 0 0 0 0 0 0 0 0 0 0 0 0 0 0 0 0 0 127 0" result="hardAlpha"/>
<feOffset dy="1"/>
<feColorMatrix type="matrix" values="0 0 0 0 0 0 0 0 0 0 0 0 0 0 0 0 0 0 0.35 0"/>
<feBlend mode="normal" in2="BackgroundImageFix" result="effect1_dropShadow_2_2704"/>
<feBlend mode="normal" in="SourceGraphic" in2="effect1_dropShadow_2_2704" result="shape"/>
</filter>
<filter id="filter24_d_2_2704" x="67.3386" y="697" width="35.3813" height="43" filterUnits="userSpaceOnUse" color-interpolation-filters="sRGB">
<feFlood flood-opacity="0" result="BackgroundImageFix"/>
<feColorMatrix in="SourceAlpha" type="matrix" values="0 0 0 0 0 0 0 0 0 0 0 0 0 0 0 0 0 0 127 0" result="hardAlpha"/>
<feOffset dy="1"/>
<feColorMatrix type="matrix" values="0 0 0 0 0 0 0 0 0 0 0 0 0 0 0 0 0 0 0.35 0"/>
<feBlend mode="normal" in2="BackgroundImageFix" result="effect1_dropShadow_2_2704"/>
<feBlend mode="normal" in="SourceGraphic" in2="effect1_dropShadow_2_2704" result="shape"/>
</filter>
<filter id="filter25_d_2_2704" x="25.1094" y="697" width="35.3813" height="43" filterUnits="userSpaceOnUse" color-interpolation-filters="sRGB">
<feFlood flood-opacity="0" result="BackgroundImageFix"/>
<feColorMatrix in="SourceAlpha" type="matrix" values="0 0 0 0 0 0 0 0 0 0 0 0 0 0 0 0 0 0 127 0" result="hardAlpha"/>
<feOffset dy="1"/>
<feColorMatrix type="matrix" values="0 0 0 0 0 0 0 0 0 0 0 0 0 0 0 0 0 0 0.35 0"/>
<feBlend mode="normal" in2="BackgroundImageFix" result="effect1_dropShadow_2_2704"/>
<feBlend mode="normal" in="SourceGraphic" in2="effect1_dropShadow_2_2704" result="shape"/>
</filter>
<filter id="filter26_d_2_2704" x="389.195" y="643" width="35.3813" height="43" filterUnits="userSpaceOnUse" color-interpolation-filters="sRGB">
<feFlood flood-opacity="0" result="BackgroundImageFix"/>
<feColorMatrix in="SourceAlpha" type="matrix" values="0 0 0 0 0 0 0 0 0 0 0 0 0 0 0 0 0 0 127 0" result="hardAlpha"/>
<feOffset dy="1"/>
<feColorMatrix type="matrix" values="0 0 0 0 0 0 0 0 0 0 0 0 0 0 0 0 0 0 0.35 0"/>
<feBlend mode="normal" in2="BackgroundImageFix" result="effect1_dropShadow_2_2704"/>
<feBlend mode="normal" in="SourceGraphic" in2="effect1_dropShadow_2_2704" result="shape"/>
</filter>
<filter id="filter27_d_2_2704" x="345.824" y="643" width="35.3813" height="43" filterUnits="userSpaceOnUse" color-interpolation-filters="sRGB">
<feFlood flood-opacity="0" result="BackgroundImageFix"/>
<feColorMatrix in="SourceAlpha" type="matrix" values="0 0 0 0 0 0 0 0 0 0 0 0 0 0 0 0 0 0 127 0" result="hardAlpha"/>
<feOffset dy="1"/>
<feColorMatrix type="matrix" values="0 0 0 0 0 0 0 0 0 0 0 0 0 0 0 0 0 0 0.35 0"/>
<feBlend mode="normal" in2="BackgroundImageFix" result="effect1_dropShadow_2_2704"/>
<feBlend mode="normal" in="SourceGraphic" in2="effect1_dropShadow_2_2704" result="shape"/>
</filter>
<filter id="filter28_d_2_2704" x="303.595" y="643" width="35.3813" height="43" filterUnits="userSpaceOnUse" color-interpolation-filters="sRGB">
<feFlood flood-opacity="0" result="BackgroundImageFix"/>
<feColorMatrix in="SourceAlpha" type="matrix" values="0 0 0 0 0 0 0 0 0 0 0 0 0 0 0 0 0 0 127 0" result="hardAlpha"/>
<feOffset dy="1"/>
<feColorMatrix type="matrix" values="0 0 0 0 0 0 0 0 0 0 0 0 0 0 0 0 0 0 0.35 0"/>
<feBlend mode="normal" in2="BackgroundImageFix" result="effect1_dropShadow_2_2704"/>
<feBlend mode="normal" in="SourceGraphic" in2="effect1_dropShadow_2_2704" result="shape"/>
</filter>
<filter id="filter29_d_2_2704" x="260.224" y="643" width="35.3813" height="43" filterUnits="userSpaceOnUse" color-interpolation-filters="sRGB">
<feFlood flood-opacity="0" result="BackgroundImageFix"/>
<feColorMatrix in="SourceAlpha" type="matrix" values="0 0 0 0 0 0 0 0 0 0 0 0 0 0 0 0 0 0 127 0" result="hardAlpha"/>
<feOffset dy="1"/>
<feColorMatrix type="matrix" values="0 0 0 0 0 0 0 0 0 0 0 0 0 0 0 0 0 0 0.35 0"/>
<feBlend mode="normal" in2="BackgroundImageFix" result="effect1_dropShadow_2_2704"/>
<feBlend mode="normal" in="SourceGraphic" in2="effect1_dropShadow_2_2704" result="shape"/>
</filter>
<filter id="filter30_d_2_2704" x="217.995" y="643" width="35.3813" height="43" filterUnits="userSpaceOnUse" color-interpolation-filters="sRGB">
<feFlood flood-opacity="0" result="BackgroundImageFix"/>
<feColorMatrix in="SourceAlpha" type="matrix" values="0 0 0 0 0 0 0 0 0 0 0 0 0 0 0 0 0 0 127 0" result="hardAlpha"/>
<feOffset dy="1"/>
<feColorMatrix type="matrix" values="0 0 0 0 0 0 0 0 0 0 0 0 0 0 0 0 0 0 0.35 0"/>
<feBlend mode="normal" in2="BackgroundImageFix" result="effect1_dropShadow_2_2704"/>
<feBlend mode="normal" in="SourceGraphic" in2="effect1_dropShadow_2_2704" result="shape"/>
</filter>
<filter id="filter31_d_2_2704" x="174.624" y="643" width="35.3813" height="43" filterUnits="userSpaceOnUse" color-interpolation-filters="sRGB">
<feFlood flood-opacity="0" result="BackgroundImageFix"/>
<feColorMatrix in="SourceAlpha" type="matrix" values="0 0 0 0 0 0 0 0 0 0 0 0 0 0 0 0 0 0 127 0" result="hardAlpha"/>
<feOffset dy="1"/>
<feColorMatrix type="matrix" values="0 0 0 0 0 0 0 0 0 0 0 0 0 0 0 0 0 0 0.35 0"/>
<feBlend mode="normal" in2="BackgroundImageFix" result="effect1_dropShadow_2_2704"/>
<feBlend mode="normal" in="SourceGraphic" in2="effect1_dropShadow_2_2704" result="shape"/>
</filter>
<filter id="filter32_d_2_2704" x="132.395" y="643" width="35.3813" height="43" filterUnits="userSpaceOnUse" color-interpolation-filters="sRGB">
<feFlood flood-opacity="0" result="BackgroundImageFix"/>
<feColorMatrix in="SourceAlpha" type="matrix" values="0 0 0 0 0 0 0 0 0 0 0 0 0 0 0 0 0 0 127 0" result="hardAlpha"/>
<feOffset dy="1"/>
<feColorMatrix type="matrix" values="0 0 0 0 0 0 0 0 0 0 0 0 0 0 0 0 0 0 0.35 0"/>
<feBlend mode="normal" in2="BackgroundImageFix" result="effect1_dropShadow_2_2704"/>
<feBlend mode="normal" in="SourceGraphic" in2="effect1_dropShadow_2_2704" result="shape"/>
</filter>
<filter id="filter33_d_2_2704" x="89.0242" y="643" width="35.3813" height="43" filterUnits="userSpaceOnUse" color-interpolation-filters="sRGB">
<feFlood flood-opacity="0" result="BackgroundImageFix"/>
<feColorMatrix in="SourceAlpha" type="matrix" values="0 0 0 0 0 0 0 0 0 0 0 0 0 0 0 0 0 0 127 0" result="hardAlpha"/>
<feOffset dy="1"/>
<feColorMatrix type="matrix" values="0 0 0 0 0 0 0 0 0 0 0 0 0 0 0 0 0 0 0.35 0"/>
<feBlend mode="normal" in2="BackgroundImageFix" result="effect1_dropShadow_2_2704"/>
<feBlend mode="normal" in="SourceGraphic" in2="effect1_dropShadow_2_2704" result="shape"/>
</filter>
<filter id="filter34_d_2_2704" x="46.7947" y="643" width="35.3813" height="43" filterUnits="userSpaceOnUse" color-interpolation-filters="sRGB">
<feFlood flood-opacity="0" result="BackgroundImageFix"/>
<feColorMatrix in="SourceAlpha" type="matrix" values="0 0 0 0 0 0 0 0 0 0 0 0 0 0 0 0 0 0 127 0" result="hardAlpha"/>
<feOffset dy="1"/>
<feColorMatrix type="matrix" values="0 0 0 0 0 0 0 0 0 0 0 0 0 0 0 0 0 0 0.35 0"/>
<feBlend mode="normal" in2="BackgroundImageFix" result="effect1_dropShadow_2_2704"/>
<feBlend mode="normal" in="SourceGraphic" in2="effect1_dropShadow_2_2704" result="shape"/>
</filter>
<filter id="filter35_d_2_2704" x="3.42407" y="643" width="35.3813" height="43" filterUnits="userSpaceOnUse" color-interpolation-filters="sRGB">
<feFlood flood-opacity="0" result="BackgroundImageFix"/>
<feColorMatrix in="SourceAlpha" type="matrix" values="0 0 0 0 0 0 0 0 0 0 0 0 0 0 0 0 0 0 127 0" result="hardAlpha"/>
<feOffset dy="1"/>
<feColorMatrix type="matrix" values="0 0 0 0 0 0 0 0 0 0 0 0 0 0 0 0 0 0 0.35 0"/>
<feBlend mode="normal" in2="BackgroundImageFix" result="effect1_dropShadow_2_2704"/>
<feBlend mode="normal" in="SourceGraphic" in2="effect1_dropShadow_2_2704" result="shape"/>
</filter>
</defs>
</svg>
