<svg width="428" height="926" viewBox="0 0 428 926" fill="none" xmlns="http://www.w3.org/2000/svg">
<rect width="428" height="926" fill="#A4BBD6"/>
<g filter="url(#filter0_d_2_3554)">
<path d="M40 180H65V177.5H67.5V167.5H65V165H57.5H50V160H67.5V155H42.5V157.5H40V167.5H42.5V170H57.5V175H40V180ZM79.9805 172.5H82.4805V175H84.9805V177.5H87.4805V180H99.9805V175H97.4805V172.5H94.9805V170H92.4805V165H94.9805V162.5H97.4805V160H99.9805V155H97.4805H87.4805V157.5H84.9805V160H82.4805V162.5H79.9805V155H69.9805V180H79.9805V172.5ZM112.5 170H120V180H130V170H127.5V165H130V157.5H127.5V155H120H112.5H102.5V180H112.5V170ZM112.5 160H120V165H112.5V160ZM132.48 160H139.98V175H132.48V180H157.48V175H149.98V160H157.48V155H132.48V160ZM184.971 177.5H187.471V170H184.971V165H187.471V157.5H184.971V155H169.971H159.971V180H184.971V177.5ZM169.971 170H177.471V175H169.971V170ZM169.971 160H177.471V165H169.971V160ZM214.951 177.5H217.451V170H214.951V165H217.451V157.5H214.951V155H199.951H189.951V180H214.951V177.5ZM199.951 170H207.451V175H199.951V170ZM199.951 160H207.451V165H199.951V160ZM219.932 180H247.432V175H229.932V155H219.932V180ZM292.393 177.5H294.893V167.5H292.393V165H279.893V170H284.893V175H277.393V160H294.893V155H269.893V157.5H267.393V177.5H269.893V180H292.393V177.5ZM307.373 170H314.873V180H324.873V157.5H322.373V155H314.873H299.873V157.5H297.373V180H307.373V170ZM307.373 160H314.873V165H307.373V160ZM337.354 167.5H339.854V170H342.354V172.5H344.854V170H347.354V167.5H349.854V180H359.854V155H349.854V157.5H347.354V160H344.854V162.5H342.354V160H339.854V157.5H337.354V155H327.354V180H337.354V167.5ZM364.863 180H389.863V175H372.363V170H379.863V165H372.363V160H389.863V155H364.863V157.5H362.363V177.5H364.863V180Z" fill="#FFC700"/>
<path d="M40 180H38V182H40V180ZM65 180V182H67V180H65ZM65 177.5V175.5H63V177.5H65ZM67.5 177.5V179.5H69.5V177.5H67.5ZM67.5 167.5H69.5V165.5H67.5V167.5ZM65 167.5H63V169.5H65V167.5ZM65 165H67V163H65V165ZM50 165H48V167H50V165ZM50 160V158H48V160H50ZM67.5 160V162H69.5V160H67.5ZM67.5 155H69.5V153H67.5V155ZM42.5 155V153H40.5V155H42.5ZM42.5 157.5V159.5H44.5V157.5H42.5ZM40 157.5V155.5H38V157.5H40ZM40 167.5H38V169.5H40V167.5ZM42.5 167.5H44.5V165.5H42.5V167.5ZM42.5 170H40.5V172H42.5V170ZM57.5 170H59.5V168H57.5V170ZM57.5 175V177H59.5V175H57.5ZM40 175V173H38V175H40ZM40 182H65V178H40V182ZM67 180V177.5H63V180H67ZM65 179.5H67.5V175.5H65V179.5ZM69.5 177.5V167.5H65.5V177.5H69.5ZM67.5 165.5H65V169.5H67.5V165.5ZM67 167.5V165H63V167.5H67ZM65 163H57.5V167H65V163ZM57.5 163H50V167H57.5V163ZM52 165V160H48V165H52ZM50 162H67.5V158H50V162ZM69.5 160V155H65.5V160H69.5ZM67.5 153H42.5V157H67.5V153ZM40.5 155V157.5H44.5V155H40.5ZM42.5 155.5H40V159.5H42.5V155.5ZM38 157.5V167.5H42V157.5H38ZM40 169.5H42.5V165.5H40V169.5ZM40.5 167.5V170H44.5V167.5H40.5ZM42.5 172H57.5V168H42.5V172ZM55.5 170V175H59.5V170H55.5ZM57.5 173H40V177H57.5V173ZM38 175V180H42V175H38ZM79.9805 172.5V170.5H77.9805V172.5H79.9805ZM82.4805 172.5H84.4805V170.5H82.4805V172.5ZM82.4805 175H80.4805V177H82.4805V175ZM84.9805 175H86.9805V173H84.9805V175ZM84.9805 177.5H82.9805V179.5H84.9805V177.5ZM87.4805 177.5H89.4805V175.5H87.4805V177.5ZM87.4805 180H85.4805V182H87.4805V180ZM99.9805 180V182H101.98V180H99.9805ZM99.9805 175H101.98V173H99.9805V175ZM97.4805 175H95.4805V177H97.4805V175ZM97.4805 172.5H99.4805V170.5H97.4805V172.5ZM94.9805 172.5H92.9805V174.5H94.9805V172.5ZM94.9805 170H96.9805V168H94.9805V170ZM92.4805 170H90.4805V172H92.4805V170ZM92.4805 165V163H90.4805V165H92.4805ZM94.9805 165V167H96.9805V165H94.9805ZM94.9805 162.5V160.5H92.9805V162.5H94.9805ZM97.4805 162.5V164.5H99.4805V162.5H97.4805ZM97.4805 160V158H95.4805V160H97.4805ZM99.9805 160V162H101.98V160H99.9805ZM99.9805 155H101.98V153H99.9805V155ZM87.4805 155V153H85.4805V155H87.4805ZM87.4805 157.5V159.5H89.4805V157.5H87.4805ZM84.9805 157.5V155.5H82.9805V157.5H84.9805ZM84.9805 160V162H86.9805V160H84.9805ZM82.4805 160V158H80.4805V160H82.4805ZM82.4805 162.5V164.5H84.4805V162.5H82.4805ZM79.9805 162.5H77.9805V164.5H79.9805V162.5ZM79.9805 155H81.9805V153H79.9805V155ZM69.9805 155V153H67.9805V155H69.9805ZM69.9805 180H67.9805V182H69.9805V180ZM79.9805 180V182H81.9805V180H79.9805ZM79.9805 174.5H82.4805V170.5H79.9805V174.5ZM80.4805 172.5V175H84.4805V172.5H80.4805ZM82.4805 177H84.9805V173H82.4805V177ZM82.9805 175V177.5H86.9805V175H82.9805ZM84.9805 179.5H87.4805V175.5H84.9805V179.5ZM85.4805 177.5V180H89.4805V177.5H85.4805ZM87.4805 182H99.9805V178H87.4805V182ZM101.98 180V175H97.9805V180H101.98ZM99.9805 173H97.4805V177H99.9805V173ZM99.4805 175V172.5H95.4805V175H99.4805ZM97.4805 170.5H94.9805V174.5H97.4805V170.5ZM96.9805 172.5V170H92.9805V172.5H96.9805ZM94.9805 168H92.4805V172H94.9805V168ZM94.4805 170V165H90.4805V170H94.4805ZM92.4805 167H94.9805V163H92.4805V167ZM96.9805 165V162.5H92.9805V165H96.9805ZM94.9805 164.5H97.4805V160.5H94.9805V164.5ZM99.4805 162.5V160H95.4805V162.5H99.4805ZM97.4805 162H99.9805V158H97.4805V162ZM101.98 160V155H97.9805V160H101.98ZM99.9805 153H97.4805V157H99.9805V153ZM97.4805 153H87.4805V157H97.4805V153ZM85.4805 155V157.5H89.4805V155H85.4805ZM87.4805 155.5H84.9805V159.5H87.4805V155.5ZM82.9805 157.5V160H86.9805V157.5H82.9805ZM84.9805 158H82.4805V162H84.9805V158ZM80.4805 160V162.5H84.4805V160H80.4805ZM82.4805 160.5H79.9805V164.5H82.4805V160.5ZM81.9805 162.5V155H77.9805V162.5H81.9805ZM79.9805 153H69.9805V157H79.9805V153ZM67.9805 155V180H71.9805V155H67.9805ZM69.9805 182H79.9805V178H69.9805V182ZM81.9805 180V172.5H77.9805V180H81.9805ZM112.5 170V168H110.5V170H112.5ZM120 170H122V168H120V170ZM120 180H118V182H120V180ZM130 180V182H132V180H130ZM130 170H132V168H130V170ZM127.5 170H125.5V172H127.5V170ZM127.5 165V163H125.5V165H127.5ZM130 165V167H132V165H130ZM130 157.5H132V155.5H130V157.5ZM127.5 157.5H125.5V159.5H127.5V157.5ZM127.5 155H129.5V153H127.5V155ZM102.5 155V153H100.5V155H102.5ZM102.5 180H100.5V182H102.5V180ZM112.5 180V182H114.5V180H112.5ZM112.5 160V158H110.5V160H112.5ZM120 160H122V158H120V160ZM120 165V167H122V165H120ZM112.5 165H110.5V167H112.5V165ZM112.5 172H120V168H112.5V172ZM118 170V180H122V170H118ZM120 182H130V178H120V182ZM132 180V170H128V180H132ZM130 168H127.5V172H130V168ZM129.5 170V165H125.5V170H129.5ZM127.5 167H130V163H127.5V167ZM132 165V157.5H128V165H132ZM130 155.5H127.5V159.5H130V155.5ZM129.5 157.5V155H125.5V157.5H129.5ZM127.5 153H120V157H127.5V153ZM120 153H112.5V157H120V153ZM112.5 153H102.5V157H112.5V153ZM100.5 155V180H104.5V155H100.5ZM102.5 182H112.5V178H102.5V182ZM114.5 180V170H110.5V180H114.5ZM112.5 162H120V158H112.5V162ZM118 160V165H122V160H118ZM120 163H112.5V167H120V163ZM114.5 165V160H110.5V165H114.5ZM132.48 160H130.48V162H132.48V160ZM139.98 160H141.98V158H139.98V160ZM139.98 175V177H141.98V175H139.98ZM132.48 175V173H130.48V175H132.48ZM132.48 180H130.48V182H132.48V180ZM157.48 180V182H159.48V180H157.48ZM157.48 175H159.48V173H157.48V175ZM149.98 175H147.98V177H149.98V175ZM149.98 160V158H147.98V160H149.98ZM157.48 160V162H159.48V160H157.48ZM157.48 155H159.48V153H157.48V155ZM132.48 155V153H130.48V155H132.48ZM132.48 162H139.98V158H132.48V162ZM137.98 160V175H141.98V160H137.98ZM139.98 173H132.48V177H139.98V173ZM130.48 175V180H134.48V175H130.48ZM132.48 182H157.48V178H132.48V182ZM159.48 180V175H155.48V180H159.48ZM157.48 173H149.98V177H157.48V173ZM151.98 175V160H147.98V175H151.98ZM149.98 162H157.48V158H149.98V162ZM159.48 160V155H155.48V160H159.48ZM157.48 153H132.48V157H157.48V153ZM130.48 155V160H134.48V155H130.48ZM184.971 177.5V175.5H182.971V177.5H184.971ZM187.471 177.5V179.5H189.471V177.5H187.471ZM187.471 170H189.471V168H187.471V170ZM184.971 170H182.971V172H184.971V170ZM184.971 165V163H182.971V165H184.971ZM187.471 165V167H189.471V165H187.471ZM187.471 157.5H189.471V155.5H187.471V157.5ZM184.971 157.5H182.971V159.5H184.971V157.5ZM184.971 155H186.971V153H184.971V155ZM159.971 155V153H157.971V155H159.971ZM159.971 180H157.971V182H159.971V180ZM184.971 180V182H186.971V180H184.971ZM169.971 170V168H167.971V170H169.971ZM177.471 170H179.471V168H177.471V170ZM177.471 175V177H179.471V175H177.471ZM169.971 175H167.971V177H169.971V175ZM169.971 160V158H167.971V160H169.971ZM177.471 160H179.471V158H177.471V160ZM177.471 165V167H179.471V165H177.471ZM169.971 165H167.971V167H169.971V165ZM184.971 179.5H187.471V175.5H184.971V179.5ZM189.471 177.5V170H185.471V177.5H189.471ZM187.471 168H184.971V172H187.471V168ZM186.971 170V165H182.971V170H186.971ZM184.971 167H187.471V163H184.971V167ZM189.471 165V157.5H185.471V165H189.471ZM187.471 155.5H184.971V159.5H187.471V155.5ZM186.971 157.5V155H182.971V157.5H186.971ZM184.971 153H169.971V157H184.971V153ZM169.971 153H159.971V157H169.971V153ZM157.971 155V180H161.971V155H157.971ZM159.971 182H184.971V178H159.971V182ZM186.971 180V177.5H182.971V180H186.971ZM169.971 172H177.471V168H169.971V172ZM175.471 170V175H179.471V170H175.471ZM177.471 173H169.971V177H177.471V173ZM171.971 175V170H167.971V175H171.971ZM169.971 162H177.471V158H169.971V162ZM175.471 160V165H179.471V160H175.471ZM177.471 163H169.971V167H177.471V163ZM171.971 165V160H167.971V165H171.971ZM214.951 177.5V175.5H212.951V177.5H214.951ZM217.451 177.5V179.5H219.451V177.5H217.451ZM217.451 170H219.451V168H217.451V170ZM214.951 170H212.951V172H214.951V170ZM214.951 165V163H212.951V165H214.951ZM217.451 165V167H219.451V165H217.451ZM217.451 157.5H219.451V155.5H217.451V157.5ZM214.951 157.5H212.951V159.5H214.951V157.5ZM214.951 155H216.951V153H214.951V155ZM189.951 155V153H187.951V155H189.951ZM189.951 180H187.951V182H189.951V180ZM214.951 180V182H216.951V180H214.951ZM199.951 170V168H197.951V170H199.951ZM207.451 170H209.451V168H207.451V170ZM207.451 175V177H209.451V175H207.451ZM199.951 175H197.951V177H199.951V175ZM199.951 160V158H197.951V160H199.951ZM207.451 160H209.451V158H207.451V160ZM207.451 165V167H209.451V165H207.451ZM199.951 165H197.951V167H199.951V165ZM214.951 179.5H217.451V175.5H214.951V179.5ZM219.451 177.5V170H215.451V177.5H219.451ZM217.451 168H214.951V172H217.451V168ZM216.951 170V165H212.951V170H216.951ZM214.951 167H217.451V163H214.951V167ZM219.451 165V157.5H215.451V165H219.451ZM217.451 155.5H214.951V159.5H217.451V155.5ZM216.951 157.5V155H212.951V157.5H216.951ZM214.951 153H199.951V157H214.951V153ZM199.951 153H189.951V157H199.951V153ZM187.951 155V180H191.951V155H187.951ZM189.951 182H214.951V178H189.951V182ZM216.951 180V177.5H212.951V180H216.951ZM199.951 172H207.451V168H199.951V172ZM205.451 170V175H209.451V170H205.451ZM207.451 173H199.951V177H207.451V173ZM201.951 175V170H197.951V175H201.951ZM199.951 162H207.451V158H199.951V162ZM205.451 160V165H209.451V160H205.451ZM207.451 163H199.951V167H207.451V163ZM201.951 165V160H197.951V165H201.951ZM219.932 180H217.932V182H219.932V180ZM247.432 180V182H249.432V180H247.432ZM247.432 175H249.432V173H247.432V175ZM229.932 175H227.932V177H229.932V175ZM229.932 155H231.932V153H229.932V155ZM219.932 155V153H217.932V155H219.932ZM219.932 182H247.432V178H219.932V182ZM249.432 180V175H245.432V180H249.432ZM247.432 173H229.932V177H247.432V173ZM231.932 175V155H227.932V175H231.932ZM229.932 153H219.932V157H229.932V153ZM217.932 155V180H221.932V155H217.932ZM292.393 177.5V175.5H290.393V177.5H292.393ZM294.893 177.5V179.5H296.893V177.5H294.893ZM294.893 167.5H296.893V165.5H294.893V167.5ZM292.393 167.5H290.393V169.5H292.393V167.5ZM292.393 165H294.393V163H292.393V165ZM279.893 165V163H277.893V165H279.893ZM279.893 170H277.893V172H279.893V170ZM284.893 170H286.893V168H284.893V170ZM284.893 175V177H286.893V175H284.893ZM277.393 175H275.393V177H277.393V175ZM277.393 160V158H275.393V160H277.393ZM294.893 160V162H296.893V160H294.893ZM294.893 155H296.893V153H294.893V155ZM269.893 155V153H267.893V155H269.893ZM269.893 157.5V159.5H271.893V157.5H269.893ZM267.393 157.5V155.5H265.393V157.5H267.393ZM267.393 177.5H265.393V179.5H267.393V177.5ZM269.893 177.5H271.893V175.5H269.893V177.5ZM269.893 180H267.893V182H269.893V180ZM292.393 180V182H294.393V180H292.393ZM292.393 179.5H294.893V175.5H292.393V179.5ZM296.893 177.5V167.5H292.893V177.5H296.893ZM294.893 165.5H292.393V169.5H294.893V165.5ZM294.393 167.5V165H290.393V167.5H294.393ZM292.393 163H279.893V167H292.393V163ZM277.893 165V170H281.893V165H277.893ZM279.893 172H284.893V168H279.893V172ZM282.893 170V175H286.893V170H282.893ZM284.893 173H277.393V177H284.893V173ZM279.393 175V160H275.393V175H279.393ZM277.393 162H294.893V158H277.393V162ZM296.893 160V155H292.893V160H296.893ZM294.893 153H269.893V157H294.893V153ZM267.893 155V157.5H271.893V155H267.893ZM269.893 155.5H267.393V159.5H269.893V155.5ZM265.393 157.5V177.5H269.393V157.5H265.393ZM267.393 179.5H269.893V175.5H267.393V179.5ZM267.893 177.5V180H271.893V177.5H267.893ZM269.893 182H292.393V178H269.893V182ZM294.393 180V177.5H290.393V180H294.393ZM307.373 170V168H305.373V170H307.373ZM314.873 170H316.873V168H314.873V170ZM314.873 180H312.873V182H314.873V180ZM324.873 180V182H326.873V180H324.873ZM324.873 157.5H326.873V155.5H324.873V157.5ZM322.373 157.5H320.373V159.5H322.373V157.5ZM322.373 155H324.373V153H322.373V155ZM299.873 155V153H297.873V155H299.873ZM299.873 157.5V159.5H301.873V157.5H299.873ZM297.373 157.5V155.5H295.373V157.5H297.373ZM297.373 180H295.373V182H297.373V180ZM307.373 180V182H309.373V180H307.373ZM307.373 160V158H305.373V160H307.373ZM314.873 160H316.873V158H314.873V160ZM314.873 165V167H316.873V165H314.873ZM307.373 165H305.373V167H307.373V165ZM307.373 172H314.873V168H307.373V172ZM312.873 170V180H316.873V170H312.873ZM314.873 182H324.873V178H314.873V182ZM326.873 180V157.5H322.873V180H326.873ZM324.873 155.5H322.373V159.5H324.873V155.5ZM324.373 157.5V155H320.373V157.5H324.373ZM322.373 153H314.873V157H322.373V153ZM314.873 153H299.873V157H314.873V153ZM297.873 155V157.5H301.873V155H297.873ZM299.873 155.5H297.373V159.5H299.873V155.5ZM295.373 157.5V180H299.373V157.5H295.373ZM297.373 182H307.373V178H297.373V182ZM309.373 180V170H305.373V180H309.373ZM307.373 162H314.873V158H307.373V162ZM312.873 160V165H316.873V160H312.873ZM314.873 163H307.373V167H314.873V163ZM309.373 165V160H305.373V165H309.373ZM337.354 167.5V165.5H335.354V167.5H337.354ZM339.854 167.5H341.854V165.5H339.854V167.5ZM339.854 170H337.854V172H339.854V170ZM342.354 170H344.354V168H342.354V170ZM342.354 172.5H340.354V174.5H342.354V172.5ZM344.854 172.5V174.5H346.854V172.5H344.854ZM344.854 170V168H342.854V170H344.854ZM347.354 170V172H349.354V170H347.354ZM347.354 167.5V165.5H345.354V167.5H347.354ZM349.854 167.5H351.854V165.5H349.854V167.5ZM349.854 180H347.854V182H349.854V180ZM359.854 180V182H361.854V180H359.854ZM359.854 155H361.854V153H359.854V155ZM349.854 155V153H347.854V155H349.854ZM349.854 157.5V159.5H351.854V157.5H349.854ZM347.354 157.5V155.5H345.354V157.5H347.354ZM347.354 160V162H349.354V160H347.354ZM344.854 160V158H342.854V160H344.854ZM344.854 162.5V164.5H346.854V162.5H344.854ZM342.354 162.5H340.354V164.5H342.354V162.5ZM342.354 160H344.354V158H342.354V160ZM339.854 160H337.854V162H339.854V160ZM339.854 157.5H341.854V155.5H339.854V157.5ZM337.354 157.5H335.354V159.5H337.354V157.5ZM337.354 155H339.354V153H337.354V155ZM327.354 155V153H325.354V155H327.354ZM327.354 180H325.354V182H327.354V180ZM337.354 180V182H339.354V180H337.354ZM337.354 169.5H339.854V165.5H337.354V169.5ZM337.854 167.5V170H341.854V167.5H337.854ZM339.854 172H342.354V168H339.854V172ZM340.354 170V172.5H344.354V170H340.354ZM342.354 174.5H344.854V170.5H342.354V174.5ZM346.854 172.5V170H342.854V172.5H346.854ZM344.854 172H347.354V168H344.854V172ZM349.354 170V167.5H345.354V170H349.354ZM347.354 169.5H349.854V165.5H347.354V169.5ZM347.854 167.5V180H351.854V167.5H347.854ZM349.854 182H359.854V178H349.854V182ZM361.854 180V155H357.854V180H361.854ZM359.854 153H349.854V157H359.854V153ZM347.854 155V157.5H351.854V155H347.854ZM349.854 155.5H347.354V159.5H349.854V155.5ZM345.354 157.5V160H349.354V157.5H345.354ZM347.354 158H344.854V162H347.354V158ZM342.854 160V162.5H346.854V160H342.854ZM344.854 160.5H342.354V164.5H344.854V160.5ZM344.354 162.5V160H340.354V162.5H344.354ZM342.354 158H339.854V162H342.354V158ZM341.854 160V157.5H337.854V160H341.854ZM339.854 155.5H337.354V159.5H339.854V155.5ZM339.354 157.5V155H335.354V157.5H339.354ZM337.354 153H327.354V157H337.354V153ZM325.354 155V180H329.354V155H325.354ZM327.354 182H337.354V178H327.354V182ZM339.354 180V167.5H335.354V180H339.354ZM364.863 180H362.863V182H364.863V180ZM389.863 180V182H391.863V180H389.863ZM389.863 175H391.863V173H389.863V175ZM372.363 175H370.363V177H372.363V175ZM372.363 170V168H370.363V170H372.363ZM379.863 170V172H381.863V170H379.863ZM379.863 165H381.863V163H379.863V165ZM372.363 165H370.363V167H372.363V165ZM372.363 160V158H370.363V160H372.363ZM389.863 160V162H391.863V160H389.863ZM389.863 155H391.863V153H389.863V155ZM364.863 155V153H362.863V155H364.863ZM364.863 157.5V159.5H366.863V157.5H364.863ZM362.363 157.5V155.5H360.363V157.5H362.363ZM362.363 177.5H360.363V179.5H362.363V177.5ZM364.863 177.5H366.863V175.5H364.863V177.5ZM364.863 182H389.863V178H364.863V182ZM391.863 180V175H387.863V180H391.863ZM389.863 173H372.363V177H389.863V173ZM374.363 175V170H370.363V175H374.363ZM372.363 172H379.863V168H372.363V172ZM381.863 170V165H377.863V170H381.863ZM379.863 163H372.363V167H379.863V163ZM374.363 165V160H370.363V165H374.363ZM372.363 162H389.863V158H372.363V162ZM391.863 160V155H387.863V160H391.863ZM389.863 153H364.863V157H389.863V153ZM362.863 155V157.5H366.863V155H362.863ZM364.863 155.5H362.363V159.5H364.863V155.5ZM360.363 157.5V177.5H364.363V157.5H360.363ZM362.363 179.5H364.863V175.5H362.363V179.5ZM362.863 177.5V180H366.863V177.5H362.863Z" fill="black"/>
</g>
<path d="M79.5 155.5H70.5V159.5H79.5V155.5Z" fill="#FCE740"/>
<path d="M99.5 155.5H88V158H85.5V159.5H99.5V155.5Z" fill="#FCE740"/>
<path d="M127 155.5H103V159.5H129V158H127V155.5Z" fill="#FCE740"/>
<path d="M157 155.5H133V159.5H157V155.5Z" fill="#FCE740"/>
<path d="M187 159.5H160.5V155.5H184.5V158H187V159.5Z" fill="#FCE740"/>
<path d="M214.5 155.5H190.5V159.5H217V158H214.5V155.5Z" fill="#FCE740"/>
<path d="M229 155.5H220.5V159.5H229.5V155.5H229Z" fill="#FCE740"/>
<path d="M294.5 159.5H268V159V158H270.5V155.5H294.5V159.5Z" fill="#FCE740"/>
<path d="M324.5 159.5H298V158H300.5V155.5H322V158H324.5V159.5Z" fill="#FCE740"/>
<path d="M328 155.5V159.5H339.5V158H337V155.5H328Z" fill="#FCE740"/>
<path d="M348 158V159.5H359.5V155.5H350.5V158H348Z" fill="#FCE740"/>
<path d="M389.5 159.5H363V158H365.5V155.5H389.5V159.5Z" fill="#FCE740"/>
<path d="M79.5 155.5H70.5V159.5H79.5V155.5Z" stroke="#FCE740"/>
<path d="M99.5 155.5H88V158H85.5V159.5H99.5V155.5Z" stroke="#FCE740"/>
<path d="M127 155.5H103V159.5H129V158H127V155.5Z" stroke="#FCE740"/>
<path d="M157 155.5H133V159.5H157V155.5Z" stroke="#FCE740"/>
<path d="M187 159.5H160.5V155.5H184.5V158H187V159.5Z" stroke="#FCE740"/>
<path d="M214.5 155.5H190.5V159.5H217V158H214.5V155.5Z" stroke="#FCE740"/>
<path d="M229 155.5H220.5V159.5H229.5V155.5H229Z" stroke="#FCE740"/>
<path d="M294.5 159.5H268V159V158H270.5V155.5H294.5V159.5Z" stroke="#FCE740"/>
<path d="M324.5 159.5H298V158H300.5V155.5H322V158H324.5V159.5Z" stroke="#FCE740"/>
<path d="M328 155.5V159.5H339.5V158H337V155.5H328Z" stroke="#FCE740"/>
<path d="M348 158V159.5H359.5V155.5H350.5V158H348Z" stroke="#FCE740"/>
<path d="M389.5 159.5H363V158H365.5V155.5H389.5V159.5Z" stroke="#FCE740"/>
<path d="M40.5 175.5V179.5H64.5V177H67V170.5H58V175.5H40.5Z" fill="#FFA800" stroke="#FFA800"/>
<path d="M112 170.5H103V179.5H112V170.5Z" fill="#FFA800"/>
<path d="M129.5 170.5H120.5V179.5H129.5V170.5Z" fill="#FFA800"/>
<path d="M149.5 170.5H140.5V175.5H133V179.5H157V175.5H149.5V170.5Z" fill="#FFA800"/>
<path d="M160.5 179.5V170.5H169.5V175.5H178V170.5H187V177H184.5V179.5H160.5Z" fill="#FFA800"/>
<path d="M190.5 179.5V170.5H199.5V175.5H208V170.5H217V177H214.5V179.5H190.5Z" fill="#FFA800"/>
<path d="M229.5 170.5H220.5V179.5H247V175.5H229.5V170.5Z" fill="#FFA800"/>
<path d="M277 170.5H268V177H270.5V179.5H292V177H294.5V170.5H285.5V175.5H277V170.5Z" fill="#FFA800"/>
<path d="M298 179.5V170.5H307V179.5H298Z" fill="#FFA800"/>
<path d="M324.5 170.5H315.5V179.5H324.5V170.5Z" fill="#FFA800"/>
<path d="M336.5 170.5H328V179.5H336.5V170.5Z" fill="#FFA800"/>
<path d="M359.5 170.5H350.5V179.5H359.5V170.5Z" fill="#FFA800"/>
<path d="M372 170.5H363V177H365.5V179.5H389V175.5H372V170.5Z" fill="#FFA800"/>
<path d="M112 170.5H103V179.5H112V170.5Z" stroke="#FFA800"/>
<path d="M129.5 170.5H120.5V179.5H129.5V170.5Z" stroke="#FFA800"/>
<path d="M149.5 170.5H140.5V175.5H133V179.5H157V175.5H149.5V170.5Z" stroke="#FFA800"/>
<path d="M160.5 179.5V170.5H169.5V175.5H178V170.5H187V177H184.5V179.5H160.5Z" stroke="#FFA800"/>
<path d="M190.5 179.5V170.5H199.5V175.5H208V170.5H217V177H214.5V179.5H190.5Z" stroke="#FFA800"/>
<path d="M229.5 170.5H220.5V179.5H247V175.5H229.5V170.5Z" stroke="#FFA800"/>
<path d="M277 170.5H268V177H270.5V179.5H292V177H294.5V170.5H285.5V175.5H277V170.5Z" stroke="#FFA800"/>
<path d="M298 179.5V170.5H307V179.5H298Z" stroke="#FFA800"/>
<path d="M324.5 170.5H315.5V179.5H324.5V170.5Z" stroke="#FFA800"/>
<path d="M336.5 170.5H328V179.5H336.5V170.5Z" stroke="#FFA800"/>
<path d="M359.5 170.5H350.5V179.5H359.5V170.5Z" stroke="#FFA800"/>
<path d="M372 170.5H363V177H365.5V179.5H389V175.5H372V170.5Z" stroke="#FFA800"/>
<path d="M67 155.5V159.5H40.5V158H43V155.5H67Z" fill="#FCE740" stroke="#FCE740"/>
<path d="M79.5 179.5H70.5V170.5H92H94.5V173H97V175.5H99.5V179.5H88V177H85.5V174.5H83V172H79.5V179.5Z" fill="#FFA800" stroke="#FFA800"/>
<rect x="25.5" y="103.5" width="106" height="5" fill="#FFA800" stroke="black"/>
<rect x="296.5" y="103.5" width="106" height="5" fill="#FFA800" stroke="black"/>
<rect x="160.5" y="103.5" width="106" height="5" fill="#FFA800" stroke="black"/>
<path fill-rule="evenodd" clip-rule="evenodd" d="M328.805 17.5768H327.458C326.715 17.5768 326.112 18.158 326.112 18.8749V30.1249C326.112 30.8418 326.715 31.423 327.458 31.423H328.805C329.548 31.423 330.151 30.8418 330.151 30.1249V18.8749C330.151 18.158 329.548 17.5768 328.805 17.5768ZM321.124 20.6059H322.47C323.213 20.6059 323.816 21.187 323.816 21.9039V30.1251C323.816 30.842 323.213 31.4232 322.47 31.4232H321.124C320.38 31.4232 319.777 30.842 319.777 30.1251V21.9039C319.777 21.187 320.38 20.6059 321.124 20.6059ZM316.135 23.6345H314.789C314.045 23.6345 313.443 24.2156 313.443 24.9325V30.1248C313.443 30.8417 314.045 31.4229 314.789 31.4229H316.135C316.878 31.4229 317.481 30.8417 317.481 30.1248V24.9325C317.481 24.2156 316.878 23.6345 316.135 23.6345ZM309.8 26.2306H308.454C307.71 26.2306 307.108 26.8117 307.108 27.5286V30.1248C307.108 30.8417 307.71 31.4229 308.454 31.4229H309.8C310.543 31.4229 311.146 30.8417 311.146 30.1248V27.5286C311.146 26.8117 310.543 26.2306 309.8 26.2306Z" fill="black"/>
<path d="M340.983 31.4107C343.38 31.4107 345.068 29.8016 345.068 27.4669V27.4511C345.068 25.2662 343.538 23.6729 341.401 23.6729C340.352 23.6729 339.46 24.1146 338.979 24.8797H338.845L339.192 21.2514H344.422V19.7528H337.804L337.236 26.3626H338.758C338.892 26.1023 339.074 25.8815 339.279 25.7C339.728 25.2899 340.32 25.0848 341.014 25.0848C342.387 25.0848 343.38 26.0786 343.38 27.4826V27.4984C343.38 28.9261 342.402 29.9278 340.998 29.9278C339.752 29.9278 338.845 29.1312 338.695 28.1294L338.687 28.0663H337.031L337.039 28.1689C337.197 30.0146 338.743 31.4107 340.983 31.4107ZM352.108 31.4107C355.089 31.4107 357.022 29.5413 357.022 26.6544V25.2426H352.352V26.6702H355.279V26.9226C355.263 28.6737 353.993 29.8489 352.132 29.8489C349.994 29.8489 348.653 28.161 348.653 25.4398V25.424C348.653 22.7422 349.986 21.0385 352.092 21.0385C353.654 21.0385 354.742 21.7957 355.153 23.1445L355.176 23.2233H356.943L356.927 23.1445C356.517 20.9438 354.679 19.4767 352.092 19.4767C348.906 19.4767 346.847 21.8193 346.847 25.4319V25.4476C346.847 29.1075 348.882 31.4107 352.108 31.4107Z" fill="black"/>
<rect opacity="0.4" x="364.343" y="17.5769" width="27.6923" height="13.8462" rx="4.03846" stroke="black" stroke-width="1.15385"/>
<path opacity="0.5" d="M393.766 22.1923V26.8077C394.696 26.4168 395.301 25.5075 395.301 24.5C395.301 23.4925 394.696 22.5832 393.766 22.1923Z" fill="black"/>
<rect x="366.074" y="19.3077" width="19.6154" height="10.3846" rx="2.30769" fill="black"/>
<path d="M51.2676 11.001C48.5166 11.001 46.5566 12.8818 46.5566 15.457V15.4746C46.5566 17.8828 48.2617 19.6582 50.6963 19.6582C52.4365 19.6582 53.5439 18.7705 54.0098 17.7686H54.1855C54.1855 17.8652 54.1768 17.9619 54.1768 18.0586C54.0801 20.4844 53.2275 22.4531 51.2148 22.4531C50.0986 22.4531 49.3164 21.873 48.9824 20.9854L48.9561 20.8975H46.7236L46.7412 20.9941C47.1455 22.9365 48.8857 24.3164 51.2148 24.3164C54.4053 24.3164 56.3301 21.7852 56.3301 17.5137V17.4961C56.3301 12.9258 53.9746 11.001 51.2676 11.001ZM51.2588 17.918C49.8174 17.918 48.7715 16.8633 48.7715 15.3955V15.3779C48.7715 13.9629 49.8877 12.8467 51.2852 12.8467C52.6914 12.8467 53.79 13.9805 53.79 15.4307V15.4482C53.79 16.8809 52.6914 17.918 51.2588 17.918ZM59.8203 15.7822C60.6289 15.7822 61.2178 15.167 61.2178 14.3936C61.2178 13.6113 60.6289 13.0049 59.8203 13.0049C59.0205 13.0049 58.4229 13.6113 58.4229 14.3936C58.4229 15.167 59.0205 15.7822 59.8203 15.7822ZM59.8203 22.3037C60.6289 22.3037 61.2178 21.6973 61.2178 20.915C61.2178 20.1328 60.6289 19.5264 59.8203 19.5264C59.0205 19.5264 58.4229 20.1328 58.4229 20.915C58.4229 21.6973 59.0205 22.3037 59.8203 22.3037ZM69.4629 24H71.6338V21.5654H73.3389V19.6934H71.6338V11.3174H68.4258C66.7031 13.9365 64.9014 16.8545 63.2578 19.7109V21.5654H69.4629V24ZM65.3672 19.7461V19.6143C66.5977 17.4609 68.0654 15.1143 69.3662 13.1279H69.498V19.7461H65.3672ZM78.0947 24H80.3623V11.3174H78.1035L74.79 13.6465V15.7822L77.9453 13.5498H78.0947V24Z" fill="black"/>
<path d="M87.9448 17.937L93.2036 17.9517C93.2915 17.9517 93.3062 17.959 93.3062 18.0542L93.3208 23.291C93.3208 24.6533 95.042 24.9536 95.6426 23.6499L101.019 11.9751C101.656 10.5981 100.594 9.63867 99.2461 10.2539L87.52 15.6519C86.3042 16.2085 86.5605 17.9297 87.9448 17.937Z" fill="black"/>
<path d="M24.376 41H25.6382L26.3418 38.9053H29.3066L30.0049 41H31.2725L28.4741 33.2495H27.1743L24.376 41ZM27.7759 34.6084H27.8672L28.9844 37.9385H26.6641L27.7759 34.6084ZM32.4913 42.9443H33.6569V40.0762H33.7428C34.0543 40.7046 34.7364 41.0967 35.5367 41.0967C37.0192 41.0967 37.9537 39.9365 37.9537 38.0889V38.0781C37.9537 36.2412 37.0084 35.0649 35.5367 35.0649C34.7203 35.0649 34.0812 35.4463 33.7428 36.0854H33.6569V35.167H32.4913V42.9443ZM35.2091 40.103C34.2369 40.103 33.6354 39.335 33.6354 38.0889V38.0781C33.6354 36.832 34.2369 36.064 35.2091 36.064C36.1813 36.064 36.7667 36.8213 36.7667 38.0781V38.0889C36.7667 39.3403 36.1813 40.103 35.2091 40.103ZM39.3606 42.9443H40.5261V40.0762H40.6121C40.9236 40.7046 41.6057 41.0967 42.406 41.0967C43.8884 41.0967 44.823 39.9365 44.823 38.0889V38.0781C44.823 36.2412 43.8777 35.0649 42.406 35.0649C41.5896 35.0649 40.9504 35.4463 40.6121 36.0854H40.5261V35.167H39.3606V42.9443ZM42.0784 40.103C41.1062 40.103 40.5046 39.335 40.5046 38.0889V38.0781C40.5046 36.832 41.1062 36.064 42.0784 36.064C43.0505 36.064 43.636 36.8213 43.636 38.0781V38.0889C43.636 39.3403 43.0505 40.103 42.0784 40.103ZM51.998 41.188C53.8027 41.188 54.9575 40.2642 54.9575 38.7817V38.7764C54.9575 37.627 54.2915 36.9717 52.664 36.6226L51.8208 36.4346C50.8164 36.2197 50.4082 35.8438 50.4082 35.269V35.2637C50.4082 34.5332 51.0796 34.1089 51.9873 34.1089C52.9272 34.1035 53.5342 34.5654 53.6362 35.1992L53.647 35.269H54.8125L54.8071 35.1938C54.7212 33.9907 53.647 33.0615 52.0034 33.0615C50.3598 33.0615 49.1997 33.9854 49.1943 35.3228V35.3281C49.1943 36.4722 49.8711 37.2026 51.4448 37.5356L52.2934 37.7183C53.3193 37.9385 53.7383 38.3252 53.7383 38.9214V38.9268C53.7383 39.6465 53.0346 40.1406 52.0464 40.1406C51.0097 40.1406 50.2632 39.6895 50.1987 38.9858L50.1933 38.9268H49.0117L49.0171 38.9966C49.1245 40.3018 50.2471 41.188 51.998 41.188ZM58.6148 41.0376C58.8404 41.0376 59.0553 41.0107 59.2433 40.9785V40.0493C59.0821 40.0654 58.9801 40.0708 58.8028 40.0708C58.2281 40.0708 57.9918 39.813 57.9918 39.1846V36.0854H59.2433V35.167H57.9918V33.6953H56.8048V35.167H55.8917V36.0854H56.8048V39.4639C56.8048 40.5864 57.3312 41.0376 58.6148 41.0376ZM63.0134 41.1128C64.7214 41.1128 65.7688 39.9688 65.7688 38.0889V38.0781C65.7688 36.1982 64.716 35.0542 63.0134 35.0542C61.3054 35.0542 60.2527 36.2036 60.2527 38.0781V38.0889C60.2527 39.9688 61.3 41.1128 63.0134 41.1128ZM63.0134 40.1406C62.009 40.1406 61.445 39.3833 61.445 38.0889V38.0781C61.445 36.7837 62.009 36.0264 63.0134 36.0264C64.0124 36.0264 64.5818 36.7837 64.5818 38.0781V38.0889C64.5818 39.3779 64.0124 40.1406 63.0134 40.1406ZM67.1649 41H68.3304V37.5142C68.3304 36.6709 68.9373 36.123 69.8289 36.123C70.0492 36.123 70.2479 36.1499 70.4574 36.1929V35.1187C70.3392 35.0918 70.1351 35.0649 69.9471 35.0649C69.1683 35.0649 68.6258 35.4302 68.4163 36.0479H68.3304V35.167H67.1649V41ZM73.873 41.1128C75.3662 41.1128 76.1718 40.2534 76.3652 39.4854L76.3759 39.437L75.2534 39.4424L75.2319 39.4854C75.0922 39.7861 74.6464 40.1567 73.8999 40.1567C72.9384 40.1567 72.3261 39.5068 72.3046 38.3896H76.4404V37.9814C76.4404 36.2305 75.4414 35.0542 73.8139 35.0542C72.1865 35.0542 71.1338 36.2734 71.1338 38.0942V38.0996C71.1338 39.9473 72.165 41.1128 73.873 41.1128ZM73.8193 36.0103C74.6088 36.0103 75.1943 36.5151 75.2856 37.5571H72.3208C72.4228 36.5527 73.0244 36.0103 73.8193 36.0103Z" fill="black"/>
<path d="M19.5234 33.8115C19.3345 33.8115 19.1851 33.8906 18.9785 33.9917L13.4326 36.6768C13.0415 36.8657 12.8965 37.0635 12.8965 37.3315C12.8965 37.5996 13.0415 37.7974 13.4326 37.9907L18.9785 40.6714C19.1895 40.7725 19.3389 40.8516 19.5234 40.8516C19.875 40.8516 20.1211 40.5835 20.1211 40.1528V34.5103C20.1211 34.084 19.875 33.8115 19.5234 33.8115Z" fill="black"/>
<rect x="146" y="913" width="135" height="5" rx="2.5" fill="black"/>
<path d="M76.7931 876.968V880H17.2069V876.968H15L15 851.368H17.2069V848H76.7931L76.7931 851.368H79L79 876.968H76.7931Z" stroke="black" stroke-width="4"/>
<path d="M31.9393 862.939C31.3536 863.525 31.3536 864.475 31.9393 865.061L41.4853 874.607C42.0711 875.192 43.0208 875.192 43.6066 874.607C44.1924 874.021 44.1924 873.071 43.6066 872.485L35.1213 864L43.6066 855.515C44.1924 854.929 44.1924 853.979 43.6066 853.393C43.0208 852.808 42.0711 852.808 41.4853 853.393L31.9393 862.939ZM61 862.5H33V865.5H61V862.5Z" fill="black"/>
<path d="M41 856L44 853" stroke="black" stroke-width="3"/>
<path d="M76.7931 876.968V880H17.2069V876.968H15L15 851.368H17.2069V848H76.7931L76.7931 851.368H79L79 876.968H76.7931Z" stroke="black" stroke-width="4"/>
<path d="M42 873L44 875" stroke="black" stroke-width="3"/>
<path d="M194.621 350.793H228.172V355.586H232.965V360.379H237.758V422.687H232.965V427.48H228.172V432.273H199.414V427.48H189.828V422.687H185.035V413.101H175.449V398.722H180.242V360.379H185.035V355.586H194.621V350.793Z" fill="#F3CCA7"/>
<path fill-rule="evenodd" clip-rule="evenodd" d="M189.828 437.066H228.172V441.859H232.965V451.445H228.172V480.202H232.965V489.788H228.172V513.753H218.586V489.788H213.793V499.374H209V504.167H204.207V513.753H194.621V484.995H199.414V480.202H185.035V441.859H189.828V437.066ZM194.621 446.652H199.414V475.41H194.621V446.652Z" fill="#F3CCA7"/>
<path d="M232.965 451.445H237.758V465.824H242.55V475.41H232.965V451.445Z" fill="#F3CCA7"/>
<path d="M228.172 350.793H204.207V355.586H223.379V360.379H232.965V398.722H237.758V360.379H232.965V355.586H228.172V350.793Z" fill="#714A1C" fill-opacity="0.25" style="mix-blend-mode:multiply"/>
<path d="M185.035 360.379H180.242V379.551H185.035V360.379Z" fill="#714A1C" fill-opacity="0.25" style="mix-blend-mode:multiply"/>
<path d="M180.242 403.515H185.035V398.722H189.828V422.687H185.035V408.308H180.242V403.515Z" fill="#714A1C" fill-opacity="0.25" style="mix-blend-mode:multiply"/>
<path d="M189.828 422.687H204.207V427.48H228.172V432.273H199.414V427.48H189.828V422.687Z" fill="#714A1C" fill-opacity="0.25" style="mix-blend-mode:multiply"/>
<path d="M232.965 451.445H237.758V465.824H242.55V475.41H232.965V451.445Z" fill="#714A1C" fill-opacity="0.25" style="mix-blend-mode:multiply"/>
<path d="M232.965 451.445H228.172V446.652H223.379V441.859H199.414V437.066H228.172V441.859H232.965V451.445Z" fill="#714A1C" fill-opacity="0.25" style="mix-blend-mode:multiply"/>
<path d="M232.965 480.202H228.172V456.238H223.379V480.202H228.172V489.788H232.965V480.202Z" fill="#714A1C" fill-opacity="0.25" style="mix-blend-mode:multiply"/>
<path d="M223.379 494.581H228.172V513.753H223.379V494.581Z" fill="#714A1C" fill-opacity="0.25" style="mix-blend-mode:multiply"/>
<path d="M199.414 484.995H194.621V513.753H204.207V504.167H199.414V484.995Z" fill="#714A1C" fill-opacity="0.25" style="mix-blend-mode:multiply"/>
<path d="M209 489.788H213.793V494.581H209V489.788Z" fill="#714A1C" fill-opacity="0.25" style="mix-blend-mode:multiply"/>
<path d="M194.621 456.238H189.828V470.617H185.035V480.202H199.414V475.41H194.621V456.238Z" fill="#714A1C" fill-opacity="0.25" style="mix-blend-mode:multiply"/>
<path d="M199.414 360.379H204.207V365.172H199.414V360.379Z" fill="#FFFCF9" fill-opacity="0.7" style="mix-blend-mode:lighten"/>
<path d="M223.379 360.379H209V365.172H223.379V369.965H228.172V374.758H232.965V369.965H228.172V365.172H223.379V360.379Z" fill="#FFFCF9" fill-opacity="0.7" style="mix-blend-mode:lighten"/>
<path d="M180.242 398.722H175.449V403.515H180.242V398.722Z" fill="#FFFCF9" fill-opacity="0.7" style="mix-blend-mode:lighten"/>
<path d="M189.828 437.066H199.414V441.859H189.828V437.066Z" fill="#FFFCF9" fill-opacity="0.7" style="mix-blend-mode:lighten"/>
<path d="M189.828 441.859V446.652H185.035V441.859H189.828Z" fill="#FFFCF9" fill-opacity="0.7" style="mix-blend-mode:lighten"/>
<path d="M209 453.841H204.207V463.427H209V453.841Z" fill="#FFFCF9" fill-opacity="0.7" style="mix-blend-mode:lighten"/>
<path d="M209 453.841H213.793V449.048H209V453.841Z" fill="#FFFCF9" fill-opacity="0.7" style="mix-blend-mode:lighten"/>
<path d="M218.586 484.995H213.793V489.788H218.586V484.995Z" fill="#FFFCF9" fill-opacity="0.7" style="mix-blend-mode:lighten"/>
<path fill-rule="evenodd" clip-rule="evenodd" d="M228.172 346H194.621V350.793H185.035V355.586H180.242V360.379H175.449V398.722H170.656V413.101H175.449V417.894H180.242V422.687H185.035V427.48H189.828V437.066H185.035V441.859H180.242V480.202H185.035V484.995H189.828V518.546H209V504.167H213.793V518.546H237.757V513.753H232.965V489.788H237.757V480.202H242.55V475.41H247.343V465.824H242.55V451.445H237.757V441.859H232.965V437.066H228.172V432.273H232.965V427.48H237.757V422.687H242.55V360.379H237.757V355.586H232.965V350.793H228.172V346ZM228.172 350.793V355.586H232.965V360.379H237.757V422.687H232.965V427.48H228.172V432.273H199.414V427.48H189.828V422.687H185.035V413.101H175.449V398.722H180.242V403.515H185.035V398.722H180.242V360.379H185.035V355.586H194.621V350.793H228.172ZM232.965 451.445H228.172V480.202H232.965V489.788H228.172V513.753H218.586V489.788H213.793V494.581H209V504.167H204.207V513.753H194.621V484.995H204.207V475.41H199.414V446.652H194.621V475.41H199.414V480.202H185.035V441.859H189.828V437.066H228.172V441.859H232.965V451.445ZM232.965 451.445V475.41H242.55V465.824H237.757V451.445H232.965Z" fill="black"/>
<path fill-rule="evenodd" clip-rule="evenodd" d="M228.325 350.803H194.685V355.606H189.879H185.073V360.409H180.268V398.833H175.462V413.243H180.268H185.073V422.849H189.879V427.652H194.685H199.491V432.455H228.325L228.325 427.652V350.803ZM233.131 355.606H228.325V427.652H233.131V422.849H237.936V360.409H233.131V355.606Z" fill="#F3CCA7"/>
<path fill-rule="evenodd" clip-rule="evenodd" d="M204.296 350.803H228.325V355.606H233.131V360.409H223.519V355.606H204.296V350.803ZM233.131 360.409H237.937V398.833H233.131V360.409ZM180.268 360.409H185.074V398.833H180.268V360.409ZM189.879 422.849H185.074V408.439H180.268V403.636H185.074V398.833H189.879V422.849ZM204.296 427.652V422.849H189.879V427.652H199.491V432.455H228.325V427.652H204.296ZM185.074 360.409V355.606H189.879V360.409H185.074Z" fill="#714A1C" fill-opacity="0.25" style="mix-blend-mode:multiply"/>
<path fill-rule="evenodd" clip-rule="evenodd" d="M204.296 360.409H199.491V365.212H204.296V360.409ZM209.102 360.409H223.519V365.212H209.102V360.409ZM228.325 370.015V365.212H223.519V370.015H228.325ZM228.325 370.015L228.325 374.818H233.131V370.015H228.325ZM175.462 398.833H180.268V403.636H175.462V398.833Z" fill="#FFFCF9" fill-opacity="0.7" style="mix-blend-mode:lighten"/>
<path fill-rule="evenodd" clip-rule="evenodd" d="M213.908 394.03H199.491V398.833H204.296V408.439H209.102V398.833H213.908V394.03ZM213.908 418.046H223.519V422.849H213.908V418.046ZM213.908 418.046H209.102V413.243H213.908V418.046ZM223.519 394.03H228.325H233.131V398.833H228.325V408.439H223.519V394.03Z" fill="black"/>
<path fill-rule="evenodd" clip-rule="evenodd" d="M218.714 394.03H213.908V398.833H209.102V403.636H213.908V398.833H218.714V394.03Z" fill="#714A1C" fill-opacity="0.25" style="mix-blend-mode:multiply"/>
<path fill-rule="evenodd" clip-rule="evenodd" d="M194.685 346H228.325V350.803H194.685V346ZM185.073 355.606V350.803H194.685V355.606H185.073ZM180.268 360.409V355.606H185.073V360.409H180.268ZM180.268 398.833V360.409H175.462V398.833H170.656V413.243H175.462V418.046H180.268V422.849H185.073V427.652H189.879V432.455H199.491V437.258H228.325V432.455H233.131V427.652H237.936V422.849H242.742V360.409H237.936V355.606H233.131V350.803H228.325V355.606H233.131V360.409H237.936V422.849H233.131V427.652H228.325V432.455H199.491V427.652H189.879V422.849H185.073L185.073 418.046V413.243H175.462V398.833H180.268ZM180.268 398.833V403.636H185.073V398.833H180.268Z" fill="black"/>
<path fill-rule="evenodd" clip-rule="evenodd" d="M200.08 346.971H195.922V351.01H191.765V355.049H187.608V359.088H183.451H179.294L179.294 363.127H175.136H170.979V367.166H175.136V387.36H179.294L179.294 391.399H183.451L183.451 395.438H187.608V403.515H191.765V387.36H195.922V379.282H200.08V375.243H216.709H229.18V379.282H233.338V383.321H237.495V371.205H241.652V367.166H237.495V363.127H241.652V359.088H237.495H233.338V355.049H229.18V351.01H216.709V346.971H200.08Z" fill="black"/>
<path fill-rule="evenodd" clip-rule="evenodd" d="M187.608 355.049H191.765L191.765 359.088H195.922L195.922 363.127H200.08V367.166H208.394V371.205H229.18V375.243H208.394H200.08V379.282H195.922L195.922 387.36H191.765L191.765 403.515H187.608V395.438H183.451V391.399H179.293V387.36H175.136V375.243H179.293V379.282H183.451H187.608V375.243H191.765L191.765 371.205H195.922V367.166H191.765L191.765 363.127H187.608V355.049ZM237.495 371.205H233.338V375.243H229.18V379.282H233.338V383.321H237.495V371.205ZM237.495 371.205H241.652V367.166H237.495V371.205ZM225.023 363.127H212.551V367.166H225.023V363.127ZM225.023 363.127H233.338V359.088H225.023V363.127Z" fill="black" fill-opacity="0.2" style="mix-blend-mode:multiply"/>
<path fill-rule="evenodd" clip-rule="evenodd" d="M200.08 355.049H212.551V359.088H200.08V355.049ZM187.608 363.127H183.451V367.166H179.293V371.205H183.451V367.166H187.608V363.127ZM220.866 355.049H216.709V359.088H220.866V355.049Z" fill="white" fill-opacity="0.3" style="mix-blend-mode:lighten"/>
<path fill-rule="evenodd" clip-rule="evenodd" d="M195.923 342.933H216.709V346.971H195.923V342.933ZM191.765 351.01V346.971H195.923V351.01H191.765ZM187.608 355.049V351.01H191.765V355.049H187.608ZM179.294 359.088V355.049H187.608V359.088H179.294ZM170.979 363.127V359.088H179.294V363.127H170.979ZM170.979 367.166H166.822V363.127H170.979V367.166ZM175.136 387.36H170.979V367.166H175.136V387.36ZM175.136 387.36H179.294V395.438H175.136V387.36ZM229.181 351.01H216.709V346.971H229.181V351.01ZM233.338 355.049H229.181V351.01H233.338V355.049ZM241.652 359.088H233.338V355.049H241.652V359.088ZM241.652 363.127V359.088H245.81V363.127H241.652ZM241.652 367.166H237.495V363.127H241.652V367.166ZM241.652 371.205H245.81V367.166H241.652V371.205ZM241.652 371.205V387.36H237.495V371.205H241.652Z" fill="black"/>
<path fill-rule="evenodd" clip-rule="evenodd" d="M203.462 403.321H195.539V411.361H203.462V403.321ZM235.154 403.321H231.192V411.361H235.154V403.321Z" fill="#E61A10"/>
<path fill-rule="evenodd" clip-rule="evenodd" d="M203.462 403.321H195.539V407.341H203.462V403.321ZM235.154 403.321H231.192V407.341H235.154V403.321Z" fill="white" fill-opacity="0.3" style="mix-blend-mode:lighten"/>
<path fill-rule="evenodd" clip-rule="evenodd" d="M204.4 481.556H194.8V508.889H204.4V504.333H209.2V499.778H214V486.111H218.8L218.8 508.889H228.4L228.4 504.333H233.2V481.556H228.4H218.8H214H209.2H204.4Z" fill="black"/>
<path fill-rule="evenodd" clip-rule="evenodd" d="M194.8 477H190V518H194.8H204.4H209.2V504.333H214V518H218.8H228.4H233.2H238V513.444H233.2V504.333H238V477H233.2H194.8ZM218.8 513.444H228.4V504.333H233.2V490.667H228.4V486.111H233.2V481.556H194.8V486.111H199.6V490.667H194.8V513.444H204.4V504.333H209.2V499.778H214V486.111H218.8V513.444Z" fill="black"/>
<path fill-rule="evenodd" clip-rule="evenodd" d="M194.8 481.556H199.6V486.111H194.8V481.556ZM194.8 490.667H199.6V495.222H194.8V490.667ZM204.4 504.333H199.6V508.889H204.4V504.333ZM209.2 499.778V504.333L204.4 504.333V499.778H209.2ZM209.2 499.778V486.111H214V499.778L209.2 499.778ZM233.2 481.556H228.4V486.111H233.2V481.556ZM228.4 490.667H233.2V495.222H228.4V490.667ZM223.6 490.667H218.8V508.889H223.6L228.4 508.889V499.778H223.6L223.6 490.667Z" fill="black" fill-opacity="0.2" style="mix-blend-mode:multiply"/>
<path fill-rule="evenodd" clip-rule="evenodd" d="M204.4 508.889H194.8V513.444H204.4V508.889ZM228.4 508.889H218.8V513.444H228.4V508.889Z" fill="#BA6434"/>
<path fill-rule="evenodd" clip-rule="evenodd" d="M199.6 508.889H194.8V513.444H199.6V508.889ZM223.6 508.889H218.8V513.444H223.6V508.889Z" fill="black" fill-opacity="0.2" style="mix-blend-mode:multiply"/>
<path d="M151 572H176V569.5H178.5V559.5H176V557H168.5H161V552H178.5V547H153.5V549.5H151V559.5H153.5V562H168.5V567H151V572ZM180.98 572H205.98V569.5H208.48V559.5H205.98V557H198.48H190.98V552H208.48V547H183.48V549.5H180.98V559.5H183.48V562H198.48V567H180.98V572ZM220.961 562H228.461V572H238.461V549.5H235.961V547H228.461H213.461V549.5H210.961V572H220.961V562ZM220.961 552H228.461V557H220.961V552ZM250.941 559.5H253.441V562H255.941V564.5H258.441V562H260.941V559.5H263.441V572H273.441V547H263.441V549.5H260.941V552H258.441V554.5H255.941V552H253.441V549.5H250.941V547H240.941V572H250.941V559.5Z" fill="#FAF1AC"/>
<path d="M151 572H150V573H151V572ZM176 572V573H177V572H176ZM176 569.5V568.5H175V569.5H176ZM178.5 569.5V570.5H179.5V569.5H178.5ZM178.5 559.5H179.5V558.5H178.5V559.5ZM176 559.5H175V560.5H176V559.5ZM176 557H177V556H176V557ZM161 557H160V558H161V557ZM161 552V551H160V552H161ZM178.5 552V553H179.5V552H178.5ZM178.5 547H179.5V546H178.5V547ZM153.5 547V546H152.5V547H153.5ZM153.5 549.5V550.5H154.5V549.5H153.5ZM151 549.5V548.5H150V549.5H151ZM151 559.5H150V560.5H151V559.5ZM153.5 559.5H154.5V558.5H153.5V559.5ZM153.5 562H152.5V563H153.5V562ZM168.5 562H169.5V561H168.5V562ZM168.5 567V568H169.5V567H168.5ZM151 567V566H150V567H151ZM151 573H176V571H151V573ZM177 572V569.5H175V572H177ZM176 570.5H178.5V568.5H176V570.5ZM179.5 569.5V559.5H177.5V569.5H179.5ZM178.5 558.5H176V560.5H178.5V558.5ZM177 559.5V557H175V559.5H177ZM176 556H168.5V558H176V556ZM168.5 556H161V558H168.5V556ZM162 557V552H160V557H162ZM161 553H178.5V551H161V553ZM179.5 552V547H177.5V552H179.5ZM178.5 546H153.5V548H178.5V546ZM152.5 547V549.5H154.5V547H152.5ZM153.5 548.5H151V550.5H153.5V548.5ZM150 549.5V559.5H152V549.5H150ZM151 560.5H153.5V558.5H151V560.5ZM152.5 559.5V562H154.5V559.5H152.5ZM153.5 563H168.5V561H153.5V563ZM167.5 562V567H169.5V562H167.5ZM168.5 566H151V568H168.5V566ZM150 567V572H152V567H150ZM180.98 572H179.98V573H180.98V572ZM205.98 572V573H206.98V572H205.98ZM205.98 569.5V568.5H204.98V569.5H205.98ZM208.48 569.5V570.5H209.48V569.5H208.48ZM208.48 559.5H209.48V558.5H208.48V559.5ZM205.98 559.5H204.98V560.5H205.98V559.5ZM205.98 557H206.98V556H205.98V557ZM190.98 557H189.98V558H190.98V557ZM190.98 552V551H189.98V552H190.98ZM208.48 552V553H209.48V552H208.48ZM208.48 547H209.48V546H208.48V547ZM183.48 547V546H182.48V547H183.48ZM183.48 549.5V550.5H184.48V549.5H183.48ZM180.98 549.5V548.5H179.98V549.5H180.98ZM180.98 559.5H179.98V560.5H180.98V559.5ZM183.48 559.5H184.48V558.5H183.48V559.5ZM183.48 562H182.48V563H183.48V562ZM198.48 562H199.48V561H198.48V562ZM198.48 567V568H199.48V567H198.48ZM180.98 567V566H179.98V567H180.98ZM180.98 573H205.98V571H180.98V573ZM206.98 572V569.5H204.98V572H206.98ZM205.98 570.5H208.48V568.5H205.98V570.5ZM209.48 569.5V559.5H207.48V569.5H209.48ZM208.48 558.5H205.98V560.5H208.48V558.5ZM206.98 559.5V557H204.98V559.5H206.98ZM205.98 556H198.48V558H205.98V556ZM198.48 556H190.98V558H198.48V556ZM191.98 557V552H189.98V557H191.98ZM190.98 553H208.48V551H190.98V553ZM209.48 552V547H207.48V552H209.48ZM208.48 546H183.48V548H208.48V546ZM182.48 547V549.5H184.48V547H182.48ZM183.48 548.5H180.98V550.5H183.48V548.5ZM179.98 549.5V559.5H181.98V549.5H179.98ZM180.98 560.5H183.48V558.5H180.98V560.5ZM182.48 559.5V562H184.48V559.5H182.48ZM183.48 563H198.48V561H183.48V563ZM197.48 562V567H199.48V562H197.48ZM198.48 566H180.98V568H198.48V566ZM179.98 567V572H181.98V567H179.98ZM220.961 562V561H219.961V562H220.961ZM228.461 562H229.461V561H228.461V562ZM228.461 572H227.461V573H228.461V572ZM238.461 572V573H239.461V572H238.461ZM238.461 549.5H239.461V548.5H238.461V549.5ZM235.961 549.5H234.961V550.5H235.961V549.5ZM235.961 547H236.961V546H235.961V547ZM213.461 547V546H212.461V547H213.461ZM213.461 549.5V550.5H214.461V549.5H213.461ZM210.961 549.5V548.5H209.961V549.5H210.961ZM210.961 572H209.961V573H210.961V572ZM220.961 572V573H221.961V572H220.961ZM220.961 552V551H219.961V552H220.961ZM228.461 552H229.461V551H228.461V552ZM228.461 557V558H229.461V557H228.461ZM220.961 557H219.961V558H220.961V557ZM220.961 563H228.461V561H220.961V563ZM227.461 562V572H229.461V562H227.461ZM228.461 573H238.461V571H228.461V573ZM239.461 572V549.5H237.461V572H239.461ZM238.461 548.5H235.961V550.5H238.461V548.5ZM236.961 549.5V547H234.961V549.5H236.961ZM235.961 546H228.461V548H235.961V546ZM228.461 546H213.461V548H228.461V546ZM212.461 547V549.5H214.461V547H212.461ZM213.461 548.5H210.961V550.5H213.461V548.5ZM209.961 549.5V572H211.961V549.5H209.961ZM210.961 573H220.961V571H210.961V573ZM221.961 572V562H219.961V572H221.961ZM220.961 553H228.461V551H220.961V553ZM227.461 552V557H229.461V552H227.461ZM228.461 556H220.961V558H228.461V556ZM221.961 557V552H219.961V557H221.961ZM250.941 559.5V558.5H249.941V559.5H250.941ZM253.441 559.5H254.441V558.5H253.441V559.5ZM253.441 562H252.441V563H253.441V562ZM255.941 562H256.941V561H255.941V562ZM255.941 564.5H254.941V565.5H255.941V564.5ZM258.441 564.5V565.5H259.441V564.5H258.441ZM258.441 562V561H257.441V562H258.441ZM260.941 562V563H261.941V562H260.941ZM260.941 559.5V558.5H259.941V559.5H260.941ZM263.441 559.5H264.441V558.5H263.441V559.5ZM263.441 572H262.441V573H263.441V572ZM273.441 572V573H274.441V572H273.441ZM273.441 547H274.441V546H273.441V547ZM263.441 547V546H262.441V547H263.441ZM263.441 549.5V550.5H264.441V549.5H263.441ZM260.941 549.5V548.5H259.941V549.5H260.941ZM260.941 552V553H261.941V552H260.941ZM258.441 552V551H257.441V552H258.441ZM258.441 554.5V555.5H259.441V554.5H258.441ZM255.941 554.5H254.941V555.5H255.941V554.5ZM255.941 552H256.941V551H255.941V552ZM253.441 552H252.441V553H253.441V552ZM253.441 549.5H254.441V548.5H253.441V549.5ZM250.941 549.5H249.941V550.5H250.941V549.5ZM250.941 547H251.941V546H250.941V547ZM240.941 547V546H239.941V547H240.941ZM240.941 572H239.941V573H240.941V572ZM250.941 572V573H251.941V572H250.941ZM250.941 560.5H253.441V558.5H250.941V560.5ZM252.441 559.5V562H254.441V559.5H252.441ZM253.441 563H255.941V561H253.441V563ZM254.941 562V564.5H256.941V562H254.941ZM255.941 565.5H258.441V563.5H255.941V565.5ZM259.441 564.5V562H257.441V564.5H259.441ZM258.441 563H260.941V561H258.441V563ZM261.941 562V559.5H259.941V562H261.941ZM260.941 560.5H263.441V558.5H260.941V560.5ZM262.441 559.5V572H264.441V559.5H262.441ZM263.441 573H273.441V571H263.441V573ZM274.441 572V547H272.441V572H274.441ZM273.441 546H263.441V548H273.441V546ZM262.441 547V549.5H264.441V547H262.441ZM263.441 548.5H260.941V550.5H263.441V548.5ZM259.941 549.5V552H261.941V549.5H259.941ZM260.941 551H258.441V553H260.941V551ZM257.441 552V554.5H259.441V552H257.441ZM258.441 553.5H255.941V555.5H258.441V553.5ZM256.941 554.5V552H254.941V554.5H256.941ZM255.941 551H253.441V553H255.941V551ZM254.441 552V549.5H252.441V552H254.441ZM253.441 548.5H250.941V550.5H253.441V548.5ZM251.941 549.5V547H249.941V549.5H251.941ZM250.941 546H240.941V548H250.941V546ZM239.941 547V572H241.941V547H239.941ZM240.941 573H250.941V571H240.941V573ZM251.941 572V559.5H249.941V572H251.941Z" fill="black"/>
<path d="M194.621 350.793H228.172V355.586H232.965V360.379H237.758V422.687H232.965V427.48H228.172V432.273H199.414V427.48H189.828V422.687H185.035V413.101H175.449V398.722H180.242V360.379H185.035V355.586H194.621V350.793Z" fill="#F3CCA7"/>
<path fill-rule="evenodd" clip-rule="evenodd" d="M189.828 437.066H228.172V441.859H232.965V451.445H228.172V480.202H232.965V489.788H228.172V513.753H218.586V489.788H213.793V499.374H209V504.167H204.207V513.753H194.621V484.995H199.414V480.202H185.035V441.859H189.828V437.066ZM194.621 446.652H199.414V475.41H194.621V446.652Z" fill="#F3CCA7"/>
<path d="M232.965 451.445H237.758V465.824H242.55V475.41H232.965V451.445Z" fill="#F3CCA7"/>
<path d="M228.172 350.793H204.207V355.586H223.379V360.379H232.965V398.722H237.758V360.379H232.965V355.586H228.172V350.793Z" fill="#714A1C" fill-opacity="0.25" style="mix-blend-mode:multiply"/>
<path d="M185.035 360.379H180.242V379.551H185.035V360.379Z" fill="#714A1C" fill-opacity="0.25" style="mix-blend-mode:multiply"/>
<path d="M180.242 403.515H185.035V398.722H189.828V422.687H185.035V408.308H180.242V403.515Z" fill="#714A1C" fill-opacity="0.25" style="mix-blend-mode:multiply"/>
<path d="M189.828 422.687H204.207V427.48H228.172V432.273H199.414V427.48H189.828V422.687Z" fill="#714A1C" fill-opacity="0.25" style="mix-blend-mode:multiply"/>
<path d="M232.965 451.445H237.758V465.824H242.55V475.41H232.965V451.445Z" fill="#714A1C" fill-opacity="0.25" style="mix-blend-mode:multiply"/>
<path d="M232.965 451.445H228.172V446.652H223.379V441.859H199.414V437.066H228.172V441.859H232.965V451.445Z" fill="#714A1C" fill-opacity="0.25" style="mix-blend-mode:multiply"/>
<path d="M232.965 480.202H228.172V456.238H223.379V480.202H228.172V489.788H232.965V480.202Z" fill="#714A1C" fill-opacity="0.25" style="mix-blend-mode:multiply"/>
<path d="M223.379 494.581H228.172V513.753H223.379V494.581Z" fill="#714A1C" fill-opacity="0.25" style="mix-blend-mode:multiply"/>
<path d="M199.414 484.995H194.621V513.753H204.207V504.167H199.414V484.995Z" fill="#714A1C" fill-opacity="0.25" style="mix-blend-mode:multiply"/>
<path d="M209 489.788H213.793V494.581H209V489.788Z" fill="#714A1C" fill-opacity="0.25" style="mix-blend-mode:multiply"/>
<path d="M194.621 456.238H189.828V470.617H185.035V480.202H199.414V475.41H194.621V456.238Z" fill="#714A1C" fill-opacity="0.25" style="mix-blend-mode:multiply"/>
<path d="M199.414 360.379H204.207V365.172H199.414V360.379Z" fill="#FFFCF9" fill-opacity="0.7" style="mix-blend-mode:lighten"/>
<path d="M223.379 360.379H209V365.172H223.379V369.965H228.172V374.758H232.965V369.965H228.172V365.172H223.379V360.379Z" fill="#FFFCF9" fill-opacity="0.7" style="mix-blend-mode:lighten"/>
<path d="M180.242 398.722H175.449V403.515H180.242V398.722Z" fill="#FFFCF9" fill-opacity="0.7" style="mix-blend-mode:lighten"/>
<path d="M189.828 437.066H199.414V441.859H189.828V437.066Z" fill="#FFFCF9" fill-opacity="0.7" style="mix-blend-mode:lighten"/>
<path d="M189.828 441.859V446.652H185.035V441.859H189.828Z" fill="#FFFCF9" fill-opacity="0.7" style="mix-blend-mode:lighten"/>
<path d="M209 453.841H204.207V463.427H209V453.841Z" fill="#FFFCF9" fill-opacity="0.7" style="mix-blend-mode:lighten"/>
<path d="M209 453.841H213.793V449.048H209V453.841Z" fill="#FFFCF9" fill-opacity="0.7" style="mix-blend-mode:lighten"/>
<path d="M218.586 484.995H213.793V489.788H218.586V484.995Z" fill="#FFFCF9" fill-opacity="0.7" style="mix-blend-mode:lighten"/>
<path fill-rule="evenodd" clip-rule="evenodd" d="M228.172 346H194.621V350.793H185.035V355.586H180.242V360.379H175.449V398.722H170.656V413.101H175.449V417.894H180.242V422.687H185.035V427.48H189.828V437.066H185.035V441.859H180.242V480.202H185.035V484.995H189.828V518.546H209V504.167H213.793V518.546H237.757V513.753H232.965V489.788H237.757V480.202H242.55V475.41H247.343V465.824H242.55V451.445H237.757V441.859H232.965V437.066H228.172V432.273H232.965V427.48H237.757V422.687H242.55V360.379H237.757V355.586H232.965V350.793H228.172V346ZM228.172 350.793V355.586H232.965V360.379H237.757V422.687H232.965V427.48H228.172V432.273H199.414V427.48H189.828V422.687H185.035V413.101H175.449V398.722H180.242V403.515H185.035V398.722H180.242V360.379H185.035V355.586H194.621V350.793H228.172ZM232.965 451.445H228.172V480.202H232.965V489.788H228.172V513.753H218.586V489.788H213.793V494.581H209V504.167H204.207V513.753H194.621V484.995H204.207V475.41H199.414V446.652H194.621V475.41H199.414V480.202H185.035V441.859H189.828V437.066H228.172V441.859H232.965V451.445ZM232.965 451.445V475.41H242.55V465.824H237.757V451.445H232.965Z" fill="black"/>
<path fill-rule="evenodd" clip-rule="evenodd" d="M228.325 350.803H194.685V355.606H189.879H185.073V360.409H180.268V398.833H175.462V413.243H180.268H185.073V422.849H189.879V427.652H194.685H199.491V432.455H228.325L228.325 427.652V350.803ZM233.131 355.606H228.325V427.652H233.131V422.849H237.936V360.409H233.131V355.606Z" fill="#F3CCA7"/>
<path fill-rule="evenodd" clip-rule="evenodd" d="M204.296 350.803H228.325V355.606H233.131V360.409H223.519V355.606H204.296V350.803ZM233.131 360.409H237.937V398.833H233.131V360.409ZM180.268 360.409H185.074V398.833H180.268V360.409ZM189.879 422.849H185.074V408.439H180.268V403.636H185.074V398.833H189.879V422.849ZM204.296 427.652V422.849H189.879V427.652H199.491V432.455H228.325V427.652H204.296ZM185.074 360.409V355.606H189.879V360.409H185.074Z" fill="#714A1C" fill-opacity="0.25" style="mix-blend-mode:multiply"/>
<path fill-rule="evenodd" clip-rule="evenodd" d="M204.296 360.409H199.491V365.212H204.296V360.409ZM209.102 360.409H223.519V365.212H209.102V360.409ZM228.325 370.015V365.212H223.519V370.015H228.325ZM228.325 370.015L228.325 374.818H233.131V370.015H228.325ZM175.462 398.833H180.268V403.636H175.462V398.833Z" fill="#FFFCF9" fill-opacity="0.7" style="mix-blend-mode:lighten"/>
<path fill-rule="evenodd" clip-rule="evenodd" d="M213.908 394.03H199.491V398.833H204.296V408.439H209.102V398.833H213.908V394.03ZM213.908 418.046H223.519V422.849H213.908V418.046ZM213.908 418.046H209.102V413.243H213.908V418.046ZM223.519 394.03H228.325H233.131V398.833H228.325V408.439H223.519V394.03Z" fill="black"/>
<path fill-rule="evenodd" clip-rule="evenodd" d="M218.714 394.03H213.908V398.833H209.102V403.636H213.908V398.833H218.714V394.03Z" fill="#714A1C" fill-opacity="0.25" style="mix-blend-mode:multiply"/>
<path fill-rule="evenodd" clip-rule="evenodd" d="M194.685 346H228.325V350.803H194.685V346ZM185.073 355.606V350.803H194.685V355.606H185.073ZM180.268 360.409V355.606H185.073V360.409H180.268ZM180.268 398.833V360.409H175.462V398.833H170.656V413.243H175.462V418.046H180.268V422.849H185.073V427.652H189.879V432.455H199.491V437.258H228.325V432.455H233.131V427.652H237.936V422.849H242.742V360.409H237.936V355.606H233.131V350.803H228.325V355.606H233.131V360.409H237.936V422.849H233.131V427.652H228.325V432.455H199.491V427.652H189.879V422.849H185.073L185.073 418.046V413.243H175.462V398.833H180.268ZM180.268 398.833V403.636H185.073V398.833H180.268Z" fill="black"/>
<path fill-rule="evenodd" clip-rule="evenodd" d="M200.08 346.971H195.922V351.01H191.765V355.049H187.608V359.088H183.451H179.294L179.294 363.127H175.136H170.979V367.166H175.136V387.36H179.294L179.294 391.399H183.451L183.451 395.438H187.608V403.515H191.765V387.36H195.922V379.282H200.08V375.243H216.709H229.18V379.282H233.338V383.321H237.495V371.205H241.652V367.166H237.495V363.127H241.652V359.088H237.495H233.338V355.049H229.18V351.01H216.709V346.971H200.08Z" fill="black"/>
<path fill-rule="evenodd" clip-rule="evenodd" d="M187.608 355.049H191.765L191.765 359.088H195.922L195.922 363.127H200.08V367.166H208.394V371.205H229.18V375.243H208.394H200.08V379.282H195.922L195.922 387.36H191.765L191.765 403.515H187.608V395.438H183.451V391.399H179.293V387.36H175.136V375.243H179.293V379.282H183.451H187.608V375.243H191.765L191.765 371.205H195.922V367.166H191.765L191.765 363.127H187.608V355.049ZM237.495 371.205H233.338V375.243H229.18V379.282H233.338V383.321H237.495V371.205ZM237.495 371.205H241.652V367.166H237.495V371.205ZM225.023 363.127H212.551V367.166H225.023V363.127ZM225.023 363.127H233.338V359.088H225.023V363.127Z" fill="black" fill-opacity="0.2" style="mix-blend-mode:multiply"/>
<path fill-rule="evenodd" clip-rule="evenodd" d="M200.08 355.049H212.551V359.088H200.08V355.049ZM187.608 363.127H183.451V367.166H179.293V371.205H183.451V367.166H187.608V363.127ZM220.866 355.049H216.709V359.088H220.866V355.049Z" fill="white" fill-opacity="0.3" style="mix-blend-mode:lighten"/>
<path fill-rule="evenodd" clip-rule="evenodd" d="M195.923 342.933H216.709V346.971H195.923V342.933ZM191.765 351.01V346.971H195.923V351.01H191.765ZM187.608 355.049V351.01H191.765V355.049H187.608ZM179.294 359.088V355.049H187.608V359.088H179.294ZM170.979 363.127V359.088H179.294V363.127H170.979ZM170.979 367.166H166.822V363.127H170.979V367.166ZM175.136 387.36H170.979V367.166H175.136V387.36ZM175.136 387.36H179.294V395.438H175.136V387.36ZM229.181 351.01H216.709V346.971H229.181V351.01ZM233.338 355.049H229.181V351.01H233.338V355.049ZM241.652 359.088H233.338V355.049H241.652V359.088ZM241.652 363.127V359.088H245.81V363.127H241.652ZM241.652 367.166H237.495V363.127H241.652V367.166ZM241.652 371.205H245.81V367.166H241.652V371.205ZM241.652 371.205V387.36H237.495V371.205H241.652Z" fill="black"/>
<path d="M194.621 350.793H228.172V355.586H232.965V360.379H237.758V422.687H232.965V427.48H228.172V432.273H199.414V427.48H189.828V422.687H185.035V413.101H175.449V398.722H180.242V360.379H185.035V355.586H194.621V350.793Z" fill="#F3CCA7"/>
<path fill-rule="evenodd" clip-rule="evenodd" d="M189.828 437.066H228.172V441.859H232.965V451.445H228.172V480.202H232.965V489.788H228.172V513.753H218.586V489.788H213.793V499.374H209V504.167H204.207V513.753H194.621V484.995H199.414V480.202H185.035V441.859H189.828V437.066ZM194.621 446.652H199.414V475.41H194.621V446.652Z" fill="#F3CCA7"/>
<path d="M232.965 451.445H237.758V465.824H242.55V475.41H232.965V451.445Z" fill="#F3CCA7"/>
<path d="M228.172 350.793H204.207V355.586H223.379V360.379H232.965V398.722H237.758V360.379H232.965V355.586H228.172V350.793Z" fill="#714A1C" fill-opacity="0.25" style="mix-blend-mode:multiply"/>
<path d="M185.035 360.379H180.242V379.551H185.035V360.379Z" fill="#714A1C" fill-opacity="0.25" style="mix-blend-mode:multiply"/>
<path d="M180.242 403.515H185.035V398.722H189.828V422.687H185.035V408.308H180.242V403.515Z" fill="#714A1C" fill-opacity="0.25" style="mix-blend-mode:multiply"/>
<path d="M189.828 422.687H204.207V427.48H228.172V432.273H199.414V427.48H189.828V422.687Z" fill="#714A1C" fill-opacity="0.25" style="mix-blend-mode:multiply"/>
<path d="M232.965 451.445H237.758V465.824H242.55V475.41H232.965V451.445Z" fill="#714A1C" fill-opacity="0.25" style="mix-blend-mode:multiply"/>
<path d="M232.965 451.445H228.172V446.652H223.379V441.859H199.414V437.066H228.172V441.859H232.965V451.445Z" fill="#714A1C" fill-opacity="0.25" style="mix-blend-mode:multiply"/>
<path d="M232.965 480.202H228.172V456.238H223.379V480.202H228.172V489.788H232.965V480.202Z" fill="#714A1C" fill-opacity="0.25" style="mix-blend-mode:multiply"/>
<path d="M223.379 494.581H228.172V513.753H223.379V494.581Z" fill="#714A1C" fill-opacity="0.25" style="mix-blend-mode:multiply"/>
<path d="M199.414 484.995H194.621V513.753H204.207V504.167H199.414V484.995Z" fill="#714A1C" fill-opacity="0.25" style="mix-blend-mode:multiply"/>
<path d="M209 489.788H213.793V494.581H209V489.788Z" fill="#714A1C" fill-opacity="0.25" style="mix-blend-mode:multiply"/>
<path d="M194.621 456.238H189.828V470.617H185.035V480.202H199.414V475.41H194.621V456.238Z" fill="#714A1C" fill-opacity="0.25" style="mix-blend-mode:multiply"/>
<path d="M199.414 360.379H204.207V365.172H199.414V360.379Z" fill="#FFFCF9" fill-opacity="0.7" style="mix-blend-mode:lighten"/>
<path d="M223.379 360.379H209V365.172H223.379V369.965H228.172V374.758H232.965V369.965H228.172V365.172H223.379V360.379Z" fill="#FFFCF9" fill-opacity="0.7" style="mix-blend-mode:lighten"/>
<path d="M180.242 398.722H175.449V403.515H180.242V398.722Z" fill="#FFFCF9" fill-opacity="0.7" style="mix-blend-mode:lighten"/>
<path d="M189.828 437.066H199.414V441.859H189.828V437.066Z" fill="#FFFCF9" fill-opacity="0.7" style="mix-blend-mode:lighten"/>
<path d="M189.828 441.859V446.652H185.035V441.859H189.828Z" fill="#FFFCF9" fill-opacity="0.7" style="mix-blend-mode:lighten"/>
<path d="M209 453.841H204.207V463.427H209V453.841Z" fill="#FFFCF9" fill-opacity="0.7" style="mix-blend-mode:lighten"/>
<path d="M209 453.841H213.793V449.048H209V453.841Z" fill="#FFFCF9" fill-opacity="0.7" style="mix-blend-mode:lighten"/>
<path d="M218.586 484.995H213.793V489.788H218.586V484.995Z" fill="#FFFCF9" fill-opacity="0.7" style="mix-blend-mode:lighten"/>
<path fill-rule="evenodd" clip-rule="evenodd" d="M228.172 346H194.621V350.793H185.035V355.586H180.242V360.379H175.449V398.722H170.656V413.101H175.449V417.894H180.242V422.687H185.035V427.48H189.828V437.066H185.035V441.859H180.242V480.202H185.035V484.995H189.828V518.546H209V504.167H213.793V518.546H237.757V513.753H232.965V489.788H237.757V480.202H242.55V475.41H247.343V465.824H242.55V451.445H237.757V441.859H232.965V437.066H228.172V432.273H232.965V427.48H237.757V422.687H242.55V360.379H237.757V355.586H232.965V350.793H228.172V346ZM228.172 350.793V355.586H232.965V360.379H237.757V422.687H232.965V427.48H228.172V432.273H199.414V427.48H189.828V422.687H185.035V413.101H175.449V398.722H180.242V403.515H185.035V398.722H180.242V360.379H185.035V355.586H194.621V350.793H228.172ZM232.965 451.445H228.172V480.202H232.965V489.788H228.172V513.753H218.586V489.788H213.793V494.581H209V504.167H204.207V513.753H194.621V484.995H204.207V475.41H199.414V446.652H194.621V475.41H199.414V480.202H185.035V441.859H189.828V437.066H228.172V441.859H232.965V451.445ZM232.965 451.445V475.41H242.55V465.824H237.757V451.445H232.965Z" fill="black"/>
<path fill-rule="evenodd" clip-rule="evenodd" d="M228.325 350.803H194.685V355.606H189.879H185.073V360.409H180.268V398.833H175.462V413.243H180.268H185.073V422.849H189.879V427.652H194.685H199.491V432.455H228.325L228.325 427.652V350.803ZM233.131 355.606H228.325V427.652H233.131V422.849H237.936V360.409H233.131V355.606Z" fill="#F3CCA7"/>
<path fill-rule="evenodd" clip-rule="evenodd" d="M204.296 350.803H228.325V355.606H233.131V360.409H223.519V355.606H204.296V350.803ZM233.131 360.409H237.937V398.833H233.131V360.409ZM180.268 360.409H185.074V398.833H180.268V360.409ZM189.879 422.849H185.074V408.439H180.268V403.636H185.074V398.833H189.879V422.849ZM204.296 427.652V422.849H189.879V427.652H199.491V432.455H228.325V427.652H204.296ZM185.074 360.409V355.606H189.879V360.409H185.074Z" fill="#714A1C" fill-opacity="0.25" style="mix-blend-mode:multiply"/>
<path fill-rule="evenodd" clip-rule="evenodd" d="M204.296 360.409H199.491V365.212H204.296V360.409ZM209.102 360.409H223.519V365.212H209.102V360.409ZM228.325 370.015V365.212H223.519V370.015H228.325ZM228.325 370.015L228.325 374.818H233.131V370.015H228.325ZM175.462 398.833H180.268V403.636H175.462V398.833Z" fill="#FFFCF9" fill-opacity="0.7" style="mix-blend-mode:lighten"/>
<path fill-rule="evenodd" clip-rule="evenodd" d="M213.908 394.03H199.491V398.833H204.296V408.439H209.102V398.833H213.908V394.03ZM213.908 418.046H223.519V422.849H213.908V418.046ZM213.908 418.046H209.102V413.243H213.908V418.046ZM223.519 394.03H228.325H233.131V398.833H228.325V408.439H223.519V394.03Z" fill="black"/>
<path fill-rule="evenodd" clip-rule="evenodd" d="M218.714 394.03H213.908V398.833H209.102V403.636H213.908V398.833H218.714V394.03Z" fill="#714A1C" fill-opacity="0.25" style="mix-blend-mode:multiply"/>
<path fill-rule="evenodd" clip-rule="evenodd" d="M194.685 346H228.325V350.803H194.685V346ZM185.073 355.606V350.803H194.685V355.606H185.073ZM180.268 360.409V355.606H185.073V360.409H180.268ZM180.268 398.833V360.409H175.462V398.833H170.656V413.243H175.462V418.046H180.268V422.849H185.073V427.652H189.879V432.455H199.491V437.258H228.325V432.455H233.131V427.652H237.936V422.849H242.742V360.409H237.936V355.606H233.131V350.803H228.325V355.606H233.131V360.409H237.936V422.849H233.131V427.652H228.325V432.455H199.491V427.652H189.879V422.849H185.073L185.073 418.046V413.243H175.462V398.833H180.268ZM180.268 398.833V403.636H185.073V398.833H180.268Z" fill="black"/>
<path fill-rule="evenodd" clip-rule="evenodd" d="M200.08 346.971H195.922V351.01H191.765V355.049H187.608V359.088H183.451H179.294L179.294 363.127H175.136H170.979V367.166H175.136V387.36H179.294L179.294 391.399H183.451L183.451 395.438H187.608V403.515H191.765V387.36H195.922V379.282H200.08V375.243H216.709H229.18V379.282H233.338V383.321H237.495V371.205H241.652V367.166H237.495V363.127H241.652V359.088H237.495H233.338V355.049H229.18V351.01H216.709V346.971H200.08Z" fill="black"/>
<path fill-rule="evenodd" clip-rule="evenodd" d="M187.608 355.049H191.765L191.765 359.088H195.922L195.922 363.127H200.08V367.166H208.394V371.205H229.18V375.243H208.394H200.08V379.282H195.922L195.922 387.36H191.765L191.765 403.515H187.608V395.438H183.451V391.399H179.293V387.36H175.136V375.243H179.293V379.282H183.451H187.608V375.243H191.765L191.765 371.205H195.922V367.166H191.765L191.765 363.127H187.608V355.049ZM237.495 371.205H233.338V375.243H229.18V379.282H233.338V383.321H237.495V371.205ZM237.495 371.205H241.652V367.166H237.495V371.205ZM225.023 363.127H212.551V367.166H225.023V363.127ZM225.023 363.127H233.338V359.088H225.023V363.127Z" fill="black" fill-opacity="0.2" style="mix-blend-mode:multiply"/>
<path fill-rule="evenodd" clip-rule="evenodd" d="M200.08 355.049H212.551V359.088H200.08V355.049ZM187.608 363.127H183.451V367.166H179.293V371.205H183.451V367.166H187.608V363.127ZM220.866 355.049H216.709V359.088H220.866V355.049Z" fill="white" fill-opacity="0.3" style="mix-blend-mode:lighten"/>
<path fill-rule="evenodd" clip-rule="evenodd" d="M195.923 342.933H216.709V346.971H195.923V342.933ZM191.765 351.01V346.971H195.923V351.01H191.765ZM187.608 355.049V351.01H191.765V355.049H187.608ZM179.294 359.088V355.049H187.608V359.088H179.294ZM170.979 363.127V359.088H179.294V363.127H170.979ZM170.979 367.166H166.822V363.127H170.979V367.166ZM175.136 387.36H170.979V367.166H175.136V387.36ZM175.136 387.36H179.294V395.438H175.136V387.36ZM229.181 351.01H216.709V346.971H229.181V351.01ZM233.338 355.049H229.181V351.01H233.338V355.049ZM241.652 359.088H233.338V355.049H241.652V359.088ZM241.652 363.127V359.088H245.81V363.127H241.652ZM241.652 367.166H237.495V363.127H241.652V367.166ZM241.652 371.205H245.81V367.166H241.652V371.205ZM241.652 371.205V387.36H237.495V371.205H241.652Z" fill="black"/>
<path fill-rule="evenodd" clip-rule="evenodd" d="M218.8 437.231H209.067V441.846H218.8V437.231ZM243.133 464.923H238.267H233.4V469.538H238.267L238.267 474.154H243.133V464.923ZM184.733 469.538H179.867V478.769H184.733H189.6V469.538H184.733ZM194.467 469.538H189.6V474.154H194.467V469.538Z" fill="#F3CCA7"/>
<path fill-rule="evenodd" clip-rule="evenodd" d="M209.067 437.231H218.8V441.846H209.067V437.231ZM233.4 464.923H238.267H243.133V474.154H238.267V469.538H233.4V464.923ZM189.6 469.538H194.467V474.154H189.6V478.769H184.733V469.538H189.6Z" fill="#714A1C" fill-opacity="0.25" style="mix-blend-mode:multiply"/>
<rect x="209.067" y="446.462" width="9.73333" height="27.6923" fill="#8F00FF"/>
<path d="M213.933 446.462H218.8V474.154H213.933V446.462Z" fill="black" fill-opacity="0.2" style="mix-blend-mode:multiply"/>
<path fill-rule="evenodd" clip-rule="evenodd" d="M199.333 432.615H194.467L194.467 437.231H189.6V441.846H184.733V464.923H189.6H194.467L194.467 446.462H199.333V432.615ZM194.467 474.154H199.333V483.385H194.467V474.154ZM204.2 437.231H199.333V483.385H204.2V437.231ZM218.8 441.846H223.667V437.231H228.533L228.533 441.846H233.4V451.077H228.533V474.154H233.4V483.385H228.533H223.667V474.154H218.8V441.846ZM233.4 451.077V460.308H238.267V451.077H233.4Z" fill="black"/>
<path fill-rule="evenodd" clip-rule="evenodd" d="M194.467 432.615H199.333V437.231H194.467V432.615ZM199.333 441.846V437.231H204.2V441.846H199.333ZM199.333 441.846V446.462H194.467V441.846H199.333ZM223.667 437.231H228.533V441.846H223.667V437.231ZM233.4 451.077V441.846L228.533 441.846V451.077H233.4ZM233.4 451.077V460.308H238.267V451.077H233.4ZM228.533 464.923H223.667V483.385H228.533H233.4V474.154H228.533L228.533 464.923ZM204.2 474.154H194.467V483.385H204.2V474.154ZM189.6 455.692H194.467V464.923H189.6V455.692Z" fill="black" fill-opacity="0.2" style="mix-blend-mode:multiply"/>
<path fill-rule="evenodd" clip-rule="evenodd" d="M199.333 428H194.467V432.615H189.6V437.231H184.733V441.846H179.867V469.538H175V478.769H179.867V483.385H189.6H194.467V488H204.2V483.385H209.067V478.769H218.8V483.385H223.667V441.846V437.231H228.533V441.846H233.4V451.077H228.533V474.154H233.4V483.385H223.667V488H233.4V483.385H238.267V478.769H243.133V474.154H248V464.923H243.133V451.077H238.267V441.846H233.4V437.231H228.533V432.615H223.667V437.231H218.8V441.846H209.067V437.231H204.2V432.615H199.333V428ZM199.333 432.615V437.231H204.2V483.385L194.467 483.385V474.154H199.333V446.462H194.467V464.923H184.733V441.846H189.6V437.231H194.467V432.615H199.333ZM243.133 464.923V474.154H238.267V469.538H233.4V464.923H238.267H243.133ZM238.267 451.077H233.4V460.308H238.267V451.077ZM218.8 474.154V446.462H209.067V474.154H218.8ZM194.467 474.154H189.6L189.6 478.769H179.867V469.538H184.733H194.467V474.154Z" fill="black"/>
<path fill-rule="evenodd" clip-rule="evenodd" d="M204.4 481.556H194.8V508.889H204.4V504.333H209.2V499.778H214V486.111H218.8L218.8 508.889H228.4L228.4 504.333H233.2V481.556H228.4H218.8H214H209.2H204.4Z" fill="black"/>
<path fill-rule="evenodd" clip-rule="evenodd" d="M194.8 477H190V518H194.8H204.4H209.2V504.333H214V518H218.8H228.4H233.2H238V513.444H233.2V504.333H238V477H233.2H194.8ZM218.8 513.444H228.4V504.333H233.2V490.667H228.4V486.111H233.2V481.556H194.8V486.111H199.6V490.667H194.8V513.444H204.4V504.333H209.2V499.778H214V486.111H218.8V513.444Z" fill="black"/>
<path fill-rule="evenodd" clip-rule="evenodd" d="M194.8 481.556H199.6V486.111H194.8V481.556ZM194.8 490.667H199.6V495.222H194.8V490.667ZM204.4 504.333H199.6V508.889H204.4V504.333ZM209.2 499.778V504.333L204.4 504.333V499.778H209.2ZM209.2 499.778V486.111H214V499.778L209.2 499.778ZM233.2 481.556H228.4V486.111H233.2V481.556ZM228.4 490.667H233.2V495.222H228.4V490.667ZM223.6 490.667H218.8V508.889H223.6L228.4 508.889V499.778H223.6L223.6 490.667Z" fill="black" fill-opacity="0.2" style="mix-blend-mode:multiply"/>
<path fill-rule="evenodd" clip-rule="evenodd" d="M204.4 508.889H194.8V513.444H204.4V508.889ZM228.4 508.889H218.8V513.444H228.4V508.889Z" fill="white"/>
<path fill-rule="evenodd" clip-rule="evenodd" d="M199.6 508.889H194.8V513.444H199.6V508.889ZM223.6 508.889H218.8V513.444H223.6V508.889Z" fill="black" fill-opacity="0.2" style="mix-blend-mode:multiply"/>
<path d="M151 572H176V569.5H178.5V559.5H176V557H168.5H161V552H178.5V547H153.5V549.5H151V559.5H153.5V562H168.5V567H151V572ZM180.98 572H205.98V569.5H208.48V559.5H205.98V557H198.48H190.98V552H208.48V547H183.48V549.5H180.98V559.5H183.48V562H198.48V567H180.98V572ZM220.961 562H228.461V572H238.461V549.5H235.961V547H228.461H213.461V549.5H210.961V572H220.961V562ZM220.961 552H228.461V557H220.961V552ZM250.941 559.5H253.441V562H255.941V564.5H258.441V562H260.941V559.5H263.441V572H273.441V547H263.441V549.5H260.941V552H258.441V554.5H255.941V552H253.441V549.5H250.941V547H240.941V572H250.941V559.5Z" fill="#FAF1AC"/>
<path d="M151 572H150V573H151V572ZM176 572V573H177V572H176ZM176 569.5V568.5H175V569.5H176ZM178.5 569.5V570.5H179.5V569.5H178.5ZM178.5 559.5H179.5V558.5H178.5V559.5ZM176 559.5H175V560.5H176V559.5ZM176 557H177V556H176V557ZM161 557H160V558H161V557ZM161 552V551H160V552H161ZM178.5 552V553H179.5V552H178.5ZM178.5 547H179.5V546H178.5V547ZM153.5 547V546H152.5V547H153.5ZM153.5 549.5V550.5H154.5V549.5H153.5ZM151 549.5V548.5H150V549.5H151ZM151 559.5H150V560.5H151V559.5ZM153.5 559.5H154.5V558.5H153.5V559.5ZM153.5 562H152.5V563H153.5V562ZM168.5 562H169.5V561H168.5V562ZM168.5 567V568H169.5V567H168.5ZM151 567V566H150V567H151ZM151 573H176V571H151V573ZM177 572V569.5H175V572H177ZM176 570.5H178.5V568.5H176V570.5ZM179.5 569.5V559.5H177.5V569.5H179.5ZM178.5 558.5H176V560.5H178.5V558.5ZM177 559.5V557H175V559.5H177ZM176 556H168.5V558H176V556ZM168.5 556H161V558H168.5V556ZM162 557V552H160V557H162ZM161 553H178.5V551H161V553ZM179.5 552V547H177.5V552H179.5ZM178.5 546H153.5V548H178.5V546ZM152.5 547V549.5H154.5V547H152.5ZM153.5 548.5H151V550.5H153.5V548.5ZM150 549.5V559.5H152V549.5H150ZM151 560.5H153.5V558.5H151V560.5ZM152.5 559.5V562H154.5V559.5H152.5ZM153.5 563H168.5V561H153.5V563ZM167.5 562V567H169.5V562H167.5ZM168.5 566H151V568H168.5V566ZM150 567V572H152V567H150ZM180.98 572H179.98V573H180.98V572ZM205.98 572V573H206.98V572H205.98ZM205.98 569.5V568.5H204.98V569.5H205.98ZM208.48 569.5V570.5H209.48V569.5H208.48ZM208.48 559.5H209.48V558.5H208.48V559.5ZM205.98 559.5H204.98V560.5H205.98V559.5ZM205.98 557H206.98V556H205.98V557ZM190.98 557H189.98V558H190.98V557ZM190.98 552V551H189.98V552H190.98ZM208.48 552V553H209.48V552H208.48ZM208.48 547H209.48V546H208.48V547ZM183.48 547V546H182.48V547H183.48ZM183.48 549.5V550.5H184.48V549.5H183.48ZM180.98 549.5V548.5H179.98V549.5H180.98ZM180.98 559.5H179.98V560.5H180.98V559.5ZM183.48 559.5H184.48V558.5H183.48V559.5ZM183.48 562H182.48V563H183.48V562ZM198.48 562H199.48V561H198.48V562ZM198.48 567V568H199.48V567H198.48ZM180.98 567V566H179.98V567H180.98ZM180.98 573H205.98V571H180.98V573ZM206.98 572V569.5H204.98V572H206.98ZM205.98 570.5H208.48V568.5H205.98V570.5ZM209.48 569.5V559.5H207.48V569.5H209.48ZM208.48 558.5H205.98V560.5H208.48V558.5ZM206.98 559.5V557H204.98V559.5H206.98ZM205.98 556H198.48V558H205.98V556ZM198.48 556H190.98V558H198.48V556ZM191.98 557V552H189.98V557H191.98ZM190.98 553H208.48V551H190.98V553ZM209.48 552V547H207.48V552H209.48ZM208.48 546H183.48V548H208.48V546ZM182.48 547V549.5H184.48V547H182.48ZM183.48 548.5H180.98V550.5H183.48V548.5ZM179.98 549.5V559.5H181.98V549.5H179.98ZM180.98 560.5H183.48V558.5H180.98V560.5ZM182.48 559.5V562H184.48V559.5H182.48ZM183.48 563H198.48V561H183.48V563ZM197.48 562V567H199.48V562H197.48ZM198.48 566H180.98V568H198.48V566ZM179.98 567V572H181.98V567H179.98ZM220.961 562V561H219.961V562H220.961ZM228.461 562H229.461V561H228.461V562ZM228.461 572H227.461V573H228.461V572ZM238.461 572V573H239.461V572H238.461ZM238.461 549.5H239.461V548.5H238.461V549.5ZM235.961 549.5H234.961V550.5H235.961V549.5ZM235.961 547H236.961V546H235.961V547ZM213.461 547V546H212.461V547H213.461ZM213.461 549.5V550.5H214.461V549.5H213.461ZM210.961 549.5V548.5H209.961V549.5H210.961ZM210.961 572H209.961V573H210.961V572ZM220.961 572V573H221.961V572H220.961ZM220.961 552V551H219.961V552H220.961ZM228.461 552H229.461V551H228.461V552ZM228.461 557V558H229.461V557H228.461ZM220.961 557H219.961V558H220.961V557ZM220.961 563H228.461V561H220.961V563ZM227.461 562V572H229.461V562H227.461ZM228.461 573H238.461V571H228.461V573ZM239.461 572V549.5H237.461V572H239.461ZM238.461 548.5H235.961V550.5H238.461V548.5ZM236.961 549.5V547H234.961V549.5H236.961ZM235.961 546H228.461V548H235.961V546ZM228.461 546H213.461V548H228.461V546ZM212.461 547V549.5H214.461V547H212.461ZM213.461 548.5H210.961V550.5H213.461V548.5ZM209.961 549.5V572H211.961V549.5H209.961ZM210.961 573H220.961V571H210.961V573ZM221.961 572V562H219.961V572H221.961ZM220.961 553H228.461V551H220.961V553ZM227.461 552V557H229.461V552H227.461ZM228.461 556H220.961V558H228.461V556ZM221.961 557V552H219.961V557H221.961ZM250.941 559.5V558.5H249.941V559.5H250.941ZM253.441 559.5H254.441V558.5H253.441V559.5ZM253.441 562H252.441V563H253.441V562ZM255.941 562H256.941V561H255.941V562ZM255.941 564.5H254.941V565.5H255.941V564.5ZM258.441 564.5V565.5H259.441V564.5H258.441ZM258.441 562V561H257.441V562H258.441ZM260.941 562V563H261.941V562H260.941ZM260.941 559.5V558.5H259.941V559.5H260.941ZM263.441 559.5H264.441V558.5H263.441V559.5ZM263.441 572H262.441V573H263.441V572ZM273.441 572V573H274.441V572H273.441ZM273.441 547H274.441V546H273.441V547ZM263.441 547V546H262.441V547H263.441ZM263.441 549.5V550.5H264.441V549.5H263.441ZM260.941 549.5V548.5H259.941V549.5H260.941ZM260.941 552V553H261.941V552H260.941ZM258.441 552V551H257.441V552H258.441ZM258.441 554.5V555.5H259.441V554.5H258.441ZM255.941 554.5H254.941V555.5H255.941V554.5ZM255.941 552H256.941V551H255.941V552ZM253.441 552H252.441V553H253.441V552ZM253.441 549.5H254.441V548.5H253.441V549.5ZM250.941 549.5H249.941V550.5H250.941V549.5ZM250.941 547H251.941V546H250.941V547ZM240.941 547V546H239.941V547H240.941ZM240.941 572H239.941V573H240.941V572ZM250.941 572V573H251.941V572H250.941ZM250.941 560.5H253.441V558.5H250.941V560.5ZM252.441 559.5V562H254.441V559.5H252.441ZM253.441 563H255.941V561H253.441V563ZM254.941 562V564.5H256.941V562H254.941ZM255.941 565.5H258.441V563.5H255.941V565.5ZM259.441 564.5V562H257.441V564.5H259.441ZM258.441 563H260.941V561H258.441V563ZM261.941 562V559.5H259.941V562H261.941ZM260.941 560.5H263.441V558.5H260.941V560.5ZM262.441 559.5V572H264.441V559.5H262.441ZM263.441 573H273.441V571H263.441V573ZM274.441 572V547H272.441V572H274.441ZM273.441 546H263.441V548H273.441V546ZM262.441 547V549.5H264.441V547H262.441ZM263.441 548.5H260.941V550.5H263.441V548.5ZM259.941 549.5V552H261.941V549.5H259.941ZM260.941 551H258.441V553H260.941V551ZM257.441 552V554.5H259.441V552H257.441ZM258.441 553.5H255.941V555.5H258.441V553.5ZM256.941 554.5V552H254.941V554.5H256.941ZM255.941 551H253.441V553H255.941V551ZM254.441 552V549.5H252.441V552H254.441ZM253.441 548.5H250.941V550.5H253.441V548.5ZM251.941 549.5V547H249.941V549.5H251.941ZM250.941 546H240.941V548H250.941V546ZM239.941 547V572H241.941V547H239.941ZM240.941 573H250.941V571H240.941V573ZM251.941 572V559.5H249.941V572H251.941Z" fill="black"/>
<g filter="url(#filter1_d_2_3554)">
<rect x="125" y="703" width="181" height="83" fill="#FFBE00"/>
<rect x="127.5" y="705.5" width="176" height="78" stroke="black" stroke-width="5"/>
</g>
<g style="mix-blend-mode:hard-light" filter="url(#filter2_d_2_3554)">
<path d="M178 743H176V747H178V743ZM254.414 746.414C255.195 745.633 255.195 744.367 254.414 743.586L241.686 730.858C240.905 730.077 239.639 730.077 238.858 730.858C238.077 731.639 238.077 732.905 238.858 733.686L250.172 745L238.858 756.314C238.077 757.095 238.077 758.361 238.858 759.142C239.639 759.923 240.905 759.923 241.686 759.142L254.414 746.414ZM178 747H253V743H178V747Z" fill="black"/>
</g>
<path d="M133.103 710.863V703H297.897V710.863H304V777.263H297.897V786H133.103V777.263H127V710.863H133.103Z" stroke="black" stroke-width="4"/>
<path d="M232 724L228 720" stroke="black" stroke-width="4"/>
<path d="M234 764L228 769" stroke="black" stroke-width="4"/>
<g filter="url(#filter3_d_2_3554)">
<rect x="125" y="703" width="181" height="83" fill="#FFBE00"/>
<rect x="127.5" y="705.5" width="176" height="78" stroke="black" stroke-width="5"/>
</g>
<path d="M133.103 710.863V703H297.897V710.863H304V777.263H297.897V786H133.103V777.263H127V710.863H133.103Z" stroke="black" stroke-width="4"/>
<path d="M164 748H179V745.5H181.5V735.5H179V733H171.5H164H154V758H164V748ZM164 738H171.5V743H164V738ZM183.98 758H211.48V753H193.98V733H183.98V758ZM223.961 748H231.461V758H241.461V735.5H238.961V733H231.461H216.461V735.5H213.961V758H223.961V748ZM223.961 738H231.461V743H223.961V738ZM243.941 743H246.441V745.5H248.941V748H253.941V758H263.941V748H268.941V745.5H271.441V743H273.941V733H263.941V740.5H261.441V743H256.441V740.5H253.941V733H243.941V743Z" fill="black"/>
<defs>
<filter id="filter0_d_2_3554" x="40" y="155" width="357.863" height="33" filterUnits="userSpaceOnUse" color-interpolation-filters="sRGB">
<feFlood flood-opacity="0" result="BackgroundImageFix"/>
<feColorMatrix in="SourceAlpha" type="matrix" values="0 0 0 0 0 0 0 0 0 0 0 0 0 0 0 0 0 0 127 0" result="hardAlpha"/>
<feOffset dx="4" dy="4"/>
<feGaussianBlur stdDeviation="2"/>
<feComposite in2="hardAlpha" operator="out"/>
<feColorMatrix type="matrix" values="0 0 0 0 0 0 0 0 0 0 0 0 0 0 0 0 0 0 0.25 0"/>
<feBlend mode="normal" in2="BackgroundImageFix" result="effect1_dropShadow_2_3554"/>
<feBlend mode="normal" in="SourceGraphic" in2="effect1_dropShadow_2_3554" result="shape"/>
</filter>
<filter id="filter1_d_2_3554" x="121" y="703" width="189" height="91" filterUnits="userSpaceOnUse" color-interpolation-filters="sRGB">
<feFlood flood-opacity="0" result="BackgroundImageFix"/>
<feColorMatrix in="SourceAlpha" type="matrix" values="0 0 0 0 0 0 0 0 0 0 0 0 0 0 0 0 0 0 127 0" result="hardAlpha"/>
<feOffset dy="4"/>
<feGaussianBlur stdDeviation="2"/>
<feComposite in2="hardAlpha" operator="out"/>
<feColorMatrix type="matrix" values="0 0 0 0 0 0 0 0 0 0 0 0 0 0 0 0 0 0 0.25 0"/>
<feBlend mode="normal" in2="BackgroundImageFix" result="effect1_dropShadow_2_3554"/>
<feBlend mode="normal" in="SourceGraphic" in2="effect1_dropShadow_2_3554" result="shape"/>
</filter>
<filter id="filter2_d_2_3554" x="172" y="730.272" width="87" height="37.4558" filterUnits="userSpaceOnUse" color-interpolation-filters="sRGB">
<feFlood flood-opacity="0" result="BackgroundImageFix"/>
<feColorMatrix in="SourceAlpha" type="matrix" values="0 0 0 0 0 0 0 0 0 0 0 0 0 0 0 0 0 0 127 0" result="hardAlpha"/>
<feOffset dy="4"/>
<feGaussianBlur stdDeviation="2"/>
<feComposite in2="hardAlpha" operator="out"/>
<feColorMatrix type="matrix" values="0 0 0 0 0 0 0 0 0 0 0 0 0 0 0 0 0 0 0.25 0"/>
<feBlend mode="normal" in2="BackgroundImageFix" result="effect1_dropShadow_2_3554"/>
<feBlend mode="normal" in="SourceGraphic" in2="effect1_dropShadow_2_3554" result="shape"/>
</filter>
<filter id="filter3_d_2_3554" x="121" y="703" width="189" height="91" filterUnits="userSpaceOnUse" color-interpolation-filters="sRGB">
<feFlood flood-opacity="0" result="BackgroundImageFix"/>
<feColorMatrix in="SourceAlpha" type="matrix" values="0 0 0 0 0 0 0 0 0 0 0 0 0 0 0 0 0 0 127 0" result="hardAlpha"/>
<feOffset dy="4"/>
<feGaussianBlur stdDeviation="2"/>
<feComposite in2="hardAlpha" operator="out"/>
<feColorMatrix type="matrix" values="0 0 0 0 0 0 0 0 0 0 0 0 0 0 0 0 0 0 0.25 0"/>
<feBlend mode="normal" in2="BackgroundImageFix" result="effect1_dropShadow_2_3554"/>
<feBlend mode="normal" in="SourceGraphic" in2="effect1_dropShadow_2_3554" result="shape"/>
</filter>
</defs>
</svg>
