<svg width="428" height="926" viewBox="0 0 428 926" fill="none" xmlns="http://www.w3.org/2000/svg">
<rect width="428" height="926" fill="#A4BBD6"/>
<g filter="url(#filter0_d_2_2685)">
<path d="M37 381H62V378.5H64.5V368.5H62V366H54.5H47V361H64.5V356H39.5V358.5H37V368.5H39.5V371H54.5V376H37V381ZM76.9805 373.5H79.4805V376H81.9805V378.5H84.4805V381H96.9805V376H94.4805V373.5H91.9805V371H89.4805V366H91.9805V363.5H94.4805V361H96.9805V356H94.4805H84.4805V358.5H81.9805V361H79.4805V363.5H76.9805V356H66.9805V381H76.9805V373.5ZM109.5 371H117V381H127V371H124.5V366H127V358.5H124.5V356H117H109.5H99.5V381H109.5V371ZM109.5 361H117V366H109.5V361ZM129.48 361H136.98V376H129.48V381H154.48V376H146.98V361H154.48V356H129.48V361ZM181.971 378.5H184.471V371H181.971V366H184.471V358.5H181.971V356H166.971H156.971V381H181.971V378.5ZM166.971 371H174.471V376H166.971V371ZM166.971 361H174.471V366H166.971V361ZM211.951 378.5H214.451V371H211.951V366H214.451V358.5H211.951V356H196.951H186.951V381H211.951V378.5ZM196.951 371H204.451V376H196.951V371ZM196.951 361H204.451V366H196.951V361ZM216.932 381H244.432V376H226.932V356H216.932V381ZM289.393 378.5H291.893V368.5H289.393V366H276.893V371H281.893V376H274.393V361H291.893V356H266.893V358.5H264.393V378.5H266.893V381H289.393V378.5ZM304.373 371H311.873V381H321.873V358.5H319.373V356H311.873H296.873V358.5H294.373V381H304.373V371ZM304.373 361H311.873V366H304.373V361ZM334.354 368.5H336.854V371H339.354V373.5H341.854V371H344.354V368.5H346.854V381H356.854V356H346.854V358.5H344.354V361H341.854V363.5H339.354V361H336.854V358.5H334.354V356H324.354V381H334.354V368.5ZM361.863 381H386.863V376H369.363V371H376.863V366H369.363V361H386.863V356H361.863V358.5H359.363V378.5H361.863V381Z" fill="#FFC700"/>
<path d="M37 381H35V383H37V381ZM62 381V383H64V381H62ZM62 378.5V376.5H60V378.5H62ZM64.5 378.5V380.5H66.5V378.5H64.5ZM64.5 368.5H66.5V366.5H64.5V368.5ZM62 368.5H60V370.5H62V368.5ZM62 366H64V364H62V366ZM47 366H45V368H47V366ZM47 361V359H45V361H47ZM64.5 361V363H66.5V361H64.5ZM64.5 356H66.5V354H64.5V356ZM39.5 356V354H37.5V356H39.5ZM39.5 358.5V360.5H41.5V358.5H39.5ZM37 358.5V356.5H35V358.5H37ZM37 368.5H35V370.5H37V368.5ZM39.5 368.5H41.5V366.5H39.5V368.5ZM39.5 371H37.5V373H39.5V371ZM54.5 371H56.5V369H54.5V371ZM54.5 376V378H56.5V376H54.5ZM37 376V374H35V376H37ZM37 383H62V379H37V383ZM64 381V378.5H60V381H64ZM62 380.5H64.5V376.5H62V380.5ZM66.5 378.5V368.5H62.5V378.5H66.5ZM64.5 366.5H62V370.5H64.5V366.5ZM64 368.5V366H60V368.5H64ZM62 364H54.5V368H62V364ZM54.5 364H47V368H54.5V364ZM49 366V361H45V366H49ZM47 363H64.5V359H47V363ZM66.5 361V356H62.5V361H66.5ZM64.5 354H39.5V358H64.5V354ZM37.5 356V358.5H41.5V356H37.5ZM39.5 356.5H37V360.5H39.5V356.5ZM35 358.5V368.5H39V358.5H35ZM37 370.5H39.5V366.5H37V370.5ZM37.5 368.5V371H41.5V368.5H37.5ZM39.5 373H54.5V369H39.5V373ZM52.5 371V376H56.5V371H52.5ZM54.5 374H37V378H54.5V374ZM35 376V381H39V376H35ZM76.9805 373.5V371.5H74.9805V373.5H76.9805ZM79.4805 373.5H81.4805V371.5H79.4805V373.5ZM79.4805 376H77.4805V378H79.4805V376ZM81.9805 376H83.9805V374H81.9805V376ZM81.9805 378.5H79.9805V380.5H81.9805V378.5ZM84.4805 378.5H86.4805V376.5H84.4805V378.5ZM84.4805 381H82.4805V383H84.4805V381ZM96.9805 381V383H98.9805V381H96.9805ZM96.9805 376H98.9805V374H96.9805V376ZM94.4805 376H92.4805V378H94.4805V376ZM94.4805 373.5H96.4805V371.5H94.4805V373.5ZM91.9805 373.5H89.9805V375.5H91.9805V373.5ZM91.9805 371H93.9805V369H91.9805V371ZM89.4805 371H87.4805V373H89.4805V371ZM89.4805 366V364H87.4805V366H89.4805ZM91.9805 366V368H93.9805V366H91.9805ZM91.9805 363.5V361.5H89.9805V363.5H91.9805ZM94.4805 363.5V365.5H96.4805V363.5H94.4805ZM94.4805 361V359H92.4805V361H94.4805ZM96.9805 361V363H98.9805V361H96.9805ZM96.9805 356H98.9805V354H96.9805V356ZM84.4805 356V354H82.4805V356H84.4805ZM84.4805 358.5V360.5H86.4805V358.5H84.4805ZM81.9805 358.5V356.5H79.9805V358.5H81.9805ZM81.9805 361V363H83.9805V361H81.9805ZM79.4805 361V359H77.4805V361H79.4805ZM79.4805 363.5V365.5H81.4805V363.5H79.4805ZM76.9805 363.5H74.9805V365.5H76.9805V363.5ZM76.9805 356H78.9805V354H76.9805V356ZM66.9805 356V354H64.9805V356H66.9805ZM66.9805 381H64.9805V383H66.9805V381ZM76.9805 381V383H78.9805V381H76.9805ZM76.9805 375.5H79.4805V371.5H76.9805V375.5ZM77.4805 373.5V376H81.4805V373.5H77.4805ZM79.4805 378H81.9805V374H79.4805V378ZM79.9805 376V378.5H83.9805V376H79.9805ZM81.9805 380.5H84.4805V376.5H81.9805V380.5ZM82.4805 378.5V381H86.4805V378.5H82.4805ZM84.4805 383H96.9805V379H84.4805V383ZM98.9805 381V376H94.9805V381H98.9805ZM96.9805 374H94.4805V378H96.9805V374ZM96.4805 376V373.5H92.4805V376H96.4805ZM94.4805 371.5H91.9805V375.5H94.4805V371.5ZM93.9805 373.5V371H89.9805V373.5H93.9805ZM91.9805 369H89.4805V373H91.9805V369ZM91.4805 371V366H87.4805V371H91.4805ZM89.4805 368H91.9805V364H89.4805V368ZM93.9805 366V363.5H89.9805V366H93.9805ZM91.9805 365.5H94.4805V361.5H91.9805V365.5ZM96.4805 363.5V361H92.4805V363.5H96.4805ZM94.4805 363H96.9805V359H94.4805V363ZM98.9805 361V356H94.9805V361H98.9805ZM96.9805 354H94.4805V358H96.9805V354ZM94.4805 354H84.4805V358H94.4805V354ZM82.4805 356V358.5H86.4805V356H82.4805ZM84.4805 356.5H81.9805V360.5H84.4805V356.5ZM79.9805 358.5V361H83.9805V358.5H79.9805ZM81.9805 359H79.4805V363H81.9805V359ZM77.4805 361V363.5H81.4805V361H77.4805ZM79.4805 361.5H76.9805V365.5H79.4805V361.5ZM78.9805 363.5V356H74.9805V363.5H78.9805ZM76.9805 354H66.9805V358H76.9805V354ZM64.9805 356V381H68.9805V356H64.9805ZM66.9805 383H76.9805V379H66.9805V383ZM78.9805 381V373.5H74.9805V381H78.9805ZM109.5 371V369H107.5V371H109.5ZM117 371H119V369H117V371ZM117 381H115V383H117V381ZM127 381V383H129V381H127ZM127 371H129V369H127V371ZM124.5 371H122.5V373H124.5V371ZM124.5 366V364H122.5V366H124.5ZM127 366V368H129V366H127ZM127 358.5H129V356.5H127V358.5ZM124.5 358.5H122.5V360.5H124.5V358.5ZM124.5 356H126.5V354H124.5V356ZM99.5 356V354H97.5V356H99.5ZM99.5 381H97.5V383H99.5V381ZM109.5 381V383H111.5V381H109.5ZM109.5 361V359H107.5V361H109.5ZM117 361H119V359H117V361ZM117 366V368H119V366H117ZM109.5 366H107.5V368H109.5V366ZM109.5 373H117V369H109.5V373ZM115 371V381H119V371H115ZM117 383H127V379H117V383ZM129 381V371H125V381H129ZM127 369H124.5V373H127V369ZM126.5 371V366H122.5V371H126.5ZM124.5 368H127V364H124.5V368ZM129 366V358.5H125V366H129ZM127 356.5H124.5V360.5H127V356.5ZM126.5 358.5V356H122.5V358.5H126.5ZM124.5 354H117V358H124.5V354ZM117 354H109.5V358H117V354ZM109.5 354H99.5V358H109.5V354ZM97.5 356V381H101.5V356H97.5ZM99.5 383H109.5V379H99.5V383ZM111.5 381V371H107.5V381H111.5ZM109.5 363H117V359H109.5V363ZM115 361V366H119V361H115ZM117 364H109.5V368H117V364ZM111.5 366V361H107.5V366H111.5ZM129.48 361H127.48V363H129.48V361ZM136.98 361H138.98V359H136.98V361ZM136.98 376V378H138.98V376H136.98ZM129.48 376V374H127.48V376H129.48ZM129.48 381H127.48V383H129.48V381ZM154.48 381V383H156.48V381H154.48ZM154.48 376H156.48V374H154.48V376ZM146.98 376H144.98V378H146.98V376ZM146.98 361V359H144.98V361H146.98ZM154.48 361V363H156.48V361H154.48ZM154.48 356H156.48V354H154.48V356ZM129.48 356V354H127.48V356H129.48ZM129.48 363H136.98V359H129.48V363ZM134.98 361V376H138.98V361H134.98ZM136.98 374H129.48V378H136.98V374ZM127.48 376V381H131.48V376H127.48ZM129.48 383H154.48V379H129.48V383ZM156.48 381V376H152.48V381H156.48ZM154.48 374H146.98V378H154.48V374ZM148.98 376V361H144.98V376H148.98ZM146.98 363H154.48V359H146.98V363ZM156.48 361V356H152.48V361H156.48ZM154.48 354H129.48V358H154.48V354ZM127.48 356V361H131.48V356H127.48ZM181.971 378.5V376.5H179.971V378.5H181.971ZM184.471 378.5V380.5H186.471V378.5H184.471ZM184.471 371H186.471V369H184.471V371ZM181.971 371H179.971V373H181.971V371ZM181.971 366V364H179.971V366H181.971ZM184.471 366V368H186.471V366H184.471ZM184.471 358.5H186.471V356.5H184.471V358.5ZM181.971 358.5H179.971V360.5H181.971V358.5ZM181.971 356H183.971V354H181.971V356ZM156.971 356V354H154.971V356H156.971ZM156.971 381H154.971V383H156.971V381ZM181.971 381V383H183.971V381H181.971ZM166.971 371V369H164.971V371H166.971ZM174.471 371H176.471V369H174.471V371ZM174.471 376V378H176.471V376H174.471ZM166.971 376H164.971V378H166.971V376ZM166.971 361V359H164.971V361H166.971ZM174.471 361H176.471V359H174.471V361ZM174.471 366V368H176.471V366H174.471ZM166.971 366H164.971V368H166.971V366ZM181.971 380.5H184.471V376.5H181.971V380.5ZM186.471 378.5V371H182.471V378.5H186.471ZM184.471 369H181.971V373H184.471V369ZM183.971 371V366H179.971V371H183.971ZM181.971 368H184.471V364H181.971V368ZM186.471 366V358.5H182.471V366H186.471ZM184.471 356.5H181.971V360.5H184.471V356.5ZM183.971 358.5V356H179.971V358.5H183.971ZM181.971 354H166.971V358H181.971V354ZM166.971 354H156.971V358H166.971V354ZM154.971 356V381H158.971V356H154.971ZM156.971 383H181.971V379H156.971V383ZM183.971 381V378.5H179.971V381H183.971ZM166.971 373H174.471V369H166.971V373ZM172.471 371V376H176.471V371H172.471ZM174.471 374H166.971V378H174.471V374ZM168.971 376V371H164.971V376H168.971ZM166.971 363H174.471V359H166.971V363ZM172.471 361V366H176.471V361H172.471ZM174.471 364H166.971V368H174.471V364ZM168.971 366V361H164.971V366H168.971ZM211.951 378.5V376.5H209.951V378.5H211.951ZM214.451 378.5V380.5H216.451V378.5H214.451ZM214.451 371H216.451V369H214.451V371ZM211.951 371H209.951V373H211.951V371ZM211.951 366V364H209.951V366H211.951ZM214.451 366V368H216.451V366H214.451ZM214.451 358.5H216.451V356.5H214.451V358.5ZM211.951 358.5H209.951V360.5H211.951V358.5ZM211.951 356H213.951V354H211.951V356ZM186.951 356V354H184.951V356H186.951ZM186.951 381H184.951V383H186.951V381ZM211.951 381V383H213.951V381H211.951ZM196.951 371V369H194.951V371H196.951ZM204.451 371H206.451V369H204.451V371ZM204.451 376V378H206.451V376H204.451ZM196.951 376H194.951V378H196.951V376ZM196.951 361V359H194.951V361H196.951ZM204.451 361H206.451V359H204.451V361ZM204.451 366V368H206.451V366H204.451ZM196.951 366H194.951V368H196.951V366ZM211.951 380.5H214.451V376.5H211.951V380.5ZM216.451 378.5V371H212.451V378.5H216.451ZM214.451 369H211.951V373H214.451V369ZM213.951 371V366H209.951V371H213.951ZM211.951 368H214.451V364H211.951V368ZM216.451 366V358.5H212.451V366H216.451ZM214.451 356.5H211.951V360.5H214.451V356.5ZM213.951 358.5V356H209.951V358.5H213.951ZM211.951 354H196.951V358H211.951V354ZM196.951 354H186.951V358H196.951V354ZM184.951 356V381H188.951V356H184.951ZM186.951 383H211.951V379H186.951V383ZM213.951 381V378.5H209.951V381H213.951ZM196.951 373H204.451V369H196.951V373ZM202.451 371V376H206.451V371H202.451ZM204.451 374H196.951V378H204.451V374ZM198.951 376V371H194.951V376H198.951ZM196.951 363H204.451V359H196.951V363ZM202.451 361V366H206.451V361H202.451ZM204.451 364H196.951V368H204.451V364ZM198.951 366V361H194.951V366H198.951ZM216.932 381H214.932V383H216.932V381ZM244.432 381V383H246.432V381H244.432ZM244.432 376H246.432V374H244.432V376ZM226.932 376H224.932V378H226.932V376ZM226.932 356H228.932V354H226.932V356ZM216.932 356V354H214.932V356H216.932ZM216.932 383H244.432V379H216.932V383ZM246.432 381V376H242.432V381H246.432ZM244.432 374H226.932V378H244.432V374ZM228.932 376V356H224.932V376H228.932ZM226.932 354H216.932V358H226.932V354ZM214.932 356V381H218.932V356H214.932ZM289.393 378.5V376.5H287.393V378.5H289.393ZM291.893 378.5V380.5H293.893V378.5H291.893ZM291.893 368.5H293.893V366.5H291.893V368.5ZM289.393 368.5H287.393V370.5H289.393V368.5ZM289.393 366H291.393V364H289.393V366ZM276.893 366V364H274.893V366H276.893ZM276.893 371H274.893V373H276.893V371ZM281.893 371H283.893V369H281.893V371ZM281.893 376V378H283.893V376H281.893ZM274.393 376H272.393V378H274.393V376ZM274.393 361V359H272.393V361H274.393ZM291.893 361V363H293.893V361H291.893ZM291.893 356H293.893V354H291.893V356ZM266.893 356V354H264.893V356H266.893ZM266.893 358.5V360.5H268.893V358.5H266.893ZM264.393 358.5V356.5H262.393V358.5H264.393ZM264.393 378.5H262.393V380.5H264.393V378.5ZM266.893 378.5H268.893V376.5H266.893V378.5ZM266.893 381H264.893V383H266.893V381ZM289.393 381V383H291.393V381H289.393ZM289.393 380.5H291.893V376.5H289.393V380.5ZM293.893 378.5V368.5H289.893V378.5H293.893ZM291.893 366.5H289.393V370.5H291.893V366.5ZM291.393 368.5V366H287.393V368.5H291.393ZM289.393 364H276.893V368H289.393V364ZM274.893 366V371H278.893V366H274.893ZM276.893 373H281.893V369H276.893V373ZM279.893 371V376H283.893V371H279.893ZM281.893 374H274.393V378H281.893V374ZM276.393 376V361H272.393V376H276.393ZM274.393 363H291.893V359H274.393V363ZM293.893 361V356H289.893V361H293.893ZM291.893 354H266.893V358H291.893V354ZM264.893 356V358.5H268.893V356H264.893ZM266.893 356.5H264.393V360.5H266.893V356.5ZM262.393 358.5V378.5H266.393V358.5H262.393ZM264.393 380.5H266.893V376.5H264.393V380.5ZM264.893 378.5V381H268.893V378.5H264.893ZM266.893 383H289.393V379H266.893V383ZM291.393 381V378.5H287.393V381H291.393ZM304.373 371V369H302.373V371H304.373ZM311.873 371H313.873V369H311.873V371ZM311.873 381H309.873V383H311.873V381ZM321.873 381V383H323.873V381H321.873ZM321.873 358.5H323.873V356.5H321.873V358.5ZM319.373 358.5H317.373V360.5H319.373V358.5ZM319.373 356H321.373V354H319.373V356ZM296.873 356V354H294.873V356H296.873ZM296.873 358.5V360.5H298.873V358.5H296.873ZM294.373 358.5V356.5H292.373V358.5H294.373ZM294.373 381H292.373V383H294.373V381ZM304.373 381V383H306.373V381H304.373ZM304.373 361V359H302.373V361H304.373ZM311.873 361H313.873V359H311.873V361ZM311.873 366V368H313.873V366H311.873ZM304.373 366H302.373V368H304.373V366ZM304.373 373H311.873V369H304.373V373ZM309.873 371V381H313.873V371H309.873ZM311.873 383H321.873V379H311.873V383ZM323.873 381V358.5H319.873V381H323.873ZM321.873 356.5H319.373V360.5H321.873V356.5ZM321.373 358.5V356H317.373V358.5H321.373ZM319.373 354H311.873V358H319.373V354ZM311.873 354H296.873V358H311.873V354ZM294.873 356V358.5H298.873V356H294.873ZM296.873 356.5H294.373V360.5H296.873V356.5ZM292.373 358.5V381H296.373V358.5H292.373ZM294.373 383H304.373V379H294.373V383ZM306.373 381V371H302.373V381H306.373ZM304.373 363H311.873V359H304.373V363ZM309.873 361V366H313.873V361H309.873ZM311.873 364H304.373V368H311.873V364ZM306.373 366V361H302.373V366H306.373ZM334.354 368.5V366.5H332.354V368.5H334.354ZM336.854 368.5H338.854V366.5H336.854V368.5ZM336.854 371H334.854V373H336.854V371ZM339.354 371H341.354V369H339.354V371ZM339.354 373.5H337.354V375.5H339.354V373.5ZM341.854 373.5V375.5H343.854V373.5H341.854ZM341.854 371V369H339.854V371H341.854ZM344.354 371V373H346.354V371H344.354ZM344.354 368.5V366.5H342.354V368.5H344.354ZM346.854 368.5H348.854V366.5H346.854V368.5ZM346.854 381H344.854V383H346.854V381ZM356.854 381V383H358.854V381H356.854ZM356.854 356H358.854V354H356.854V356ZM346.854 356V354H344.854V356H346.854ZM346.854 358.5V360.5H348.854V358.5H346.854ZM344.354 358.5V356.5H342.354V358.5H344.354ZM344.354 361V363H346.354V361H344.354ZM341.854 361V359H339.854V361H341.854ZM341.854 363.5V365.5H343.854V363.5H341.854ZM339.354 363.5H337.354V365.5H339.354V363.5ZM339.354 361H341.354V359H339.354V361ZM336.854 361H334.854V363H336.854V361ZM336.854 358.5H338.854V356.5H336.854V358.5ZM334.354 358.5H332.354V360.5H334.354V358.5ZM334.354 356H336.354V354H334.354V356ZM324.354 356V354H322.354V356H324.354ZM324.354 381H322.354V383H324.354V381ZM334.354 381V383H336.354V381H334.354ZM334.354 370.5H336.854V366.5H334.354V370.5ZM334.854 368.5V371H338.854V368.5H334.854ZM336.854 373H339.354V369H336.854V373ZM337.354 371V373.5H341.354V371H337.354ZM339.354 375.5H341.854V371.5H339.354V375.5ZM343.854 373.5V371H339.854V373.5H343.854ZM341.854 373H344.354V369H341.854V373ZM346.354 371V368.5H342.354V371H346.354ZM344.354 370.5H346.854V366.5H344.354V370.5ZM344.854 368.5V381H348.854V368.5H344.854ZM346.854 383H356.854V379H346.854V383ZM358.854 381V356H354.854V381H358.854ZM356.854 354H346.854V358H356.854V354ZM344.854 356V358.5H348.854V356H344.854ZM346.854 356.5H344.354V360.5H346.854V356.5ZM342.354 358.5V361H346.354V358.5H342.354ZM344.354 359H341.854V363H344.354V359ZM339.854 361V363.5H343.854V361H339.854ZM341.854 361.5H339.354V365.5H341.854V361.5ZM341.354 363.5V361H337.354V363.5H341.354ZM339.354 359H336.854V363H339.354V359ZM338.854 361V358.5H334.854V361H338.854ZM336.854 356.5H334.354V360.5H336.854V356.5ZM336.354 358.5V356H332.354V358.5H336.354ZM334.354 354H324.354V358H334.354V354ZM322.354 356V381H326.354V356H322.354ZM324.354 383H334.354V379H324.354V383ZM336.354 381V368.5H332.354V381H336.354ZM361.863 381H359.863V383H361.863V381ZM386.863 381V383H388.863V381H386.863ZM386.863 376H388.863V374H386.863V376ZM369.363 376H367.363V378H369.363V376ZM369.363 371V369H367.363V371H369.363ZM376.863 371V373H378.863V371H376.863ZM376.863 366H378.863V364H376.863V366ZM369.363 366H367.363V368H369.363V366ZM369.363 361V359H367.363V361H369.363ZM386.863 361V363H388.863V361H386.863ZM386.863 356H388.863V354H386.863V356ZM361.863 356V354H359.863V356H361.863ZM361.863 358.5V360.5H363.863V358.5H361.863ZM359.363 358.5V356.5H357.363V358.5H359.363ZM359.363 378.5H357.363V380.5H359.363V378.5ZM361.863 378.5H363.863V376.5H361.863V378.5ZM361.863 383H386.863V379H361.863V383ZM388.863 381V376H384.863V381H388.863ZM386.863 374H369.363V378H386.863V374ZM371.363 376V371H367.363V376H371.363ZM369.363 373H376.863V369H369.363V373ZM378.863 371V366H374.863V371H378.863ZM376.863 364H369.363V368H376.863V364ZM371.363 366V361H367.363V366H371.363ZM369.363 363H386.863V359H369.363V363ZM388.863 361V356H384.863V361H388.863ZM386.863 354H361.863V358H386.863V354ZM359.863 356V358.5H363.863V356H359.863ZM361.863 356.5H359.363V360.5H361.863V356.5ZM357.363 358.5V378.5H361.363V358.5H357.363ZM359.363 380.5H361.863V376.5H359.363V380.5ZM359.863 378.5V381H363.863V378.5H359.863Z" fill="black"/>
</g>
<path d="M76.5 356.5H67.5V360.5H76.5V356.5Z" fill="#FCE740"/>
<path d="M96.5 356.5H85V359H82.5V360.5H96.5V356.5Z" fill="#FCE740"/>
<path d="M124 356.5H100V360.5H126V359H124V356.5Z" fill="#FCE740"/>
<path d="M154 356.5H130V360.5H154V356.5Z" fill="#FCE740"/>
<path d="M184 360.5H157.5V356.5H181.5V359H184V360.5Z" fill="#FCE740"/>
<path d="M211.5 356.5H187.5V360.5H214V359H211.5V356.5Z" fill="#FCE740"/>
<path d="M226 356.5H217.5V360.5H226.5V356.5H226Z" fill="#FCE740"/>
<path d="M291.5 360.5H265V360V359H267.5V356.5H291.5V360.5Z" fill="#FCE740"/>
<path d="M321.5 360.5H295V359H297.5V356.5H319V359H321.5V360.5Z" fill="#FCE740"/>
<path d="M325 356.5V360.5H336.5V359H334V356.5H325Z" fill="#FCE740"/>
<path d="M345 359V360.5H356.5V356.5H347.5V359H345Z" fill="#FCE740"/>
<path d="M386.5 360.5H360V359H362.5V356.5H386.5V360.5Z" fill="#FCE740"/>
<path d="M76.5 356.5H67.5V360.5H76.5V356.5Z" stroke="#FCE740"/>
<path d="M96.5 356.5H85V359H82.5V360.5H96.5V356.5Z" stroke="#FCE740"/>
<path d="M124 356.5H100V360.5H126V359H124V356.5Z" stroke="#FCE740"/>
<path d="M154 356.5H130V360.5H154V356.5Z" stroke="#FCE740"/>
<path d="M184 360.5H157.5V356.5H181.5V359H184V360.5Z" stroke="#FCE740"/>
<path d="M211.5 356.5H187.5V360.5H214V359H211.5V356.5Z" stroke="#FCE740"/>
<path d="M226 356.5H217.5V360.5H226.5V356.5H226Z" stroke="#FCE740"/>
<path d="M291.5 360.5H265V360V359H267.5V356.5H291.5V360.5Z" stroke="#FCE740"/>
<path d="M321.5 360.5H295V359H297.5V356.5H319V359H321.5V360.5Z" stroke="#FCE740"/>
<path d="M325 356.5V360.5H336.5V359H334V356.5H325Z" stroke="#FCE740"/>
<path d="M345 359V360.5H356.5V356.5H347.5V359H345Z" stroke="#FCE740"/>
<path d="M386.5 360.5H360V359H362.5V356.5H386.5V360.5Z" stroke="#FCE740"/>
<path d="M37.5 376.5V380.5H61.5V378H64V371.5H55V376.5H37.5Z" fill="#FFA800" stroke="#FFA800"/>
<path d="M109 371.5H100V380.5H109V371.5Z" fill="#FFA800"/>
<path d="M126.5 371.5H117.5V380.5H126.5V371.5Z" fill="#FFA800"/>
<path d="M146.5 371.5H137.5V376.5H130V380.5H154V376.5H146.5V371.5Z" fill="#FFA800"/>
<path d="M157.5 380.5V371.5H166.5V376.5H175V371.5H184V378H181.5V380.5H157.5Z" fill="#FFA800"/>
<path d="M187.5 380.5V371.5H196.5V376.5H205V371.5H214V378H211.5V380.5H187.5Z" fill="#FFA800"/>
<path d="M226.5 371.5H217.5V380.5H244V376.5H226.5V371.5Z" fill="#FFA800"/>
<path d="M274 371.5H265V378H267.5V380.5H289V378H291.5V371.5H282.5V376.5H274V371.5Z" fill="#FFA800"/>
<path d="M295 380.5V371.5H304V380.5H295Z" fill="#FFA800"/>
<path d="M321.5 371.5H312.5V380.5H321.5V371.5Z" fill="#FFA800"/>
<path d="M333.5 371.5H325V380.5H333.5V371.5Z" fill="#FFA800"/>
<path d="M356.5 371.5H347.5V380.5H356.5V371.5Z" fill="#FFA800"/>
<path d="M369 371.5H360V378H362.5V380.5H386V376.5H369V371.5Z" fill="#FFA800"/>
<path d="M109 371.5H100V380.5H109V371.5Z" stroke="#FFA800"/>
<path d="M126.5 371.5H117.5V380.5H126.5V371.5Z" stroke="#FFA800"/>
<path d="M146.5 371.5H137.5V376.5H130V380.5H154V376.5H146.5V371.5Z" stroke="#FFA800"/>
<path d="M157.5 380.5V371.5H166.5V376.5H175V371.5H184V378H181.5V380.5H157.5Z" stroke="#FFA800"/>
<path d="M187.5 380.5V371.5H196.5V376.5H205V371.5H214V378H211.5V380.5H187.5Z" stroke="#FFA800"/>
<path d="M226.5 371.5H217.5V380.5H244V376.5H226.5V371.5Z" stroke="#FFA800"/>
<path d="M274 371.5H265V378H267.5V380.5H289V378H291.5V371.5H282.5V376.5H274V371.5Z" stroke="#FFA800"/>
<path d="M295 380.5V371.5H304V380.5H295Z" stroke="#FFA800"/>
<path d="M321.5 371.5H312.5V380.5H321.5V371.5Z" stroke="#FFA800"/>
<path d="M333.5 371.5H325V380.5H333.5V371.5Z" stroke="#FFA800"/>
<path d="M356.5 371.5H347.5V380.5H356.5V371.5Z" stroke="#FFA800"/>
<path d="M369 371.5H360V378H362.5V380.5H386V376.5H369V371.5Z" stroke="#FFA800"/>
<path d="M64 356.5V360.5H37.5V359H40V356.5H64Z" fill="#FCE740" stroke="#FCE740"/>
<path d="M76.5 380.5H67.5V371.5H89H91.5V374H94V376.5H96.5V380.5H85V378H82.5V375.5H80V373H76.5V380.5Z" fill="#FFA800" stroke="#FFA800"/>
<rect x="25.5" y="103.5" width="106" height="5" fill="#FFA800" stroke="black"/>
<rect x="296.5" y="103.5" width="106" height="5" fill="#FAF1AC" stroke="black"/>
<rect x="160.5" y="103.5" width="106" height="5" fill="#FAF1AC" stroke="black"/>
<path fill-rule="evenodd" clip-rule="evenodd" d="M328.805 17.5768H327.458C326.715 17.5768 326.112 18.158 326.112 18.8749V30.1249C326.112 30.8418 326.715 31.423 327.458 31.423H328.805C329.548 31.423 330.151 30.8418 330.151 30.1249V18.8749C330.151 18.158 329.548 17.5768 328.805 17.5768ZM321.124 20.6059H322.47C323.213 20.6059 323.816 21.187 323.816 21.9039V30.1251C323.816 30.842 323.213 31.4232 322.47 31.4232H321.124C320.38 31.4232 319.777 30.842 319.777 30.1251V21.9039C319.777 21.187 320.38 20.6059 321.124 20.6059ZM316.135 23.6345H314.789C314.045 23.6345 313.443 24.2156 313.443 24.9325V30.1248C313.443 30.8417 314.045 31.4229 314.789 31.4229H316.135C316.878 31.4229 317.481 30.8417 317.481 30.1248V24.9325C317.481 24.2156 316.878 23.6345 316.135 23.6345ZM309.8 26.2306H308.454C307.71 26.2306 307.108 26.8117 307.108 27.5286V30.1248C307.108 30.8417 307.71 31.4229 308.454 31.4229H309.8C310.543 31.4229 311.146 30.8417 311.146 30.1248V27.5286C311.146 26.8117 310.543 26.2306 309.8 26.2306Z" fill="black"/>
<path d="M340.983 31.4107C343.38 31.4107 345.068 29.8016 345.068 27.4669V27.4511C345.068 25.2662 343.538 23.6729 341.401 23.6729C340.352 23.6729 339.46 24.1146 338.979 24.8797H338.845L339.192 21.2514H344.422V19.7528H337.804L337.236 26.3626H338.758C338.892 26.1023 339.074 25.8815 339.279 25.7C339.728 25.2899 340.32 25.0848 341.014 25.0848C342.387 25.0848 343.38 26.0786 343.38 27.4826V27.4984C343.38 28.9261 342.402 29.9278 340.998 29.9278C339.752 29.9278 338.845 29.1312 338.695 28.1294L338.687 28.0663H337.031L337.039 28.1689C337.197 30.0146 338.743 31.4107 340.983 31.4107ZM352.108 31.4107C355.089 31.4107 357.022 29.5413 357.022 26.6544V25.2426H352.352V26.6702H355.279V26.9226C355.263 28.6737 353.993 29.8489 352.132 29.8489C349.994 29.8489 348.653 28.161 348.653 25.4398V25.424C348.653 22.7422 349.986 21.0385 352.092 21.0385C353.654 21.0385 354.742 21.7957 355.153 23.1445L355.176 23.2233H356.943L356.927 23.1445C356.517 20.9438 354.679 19.4767 352.092 19.4767C348.906 19.4767 346.847 21.8193 346.847 25.4319V25.4476C346.847 29.1075 348.882 31.4107 352.108 31.4107Z" fill="black"/>
<rect opacity="0.4" x="364.343" y="17.5769" width="27.6923" height="13.8462" rx="4.03846" stroke="black" stroke-width="1.15385"/>
<path opacity="0.5" d="M393.766 22.1923V26.8077C394.696 26.4168 395.301 25.5075 395.301 24.5C395.301 23.4925 394.696 22.5832 393.766 22.1923Z" fill="black"/>
<rect x="366.074" y="19.3077" width="19.6154" height="10.3846" rx="2.30769" fill="black"/>
<path d="M51.2676 11.001C48.5166 11.001 46.5566 12.8818 46.5566 15.457V15.4746C46.5566 17.8828 48.2617 19.6582 50.6963 19.6582C52.4365 19.6582 53.5439 18.7705 54.0098 17.7686H54.1855C54.1855 17.8652 54.1768 17.9619 54.1768 18.0586C54.0801 20.4844 53.2275 22.4531 51.2148 22.4531C50.0986 22.4531 49.3164 21.873 48.9824 20.9854L48.9561 20.8975H46.7236L46.7412 20.9941C47.1455 22.9365 48.8857 24.3164 51.2148 24.3164C54.4053 24.3164 56.3301 21.7852 56.3301 17.5137V17.4961C56.3301 12.9258 53.9746 11.001 51.2676 11.001ZM51.2588 17.918C49.8174 17.918 48.7715 16.8633 48.7715 15.3955V15.3779C48.7715 13.9629 49.8877 12.8467 51.2852 12.8467C52.6914 12.8467 53.79 13.9805 53.79 15.4307V15.4482C53.79 16.8809 52.6914 17.918 51.2588 17.918ZM59.8203 15.7822C60.6289 15.7822 61.2178 15.167 61.2178 14.3936C61.2178 13.6113 60.6289 13.0049 59.8203 13.0049C59.0205 13.0049 58.4229 13.6113 58.4229 14.3936C58.4229 15.167 59.0205 15.7822 59.8203 15.7822ZM59.8203 22.3037C60.6289 22.3037 61.2178 21.6973 61.2178 20.915C61.2178 20.1328 60.6289 19.5264 59.8203 19.5264C59.0205 19.5264 58.4229 20.1328 58.4229 20.915C58.4229 21.6973 59.0205 22.3037 59.8203 22.3037ZM69.4629 24H71.6338V21.5654H73.3389V19.6934H71.6338V11.3174H68.4258C66.7031 13.9365 64.9014 16.8545 63.2578 19.7109V21.5654H69.4629V24ZM65.3672 19.7461V19.6143C66.5977 17.4609 68.0654 15.1143 69.3662 13.1279H69.498V19.7461H65.3672ZM78.0947 24H80.3623V11.3174H78.1035L74.79 13.6465V15.7822L77.9453 13.5498H78.0947V24Z" fill="black"/>
<path d="M87.9448 17.937L93.2036 17.9517C93.2915 17.9517 93.3062 17.959 93.3062 18.0542L93.3208 23.291C93.3208 24.6533 95.042 24.9536 95.6426 23.6499L101.019 11.9751C101.656 10.5981 100.594 9.63867 99.2461 10.2539L87.52 15.6519C86.3042 16.2085 86.5605 17.9297 87.9448 17.937Z" fill="black"/>
<path d="M24.376 41H25.6382L26.3418 38.9053H29.3066L30.0049 41H31.2725L28.4741 33.2495H27.1743L24.376 41ZM27.7759 34.6084H27.8672L28.9844 37.9385H26.6641L27.7759 34.6084ZM32.4913 42.9443H33.6569V40.0762H33.7428C34.0543 40.7046 34.7364 41.0967 35.5367 41.0967C37.0192 41.0967 37.9537 39.9365 37.9537 38.0889V38.0781C37.9537 36.2412 37.0084 35.0649 35.5367 35.0649C34.7203 35.0649 34.0812 35.4463 33.7428 36.0854H33.6569V35.167H32.4913V42.9443ZM35.2091 40.103C34.2369 40.103 33.6354 39.335 33.6354 38.0889V38.0781C33.6354 36.832 34.2369 36.064 35.2091 36.064C36.1813 36.064 36.7667 36.8213 36.7667 38.0781V38.0889C36.7667 39.3403 36.1813 40.103 35.2091 40.103ZM39.3606 42.9443H40.5261V40.0762H40.6121C40.9236 40.7046 41.6057 41.0967 42.406 41.0967C43.8884 41.0967 44.823 39.9365 44.823 38.0889V38.0781C44.823 36.2412 43.8777 35.0649 42.406 35.0649C41.5896 35.0649 40.9504 35.4463 40.6121 36.0854H40.5261V35.167H39.3606V42.9443ZM42.0784 40.103C41.1062 40.103 40.5046 39.335 40.5046 38.0889V38.0781C40.5046 36.832 41.1062 36.064 42.0784 36.064C43.0505 36.064 43.636 36.8213 43.636 38.0781V38.0889C43.636 39.3403 43.0505 40.103 42.0784 40.103ZM51.998 41.188C53.8027 41.188 54.9575 40.2642 54.9575 38.7817V38.7764C54.9575 37.627 54.2915 36.9717 52.664 36.6226L51.8208 36.4346C50.8164 36.2197 50.4082 35.8438 50.4082 35.269V35.2637C50.4082 34.5332 51.0796 34.1089 51.9873 34.1089C52.9272 34.1035 53.5342 34.5654 53.6362 35.1992L53.647 35.269H54.8125L54.8071 35.1938C54.7212 33.9907 53.647 33.0615 52.0034 33.0615C50.3598 33.0615 49.1997 33.9854 49.1943 35.3228V35.3281C49.1943 36.4722 49.8711 37.2026 51.4448 37.5356L52.2934 37.7183C53.3193 37.9385 53.7383 38.3252 53.7383 38.9214V38.9268C53.7383 39.6465 53.0346 40.1406 52.0464 40.1406C51.0097 40.1406 50.2632 39.6895 50.1987 38.9858L50.1933 38.9268H49.0117L49.0171 38.9966C49.1245 40.3018 50.2471 41.188 51.998 41.188ZM58.6148 41.0376C58.8404 41.0376 59.0553 41.0107 59.2433 40.9785V40.0493C59.0821 40.0654 58.9801 40.0708 58.8028 40.0708C58.2281 40.0708 57.9918 39.813 57.9918 39.1846V36.0854H59.2433V35.167H57.9918V33.6953H56.8048V35.167H55.8917V36.0854H56.8048V39.4639C56.8048 40.5864 57.3312 41.0376 58.6148 41.0376ZM63.0134 41.1128C64.7214 41.1128 65.7688 39.9688 65.7688 38.0889V38.0781C65.7688 36.1982 64.716 35.0542 63.0134 35.0542C61.3054 35.0542 60.2527 36.2036 60.2527 38.0781V38.0889C60.2527 39.9688 61.3 41.1128 63.0134 41.1128ZM63.0134 40.1406C62.009 40.1406 61.445 39.3833 61.445 38.0889V38.0781C61.445 36.7837 62.009 36.0264 63.0134 36.0264C64.0124 36.0264 64.5818 36.7837 64.5818 38.0781V38.0889C64.5818 39.3779 64.0124 40.1406 63.0134 40.1406ZM67.1649 41H68.3304V37.5142C68.3304 36.6709 68.9373 36.123 69.8289 36.123C70.0492 36.123 70.2479 36.1499 70.4574 36.1929V35.1187C70.3392 35.0918 70.1351 35.0649 69.9471 35.0649C69.1683 35.0649 68.6258 35.4302 68.4163 36.0479H68.3304V35.167H67.1649V41ZM73.873 41.1128C75.3662 41.1128 76.1718 40.2534 76.3652 39.4854L76.3759 39.437L75.2534 39.4424L75.2319 39.4854C75.0922 39.7861 74.6464 40.1567 73.8999 40.1567C72.9384 40.1567 72.3261 39.5068 72.3046 38.3896H76.4404V37.9814C76.4404 36.2305 75.4414 35.0542 73.8139 35.0542C72.1865 35.0542 71.1338 36.2734 71.1338 38.0942V38.0996C71.1338 39.9473 72.165 41.1128 73.873 41.1128ZM73.8193 36.0103C74.6088 36.0103 75.1943 36.5151 75.2856 37.5571H72.3208C72.4228 36.5527 73.0244 36.0103 73.8193 36.0103Z" fill="black"/>
<path d="M19.5234 33.8115C19.3345 33.8115 19.1851 33.8906 18.9785 33.9917L13.4326 36.6768C13.0415 36.8657 12.8965 37.0635 12.8965 37.3315C12.8965 37.5996 13.0415 37.7974 13.4326 37.9907L18.9785 40.6714C19.1895 40.7725 19.3389 40.8516 19.5234 40.8516C19.875 40.8516 20.1211 40.5835 20.1211 40.1528V34.5103C20.1211 34.084 19.875 33.8115 19.5234 33.8115Z" fill="black"/>
<rect x="146" y="913" width="135" height="5" rx="2.5" fill="black"/>
<g filter="url(#filter1_d_2_2685)">
<rect x="37" y="503" width="352" height="65" fill="#FFC700"/>
<rect x="35.5" y="501.5" width="355" height="68" stroke="black" stroke-width="3"/>
</g>
<g filter="url(#filter2_d_2_2685)">
<rect x="59" y="509" width="296" height="40" fill="#FFA800"/>
</g>
<g filter="url(#filter3_d_2_2685)">
<rect x="41" y="509" width="344" height="53" fill="#FAF1AC"/>
</g>
<path d="M101 536.5H103.5V539H106V541.5H108.5V549H118.5V524H108.5V531.5H106V529H103.5V526.5H101V524H91V549H101V536.5ZM120.98 529H128.48V544H120.98V549H145.98V544H138.48V529H145.98V524H120.98V529ZM173.471 546.5H175.971V539H173.471H165.971V544H158.471V529H165.971V534H175.971V526.5H173.471V524H158.471H150.971V526.5H148.471V546.5H150.971V549H173.471V546.5ZM188.451 541.5H190.951V544H193.451V546.5H195.951V549H208.451V544H205.951V541.5H203.451V539H200.951V534H203.451V531.5H205.951V529H208.451V524H205.951H195.951V526.5H193.451V529H190.951V531.5H188.451V524H178.451V549H188.451V541.5ZM220.971 536.5H223.471V539H225.971V541.5H228.471V549H238.471V524H228.471V531.5H225.971V529H223.471V526.5H220.971V524H210.971V549H220.971V536.5ZM250.951 539H258.451V549H268.451V526.5H265.951V524H258.451H243.451V526.5H240.951V549H250.951V539ZM250.951 529H258.451V534H250.951V529ZM280.932 536.5H283.432V539H285.932V541.5H288.432V549H298.432V524H288.432V531.5H285.932V529H283.432V526.5H280.932V524H270.932V549H280.932V536.5ZM303.412 549H328.412V544H310.912V539H318.412V534H310.912V529H328.412V524H303.412V526.5H300.912V546.5H303.412V549Z" fill="black" fill-opacity="0.6"/>
<defs>
<filter id="filter0_d_2_2685" x="37" y="356" width="357.863" height="33" filterUnits="userSpaceOnUse" color-interpolation-filters="sRGB">
<feFlood flood-opacity="0" result="BackgroundImageFix"/>
<feColorMatrix in="SourceAlpha" type="matrix" values="0 0 0 0 0 0 0 0 0 0 0 0 0 0 0 0 0 0 127 0" result="hardAlpha"/>
<feOffset dx="4" dy="4"/>
<feGaussianBlur stdDeviation="2"/>
<feComposite in2="hardAlpha" operator="out"/>
<feColorMatrix type="matrix" values="0 0 0 0 0 0 0 0 0 0 0 0 0 0 0 0 0 0 0.25 0"/>
<feBlend mode="normal" in2="BackgroundImageFix" result="effect1_dropShadow_2_2685"/>
<feBlend mode="normal" in="SourceGraphic" in2="effect1_dropShadow_2_2685" result="shape"/>
</filter>
<filter id="filter1_d_2_2685" x="30" y="500" width="366" height="79" filterUnits="userSpaceOnUse" color-interpolation-filters="sRGB">
<feFlood flood-opacity="0" result="BackgroundImageFix"/>
<feColorMatrix in="SourceAlpha" type="matrix" values="0 0 0 0 0 0 0 0 0 0 0 0 0 0 0 0 0 0 127 0" result="hardAlpha"/>
<feOffset dy="4"/>
<feGaussianBlur stdDeviation="2"/>
<feComposite in2="hardAlpha" operator="out"/>
<feColorMatrix type="matrix" values="0 0 0 0 0 0 0 0 0 0 0 0 0 0 0 0 0 0 0.25 0"/>
<feBlend mode="normal" in2="BackgroundImageFix" result="effect1_dropShadow_2_2685"/>
<feBlend mode="normal" in="SourceGraphic" in2="effect1_dropShadow_2_2685" result="shape"/>
</filter>
<filter id="filter2_d_2_2685" x="55" y="509" width="304" height="48" filterUnits="userSpaceOnUse" color-interpolation-filters="sRGB">
<feFlood flood-opacity="0" result="BackgroundImageFix"/>
<feColorMatrix in="SourceAlpha" type="matrix" values="0 0 0 0 0 0 0 0 0 0 0 0 0 0 0 0 0 0 127 0" result="hardAlpha"/>
<feOffset dy="4"/>
<feGaussianBlur stdDeviation="2"/>
<feComposite in2="hardAlpha" operator="out"/>
<feColorMatrix type="matrix" values="0 0 0 0 0 0 0 0 0 0 0 0 0 0 0 0 0 0 0.25 0"/>
<feBlend mode="normal" in2="BackgroundImageFix" result="effect1_dropShadow_2_2685"/>
<feBlend mode="normal" in="SourceGraphic" in2="effect1_dropShadow_2_2685" result="shape"/>
</filter>
<filter id="filter3_d_2_2685" x="37" y="509" width="352" height="61" filterUnits="userSpaceOnUse" color-interpolation-filters="sRGB">
<feFlood flood-opacity="0" result="BackgroundImageFix"/>
<feColorMatrix in="SourceAlpha" type="matrix" values="0 0 0 0 0 0 0 0 0 0 0 0 0 0 0 0 0 0 127 0" result="hardAlpha"/>
<feOffset dy="4"/>
<feGaussianBlur stdDeviation="2"/>
<feComposite in2="hardAlpha" operator="out"/>
<feColorMatrix type="matrix" values="0 0 0 0 0 0 0 0 0 0 0 0 0 0 0 0 0 0 0.25 0"/>
<feBlend mode="normal" in2="BackgroundImageFix" result="effect1_dropShadow_2_2685"/>
<feBlend mode="normal" in="SourceGraphic" in2="effect1_dropShadow_2_2685" result="shape"/>
</filter>
</defs>
</svg>
