<svg width="428" height="926" viewBox="0 0 428 926" fill="none" xmlns="http://www.w3.org/2000/svg">
<g clip-path="url(#clip0_2_913)">
<rect width="428" height="926" fill="#A4BBD6"/>
<rect x="107.5" y="381.5" width="212" height="15" fill="#C4C4C4" stroke="black"/>
<rect x="19.5" y="309.5" width="389" height="62" fill="#C4C4C4" stroke="black" stroke-width="3"/>
<g filter="url(#filter0_d_2_913)">
<path d="M37 111H62V108.5H64.5V98.5H62V96H54.5H47V91H64.5V86H39.5V88.5H37V98.5H39.5V101H54.5V106H37V111ZM76.9805 103.5H79.4805V106H81.9805V108.5H84.4805V111H96.9805V106H94.4805V103.5H91.9805V101H89.4805V96H91.9805V93.5H94.4805V91H96.9805V86H94.4805H84.4805V88.5H81.9805V91H79.4805V93.5H76.9805V86H66.9805V111H76.9805V103.5ZM109.5 101H117V111H127V101H124.5V96H127V88.5H124.5V86H117H109.5H99.5V111H109.5V101ZM109.5 91H117V96H109.5V91ZM129.48 91H136.98V106H129.48V111H154.48V106H146.98V91H154.48V86H129.48V91ZM181.971 108.5H184.471V101H181.971V96H184.471V88.5H181.971V86H166.971H156.971V111H181.971V108.5ZM166.971 101H174.471V106H166.971V101ZM166.971 91H174.471V96H166.971V91ZM211.951 108.5H214.451V101H211.951V96H214.451V88.5H211.951V86H196.951H186.951V111H211.951V108.5ZM196.951 101H204.451V106H196.951V101ZM196.951 91H204.451V96H196.951V91ZM216.932 111H244.432V106H226.932V86H216.932V111ZM289.393 108.5H291.893V98.5H289.393V96H276.893V101H281.893V106H274.393V91H291.893V86H266.893V88.5H264.393V108.5H266.893V111H289.393V108.5ZM304.373 101H311.873V111H321.873V88.5H319.373V86H311.873H296.873V88.5H294.373V111H304.373V101ZM304.373 91H311.873V96H304.373V91ZM334.354 98.5H336.854V101H339.354V103.5H341.854V101H344.354V98.5H346.854V111H356.854V86H346.854V88.5H344.354V91H341.854V93.5H339.354V91H336.854V88.5H334.354V86H324.354V111H334.354V98.5ZM361.863 111H386.863V106H369.363V101H376.863V96H369.363V91H386.863V86H361.863V88.5H359.363V108.5H361.863V111Z" fill="#FFC700"/>
<path d="M37 111H35V113H37V111ZM62 111V113H64V111H62ZM62 108.5V106.5H60V108.5H62ZM64.5 108.5V110.5H66.5V108.5H64.5ZM64.5 98.5H66.5V96.5H64.5V98.5ZM62 98.5H60V100.5H62V98.5ZM62 96H64V94H62V96ZM47 96H45V98H47V96ZM47 91V89H45V91H47ZM64.5 91V93H66.5V91H64.5ZM64.5 86H66.5V84H64.5V86ZM39.5 86V84H37.5V86H39.5ZM39.5 88.5V90.5H41.5V88.5H39.5ZM37 88.5V86.5H35V88.5H37ZM37 98.5H35V100.5H37V98.5ZM39.5 98.5H41.5V96.5H39.5V98.5ZM39.5 101H37.5V103H39.5V101ZM54.5 101H56.5V99H54.5V101ZM54.5 106V108H56.5V106H54.5ZM37 106V104H35V106H37ZM37 113H62V109H37V113ZM64 111V108.5H60V111H64ZM62 110.5H64.5V106.5H62V110.5ZM66.5 108.5V98.5H62.5V108.5H66.5ZM64.5 96.5H62V100.5H64.5V96.5ZM64 98.5V96H60V98.5H64ZM62 94H54.5V98H62V94ZM54.5 94H47V98H54.5V94ZM49 96V91H45V96H49ZM47 93H64.5V89H47V93ZM66.5 91V86H62.5V91H66.5ZM64.5 84H39.5V88H64.5V84ZM37.5 86V88.5H41.5V86H37.5ZM39.5 86.5H37V90.5H39.5V86.5ZM35 88.5V98.5H39V88.5H35ZM37 100.5H39.5V96.5H37V100.5ZM37.5 98.5V101H41.5V98.5H37.5ZM39.5 103H54.5V99H39.5V103ZM52.5 101V106H56.5V101H52.5ZM54.5 104H37V108H54.5V104ZM35 106V111H39V106H35ZM76.9805 103.5V101.5H74.9805V103.5H76.9805ZM79.4805 103.5H81.4805V101.5H79.4805V103.5ZM79.4805 106H77.4805V108H79.4805V106ZM81.9805 106H83.9805V104H81.9805V106ZM81.9805 108.5H79.9805V110.5H81.9805V108.5ZM84.4805 108.5H86.4805V106.5H84.4805V108.5ZM84.4805 111H82.4805V113H84.4805V111ZM96.9805 111V113H98.9805V111H96.9805ZM96.9805 106H98.9805V104H96.9805V106ZM94.4805 106H92.4805V108H94.4805V106ZM94.4805 103.5H96.4805V101.5H94.4805V103.5ZM91.9805 103.5H89.9805V105.5H91.9805V103.5ZM91.9805 101H93.9805V99H91.9805V101ZM89.4805 101H87.4805V103H89.4805V101ZM89.4805 96V94H87.4805V96H89.4805ZM91.9805 96V98H93.9805V96H91.9805ZM91.9805 93.5V91.5H89.9805V93.5H91.9805ZM94.4805 93.5V95.5H96.4805V93.5H94.4805ZM94.4805 91V89H92.4805V91H94.4805ZM96.9805 91V93H98.9805V91H96.9805ZM96.9805 86H98.9805V84H96.9805V86ZM84.4805 86V84H82.4805V86H84.4805ZM84.4805 88.5V90.5H86.4805V88.5H84.4805ZM81.9805 88.5V86.5H79.9805V88.5H81.9805ZM81.9805 91V93H83.9805V91H81.9805ZM79.4805 91V89H77.4805V91H79.4805ZM79.4805 93.5V95.5H81.4805V93.5H79.4805ZM76.9805 93.5H74.9805V95.5H76.9805V93.5ZM76.9805 86H78.9805V84H76.9805V86ZM66.9805 86V84H64.9805V86H66.9805ZM66.9805 111H64.9805V113H66.9805V111ZM76.9805 111V113H78.9805V111H76.9805ZM76.9805 105.5H79.4805V101.5H76.9805V105.5ZM77.4805 103.5V106H81.4805V103.5H77.4805ZM79.4805 108H81.9805V104H79.4805V108ZM79.9805 106V108.5H83.9805V106H79.9805ZM81.9805 110.5H84.4805V106.5H81.9805V110.5ZM82.4805 108.5V111H86.4805V108.5H82.4805ZM84.4805 113H96.9805V109H84.4805V113ZM98.9805 111V106H94.9805V111H98.9805ZM96.9805 104H94.4805V108H96.9805V104ZM96.4805 106V103.5H92.4805V106H96.4805ZM94.4805 101.5H91.9805V105.5H94.4805V101.5ZM93.9805 103.5V101H89.9805V103.5H93.9805ZM91.9805 99H89.4805V103H91.9805V99ZM91.4805 101V96H87.4805V101H91.4805ZM89.4805 98H91.9805V94H89.4805V98ZM93.9805 96V93.5H89.9805V96H93.9805ZM91.9805 95.5H94.4805V91.5H91.9805V95.5ZM96.4805 93.5V91H92.4805V93.5H96.4805ZM94.4805 93H96.9805V89H94.4805V93ZM98.9805 91V86H94.9805V91H98.9805ZM96.9805 84H94.4805V88H96.9805V84ZM94.4805 84H84.4805V88H94.4805V84ZM82.4805 86V88.5H86.4805V86H82.4805ZM84.4805 86.5H81.9805V90.5H84.4805V86.5ZM79.9805 88.5V91H83.9805V88.5H79.9805ZM81.9805 89H79.4805V93H81.9805V89ZM77.4805 91V93.5H81.4805V91H77.4805ZM79.4805 91.5H76.9805V95.5H79.4805V91.5ZM78.9805 93.5V86H74.9805V93.5H78.9805ZM76.9805 84H66.9805V88H76.9805V84ZM64.9805 86V111H68.9805V86H64.9805ZM66.9805 113H76.9805V109H66.9805V113ZM78.9805 111V103.5H74.9805V111H78.9805ZM109.5 101V99H107.5V101H109.5ZM117 101H119V99H117V101ZM117 111H115V113H117V111ZM127 111V113H129V111H127ZM127 101H129V99H127V101ZM124.5 101H122.5V103H124.5V101ZM124.5 96V94H122.5V96H124.5ZM127 96V98H129V96H127ZM127 88.5H129V86.5H127V88.5ZM124.5 88.5H122.5V90.5H124.5V88.5ZM124.5 86H126.5V84H124.5V86ZM99.5 86V84H97.5V86H99.5ZM99.5 111H97.5V113H99.5V111ZM109.5 111V113H111.5V111H109.5ZM109.5 91V89H107.5V91H109.5ZM117 91H119V89H117V91ZM117 96V98H119V96H117ZM109.5 96H107.5V98H109.5V96ZM109.5 103H117V99H109.5V103ZM115 101V111H119V101H115ZM117 113H127V109H117V113ZM129 111V101H125V111H129ZM127 99H124.5V103H127V99ZM126.5 101V96H122.5V101H126.5ZM124.5 98H127V94H124.5V98ZM129 96V88.5H125V96H129ZM127 86.5H124.5V90.5H127V86.5ZM126.5 88.5V86H122.5V88.5H126.5ZM124.5 84H117V88H124.5V84ZM117 84H109.5V88H117V84ZM109.5 84H99.5V88H109.5V84ZM97.5 86V111H101.5V86H97.5ZM99.5 113H109.5V109H99.5V113ZM111.5 111V101H107.5V111H111.5ZM109.5 93H117V89H109.5V93ZM115 91V96H119V91H115ZM117 94H109.5V98H117V94ZM111.5 96V91H107.5V96H111.5ZM129.48 91H127.48V93H129.48V91ZM136.98 91H138.98V89H136.98V91ZM136.98 106V108H138.98V106H136.98ZM129.48 106V104H127.48V106H129.48ZM129.48 111H127.48V113H129.48V111ZM154.48 111V113H156.48V111H154.48ZM154.48 106H156.48V104H154.48V106ZM146.98 106H144.98V108H146.98V106ZM146.98 91V89H144.98V91H146.98ZM154.48 91V93H156.48V91H154.48ZM154.48 86H156.48V84H154.48V86ZM129.48 86V84H127.48V86H129.48ZM129.48 93H136.98V89H129.48V93ZM134.98 91V106H138.98V91H134.98ZM136.98 104H129.48V108H136.98V104ZM127.48 106V111H131.48V106H127.48ZM129.48 113H154.48V109H129.48V113ZM156.48 111V106H152.48V111H156.48ZM154.48 104H146.98V108H154.48V104ZM148.98 106V91H144.98V106H148.98ZM146.98 93H154.48V89H146.98V93ZM156.48 91V86H152.48V91H156.48ZM154.48 84H129.48V88H154.48V84ZM127.48 86V91H131.48V86H127.48ZM181.971 108.5V106.5H179.971V108.5H181.971ZM184.471 108.5V110.5H186.471V108.5H184.471ZM184.471 101H186.471V99H184.471V101ZM181.971 101H179.971V103H181.971V101ZM181.971 96V94H179.971V96H181.971ZM184.471 96V98H186.471V96H184.471ZM184.471 88.5H186.471V86.5H184.471V88.5ZM181.971 88.5H179.971V90.5H181.971V88.5ZM181.971 86H183.971V84H181.971V86ZM156.971 86V84H154.971V86H156.971ZM156.971 111H154.971V113H156.971V111ZM181.971 111V113H183.971V111H181.971ZM166.971 101V99H164.971V101H166.971ZM174.471 101H176.471V99H174.471V101ZM174.471 106V108H176.471V106H174.471ZM166.971 106H164.971V108H166.971V106ZM166.971 91V89H164.971V91H166.971ZM174.471 91H176.471V89H174.471V91ZM174.471 96V98H176.471V96H174.471ZM166.971 96H164.971V98H166.971V96ZM181.971 110.5H184.471V106.5H181.971V110.5ZM186.471 108.5V101H182.471V108.5H186.471ZM184.471 99H181.971V103H184.471V99ZM183.971 101V96H179.971V101H183.971ZM181.971 98H184.471V94H181.971V98ZM186.471 96V88.5H182.471V96H186.471ZM184.471 86.5H181.971V90.5H184.471V86.5ZM183.971 88.5V86H179.971V88.5H183.971ZM181.971 84H166.971V88H181.971V84ZM166.971 84H156.971V88H166.971V84ZM154.971 86V111H158.971V86H154.971ZM156.971 113H181.971V109H156.971V113ZM183.971 111V108.5H179.971V111H183.971ZM166.971 103H174.471V99H166.971V103ZM172.471 101V106H176.471V101H172.471ZM174.471 104H166.971V108H174.471V104ZM168.971 106V101H164.971V106H168.971ZM166.971 93H174.471V89H166.971V93ZM172.471 91V96H176.471V91H172.471ZM174.471 94H166.971V98H174.471V94ZM168.971 96V91H164.971V96H168.971ZM211.951 108.5V106.5H209.951V108.5H211.951ZM214.451 108.5V110.5H216.451V108.5H214.451ZM214.451 101H216.451V99H214.451V101ZM211.951 101H209.951V103H211.951V101ZM211.951 96V94H209.951V96H211.951ZM214.451 96V98H216.451V96H214.451ZM214.451 88.5H216.451V86.5H214.451V88.5ZM211.951 88.5H209.951V90.5H211.951V88.5ZM211.951 86H213.951V84H211.951V86ZM186.951 86V84H184.951V86H186.951ZM186.951 111H184.951V113H186.951V111ZM211.951 111V113H213.951V111H211.951ZM196.951 101V99H194.951V101H196.951ZM204.451 101H206.451V99H204.451V101ZM204.451 106V108H206.451V106H204.451ZM196.951 106H194.951V108H196.951V106ZM196.951 91V89H194.951V91H196.951ZM204.451 91H206.451V89H204.451V91ZM204.451 96V98H206.451V96H204.451ZM196.951 96H194.951V98H196.951V96ZM211.951 110.5H214.451V106.5H211.951V110.5ZM216.451 108.5V101H212.451V108.5H216.451ZM214.451 99H211.951V103H214.451V99ZM213.951 101V96H209.951V101H213.951ZM211.951 98H214.451V94H211.951V98ZM216.451 96V88.5H212.451V96H216.451ZM214.451 86.5H211.951V90.5H214.451V86.5ZM213.951 88.5V86H209.951V88.5H213.951ZM211.951 84H196.951V88H211.951V84ZM196.951 84H186.951V88H196.951V84ZM184.951 86V111H188.951V86H184.951ZM186.951 113H211.951V109H186.951V113ZM213.951 111V108.5H209.951V111H213.951ZM196.951 103H204.451V99H196.951V103ZM202.451 101V106H206.451V101H202.451ZM204.451 104H196.951V108H204.451V104ZM198.951 106V101H194.951V106H198.951ZM196.951 93H204.451V89H196.951V93ZM202.451 91V96H206.451V91H202.451ZM204.451 94H196.951V98H204.451V94ZM198.951 96V91H194.951V96H198.951ZM216.932 111H214.932V113H216.932V111ZM244.432 111V113H246.432V111H244.432ZM244.432 106H246.432V104H244.432V106ZM226.932 106H224.932V108H226.932V106ZM226.932 86H228.932V84H226.932V86ZM216.932 86V84H214.932V86H216.932ZM216.932 113H244.432V109H216.932V113ZM246.432 111V106H242.432V111H246.432ZM244.432 104H226.932V108H244.432V104ZM228.932 106V86H224.932V106H228.932ZM226.932 84H216.932V88H226.932V84ZM214.932 86V111H218.932V86H214.932ZM289.393 108.5V106.5H287.393V108.5H289.393ZM291.893 108.5V110.5H293.893V108.5H291.893ZM291.893 98.5H293.893V96.5H291.893V98.5ZM289.393 98.5H287.393V100.5H289.393V98.5ZM289.393 96H291.393V94H289.393V96ZM276.893 96V94H274.893V96H276.893ZM276.893 101H274.893V103H276.893V101ZM281.893 101H283.893V99H281.893V101ZM281.893 106V108H283.893V106H281.893ZM274.393 106H272.393V108H274.393V106ZM274.393 91V89H272.393V91H274.393ZM291.893 91V93H293.893V91H291.893ZM291.893 86H293.893V84H291.893V86ZM266.893 86V84H264.893V86H266.893ZM266.893 88.5V90.5H268.893V88.5H266.893ZM264.393 88.5V86.5H262.393V88.5H264.393ZM264.393 108.5H262.393V110.5H264.393V108.5ZM266.893 108.5H268.893V106.5H266.893V108.5ZM266.893 111H264.893V113H266.893V111ZM289.393 111V113H291.393V111H289.393ZM289.393 110.5H291.893V106.5H289.393V110.5ZM293.893 108.5V98.5H289.893V108.5H293.893ZM291.893 96.5H289.393V100.5H291.893V96.5ZM291.393 98.5V96H287.393V98.5H291.393ZM289.393 94H276.893V98H289.393V94ZM274.893 96V101H278.893V96H274.893ZM276.893 103H281.893V99H276.893V103ZM279.893 101V106H283.893V101H279.893ZM281.893 104H274.393V108H281.893V104ZM276.393 106V91H272.393V106H276.393ZM274.393 93H291.893V89H274.393V93ZM293.893 91V86H289.893V91H293.893ZM291.893 84H266.893V88H291.893V84ZM264.893 86V88.5H268.893V86H264.893ZM266.893 86.5H264.393V90.5H266.893V86.5ZM262.393 88.5V108.5H266.393V88.5H262.393ZM264.393 110.5H266.893V106.5H264.393V110.5ZM264.893 108.5V111H268.893V108.5H264.893ZM266.893 113H289.393V109H266.893V113ZM291.393 111V108.5H287.393V111H291.393ZM304.373 101V99H302.373V101H304.373ZM311.873 101H313.873V99H311.873V101ZM311.873 111H309.873V113H311.873V111ZM321.873 111V113H323.873V111H321.873ZM321.873 88.5H323.873V86.5H321.873V88.5ZM319.373 88.5H317.373V90.5H319.373V88.5ZM319.373 86H321.373V84H319.373V86ZM296.873 86V84H294.873V86H296.873ZM296.873 88.5V90.5H298.873V88.5H296.873ZM294.373 88.5V86.5H292.373V88.5H294.373ZM294.373 111H292.373V113H294.373V111ZM304.373 111V113H306.373V111H304.373ZM304.373 91V89H302.373V91H304.373ZM311.873 91H313.873V89H311.873V91ZM311.873 96V98H313.873V96H311.873ZM304.373 96H302.373V98H304.373V96ZM304.373 103H311.873V99H304.373V103ZM309.873 101V111H313.873V101H309.873ZM311.873 113H321.873V109H311.873V113ZM323.873 111V88.5H319.873V111H323.873ZM321.873 86.5H319.373V90.5H321.873V86.5ZM321.373 88.5V86H317.373V88.5H321.373ZM319.373 84H311.873V88H319.373V84ZM311.873 84H296.873V88H311.873V84ZM294.873 86V88.5H298.873V86H294.873ZM296.873 86.5H294.373V90.5H296.873V86.5ZM292.373 88.5V111H296.373V88.5H292.373ZM294.373 113H304.373V109H294.373V113ZM306.373 111V101H302.373V111H306.373ZM304.373 93H311.873V89H304.373V93ZM309.873 91V96H313.873V91H309.873ZM311.873 94H304.373V98H311.873V94ZM306.373 96V91H302.373V96H306.373ZM334.354 98.5V96.5H332.354V98.5H334.354ZM336.854 98.5H338.854V96.5H336.854V98.5ZM336.854 101H334.854V103H336.854V101ZM339.354 101H341.354V99H339.354V101ZM339.354 103.5H337.354V105.5H339.354V103.5ZM341.854 103.5V105.5H343.854V103.5H341.854ZM341.854 101V99H339.854V101H341.854ZM344.354 101V103H346.354V101H344.354ZM344.354 98.5V96.5H342.354V98.5H344.354ZM346.854 98.5H348.854V96.5H346.854V98.5ZM346.854 111H344.854V113H346.854V111ZM356.854 111V113H358.854V111H356.854ZM356.854 86H358.854V84H356.854V86ZM346.854 86V84H344.854V86H346.854ZM346.854 88.5V90.5H348.854V88.5H346.854ZM344.354 88.5V86.5H342.354V88.5H344.354ZM344.354 91V93H346.354V91H344.354ZM341.854 91V89H339.854V91H341.854ZM341.854 93.5V95.5H343.854V93.5H341.854ZM339.354 93.5H337.354V95.5H339.354V93.5ZM339.354 91H341.354V89H339.354V91ZM336.854 91H334.854V93H336.854V91ZM336.854 88.5H338.854V86.5H336.854V88.5ZM334.354 88.5H332.354V90.5H334.354V88.5ZM334.354 86H336.354V84H334.354V86ZM324.354 86V84H322.354V86H324.354ZM324.354 111H322.354V113H324.354V111ZM334.354 111V113H336.354V111H334.354ZM334.354 100.5H336.854V96.5H334.354V100.5ZM334.854 98.5V101H338.854V98.5H334.854ZM336.854 103H339.354V99H336.854V103ZM337.354 101V103.5H341.354V101H337.354ZM339.354 105.5H341.854V101.5H339.354V105.5ZM343.854 103.5V101H339.854V103.5H343.854ZM341.854 103H344.354V99H341.854V103ZM346.354 101V98.5H342.354V101H346.354ZM344.354 100.5H346.854V96.5H344.354V100.5ZM344.854 98.5V111H348.854V98.5H344.854ZM346.854 113H356.854V109H346.854V113ZM358.854 111V86H354.854V111H358.854ZM356.854 84H346.854V88H356.854V84ZM344.854 86V88.5H348.854V86H344.854ZM346.854 86.5H344.354V90.5H346.854V86.5ZM342.354 88.5V91H346.354V88.5H342.354ZM344.354 89H341.854V93H344.354V89ZM339.854 91V93.5H343.854V91H339.854ZM341.854 91.5H339.354V95.5H341.854V91.5ZM341.354 93.5V91H337.354V93.5H341.354ZM339.354 89H336.854V93H339.354V89ZM338.854 91V88.5H334.854V91H338.854ZM336.854 86.5H334.354V90.5H336.854V86.5ZM336.354 88.5V86H332.354V88.5H336.354ZM334.354 84H324.354V88H334.354V84ZM322.354 86V111H326.354V86H322.354ZM324.354 113H334.354V109H324.354V113ZM336.354 111V98.5H332.354V111H336.354ZM361.863 111H359.863V113H361.863V111ZM386.863 111V113H388.863V111H386.863ZM386.863 106H388.863V104H386.863V106ZM369.363 106H367.363V108H369.363V106ZM369.363 101V99H367.363V101H369.363ZM376.863 101V103H378.863V101H376.863ZM376.863 96H378.863V94H376.863V96ZM369.363 96H367.363V98H369.363V96ZM369.363 91V89H367.363V91H369.363ZM386.863 91V93H388.863V91H386.863ZM386.863 86H388.863V84H386.863V86ZM361.863 86V84H359.863V86H361.863ZM361.863 88.5V90.5H363.863V88.5H361.863ZM359.363 88.5V86.5H357.363V88.5H359.363ZM359.363 108.5H357.363V110.5H359.363V108.5ZM361.863 108.5H363.863V106.5H361.863V108.5ZM361.863 113H386.863V109H361.863V113ZM388.863 111V106H384.863V111H388.863ZM386.863 104H369.363V108H386.863V104ZM371.363 106V101H367.363V106H371.363ZM369.363 103H376.863V99H369.363V103ZM378.863 101V96H374.863V101H378.863ZM376.863 94H369.363V98H376.863V94ZM371.363 96V91H367.363V96H371.363ZM369.363 93H386.863V89H369.363V93ZM388.863 91V86H384.863V91H388.863ZM386.863 84H361.863V88H386.863V84ZM359.863 86V88.5H363.863V86H359.863ZM361.863 86.5H359.363V90.5H361.863V86.5ZM357.363 88.5V108.5H361.363V88.5H357.363ZM359.363 110.5H361.863V106.5H359.363V110.5ZM359.863 108.5V111H363.863V108.5H359.863Z" fill="black"/>
</g>
<path d="M76.5 86.5H67.5V90.5H76.5V86.5Z" fill="#FCE740"/>
<path d="M96.5 86.5H85V89H82.5V90.5H96.5V86.5Z" fill="#FCE740"/>
<path d="M124 86.5H100V90.5H126V89H124V86.5Z" fill="#FCE740"/>
<path d="M154 86.5H130V90.5H154V86.5Z" fill="#FCE740"/>
<path d="M184 90.5H157.5V86.5H181.5V89H184V90.5Z" fill="#FCE740"/>
<path d="M211.5 86.5H187.5V90.5H214V89H211.5V86.5Z" fill="#FCE740"/>
<path d="M226 86.5H217.5V90.5H226.5V86.5H226Z" fill="#FCE740"/>
<path d="M291.5 90.5H265V90V89H267.5V86.5H291.5V90.5Z" fill="#FCE740"/>
<path d="M321.5 90.5H295V89H297.5V86.5H319V89H321.5V90.5Z" fill="#FCE740"/>
<path d="M325 86.5V90.5H336.5V89H334V86.5H325Z" fill="#FCE740"/>
<path d="M345 89V90.5H356.5V86.5H347.5V89H345Z" fill="#FCE740"/>
<path d="M386.5 90.5H360V89H362.5V86.5H386.5V90.5Z" fill="#FCE740"/>
<path d="M76.5 86.5H67.5V90.5H76.5V86.5Z" stroke="#FCE740"/>
<path d="M96.5 86.5H85V89H82.5V90.5H96.5V86.5Z" stroke="#FCE740"/>
<path d="M124 86.5H100V90.5H126V89H124V86.5Z" stroke="#FCE740"/>
<path d="M154 86.5H130V90.5H154V86.5Z" stroke="#FCE740"/>
<path d="M184 90.5H157.5V86.5H181.5V89H184V90.5Z" stroke="#FCE740"/>
<path d="M211.5 86.5H187.5V90.5H214V89H211.5V86.5Z" stroke="#FCE740"/>
<path d="M226 86.5H217.5V90.5H226.5V86.5H226Z" stroke="#FCE740"/>
<path d="M291.5 90.5H265V90V89H267.5V86.5H291.5V90.5Z" stroke="#FCE740"/>
<path d="M321.5 90.5H295V89H297.5V86.5H319V89H321.5V90.5Z" stroke="#FCE740"/>
<path d="M325 86.5V90.5H336.5V89H334V86.5H325Z" stroke="#FCE740"/>
<path d="M345 89V90.5H356.5V86.5H347.5V89H345Z" stroke="#FCE740"/>
<path d="M386.5 90.5H360V89H362.5V86.5H386.5V90.5Z" stroke="#FCE740"/>
<path d="M37.5 106.5V110.5H61.5V108H64V101.5H55V106.5H37.5Z" fill="#FFA800" stroke="#FFA800"/>
<path d="M109 101.5H100V110.5H109V101.5Z" fill="#FFA800"/>
<path d="M126.5 101.5H117.5V110.5H126.5V101.5Z" fill="#FFA800"/>
<path d="M146.5 101.5H137.5V106.5H130V110.5H154V106.5H146.5V101.5Z" fill="#FFA800"/>
<path d="M157.5 110.5V101.5H166.5V106.5H175V101.5H184V108H181.5V110.5H157.5Z" fill="#FFA800"/>
<path d="M187.5 110.5V101.5H196.5V106.5H205V101.5H214V108H211.5V110.5H187.5Z" fill="#FFA800"/>
<path d="M226.5 101.5H217.5V110.5H244V106.5H226.5V101.5Z" fill="#FFA800"/>
<path d="M274 101.5H265V108H267.5V110.5H289V108H291.5V101.5H282.5V106.5H274V101.5Z" fill="#FFA800"/>
<path d="M295 110.5V101.5H304V110.5H295Z" fill="#FFA800"/>
<path d="M321.5 101.5H312.5V110.5H321.5V101.5Z" fill="#FFA800"/>
<path d="M333.5 101.5H325V110.5H333.5V101.5Z" fill="#FFA800"/>
<path d="M356.5 101.5H347.5V110.5H356.5V101.5Z" fill="#FFA800"/>
<path d="M369 101.5H360V108H362.5V110.5H386V106.5H369V101.5Z" fill="#FFA800"/>
<path d="M109 101.5H100V110.5H109V101.5Z" stroke="#FFA800"/>
<path d="M126.5 101.5H117.5V110.5H126.5V101.5Z" stroke="#FFA800"/>
<path d="M146.5 101.5H137.5V106.5H130V110.5H154V106.5H146.5V101.5Z" stroke="#FFA800"/>
<path d="M157.5 110.5V101.5H166.5V106.5H175V101.5H184V108H181.5V110.5H157.5Z" stroke="#FFA800"/>
<path d="M187.5 110.5V101.5H196.5V106.5H205V101.5H214V108H211.5V110.5H187.5Z" stroke="#FFA800"/>
<path d="M226.5 101.5H217.5V110.5H244V106.5H226.5V101.5Z" stroke="#FFA800"/>
<path d="M274 101.5H265V108H267.5V110.5H289V108H291.5V101.5H282.5V106.5H274V101.5Z" stroke="#FFA800"/>
<path d="M295 110.5V101.5H304V110.5H295Z" stroke="#FFA800"/>
<path d="M321.5 101.5H312.5V110.5H321.5V101.5Z" stroke="#FFA800"/>
<path d="M333.5 101.5H325V110.5H333.5V101.5Z" stroke="#FFA800"/>
<path d="M356.5 101.5H347.5V110.5H356.5V101.5Z" stroke="#FFA800"/>
<path d="M369 101.5H360V108H362.5V110.5H386V106.5H369V101.5Z" stroke="#FFA800"/>
<path d="M64 86.5V90.5H37.5V89H40V86.5H64Z" fill="#FCE740" stroke="#FCE740"/>
<path d="M76.5 110.5H67.5V101.5H89H91.5V104H94V106.5H96.5V110.5H85V108H82.5V105.5H80V103H76.5V110.5Z" fill="#FFA800" stroke="#FFA800"/>
<path fill-rule="evenodd" clip-rule="evenodd" d="M329.804 17.5768H328.458C327.715 17.5768 327.112 18.158 327.112 18.8749V30.1249C327.112 30.8418 327.715 31.423 328.458 31.423H329.804C330.548 31.423 331.15 30.8418 331.15 30.1249V18.8749C331.15 18.158 330.548 17.5768 329.804 17.5768ZM322.123 20.6059H323.469C324.213 20.6059 324.816 21.187 324.816 21.9039V30.1251C324.816 30.842 324.213 31.4232 323.469 31.4232H322.123C321.38 31.4232 320.777 30.842 320.777 30.1251V21.9039C320.777 21.187 321.38 20.6059 322.123 20.6059ZM317.135 23.6345H315.788C315.045 23.6345 314.442 24.2156 314.442 24.9325V30.1248C314.442 30.8417 315.045 31.4229 315.788 31.4229H317.135C317.878 31.4229 318.481 30.8417 318.481 30.1248V24.9325C318.481 24.2156 317.878 23.6345 317.135 23.6345ZM310.8 26.2306H309.454C308.71 26.2306 308.107 26.8117 308.107 27.5286V30.1248C308.107 30.8417 308.71 31.4229 309.454 31.4229H310.8C311.543 31.4229 312.146 30.8417 312.146 30.1248V27.5286C312.146 26.8117 311.543 26.2306 310.8 26.2306Z" fill="black"/>
<path d="M341.982 31.4107C344.38 31.4107 346.068 29.8016 346.068 27.4669V27.4511C346.068 25.2662 344.538 23.6729 342.4 23.6729C341.351 23.6729 340.46 24.1146 339.979 24.8797H339.845L340.192 21.2514H345.421V19.7528H338.803L338.236 26.3626H339.758C339.892 26.1023 340.073 25.8815 340.278 25.7C340.728 25.2899 341.32 25.0848 342.014 25.0848C343.386 25.0848 344.38 26.0786 344.38 27.4826V27.4984C344.38 28.9261 343.402 29.9278 341.998 29.9278C340.752 29.9278 339.845 29.1312 339.695 28.1294L339.687 28.0663H338.03L338.038 28.1689C338.196 30.0146 339.742 31.4107 341.982 31.4107ZM353.107 31.4107C356.089 31.4107 358.021 29.5413 358.021 26.6544V25.2426H353.352V26.6702H356.278V26.9226C356.262 28.6737 354.993 29.8489 353.131 29.8489C350.994 29.8489 349.653 28.161 349.653 25.4398V25.424C349.653 22.7422 350.986 21.0385 353.092 21.0385C354.653 21.0385 355.742 21.7957 356.152 23.1445L356.176 23.2233H357.943L357.927 23.1445C357.517 20.9438 355.679 19.4767 353.092 19.4767C349.905 19.4767 347.846 21.8193 347.846 25.4319V25.4476C347.846 29.1075 349.881 31.4107 353.107 31.4107Z" fill="black"/>
<rect opacity="0.4" x="365.343" y="17.5769" width="27.6923" height="13.8462" rx="4.03846" stroke="black" stroke-width="1.15385"/>
<path opacity="0.5" d="M394.766 22.1923V26.8077C395.696 26.4168 396.3 25.5075 396.3 24.5C396.3 23.4925 395.696 22.5832 394.766 22.1923Z" fill="black"/>
<rect x="367.073" y="19.3077" width="19.6154" height="10.3846" rx="2.30769" fill="black"/>
<path d="M52.2676 11.001C49.5166 11.001 47.5566 12.8818 47.5566 15.457V15.4746C47.5566 17.8828 49.2617 19.6582 51.6963 19.6582C53.4365 19.6582 54.5439 18.7705 55.0098 17.7686H55.1855C55.1855 17.8652 55.1768 17.9619 55.1768 18.0586C55.0801 20.4844 54.2275 22.4531 52.2148 22.4531C51.0986 22.4531 50.3164 21.873 49.9824 20.9854L49.9561 20.8975H47.7236L47.7412 20.9941C48.1455 22.9365 49.8857 24.3164 52.2148 24.3164C55.4053 24.3164 57.3301 21.7852 57.3301 17.5137V17.4961C57.3301 12.9258 54.9746 11.001 52.2676 11.001ZM52.2588 17.918C50.8174 17.918 49.7715 16.8633 49.7715 15.3955V15.3779C49.7715 13.9629 50.8877 12.8467 52.2852 12.8467C53.6914 12.8467 54.79 13.9805 54.79 15.4307V15.4482C54.79 16.8809 53.6914 17.918 52.2588 17.918ZM60.8203 15.7822C61.6289 15.7822 62.2178 15.167 62.2178 14.3936C62.2178 13.6113 61.6289 13.0049 60.8203 13.0049C60.0205 13.0049 59.4229 13.6113 59.4229 14.3936C59.4229 15.167 60.0205 15.7822 60.8203 15.7822ZM60.8203 22.3037C61.6289 22.3037 62.2178 21.6973 62.2178 20.915C62.2178 20.1328 61.6289 19.5264 60.8203 19.5264C60.0205 19.5264 59.4229 20.1328 59.4229 20.915C59.4229 21.6973 60.0205 22.3037 60.8203 22.3037ZM70.4629 24H72.6338V21.5654H74.3389V19.6934H72.6338V11.3174H69.4258C67.7031 13.9365 65.9014 16.8545 64.2578 19.7109V21.5654H70.4629V24ZM66.3672 19.7461V19.6143C67.5977 17.4609 69.0654 15.1143 70.3662 13.1279H70.498V19.7461H66.3672ZM79.0947 24H81.3623V11.3174H79.1035L75.79 13.6465V15.7822L78.9453 13.5498H79.0947V24Z" fill="black"/>
<path d="M88.9448 17.937L94.2036 17.9517C94.2915 17.9517 94.3062 17.959 94.3062 18.0542L94.3208 23.291C94.3208 24.6533 96.042 24.9536 96.6426 23.6499L102.019 11.9751C102.656 10.5981 101.594 9.63867 100.246 10.2539L88.52 15.6519C87.3042 16.2085 87.5605 17.9297 88.9448 17.937Z" fill="black"/>
<path d="M25.376 41H26.6382L27.3418 38.9053H30.3066L31.0049 41H32.2725L29.4741 33.2495H28.1743L25.376 41ZM28.7759 34.6084H28.8672L29.9844 37.9385H27.6641L28.7759 34.6084ZM33.4913 42.9443H34.6569V40.0762H34.7428C35.0543 40.7046 35.7364 41.0967 36.5367 41.0967C38.0192 41.0967 38.9537 39.9365 38.9537 38.0889V38.0781C38.9537 36.2412 38.0084 35.0649 36.5367 35.0649C35.7203 35.0649 35.0812 35.4463 34.7428 36.0854H34.6569V35.167H33.4913V42.9443ZM36.2091 40.103C35.2369 40.103 34.6354 39.335 34.6354 38.0889V38.0781C34.6354 36.832 35.2369 36.064 36.2091 36.064C37.1813 36.064 37.7667 36.8213 37.7667 38.0781V38.0889C37.7667 39.3403 37.1813 40.103 36.2091 40.103ZM40.3606 42.9443H41.5261V40.0762H41.6121C41.9236 40.7046 42.6057 41.0967 43.406 41.0967C44.8884 41.0967 45.823 39.9365 45.823 38.0889V38.0781C45.823 36.2412 44.8777 35.0649 43.406 35.0649C42.5896 35.0649 41.9504 35.4463 41.6121 36.0854H41.5261V35.167H40.3606V42.9443ZM43.0784 40.103C42.1062 40.103 41.5046 39.335 41.5046 38.0889V38.0781C41.5046 36.832 42.1062 36.064 43.0784 36.064C44.0505 36.064 44.636 36.8213 44.636 38.0781V38.0889C44.636 39.3403 44.0505 40.103 43.0784 40.103ZM52.998 41.188C54.8027 41.188 55.9575 40.2642 55.9575 38.7817V38.7764C55.9575 37.627 55.2915 36.9717 53.664 36.6226L52.8208 36.4346C51.8164 36.2197 51.4082 35.8438 51.4082 35.269V35.2637C51.4082 34.5332 52.0796 34.1089 52.9873 34.1089C53.9272 34.1035 54.5342 34.5654 54.6362 35.1992L54.647 35.269H55.8125L55.8071 35.1938C55.7212 33.9907 54.647 33.0615 53.0034 33.0615C51.3598 33.0615 50.1997 33.9854 50.1943 35.3228V35.3281C50.1943 36.4722 50.8711 37.2026 52.4448 37.5356L53.2934 37.7183C54.3193 37.9385 54.7383 38.3252 54.7383 38.9214V38.9268C54.7383 39.6465 54.0346 40.1406 53.0464 40.1406C52.0097 40.1406 51.2632 39.6895 51.1987 38.9858L51.1933 38.9268H50.0117L50.0171 38.9966C50.1245 40.3018 51.2471 41.188 52.998 41.188ZM59.6148 41.0376C59.8404 41.0376 60.0553 41.0107 60.2433 40.9785V40.0493C60.0821 40.0654 59.9801 40.0708 59.8028 40.0708C59.2281 40.0708 58.9918 39.813 58.9918 39.1846V36.0854H60.2433V35.167H58.9918V33.6953H57.8048V35.167H56.8917V36.0854H57.8048V39.4639C57.8048 40.5864 58.3312 41.0376 59.6148 41.0376ZM64.0134 41.1128C65.7214 41.1128 66.7688 39.9688 66.7688 38.0889V38.0781C66.7688 36.1982 65.716 35.0542 64.0134 35.0542C62.3054 35.0542 61.2527 36.2036 61.2527 38.0781V38.0889C61.2527 39.9688 62.3 41.1128 64.0134 41.1128ZM64.0134 40.1406C63.009 40.1406 62.445 39.3833 62.445 38.0889V38.0781C62.445 36.7837 63.009 36.0264 64.0134 36.0264C65.0124 36.0264 65.5818 36.7837 65.5818 38.0781V38.0889C65.5818 39.3779 65.0124 40.1406 64.0134 40.1406ZM68.1649 41H69.3304V37.5142C69.3304 36.6709 69.9373 36.123 70.8289 36.123C71.0492 36.123 71.2479 36.1499 71.4574 36.1929V35.1187C71.3392 35.0918 71.1351 35.0649 70.9471 35.0649C70.1683 35.0649 69.6258 35.4302 69.4163 36.0479H69.3304V35.167H68.1649V41ZM74.873 41.1128C76.3662 41.1128 77.1718 40.2534 77.3652 39.4854L77.3759 39.437L76.2534 39.4424L76.2319 39.4854C76.0922 39.7861 75.6464 40.1567 74.8999 40.1567C73.9384 40.1567 73.3261 39.5068 73.3046 38.3896H77.4404V37.9814C77.4404 36.2305 76.4414 35.0542 74.8139 35.0542C73.1865 35.0542 72.1338 36.2734 72.1338 38.0942V38.0996C72.1338 39.9473 73.165 41.1128 74.873 41.1128ZM74.8193 36.0103C75.6088 36.0103 76.1943 36.5151 76.2856 37.5571H73.3208C73.4228 36.5527 74.0244 36.0103 74.8193 36.0103Z" fill="black"/>
<path d="M20.5234 33.8115C20.3345 33.8115 20.1851 33.8906 19.9785 33.9917L14.4326 36.6768C14.0415 36.8657 13.8965 37.0635 13.8965 37.3315C13.8965 37.5996 14.0415 37.7974 14.4326 37.9907L19.9785 40.6714C20.1895 40.7725 20.3389 40.8516 20.5234 40.8516C20.875 40.8516 21.1211 40.5835 21.1211 40.1528V34.5103C21.1211 34.084 20.875 33.8115 20.5234 33.8115Z" fill="black"/>
<rect x="146" y="913" width="135" height="5" rx="2.5" fill="black"/>
<rect x="19.5" y="160.5" width="121" height="33" fill="#A4BBD6" stroke="black" stroke-width="3"/>
<path d="M18.5 206.5H141.5V241.5H18.5V206.5Z" fill="#C4C4C4" stroke="black"/>
<rect x="286.5" y="206.5" width="123" height="35" fill="#C4C4C4" stroke="black"/>
<rect x="152.5" y="206.5" width="123" height="35" fill="#C4C4C4" stroke="black"/>
<rect x="153.5" y="160.5" width="121" height="33" fill="#FAF1AC" stroke="black" stroke-width="3"/>
<rect x="287.5" y="160.5" width="121" height="33" fill="#FFBE00" stroke="black" stroke-width="3"/>
<path d="M40 226H43.75V231H48.75V219.75H47.5V218.5H43.75H36.25V219.75H35V231H40V226ZM40 221H43.75V223.5H40V221ZM49.9902 224.75H51.2402V226H58.7402V231H63.7402V218.5H58.7402V223.5H54.9902V218.5H49.9902V224.75ZM77.4805 229.75H78.7305V226H77.4805V223.5H78.7305V219.75H77.4805V218.5H69.9805H64.9805V231H77.4805V229.75ZM69.9805 226H73.7305V228.5H69.9805V226ZM69.9805 221H73.7305V223.5H69.9805V221ZM92.4707 229.75H93.7207V226H92.4707V223.5H93.7207V219.75H92.4707V218.5H84.9707H79.9707V231H92.4707V229.75ZM84.9707 226H88.7207V228.5H84.9707V226ZM84.9707 221H88.7207V223.5H84.9707V221ZM106.211 229.75H107.461V228.5H108.711V221H107.461V219.75H106.211V218.5H103.711H102.461H94.9609V231H106.211V229.75ZM102.461 222.25H103.711V227.25H102.461V228.5H99.9609V221H102.461V222.25ZM122.451 229.75H123.701V224.75H122.451V223.5H116.201H114.951V221H123.701V218.5H111.201V219.75H109.951V229.75H111.201V231H122.451V229.75ZM114.951 226H118.701V228.5H114.951V226Z" fill="black"/>
<path d="M178 226H181.75V223.5H178V221H186.75V218.5H178H174.25V219.75H173V231H178V226ZM192.99 226H196.74V231H201.74V219.75H200.49V218.5H196.74H189.24V219.75H187.99V231H192.99V226ZM192.99 221H196.74V223.5H192.99V221ZM207.98 226H211.73V223.5H207.98V221H216.73V218.5H207.98H204.23V219.75H202.98V231H207.98V226ZM217.971 231H222.971V218.5H217.971V231ZM229.221 226H232.971V231H237.971V219.75H236.721V218.5H232.971H225.471V219.75H224.221V231H229.221V226ZM229.221 221H232.971V223.5H229.221V221ZM251.711 229.75H252.961V226H251.711H247.961V228.5H244.211V221H247.961V223.5H252.961V219.75H251.711V218.5H244.211H240.461V219.75H239.211V229.75H240.461V231H251.711V229.75Z" fill="black"/>
<path d="M308 226H311.75V223.5H308V221H316.75V218.5H308H304.25V219.75H303V231H308V226ZM322.99 226H326.74V223.5H322.99V221H331.74V218.5H322.99H319.24V219.75H317.99V231H322.99V226ZM345.48 229.75H346.73V226H345.48V223.5H346.73V219.75H345.48V218.5H337.98H332.98V231H345.48V229.75ZM337.98 226H341.73V228.5H337.98V226ZM337.98 221H341.73V223.5H337.98V221ZM349.221 231H361.721V228.5H352.971V226H356.721V223.5H352.971V221H361.721V218.5H349.221V219.75H347.971V229.75H349.221V231ZM375.461 229.75H376.711V219.75H375.461V218.5H364.211V219.75H362.961V229.75H364.211V231H375.461V229.75ZM371.711 226V228.5H367.961V221H371.711V223.5V226ZM390.451 229.75H391.701V219.75H390.451V218.5H379.201V219.75H377.951V229.75H379.201V231H390.451V229.75ZM386.701 226V228.5H382.951V221H386.701V223.5V226Z" fill="black"/>
<path d="M198.965 663.793H232.515V668.586H237.308V673.379H242.101V735.687H237.308V740.48H232.515V745.273H203.758V740.48H194.172V735.687H189.379V726.101H179.793V711.722H184.586V673.379H189.379V668.586H198.965V663.793Z" fill="#F3CCA7"/>
<path fill-rule="evenodd" clip-rule="evenodd" d="M194.172 750.066H232.515V754.859H237.308V764.445H232.515V793.202H237.308V802.788H232.515V826.753H222.929V802.788H218.137V812.374H213.344V817.167H208.551V826.753H198.965V797.995H203.758V793.202H189.379V754.859H194.172V750.066ZM198.965 759.652H203.758V788.41H198.965V759.652Z" fill="#F3CCA7"/>
<path d="M237.308 764.445H242.101V778.824H246.894V788.41H237.308V764.445Z" fill="#F3CCA7"/>
<path d="M232.515 663.793H208.551V668.586H227.722V673.379H237.308V711.722H242.101V673.379H237.308V668.586H232.515V663.793Z" fill="#714A1C" fill-opacity="0.25" style="mix-blend-mode:multiply"/>
<path d="M189.379 673.379H184.586V692.551H189.379V673.379Z" fill="#714A1C" fill-opacity="0.25" style="mix-blend-mode:multiply"/>
<path d="M184.586 716.515H189.379V711.722H194.172V735.687H189.379V721.308H184.586V716.515Z" fill="#714A1C" fill-opacity="0.25" style="mix-blend-mode:multiply"/>
<path d="M194.172 735.687H208.551V740.48H232.515V745.273H203.758V740.48H194.172V735.687Z" fill="#714A1C" fill-opacity="0.25" style="mix-blend-mode:multiply"/>
<path d="M237.308 764.445H242.101V778.824H246.894V788.41H237.308V764.445Z" fill="#714A1C" fill-opacity="0.25" style="mix-blend-mode:multiply"/>
<path d="M237.308 764.445H232.515V759.652H227.722V754.859H203.758V750.066H232.515V754.859H237.308V764.445Z" fill="#714A1C" fill-opacity="0.25" style="mix-blend-mode:multiply"/>
<path d="M237.308 793.202H232.515V769.238H227.722V793.202H232.515V802.788H237.308V793.202Z" fill="#714A1C" fill-opacity="0.25" style="mix-blend-mode:multiply"/>
<path d="M227.722 807.581H232.515V826.753H227.722V807.581Z" fill="#714A1C" fill-opacity="0.25" style="mix-blend-mode:multiply"/>
<path d="M203.758 797.995H198.965V826.753H208.551V817.167H203.758V797.995Z" fill="#714A1C" fill-opacity="0.25" style="mix-blend-mode:multiply"/>
<path d="M213.344 802.788H218.137V807.581H213.344V802.788Z" fill="#714A1C" fill-opacity="0.25" style="mix-blend-mode:multiply"/>
<path d="M198.965 769.238H194.172V783.617H189.379V793.202H203.758V788.41H198.965V769.238Z" fill="#714A1C" fill-opacity="0.25" style="mix-blend-mode:multiply"/>
<path d="M203.758 673.379H208.551V678.172H203.758V673.379Z" fill="#FFFCF9" fill-opacity="0.7" style="mix-blend-mode:lighten"/>
<path d="M227.722 673.379H213.344V678.172H227.722V682.965H232.515V687.758H237.308V682.965H232.515V678.172H227.722V673.379Z" fill="#FFFCF9" fill-opacity="0.7" style="mix-blend-mode:lighten"/>
<path d="M184.586 711.722H179.793V716.515H184.586V711.722Z" fill="#FFFCF9" fill-opacity="0.7" style="mix-blend-mode:lighten"/>
<path d="M194.172 750.066H203.758V754.859H194.172V750.066Z" fill="#FFFCF9" fill-opacity="0.7" style="mix-blend-mode:lighten"/>
<path d="M194.172 754.859V759.652H189.379V754.859H194.172Z" fill="#FFFCF9" fill-opacity="0.7" style="mix-blend-mode:lighten"/>
<path d="M213.344 766.841H208.551V776.427H213.344V766.841Z" fill="#FFFCF9" fill-opacity="0.7" style="mix-blend-mode:lighten"/>
<path d="M213.344 766.841H218.137V762.048H213.344V766.841Z" fill="#FFFCF9" fill-opacity="0.7" style="mix-blend-mode:lighten"/>
<path d="M222.929 797.995H218.137V802.788H222.929V797.995Z" fill="#FFFCF9" fill-opacity="0.7" style="mix-blend-mode:lighten"/>
<path fill-rule="evenodd" clip-rule="evenodd" d="M232.515 659H198.965V663.793H189.379V668.586H184.586V673.379H179.793V711.722H175V726.101H179.793V730.894H184.586V735.687H189.379V740.48H194.172V750.066H189.379V754.859H184.586V793.202H189.379V797.995H194.172V831.546H213.344V817.167H218.137V831.546H242.101V826.753H237.308V802.788H242.101V793.202H246.894V788.41H251.687V778.824H246.894V764.445H242.101V754.859H237.308V750.066H232.515V745.273H237.308V740.48H242.101V735.687H246.894V673.379H242.101V668.586H237.308V663.793H232.515V659ZM232.515 663.793V668.586H237.308V673.379H242.101V735.687H237.308V740.48H232.515V745.273H203.758V740.48H194.172V735.687H189.379V726.101H179.793V711.722H184.586V716.515H189.379V711.722H184.586V673.379H189.379V668.586H198.965V663.793H232.515ZM237.308 764.445H232.515V793.202H237.308V802.788H232.515V826.753H222.929V802.788H218.137V807.581H213.344V817.167H208.551V826.753H198.965V797.995H208.551V788.41H203.758V759.652H198.965V788.41H203.758V793.202H189.379V754.859H194.172V750.066H232.515V754.859H237.308V764.445ZM237.308 764.445V788.41H246.894V778.824H242.101V764.445H237.308Z" fill="black"/>
<path fill-rule="evenodd" clip-rule="evenodd" d="M232.669 663.803H199.029V668.606H194.223H189.417V673.409H184.611V711.833H179.806V726.243H184.611H189.417V735.849H194.223V740.652H199.029H203.834V745.455H232.669L232.669 740.652V663.803ZM237.474 668.606H232.669V740.652H237.474V735.849H242.28V673.409H237.474V668.606Z" fill="#F3CCA7"/>
<path fill-rule="evenodd" clip-rule="evenodd" d="M208.64 663.803H232.669V668.606H237.474V673.409H227.863V668.606H208.64V663.803ZM237.474 673.409H242.28V711.833H237.474V673.409ZM184.611 673.409H189.417V711.833H184.611V673.409ZM194.223 735.849H189.417V721.439H184.611V716.636H189.417V711.833H194.223V735.849ZM208.64 740.652V735.849H194.223V740.652H203.834V745.455H232.669V740.652H208.64ZM189.417 673.409V668.606H194.223V673.409H189.417Z" fill="#714A1C" fill-opacity="0.25" style="mix-blend-mode:multiply"/>
<path fill-rule="evenodd" clip-rule="evenodd" d="M208.64 673.409H203.834V678.212H208.64V673.409ZM213.446 673.409H227.863V678.212H213.446V673.409ZM232.669 683.015V678.212H227.863V683.015H232.669ZM232.669 683.015L232.669 687.818H237.474V683.015H232.669ZM179.806 711.833H184.611V716.636H179.806V711.833Z" fill="#FFFCF9" fill-opacity="0.7" style="mix-blend-mode:lighten"/>
<path fill-rule="evenodd" clip-rule="evenodd" d="M218.252 707.03H203.834V711.833H208.64V721.439H213.446V711.833H218.252V707.03ZM218.252 731.046H227.863V735.849H218.252V731.046ZM218.252 731.046H213.446V726.242H218.252V731.046ZM227.863 707.03H232.669H237.475V711.833H232.669V721.439H227.863V707.03Z" fill="black"/>
<path fill-rule="evenodd" clip-rule="evenodd" d="M223.057 707.03H218.252V711.833H213.446V716.636H218.252V711.833H223.057V707.03Z" fill="#714A1C" fill-opacity="0.25" style="mix-blend-mode:multiply"/>
<path fill-rule="evenodd" clip-rule="evenodd" d="M199.029 659H232.669V663.803H199.029V659ZM189.417 668.606V663.803H199.029V668.606H189.417ZM184.611 673.409V668.606H189.417V673.409H184.611ZM184.611 711.833V673.409H179.806V711.833H175V726.243H179.806V731.046H184.611V735.849H189.417V740.652H194.223V745.455H203.834V750.258H232.669V745.455H237.474V740.652H242.28V735.849H247.086V673.409H242.28V668.606H237.474V663.803H232.669V668.606H237.474V673.409H242.28V735.849H237.474V740.652H232.669V745.455H203.834V740.652H194.223V735.849H189.417L189.417 731.046V726.243H179.806V711.833H184.611ZM184.611 711.833V716.636H189.417V711.833H184.611Z" fill="black"/>
<path fill-rule="evenodd" clip-rule="evenodd" d="M204.423 659.971H200.266V664.01H196.109V668.049H191.952V672.088H187.795H183.637L183.637 676.127H179.48H175.323V680.166H179.48V700.36H183.637L183.637 704.399H187.795L187.795 708.438H191.952V716.515H196.109V700.36H200.266V692.282H204.423V688.243H221.052H233.524V692.282H237.681V696.321H241.839V684.205H245.996V680.166H241.839V676.127H245.996V672.088H241.839H237.681V668.049H233.524V664.01H221.052V659.971H204.423Z" fill="black"/>
<path fill-rule="evenodd" clip-rule="evenodd" d="M191.952 668.049H196.109L196.109 672.088H200.266L200.266 676.127H204.423V680.166H212.738V684.204H233.524V688.243H212.738H204.423V692.282H200.266L200.266 700.36H196.109L196.109 716.515H191.952V708.438H187.794V704.399H183.637V700.36H179.48V688.243H183.637V692.282H187.794H191.952V688.243H196.109L196.109 684.204H200.266V680.166H196.109L196.109 676.127H191.952V668.049ZM241.839 684.204H237.681V688.243H233.524V692.282H237.681V696.321H241.839V684.204ZM241.839 684.204H245.996V680.166H241.839V684.204ZM229.367 676.127H216.895V680.166H229.367V676.127ZM229.367 676.127H237.681V672.088H229.367V676.127Z" fill="black" fill-opacity="0.2" style="mix-blend-mode:multiply"/>
<path fill-rule="evenodd" clip-rule="evenodd" d="M204.423 668.049H216.895V672.088H204.423V668.049ZM191.952 676.127H187.794V680.166H183.637V684.204H187.794V680.166H191.952V676.127ZM225.21 668.049H221.052V672.088H225.21V668.049Z" fill="white" fill-opacity="0.3" style="mix-blend-mode:lighten"/>
<path fill-rule="evenodd" clip-rule="evenodd" d="M200.266 655.932H221.053V659.971H200.266V655.932ZM196.109 664.01V659.971H200.266V664.01H196.109ZM191.952 668.049V664.01H196.109V668.049H191.952ZM183.637 672.088V668.049H191.952V672.088H183.637ZM175.323 676.127V672.088H183.637V676.127H175.323ZM175.323 680.166H171.166V676.127H175.323V680.166ZM179.48 700.36H175.323V680.166H179.48V700.36ZM179.48 700.36H183.637V708.438H179.48V700.36ZM233.524 664.01H221.053V659.971H233.524V664.01ZM237.682 668.049H233.524V664.01H237.682V668.049ZM245.996 672.088H237.682V668.049H245.996V672.088ZM245.996 676.127V672.088H250.153V676.127H245.996ZM245.996 680.166H241.839V676.127H245.996V680.166ZM245.996 684.204H250.153V680.166H245.996V684.204ZM245.996 684.204V700.36H241.839V684.204H245.996Z" fill="black"/>
<path fill-rule="evenodd" clip-rule="evenodd" d="M207.805 716.321H199.882V724.361H207.805V716.321ZM239.498 716.321H235.536V724.361H239.498V716.321Z" fill="#E61A10"/>
<path fill-rule="evenodd" clip-rule="evenodd" d="M207.805 716.321H199.882V720.341H207.805V716.321ZM239.498 716.321H235.536V720.341H239.498V716.321Z" fill="white" fill-opacity="0.3" style="mix-blend-mode:lighten"/>
<path fill-rule="evenodd" clip-rule="evenodd" d="M208.744 794.556H199.144V821.889H208.744V817.333H213.544V812.778H218.344V799.111H223.144L223.144 821.889H232.744L232.744 817.333H237.544V794.556H232.744H223.144H218.344H213.544H208.744Z" fill="black"/>
<path fill-rule="evenodd" clip-rule="evenodd" d="M199.144 790H194.344V831H199.144H208.744H213.544V817.333H218.344V831H223.144H232.744H237.544H242.344V826.444H237.544V817.333H242.344V790H237.544H199.144ZM223.144 826.444H232.744V817.333H237.544V803.667H232.744V799.111H237.544V794.556H199.144V799.111H203.944V803.667H199.144V826.444H208.744V817.333H213.544V812.778H218.344V799.111H223.144V826.444Z" fill="black"/>
<path fill-rule="evenodd" clip-rule="evenodd" d="M199.144 794.556H203.944V799.111H199.144V794.556ZM199.144 803.667H203.944V808.222H199.144V803.667ZM208.744 817.333H203.944V821.889H208.744V817.333ZM213.544 812.778V817.333L208.744 817.333V812.778H213.544ZM213.544 812.778V799.111H218.344V812.778L213.544 812.778ZM237.544 794.556H232.744V799.111H237.544V794.556ZM232.744 803.667H237.544V808.222H232.744V803.667ZM227.944 803.667H223.144V821.889H227.944L232.744 821.889V812.778H227.944L227.944 803.667Z" fill="black" fill-opacity="0.2" style="mix-blend-mode:multiply"/>
<path fill-rule="evenodd" clip-rule="evenodd" d="M208.744 821.889H199.144V826.444H208.744V821.889ZM232.744 821.889H223.144V826.444H232.744V821.889Z" fill="#BA6434"/>
<path fill-rule="evenodd" clip-rule="evenodd" d="M203.944 821.889H199.144V826.444H203.944V821.889ZM227.944 821.889H223.144V826.444H227.944V821.889Z" fill="black" fill-opacity="0.2" style="mix-blend-mode:multiply"/>
<path fill-rule="evenodd" clip-rule="evenodd" d="M223.144 750.231H213.41V754.846H223.144V750.231ZM247.477 777.923H242.61H237.744V782.538H242.61L242.61 787.154H247.477V777.923ZM189.077 782.538H184.21V791.769H189.077H193.944V782.538H189.077ZM198.81 782.538H193.944V787.154H198.81V782.538Z" fill="#F3CCA7"/>
<path fill-rule="evenodd" clip-rule="evenodd" d="M213.41 750.231H223.144V754.846H213.41V750.231ZM237.744 777.923H242.61H247.477V787.154H242.61V782.538H237.744V777.923ZM193.944 782.538H198.81V787.154H193.944V791.769H189.077V782.538H193.944Z" fill="#714A1C" fill-opacity="0.25" style="mix-blend-mode:multiply"/>
<rect x="213.411" y="759.462" width="9.73333" height="27.6923" fill="#8F00FF"/>
<path d="M218.277 759.462H223.144V787.154H218.277V759.462Z" fill="black" fill-opacity="0.2" style="mix-blend-mode:multiply"/>
<path fill-rule="evenodd" clip-rule="evenodd" d="M203.677 745.615H198.81L198.81 750.231H193.944V754.846H189.077V777.923H193.944H198.81L198.81 759.462H203.677V745.615ZM198.81 787.154H203.677V796.385H198.81V787.154ZM208.544 750.231H203.677V796.385H208.544V750.231ZM223.144 754.846H228.01V750.231H232.877L232.877 754.846H237.744V764.077H232.877V787.154H237.744V796.385H232.877H228.01V787.154H223.144V754.846ZM237.744 764.077V773.308H242.61V764.077H237.744Z" fill="black"/>
<path fill-rule="evenodd" clip-rule="evenodd" d="M198.811 745.615H203.677V750.231H198.811V745.615ZM203.677 754.846V750.231H208.544V754.846H203.677ZM203.677 754.846V759.462H198.811V754.846H203.677ZM228.011 750.231H232.877V754.846H228.011V750.231ZM237.744 764.077V754.846L232.877 754.846V764.077H237.744ZM237.744 764.077V773.308H242.611V764.077H237.744ZM232.877 777.923H228.011V796.385H232.877H237.744V787.154H232.877L232.877 777.923ZM208.544 787.154H198.811V796.385H208.544V787.154ZM193.944 768.692H198.811V777.923H193.944V768.692Z" fill="black" fill-opacity="0.2" style="mix-blend-mode:multiply"/>
<path fill-rule="evenodd" clip-rule="evenodd" d="M203.677 741H198.81V745.615H193.944V750.231H189.077V754.846H184.21V782.538H179.344V791.769H184.21V796.385H193.944H198.81V801H208.544V796.385H213.41V791.769H223.144V796.385H228.01V754.846V750.231H232.877V754.846H237.744V764.077H232.877V787.154H237.744V796.385H228.01V801H237.744V796.385H242.61V791.769H247.477V787.154H252.344V777.923H247.477V764.077H242.61V754.846H237.744V750.231H232.877V745.615H228.01V750.231H223.144V754.846H213.41V750.231H208.544V745.615H203.677V741ZM203.677 745.615V750.231H208.544V796.385L198.81 796.385V787.154H203.677V759.462H198.81V777.923H189.077V754.846H193.944V750.231H198.81V745.615H203.677ZM247.477 777.923V787.154H242.61V782.538H237.744V777.923H242.61H247.477ZM242.61 764.077H237.744V773.308H242.61V764.077ZM223.144 787.154V759.462H213.41V787.154H223.144ZM198.81 787.154H193.944L193.944 791.769H184.21V782.538H189.077H198.81V787.154Z" fill="black"/>
<path fill-rule="evenodd" clip-rule="evenodd" d="M208.744 794.556H199.144V821.889H208.744V817.333H213.544V812.778H218.344V799.111H223.144L223.144 821.889H232.744L232.744 817.333H237.544V794.556H232.744H223.144H218.344H213.544H208.744Z" fill="black"/>
<path fill-rule="evenodd" clip-rule="evenodd" d="M199.144 790H194.344V831H199.144H208.744H213.544V817.333H218.344V831H223.144H232.744H237.544H242.344V826.444H237.544V817.333H242.344V790H237.544H199.144ZM223.144 826.444H232.744V817.333H237.544V803.667H232.744V799.111H237.544V794.556H199.144V799.111H203.944V803.667H199.144V826.444H208.744V817.333H213.544V812.778H218.344V799.111H223.144V826.444Z" fill="black"/>
<path fill-rule="evenodd" clip-rule="evenodd" d="M199.144 794.556H203.944V799.111H199.144V794.556ZM199.144 803.667H203.944V808.222H199.144V803.667ZM208.744 817.333H203.944V821.889H208.744V817.333ZM213.544 812.778V817.333L208.744 817.333V812.778H213.544ZM213.544 812.778V799.111H218.344V812.778L213.544 812.778ZM237.544 794.556H232.744V799.111H237.544V794.556ZM232.744 803.667H237.544V808.222H232.744V803.667ZM227.944 803.667H223.144V821.889H227.944L232.744 821.889V812.778H227.944L227.944 803.667Z" fill="black" fill-opacity="0.2" style="mix-blend-mode:multiply"/>
<path fill-rule="evenodd" clip-rule="evenodd" d="M208.744 821.889H199.144V826.444H208.744V821.889ZM232.744 821.889H223.144V826.444H232.744V821.889Z" fill="white"/>
<path fill-rule="evenodd" clip-rule="evenodd" d="M203.944 821.889H199.144V826.444H203.944V821.889ZM227.944 821.889H223.144V826.444H227.944V821.889Z" fill="black" fill-opacity="0.2" style="mix-blend-mode:multiply"/>
<path d="M315.389 662.878H349.533V667.756H354.411V672.634H359.289V736.044H354.411V740.922H349.533V745.8H320.267V740.922H310.511V736.044H305.633V726.289H295.878V711.655H300.756V672.634H305.633V667.756H315.389V662.878Z" fill="#9C6F4B"/>
<path fill-rule="evenodd" clip-rule="evenodd" d="M310.511 750.677H349.533V755.555H354.411V765.311H349.533V794.577H354.411V804.333H349.533V828.721H339.778V804.333H334.9V814.088H330.022V818.966H325.144V828.721H315.389V799.455H320.267V794.577H305.633V755.555H310.511V750.677ZM315.389 760.433H320.267V789.699H315.389V760.433Z" fill="#9C6F4B"/>
<path d="M354.411 765.311H359.289V779.944H364.166V789.699H354.411V765.311Z" fill="#9C6F4B"/>
<path d="M349.533 662.878H325.145V667.756H344.656V672.634H354.411V711.655H359.289V672.634H354.411V667.756H349.533V662.878Z" fill="#7E5333"/>
<path d="M305.634 672.634H300.756V692.145H305.634V672.634Z" fill="#7E5333"/>
<path d="M300.756 716.533H305.634V711.655H310.511V736.044H305.634V721.411H300.756V716.533Z" fill="#7E5333"/>
<path d="M310.511 736.044H325.145V740.922H349.533V745.8H320.267V740.922H310.511V736.044Z" fill="#7E5333"/>
<path d="M354.411 765.311H359.289V779.944H364.167V789.699H354.411V765.311Z" fill="#7E5333"/>
<path d="M354.411 765.311H349.533V760.433H344.656V755.555H320.267V750.677H349.533V755.555H354.411V765.311Z" fill="#7E5333"/>
<path d="M354.411 794.577H349.533V770.188H344.656V794.577H349.533V804.333H354.411V794.577Z" fill="#7E5333"/>
<path d="M344.656 809.21H349.533V828.721H344.656V809.21Z" fill="#7E5333"/>
<path d="M320.267 799.455H315.389V828.721H325.145V818.966H320.267V799.455Z" fill="#7E5333"/>
<path d="M330.022 804.333H334.9V809.21H330.022V804.333Z" fill="#7E5333"/>
<path d="M315.389 770.188H310.511V784.822H305.634V794.577H320.267V789.699H315.389V770.188Z" fill="#7E5333"/>
<path d="M320.267 672.633H325.144V677.511H320.267V672.633Z" fill="#D4B194"/>
<path d="M344.655 672.633H330.022V677.511H344.655V682.389H349.533V687.267H354.411V682.389H349.533V677.511H344.655V672.633Z" fill="#D4B194"/>
<path d="M300.756 711.655H295.878V716.533H300.756V711.655Z" fill="#D4B194"/>
<path d="M310.511 750.677H320.267V755.555H310.511V750.677Z" fill="#D4B194"/>
<path d="M310.511 755.555V760.433H305.633V755.555H310.511Z" fill="#D4B194"/>
<path d="M330.022 767.749H325.144V777.505H330.022V767.749Z" fill="#D4B194"/>
<path d="M330.022 767.749H334.9V762.872H330.022V767.749Z" fill="#D4B194"/>
<path d="M339.778 799.455H334.9V804.332H339.778V799.455Z" fill="#D4B194"/>
<path fill-rule="evenodd" clip-rule="evenodd" d="M349.533 658H315.389V662.878H305.633V667.755H300.755V672.633H295.878V711.655H291V726.288H295.878V731.166H300.755V736.044H305.633V740.922H310.511V750.677H305.633V755.555H300.755V794.577H305.633V799.455H310.511V833.599H330.022V818.965H334.9V833.599H359.288V828.721H354.411V804.332H359.288V794.577H364.166V789.699H369.044V779.944H364.166V765.31H359.288V755.555H354.411V750.677H349.533V745.799H354.411V740.922H359.288V736.044H364.166V672.633H359.288V667.755H354.411V662.878H349.533V658ZM349.533 662.878V667.755H354.411V672.633H359.288V736.044H354.411V740.922H349.533V745.799H320.266V740.922H310.511V736.044H305.633V726.288H295.878V711.655H300.755V716.533H305.633V711.655H300.755V672.633H305.633V667.755H315.389V662.878H349.533ZM354.411 765.31H349.533V794.577H354.411V804.332H349.533V828.721H339.777V804.332H334.9V809.21H330.022V818.965H325.144V828.721H315.389V799.455H325.144V789.699H320.266V760.433H315.389V789.699H320.266V794.577H305.633V755.555H310.511V750.677H349.533V755.555H354.411V765.31ZM354.411 765.31V789.699H364.166V779.944H359.288V765.31H354.411Z" fill="black"/>
<path fill-rule="evenodd" clip-rule="evenodd" d="M350.352 663.11H316.429V668.029H311.582H306.736V672.948H301.89V712.3H297.044V727.057H301.89L306.736 727.057V736.896H311.582V741.815L316.429 741.815H321.275V746.734H350.352V741.815L355.198 741.815V736.896H360.044V672.948H355.198V668.029H350.352V663.11Z" fill="#9C6F4B"/>
<path fill-rule="evenodd" clip-rule="evenodd" d="M326.121 663.11H350.352V668.029H355.198V672.948L345.506 672.948V668.029H326.121V663.11ZM355.198 672.948H360.044V712.3H355.198V672.948ZM301.89 672.948H306.736V712.3H301.89V672.948ZM311.582 736.896H306.736V722.138H301.89V717.219H306.736V712.3L311.582 712.3V736.896ZM326.121 741.815V736.896L311.582 736.896V741.815H321.275V746.734H350.352V741.815H326.121ZM306.736 672.948V668.029H311.582V672.948L306.736 672.948Z" fill="#714A1C" fill-opacity="0.25" style="mix-blend-mode:multiply"/>
<path fill-rule="evenodd" clip-rule="evenodd" d="M326.121 672.948H321.275V677.867H326.121V672.948ZM330.967 672.948H345.505V677.867H330.967V672.948ZM350.352 682.786V677.867H345.505V682.786H350.352ZM350.352 682.786V687.705H355.198V682.786H350.352ZM297.044 712.3H301.89V717.219H297.044V712.3Z" fill="#FFFCF9" fill-opacity="0.7" style="mix-blend-mode:lighten"/>
<path fill-rule="evenodd" clip-rule="evenodd" d="M321.275 707.381H335.813V712.3H330.967V722.138H326.121V712.3H321.275V707.381ZM345.506 731.977H335.813V736.896H345.506V731.977ZM345.506 731.977H350.352V727.058H345.506V731.977ZM355.198 712.3H345.506V717.219H355.198V712.3Z" fill="black"/>
<path fill-rule="evenodd" clip-rule="evenodd" d="M340.659 707.381H335.813V712.3H330.967V717.219H335.813V712.3H340.659V707.381Z" fill="#714A1C" fill-opacity="0.25" style="mix-blend-mode:multiply"/>
<path fill-rule="evenodd" clip-rule="evenodd" d="M316.429 658.191H350.352V663.11H316.429V658.191ZM306.736 668.029V663.11H316.429V668.029H306.736ZM301.89 672.948V668.029H306.736V672.948H301.89ZM301.89 712.3V672.948H297.044V712.3H292.198V727.057H297.044V731.977H301.89V736.896H306.736V741.815H311.582V746.734H321.275V751.653H350.352V746.734H355.198V741.815H360.044V736.896H364.89V672.948H360.044V668.029H355.198V663.11H350.352L350.352 668.029H355.198V672.948H360.044V736.896H355.198V741.815H350.352V746.734H321.275V741.815H311.582V736.896H306.736V731.977V727.057H297.044V712.3H301.89ZM301.89 712.3V717.219H306.736V712.3H301.89Z" fill="black"/>
<path fill-rule="evenodd" clip-rule="evenodd" d="M324.023 797.503H314.469V824.524H324.023V820.021H328.8V815.517H333.577V802.007H338.354V824.524H347.908V820.021H352.685V797.503H347.908H338.354H333.577H328.8H324.023Z" fill="black"/>
<path fill-rule="evenodd" clip-rule="evenodd" d="M314.469 793H309.692V833.531H314.469H324.023H328.8V820.021H333.577V833.531H338.354H347.908H352.685H357.462V829.028H352.685V820.021H357.462V793H352.685H314.469ZM338.354 829.028H347.908V820.021H352.685V806.51H347.908V802.007H352.685V797.503H314.469V802.007H319.246V806.51H314.469V829.028H324.023V820.021H328.8V815.517H333.577V802.007H338.354V829.028Z" fill="black"/>
<path fill-rule="evenodd" clip-rule="evenodd" d="M314.469 797.503H319.246V802.007H314.469V797.503ZM314.469 806.51H319.246V811.014H314.469V806.51ZM324.023 820.021H319.246V824.524H324.023V820.021ZM328.8 815.517V820.021L324.023 820.021V815.517H328.8ZM328.8 815.517V802.007H333.577V815.517L328.8 815.517ZM352.685 797.503H347.908V802.007H352.685V797.503ZM347.908 806.51H352.685V811.014H347.908V806.51ZM343.131 806.51H338.354V824.524H343.131L347.908 824.524V815.517H343.131L343.131 806.51Z" fill="black" fill-opacity="0.2" style="mix-blend-mode:multiply"/>
<path fill-rule="evenodd" clip-rule="evenodd" d="M324.023 824.524H314.469V829.028H324.023V824.524ZM347.908 824.524H338.354V829.028H347.908V824.524Z" fill="black"/>
<path fill-rule="evenodd" clip-rule="evenodd" d="M319.246 824.524H314.469V829.028H319.246V824.524ZM343.131 824.524H338.354V829.028H343.131V824.524Z" fill="black" fill-opacity="0.2" style="mix-blend-mode:multiply"/>
<path fill-rule="evenodd" clip-rule="evenodd" d="M319.384 739H314.123V744.365H308.861V749.731H303.6V755.096H298.338V787.288H303.6V771.192H314.123V792.654H308.861L308.861 798.019H298.338V787.288H293.077V798.019H298.338V803.385H308.861V798.019H366.738L366.738 792.654H372V781.923H366.738V765.827H361.477V755.096H356.215V749.731H350.954V744.365H345.692V749.731H340.431V755.096H329.907V749.731H324.646V744.365H319.384V739ZM319.384 744.365V749.731H324.646V755.096H329.907V760.462H340.431V755.096H345.692V749.731H350.954V755.096H356.215V765.827H350.954V792.654H319.384V760.462H314.123V765.827H303.6V755.096H308.861V749.731H314.123V744.365H319.384ZM361.477 792.654H366.738V781.923H361.477V765.827H356.215V787.288H361.477V792.654Z" fill="black"/>
<path fill-rule="evenodd" clip-rule="evenodd" d="M340.431 749.731H329.908V755.096H340.431V749.731ZM303.6 771.192H308.861V798.019H303.6L298.338 798.019V787.288H303.6V771.192ZM366.738 781.923H361.477V792.654H366.738V781.923ZM356.215 765.827H361.477V787.288H356.215V765.827ZM314.123 771.192H308.861V792.654H314.123V771.192Z" fill="#9C6F4B"/>
<path fill-rule="evenodd" clip-rule="evenodd" d="M329.907 749.731H340.43V755.096H329.907V749.731ZM356.215 765.827H361.477L361.477 781.923H366.738V792.654H361.477L361.477 787.288H356.215V765.827ZM308.861 771.192H314.123V792.654H308.861V798.019H303.6V787.288H308.861V771.192Z" fill="#714A1C" fill-opacity="0.25" style="mix-blend-mode:multiply"/>
<path fill-rule="evenodd" clip-rule="evenodd" d="M319.384 744.365H314.123L314.123 749.731H308.861V755.096H303.6V765.827H308.861H314.123L314.123 760.462H319.384V792.654H324.646L329.907 792.654L335.169 792.654H340.43L345.692 792.654L350.953 792.654L350.953 765.827H356.215V755.096H350.953L350.953 749.731H345.692L345.692 755.096H340.43L340.43 760.462H335.169H329.907V755.096H324.646V749.731H319.384V744.365Z" fill="white"/>
<path fill-rule="evenodd" clip-rule="evenodd" d="M314.123 744.365H319.384V749.731H314.123V744.365ZM345.692 749.731H350.954V755.096H345.692V749.731ZM350.954 755.096L350.954 765.827H356.215V755.096H350.954ZM350.954 787.288H319.384V792.654H350.954V787.288ZM319.384 755.096H314.123V760.462H308.861V765.827H314.123V760.462H319.384V755.096Z" fill="black" fill-opacity="0.2" style="mix-blend-mode:multiply"/>
<path d="M72.2794 667.856H106.27V672.711H111.125V677.567H115.981V740.692H111.125V745.548H106.27V750.403H77.1352V745.548H67.4237V740.692H62.5679V730.98H52.8564V716.413H57.7122V677.567H62.5679V672.711H72.2794V667.856Z" fill="#FAE6CE"/>
<path fill-rule="evenodd" clip-rule="evenodd" d="M67.4237 755.259H106.27V760.115H111.125V769.826H106.27V798.961H111.125V808.672H106.27V832.951H96.5581V808.672H91.7024V818.384H86.8466V823.24H81.9909V832.951H72.2794V803.817H77.1352V798.961H62.5679V760.115H67.4237V755.259ZM72.2794 764.971H77.1352V794.105H72.2794V764.971Z" fill="#FAE6CE"/>
<path d="M111.125 769.826H115.981V784.394H120.837V794.105H111.125V769.826Z" fill="#FAE6CE"/>
<path d="M106.269 667.856H81.9901V672.711H101.413V677.567H111.125V716.413H115.98V677.567H111.125V672.711H106.269V667.856Z" fill="#E3C4A6"/>
<path d="M62.5672 677.567H57.7114V696.99H62.5672V677.567Z" fill="#E3C4A6"/>
<path d="M57.7114 721.269H62.5672V716.413H67.4229V740.692H62.5672V726.125H57.7114V721.269Z" fill="#E3C4A6"/>
<path d="M67.4229 740.692H81.9901V745.548H106.269V750.403H77.1344V745.548H67.4229V740.692Z" fill="#E3C4A6"/>
<path d="M111.125 769.826H115.98V784.394H120.836V794.105H111.125V769.826Z" fill="#E3C4A6"/>
<path d="M111.125 769.826H106.269V764.971H101.413V760.115H77.1344V755.259H106.269V760.115H111.125V769.826Z" fill="#E3C4A6"/>
<path d="M111.125 798.961H106.269V774.682H101.413V798.961H106.269V808.672H111.125V798.961Z" fill="#E3C4A6"/>
<path d="M101.413 813.528H106.269V832.951H101.413V813.528Z" fill="#E3C4A6"/>
<path d="M77.1344 803.817H72.2787V832.951H81.9901V823.24H77.1344V803.817Z" fill="#E3C4A6"/>
<path d="M86.8459 808.672H91.7016V813.528H86.8459V808.672Z" fill="#E3C4A6"/>
<path d="M72.2787 774.682H67.4229V789.249H62.5672V798.961H77.1344V794.105H72.2787V774.682Z" fill="#E3C4A6"/>
<path d="M77.1352 677.567H81.9909V682.423H77.1352V677.567Z" fill="#FFF8EF"/>
<path d="M101.414 677.567H86.8466V682.423H101.414V687.279H106.27V692.134H111.125V687.279H106.27V682.423H101.414V677.567Z" fill="#FFF8EF"/>
<path d="M57.7122 716.413H52.8564V721.269H57.7122V716.413Z" fill="#FFF8EF"/>
<path d="M67.4237 755.259H77.1352V760.115H67.4237V755.259Z" fill="#FFF8EF"/>
<path d="M67.4237 760.115V764.971H62.5679V760.115H67.4237Z" fill="#FFF8EF"/>
<path d="M86.8466 772.254H81.9909V781.966H86.8466V772.254Z" fill="#FFF8EF"/>
<path d="M86.8466 772.254H91.7024V767.398H86.8466V772.254Z" fill="#FFF8EF"/>
<path d="M96.5581 803.816H91.7024V808.672H96.5581V803.816Z" fill="#FFF8EF"/>
<path fill-rule="evenodd" clip-rule="evenodd" d="M106.269 663H72.2787V667.856H62.5672V672.711H57.7115V677.567H52.8557V716.413H48V730.98H52.8557V735.836H57.7115V740.692H62.5672V745.548H67.423V755.259H62.5672V760.115H57.7115V798.961H62.5672V803.817H67.423V837.807H86.8459V823.24H91.7017V837.807H115.98V832.951H111.125V808.672H115.98V798.961H120.836V794.105H125.692V784.394H120.836V769.826H115.98V760.115H111.125V755.259H106.269V750.403H111.125V745.548H115.98V740.692H120.836V677.567H115.98V672.711H111.125V667.856H106.269V663ZM106.269 667.856V672.711H111.125V677.567H115.98V740.692H111.125V745.548H106.269V750.403H77.1345V745.548H67.423V740.692H62.5672V730.98H52.8557V716.413H57.7115V721.269H62.5672V716.413H57.7115V677.567H62.5672V672.711H72.2787V667.856H106.269ZM111.125 769.826H106.269V798.961H111.125V808.672H106.269V832.951H96.5574V808.672H91.7017V813.528H86.8459V823.24H81.9902V832.951H72.2787V803.817H81.9902V794.105H77.1345V764.971H72.2787V794.105H77.1345V798.961H62.5672V760.115H67.423V755.259H106.269V760.115H111.125V769.826ZM111.125 769.826V794.105H120.836V784.394H115.98V769.826H111.125Z" fill="black"/>
<path fill-rule="evenodd" clip-rule="evenodd" d="M105.5 667.914H71.9583V672.778H67.1666H62.3749V677.642H57.5832V716.552H52.7915V731.143H57.5832L62.3749 731.143V740.87H67.1666V745.734L71.9583 745.734H76.75V750.598H105.5L105.5 745.734L110.292 745.734V740.87H115.084V677.642H110.292V672.778H105.5V667.914Z" fill="#FAE6CE"/>
<path fill-rule="evenodd" clip-rule="evenodd" d="M81.542 667.914H105.501V672.778H110.292L110.292 677.642H100.709V672.778H81.542V667.914ZM110.292 677.642H115.084V716.552H110.292V677.642ZM57.5835 677.642H62.3752V716.552H57.5835V677.642ZM67.1669 740.87H62.3752V726.279H57.5835V721.415H62.3752V716.552H67.1669V740.87ZM81.542 745.734V740.87H67.1669V745.734H76.7503V750.598H105.501V745.734H81.542ZM62.3752 677.642V672.778H67.1669V677.642H62.3752Z" fill="#714A1C" fill-opacity="0.25" style="mix-blend-mode:multiply"/>
<path fill-rule="evenodd" clip-rule="evenodd" d="M81.5417 677.642H76.75V682.505H81.5417V677.642ZM86.3334 677.642H100.709V682.505H86.3334V677.642ZM100.709 682.505H105.5V687.369H100.709L100.709 682.505ZM52.7915 716.552H57.5832V721.415H52.7915V716.552ZM110.292 687.369H105.5V692.233H110.292V687.369Z" fill="#FFFCF9" fill-opacity="0.7" style="mix-blend-mode:lighten"/>
<path fill-rule="evenodd" clip-rule="evenodd" d="M91.1251 711.688H76.75V716.552H81.5417V726.279H86.3334V716.552H91.1251V711.688ZM91.1251 736.007H100.708V740.87H91.1251V736.007ZM91.1251 736.007H86.3334V731.143H91.1251V736.007ZM100.708 711.688H105.5H110.292V716.552H105.5V726.279H100.708V711.688Z" fill="black"/>
<path fill-rule="evenodd" clip-rule="evenodd" d="M95.9169 711.688H91.1252V716.552H86.3335V721.415H91.1252V716.552H95.9169V711.688Z" fill="#714A1C" fill-opacity="0.25" style="mix-blend-mode:multiply"/>
<path fill-rule="evenodd" clip-rule="evenodd" d="M71.9585 663.05H105.5V667.914H71.9585V663.05ZM62.3751 672.778V667.914H71.9585V672.778H62.3751ZM57.5834 677.642V672.778H62.3751V677.642H57.5834ZM57.5834 677.642V716.552H52.7917V677.642H57.5834ZM52.7917 716.552H48V731.143H52.7917V736.007H57.5834V740.87H62.3751V745.734H67.1668V750.598H76.7502V755.462H105.5V750.598H110.292V745.734H115.084V740.87H119.875V677.642H115.084V672.778H110.292V667.914H105.5V672.778H110.292V677.642H115.084V740.87H110.292V745.734H105.5V750.598H76.7502V745.734H67.1668V740.87H62.3751L62.3751 736.007V731.143H52.7917V716.552ZM62.3751 716.552H57.5834V721.415H62.3751V716.552Z" fill="black"/>
<path d="M72.2794 667.856H106.27V672.711H111.125V677.567H115.981V740.692H111.125V745.548H106.27V750.403H77.1352V745.548H67.4237V740.692H62.5679V730.98H52.8564V716.413H57.7122V677.567H62.5679V672.711H72.2794V667.856Z" fill="#FAE6CE"/>
<path fill-rule="evenodd" clip-rule="evenodd" d="M67.4237 755.259H106.27V760.115H111.125V769.826H106.27V798.961H111.125V808.672H106.27V832.951H96.5581V808.672H91.7024V818.384H86.8466V823.24H81.9909V832.951H72.2794V803.817H77.1352V798.961H62.5679V760.115H67.4237V755.259ZM72.2794 764.971H77.1352V794.105H72.2794V764.971Z" fill="#FAE6CE"/>
<path d="M111.125 769.826H115.981V784.394H120.837V794.105H111.125V769.826Z" fill="#FAE6CE"/>
<path d="M106.269 667.856H81.9901V672.711H101.413V677.567H111.125V716.413H115.98V677.567H111.125V672.711H106.269V667.856Z" fill="#E3C4A6"/>
<path d="M62.5672 677.567H57.7114V696.99H62.5672V677.567Z" fill="#E3C4A6"/>
<path d="M57.7114 721.269H62.5672V716.413H67.4229V740.692H62.5672V726.125H57.7114V721.269Z" fill="#E3C4A6"/>
<path d="M67.4229 740.692H81.9901V745.548H106.269V750.403H77.1344V745.548H67.4229V740.692Z" fill="#E3C4A6"/>
<path d="M111.125 769.826H115.98V784.394H120.836V794.105H111.125V769.826Z" fill="#E3C4A6"/>
<path d="M111.125 769.826H106.269V764.971H101.413V760.115H77.1344V755.259H106.269V760.115H111.125V769.826Z" fill="#E3C4A6"/>
<path d="M111.125 798.961H106.269V774.682H101.413V798.961H106.269V808.672H111.125V798.961Z" fill="#E3C4A6"/>
<path d="M101.413 813.528H106.269V832.951H101.413V813.528Z" fill="#E3C4A6"/>
<path d="M77.1344 803.817H72.2787V832.951H81.9901V823.24H77.1344V803.817Z" fill="#E3C4A6"/>
<path d="M86.8459 808.672H91.7016V813.528H86.8459V808.672Z" fill="#E3C4A6"/>
<path d="M72.2787 774.682H67.4229V789.249H62.5672V798.961H77.1344V794.105H72.2787V774.682Z" fill="#E3C4A6"/>
<path d="M77.1352 677.567H81.9909V682.423H77.1352V677.567Z" fill="#FFF8EF"/>
<path d="M101.414 677.567H86.8466V682.423H101.414V687.279H106.27V692.134H111.125V687.279H106.27V682.423H101.414V677.567Z" fill="#FFF8EF"/>
<path d="M57.7122 716.413H52.8564V721.269H57.7122V716.413Z" fill="#FFF8EF"/>
<path d="M67.4237 755.259H77.1352V760.115H67.4237V755.259Z" fill="#FFF8EF"/>
<path d="M67.4237 760.115V764.971H62.5679V760.115H67.4237Z" fill="#FFF8EF"/>
<path d="M86.8466 772.254H81.9909V781.966H86.8466V772.254Z" fill="#FFF8EF"/>
<path d="M86.8466 772.254H91.7024V767.398H86.8466V772.254Z" fill="#FFF8EF"/>
<path d="M96.5581 803.816H91.7024V808.672H96.5581V803.816Z" fill="#FFF8EF"/>
<path fill-rule="evenodd" clip-rule="evenodd" d="M106.269 663H72.2787V667.856H62.5672V672.711H57.7115V677.567H52.8557V716.413H48V730.98H52.8557V735.836H57.7115V740.692H62.5672V745.548H67.423V755.259H62.5672V760.115H57.7115V798.961H62.5672V803.817H67.423V837.807H86.8459V823.24H91.7017V837.807H115.98V832.951H111.125V808.672H115.98V798.961H120.836V794.105H125.692V784.394H120.836V769.826H115.98V760.115H111.125V755.259H106.269V750.403H111.125V745.548H115.98V740.692H120.836V677.567H115.98V672.711H111.125V667.856H106.269V663ZM106.269 667.856V672.711H111.125V677.567H115.98V740.692H111.125V745.548H106.269V750.403H77.1345V745.548H67.423V740.692H62.5672V730.98H52.8557V716.413H57.7115V721.269H62.5672V716.413H57.7115V677.567H62.5672V672.711H72.2787V667.856H106.269ZM111.125 769.826H106.269V798.961H111.125V808.672H106.269V832.951H96.5574V808.672H91.7017V813.528H86.8459V823.24H81.9902V832.951H72.2787V803.817H81.9902V794.105H77.1345V764.971H72.2787V794.105H77.1345V798.961H62.5672V760.115H67.423V755.259H106.269V760.115H111.125V769.826ZM111.125 769.826V794.105H120.836V784.394H115.98V769.826H111.125Z" fill="black"/>
<path fill-rule="evenodd" clip-rule="evenodd" d="M105.5 667.914H71.9583V672.778H67.1666H62.3749V677.642H57.5832V716.552H52.7915V731.143H57.5832L62.3749 731.143V740.87H67.1666V745.734L71.9583 745.734H76.75V750.598H105.5L105.5 745.734L110.292 745.734V740.87H115.084V677.642H110.292V672.778H105.5V667.914Z" fill="#FAE6CE"/>
<path fill-rule="evenodd" clip-rule="evenodd" d="M81.542 667.914H105.501V672.778H110.292L110.292 677.642H100.709V672.778H81.542V667.914ZM110.292 677.642H115.084V716.552H110.292V677.642ZM57.5835 677.642H62.3752V716.552H57.5835V677.642ZM67.1669 740.87H62.3752V726.279H57.5835V721.415H62.3752V716.552H67.1669V740.87ZM81.542 745.734V740.87H67.1669V745.734H76.7503V750.598H105.501V745.734H81.542ZM62.3752 677.642V672.778H67.1669V677.642H62.3752Z" fill="#714A1C" fill-opacity="0.25" style="mix-blend-mode:multiply"/>
<path fill-rule="evenodd" clip-rule="evenodd" d="M81.5417 677.642H76.75V682.505H81.5417V677.642ZM86.3334 677.642H100.709V682.505H86.3334V677.642ZM100.709 682.505H105.5V687.369H100.709L100.709 682.505ZM52.7915 716.552H57.5832V721.415H52.7915V716.552ZM110.292 687.369H105.5V692.233H110.292V687.369Z" fill="#FFFCF9" fill-opacity="0.7" style="mix-blend-mode:lighten"/>
<path fill-rule="evenodd" clip-rule="evenodd" d="M91.1251 711.688H76.75V716.552H81.5417V726.279H86.3334V716.552H91.1251V711.688ZM91.1251 736.007H100.708V740.87H91.1251V736.007ZM91.1251 736.007H86.3334V731.143H91.1251V736.007ZM100.708 711.688H105.5H110.292V716.552H105.5V726.279H100.708V711.688Z" fill="black"/>
<path fill-rule="evenodd" clip-rule="evenodd" d="M95.9169 711.688H91.1252V716.552H86.3335V721.415H91.1252V716.552H95.9169V711.688Z" fill="#714A1C" fill-opacity="0.25" style="mix-blend-mode:multiply"/>
<path fill-rule="evenodd" clip-rule="evenodd" d="M71.9585 663.05H105.5V667.914H71.9585V663.05ZM62.3751 672.778V667.914H71.9585V672.778H62.3751ZM57.5834 677.642V672.778H62.3751V677.642H57.5834ZM57.5834 677.642V716.552H52.7917V677.642H57.5834ZM52.7917 716.552H48V731.143H52.7917V736.007H57.5834V740.87H62.3751V745.734H67.1668V750.598H76.7502V755.462H105.5V750.598H110.292V745.734H115.084V740.87H119.875V677.642H115.084V672.778H110.292V667.914H105.5V672.778H110.292V677.642H115.084V740.87H110.292V745.734H105.5V750.598H76.7502V745.734H67.1668V740.87H62.3751L62.3751 736.007V731.143H52.7917V716.552ZM62.3751 716.552H57.5834V721.415H62.3751V716.552Z" fill="black"/>
<path d="M72.2794 667.856H106.27V672.711H111.125V677.567H115.981V740.692H111.125V745.548H106.27V750.403H77.1352V745.548H67.4237V740.692H62.5679V730.98H52.8564V716.413H57.7122V677.567H62.5679V672.711H72.2794V667.856Z" fill="#FAE6CE"/>
<path fill-rule="evenodd" clip-rule="evenodd" d="M67.4237 755.259H106.27V760.115H111.125V769.826H106.27V798.961H111.125V808.672H106.27V832.951H96.5581V808.672H91.7024V818.384H86.8466V823.24H81.9909V832.951H72.2794V803.817H77.1352V798.961H62.5679V760.115H67.4237V755.259ZM72.2794 764.971H77.1352V794.105H72.2794V764.971Z" fill="#FAE6CE"/>
<path d="M111.125 769.826H115.981V784.394H120.837V794.105H111.125V769.826Z" fill="#FAE6CE"/>
<path d="M106.269 667.856H81.9901V672.711H101.413V677.567H111.125V716.413H115.98V677.567H111.125V672.711H106.269V667.856Z" fill="#E3C4A6"/>
<path d="M62.5672 677.567H57.7114V696.99H62.5672V677.567Z" fill="#E3C4A6"/>
<path d="M57.7114 721.269H62.5672V716.413H67.4229V740.692H62.5672V726.125H57.7114V721.269Z" fill="#E3C4A6"/>
<path d="M67.4229 740.692H81.9901V745.548H106.269V750.403H77.1344V745.548H67.4229V740.692Z" fill="#E3C4A6"/>
<path d="M111.125 769.826H115.98V784.394H120.836V794.105H111.125V769.826Z" fill="#E3C4A6"/>
<path d="M111.125 769.826H106.269V764.971H101.413V760.115H77.1344V755.259H106.269V760.115H111.125V769.826Z" fill="#E3C4A6"/>
<path d="M111.125 798.961H106.269V774.682H101.413V798.961H106.269V808.672H111.125V798.961Z" fill="#E3C4A6"/>
<path d="M101.413 813.528H106.269V832.951H101.413V813.528Z" fill="#E3C4A6"/>
<path d="M77.1344 803.817H72.2787V832.951H81.9901V823.24H77.1344V803.817Z" fill="#E3C4A6"/>
<path d="M86.8459 808.672H91.7016V813.528H86.8459V808.672Z" fill="#E3C4A6"/>
<path d="M72.2787 774.682H67.4229V789.249H62.5672V798.961H77.1344V794.105H72.2787V774.682Z" fill="#E3C4A6"/>
<path d="M77.1352 677.567H81.9909V682.423H77.1352V677.567Z" fill="#FFF8EF"/>
<path d="M101.414 677.567H86.8466V682.423H101.414V687.279H106.27V692.134H111.125V687.279H106.27V682.423H101.414V677.567Z" fill="#FFF8EF"/>
<path d="M57.7122 716.413H52.8564V721.269H57.7122V716.413Z" fill="#FFF8EF"/>
<path d="M67.4237 755.259H77.1352V760.115H67.4237V755.259Z" fill="#FFF8EF"/>
<path d="M67.4237 760.115V764.971H62.5679V760.115H67.4237Z" fill="#FFF8EF"/>
<path d="M86.8466 772.254H81.9909V781.966H86.8466V772.254Z" fill="#FFF8EF"/>
<path d="M86.8466 772.254H91.7024V767.398H86.8466V772.254Z" fill="#FFF8EF"/>
<path d="M96.5581 803.816H91.7024V808.672H96.5581V803.816Z" fill="#FFF8EF"/>
<path fill-rule="evenodd" clip-rule="evenodd" d="M106.269 663H72.2787V667.856H62.5672V672.711H57.7115V677.567H52.8557V716.413H48V730.98H52.8557V735.836H57.7115V740.692H62.5672V745.548H67.423V755.259H62.5672V760.115H57.7115V798.961H62.5672V803.817H67.423V837.807H86.8459V823.24H91.7017V837.807H115.98V832.951H111.125V808.672H115.98V798.961H120.836V794.105H125.692V784.394H120.836V769.826H115.98V760.115H111.125V755.259H106.269V750.403H111.125V745.548H115.98V740.692H120.836V677.567H115.98V672.711H111.125V667.856H106.269V663ZM106.269 667.856V672.711H111.125V677.567H115.98V740.692H111.125V745.548H106.269V750.403H77.1345V745.548H67.423V740.692H62.5672V730.98H52.8557V716.413H57.7115V721.269H62.5672V716.413H57.7115V677.567H62.5672V672.711H72.2787V667.856H106.269ZM111.125 769.826H106.269V798.961H111.125V808.672H106.269V832.951H96.5574V808.672H91.7017V813.528H86.8459V823.24H81.9902V832.951H72.2787V803.817H81.9902V794.105H77.1345V764.971H72.2787V794.105H77.1345V798.961H62.5672V760.115H67.423V755.259H106.269V760.115H111.125V769.826ZM111.125 769.826V794.105H120.836V784.394H115.98V769.826H111.125Z" fill="black"/>
<path fill-rule="evenodd" clip-rule="evenodd" d="M107.143 668.022H72.6431V747.572H77.5717V752.543H107.143L107.143 747.572L112.072 747.572V742.6H117.001V677.966H112.072V672.994H107.143L107.143 668.022ZM52.9287 717.741H57.8573V677.966H62.7859V672.994H67.7145H72.6431V747.572H67.7145V742.6H62.7859V732.656H57.8573H52.9287V717.741Z" fill="#FAE6CE"/>
<path fill-rule="evenodd" clip-rule="evenodd" d="M82.5004 668.022H107.143V672.994H112.072V677.966H102.215V672.994H82.5004V668.022ZM112.072 677.966H117.001V717.741H112.072V677.966ZM57.8574 677.966H62.786V717.741H57.8574V677.966ZM67.7146 742.6H62.786V727.684H57.8574V722.712H62.786V717.741L67.7146 717.741V742.6ZM82.5004 747.572V742.6H67.7146V747.572H77.5718V752.543H107.143V747.572H82.5004ZM62.786 677.966V672.994H67.7146V677.966H62.786Z" fill="#714A1C" fill-opacity="0.25" style="mix-blend-mode:multiply"/>
<path fill-rule="evenodd" clip-rule="evenodd" d="M82.5003 677.966H77.5717V682.938H82.5003V677.966ZM87.429 677.966H102.215V682.938H87.429V677.966ZM107.143 687.91V682.938H102.215V687.91H107.143ZM107.143 687.91V692.881H112.072V687.91H107.143ZM52.9287 717.741H57.8573V722.712H52.9287V717.741Z" fill="#FFFCF9" fill-opacity="0.7" style="mix-blend-mode:lighten"/>
<path fill-rule="evenodd" clip-rule="evenodd" d="M82.5004 712.769H87.429V717.741H82.5004V712.769ZM82.5004 717.741V722.712H77.5718V717.741H82.5004ZM87.429 717.741H92.3576V722.712H87.429V717.741ZM92.3576 737.628H102.215V742.6H92.3576V737.628ZM92.3576 737.628H87.429V732.656H92.3576V737.628ZM102.215 737.628H107.143V732.656H102.215V737.628ZM102.215 717.741H97.2862V722.712H102.215V717.741ZM107.143 717.741H102.215V712.769H107.143V717.741ZM107.143 717.741V722.712H112.072V717.741H107.143Z" fill="black"/>
<path fill-rule="evenodd" clip-rule="evenodd" d="M92.3573 712.769H87.4287V717.741H92.3573V722.712H97.2859V717.741H92.3573V712.769Z" fill="#714A1C" fill-opacity="0.25" style="mix-blend-mode:multiply"/>
<path fill-rule="evenodd" clip-rule="evenodd" d="M72.643 663.05H107.143V668.022H72.643V663.05ZM62.7858 672.994V668.022H72.643V672.994H62.7858ZM57.8572 677.966V672.994H62.7858V677.966H57.8572ZM57.8572 717.741V677.966H52.9286V717.741H48V732.656H52.9286V737.628H57.8572V742.6H62.7858V747.572H67.7144V752.543H77.5716V757.515H107.143V752.543H112.072V747.572H117V742.6H112.072V747.572H107.143V752.543H77.5716V747.572H67.7144V742.6H62.7858V737.628V732.656H52.9286V717.741H57.8572ZM57.8572 717.741V722.712H62.7858V717.741H57.8572ZM112.072 672.994H107.143V668.022H112.072V672.994ZM117 677.966H112.072V672.994H117V677.966ZM117 677.966H121.929V742.6H117V677.966Z" fill="black"/>
<path fill-rule="evenodd" clip-rule="evenodd" d="M74.5887 667.425H70.1573L70.1573 671.8H61.2945V676.175H56.8631V711.176H61.2945V715.551H70.1573L70.1573 706.801H74.5887L74.5887 702.426H83.4516V698.051H92.3144V693.676H96.7458L96.7458 689.301H101.177V693.676H105.609V698.051H110.04L110.04 702.426H114.472V671.8H110.04L110.04 667.425H105.609H101.177H96.7458H92.3144H83.4516H74.5887ZM56.8631 733.051H61.2945V737.426H65.7259V741.801H70.1573V750.551H65.7259V754.926H61.2945H56.8631H52.4316V750.551H56.8631V733.051ZM114.472 680.55H118.903L118.903 693.676H123.334V737.426H118.903V746.176H123.334V750.551H127.766V754.926H123.334H118.903L118.903 759.301H114.472V728.676H118.903V711.176H114.472V680.55ZM114.472 741.801H110.04V754.926H114.472V741.801Z" fill="black"/>
<path fill-rule="evenodd" clip-rule="evenodd" d="M105.608 671.8H101.177V680.55H96.7456V689.301H92.3142L92.3142 693.676H83.4513V698.051H74.5885V702.426H83.4513V698.051H92.3142V693.676L96.7456 693.676V689.301H101.177L101.177 680.55H105.608V671.8ZM56.8628 676.175H61.2942V706.801H65.7256V702.426L70.1571 702.426H74.5885V706.801H70.1571L70.1571 715.551H65.7256H61.2942V711.176H56.8628V676.175ZM118.903 728.676H114.471V741.801H110.04V754.926H114.471V759.301H118.903V754.926H123.334H127.766V750.551H123.334V746.176H118.903V737.426H123.334V693.676H118.903V728.676Z" fill="black" fill-opacity="0.2" style="mix-blend-mode:multiply"/>
<path fill-rule="evenodd" clip-rule="evenodd" d="M92.3144 671.8H96.7458V680.55H92.3144V671.8ZM87.883 684.926V680.55H92.3144L92.3144 684.926H87.883ZM79.0201 684.926H87.883L87.883 689.301H79.0201V684.926ZM70.1573 684.926H79.0201V680.55H83.4515V671.8H79.0201L79.0201 680.55H70.1573V684.926ZM70.1573 684.926V689.301H65.7259V684.926L70.1573 684.926ZM74.5887 689.301H79.0201V693.676H74.5887V689.301ZM65.7259 689.301H61.2944V698.051H65.7259V689.301Z" fill="white" fill-opacity="0.3" style="mix-blend-mode:lighten"/>
<path fill-rule="evenodd" clip-rule="evenodd" d="M110.04 663.05H70.1571V667.425H61.2943V671.8H56.8628V676.175H52.4314V711.176H56.8628V676.175H61.2943V671.8H70.1571V667.425H110.04V671.8H114.471V680.55H118.903V693.676H123.334V737.426H118.903V746.176H123.334V750.551H127.766V754.926H118.903V759.301H114.471V754.926H110.04V746.176H105.608V754.926H110.04V759.301H114.471V763.676H118.903V759.301H127.766V754.926H132.197V750.551H127.766V746.176H123.334V737.426H127.766V693.676H123.334V680.55H118.903V671.8H114.471V667.425H110.04V663.05ZM52.4314 733.051H56.8628V750.551H52.4314V733.051ZM52.4314 754.926H48V750.551H52.4314V754.926ZM65.7257 754.926V759.301H52.4314V754.926H65.7257ZM70.1571 750.551V754.926H65.7257L65.7257 750.551H70.1571ZM70.1571 750.551V746.176H74.5885V750.551H70.1571ZM110.04 728.676H114.471V741.801H110.04V728.676Z" fill="black"/>
<path fill-rule="evenodd" clip-rule="evenodd" d="M101.394 748.112H81.6792V753.084H86.6078V758.056H96.465V753.084H101.394V748.112ZM61.9647 758.056H66.8933H71.822V792.859H66.8933V797.83H61.9647H57.0361V787.887H61.9647V758.056ZM116.179 782.915H121.108V792.859H116.179L111.251 792.859V767.999H116.179V782.915Z" fill="#FAE6CE"/>
<path fill-rule="evenodd" clip-rule="evenodd" d="M101.394 748.112H81.6792V753.084H101.394V748.112ZM111.251 767.999H116.179V782.915H121.108V792.859L116.179 792.859H111.251V767.999ZM66.8933 772.971H71.822V797.83H66.8933H57.0361V787.887H66.8933V772.971Z" fill="#714A1C" fill-opacity="0.25" style="mix-blend-mode:multiply"/>
<path d="M61.9648 758.056H66.8934V763.028H61.9648V758.056Z" fill="#FFFCF9" fill-opacity="0.7" style="mix-blend-mode:lighten"/>
<path fill-rule="evenodd" clip-rule="evenodd" d="M71.8221 748.112H76.7507V753.084H81.6793V758.056H86.6079V822.69L81.6793 822.69L76.7507 822.69H71.8221H66.8934H61.9648V817.718H66.8934V807.774H71.8221V792.859H76.7507V758.056H71.8221V748.112ZM96.4651 763.028H86.6079V822.69H96.4651H101.394L106.322 822.69L111.251 822.69H116.18V812.746H111.251V797.83H106.322V753.084H101.394V758.056H96.4651L96.4651 763.028Z" fill="#E62E2E"/>
<path fill-rule="evenodd" clip-rule="evenodd" d="M71.8217 748.112H76.7503V753.084H71.8217V748.112ZM76.7503 753.084H81.6789V758.056H76.7503V753.084ZM106.322 753.084H101.393V758.056H96.4647V763.028H101.393V767.999H106.322V753.084ZM96.4647 802.802H101.393V812.746H96.4647V802.802ZM96.4647 812.746V822.69H91.5361V812.746H96.4647ZM101.393 792.859H96.4647V797.83H101.393V792.859ZM96.4647 777.943H101.393V787.887H96.4647V777.943ZM86.6075 807.774H81.6789V812.746H76.7503V817.718H81.6789V812.746H86.6075V807.774ZM86.6075 807.774H91.5361V797.83H86.6075L86.6075 807.774ZM81.6789 777.943H76.7503V792.859L71.8217 792.859V802.802H76.7503V792.859H81.6789V777.943ZM71.8217 807.774H66.8931V812.746H71.8217V807.774ZM111.251 812.746H116.179V822.69H111.251V812.746ZM111.251 797.83H106.322V807.774H111.251V797.83Z" fill="black" fill-opacity="0.2" style="mix-blend-mode:multiply"/>
<path fill-rule="evenodd" clip-rule="evenodd" d="M76.7504 753.084H71.8218V758.056H76.7504V753.084ZM96.4648 782.915H91.5362V792.859H96.4648V782.915ZM81.679 802.802H86.6076V807.774H81.679V802.802ZM76.7504 807.774H81.679V812.746H76.7504V807.774ZM76.7504 812.746V822.69H71.8218V812.746H76.7504ZM86.6076 812.746H91.5362V822.69H86.6076V812.746ZM91.5362 812.746V807.774H96.4648V812.746H91.5362Z" fill="white" fill-opacity="0.3" style="mix-blend-mode:lighten"/>
<path fill-rule="evenodd" clip-rule="evenodd" d="M81.679 827.661H71.8218V832.633H81.679V827.661ZM106.322 827.661H96.4648V832.633H106.322V827.661Z" fill="black"/>
<path fill-rule="evenodd" clip-rule="evenodd" d="M76.7504 827.661H71.8218V832.633H76.7504V827.661ZM101.393 827.661H96.4648V832.633H101.393V827.661Z" fill="black" fill-opacity="0.2" style="mix-blend-mode:multiply"/>
<path fill-rule="evenodd" clip-rule="evenodd" d="M71.8218 743.14H76.7505V748.112H71.8218V743.14ZM71.8218 758.056V748.112H66.8932V753.084H61.9646V758.056H57.036V787.887H52.1074V797.83H57.036V802.802H66.8932V807.774H61.9646V817.718H57.036V822.69V827.661H66.8932V837.605H71.8218H81.6791H86.6077V827.661H91.5363V837.605H96.4649H116.179V832.633H111.251V827.661H121.108L121.108 822.69V812.746H116.179V797.83H121.108V792.859H126.037V782.915H121.108V767.999H116.179V758.056H111.251V753.084H106.322V748.112H101.393V753.084H96.4649V758.056H86.6077V753.084H81.6791V748.112H76.7505V753.084H81.6791V758.056H86.6077V763.028H96.4649V758.056H101.393V753.084H106.322V797.83H111.251V812.746H116.179V822.69H61.9646V817.718H66.8932V807.774H71.8218V792.859H76.7505V758.056H71.8218ZM71.8218 758.056H66.8932H61.9646V787.887H57.036V797.83H66.8932V792.859H71.8218V758.056ZM116.179 767.999H111.251V792.859H116.179H121.108V782.915H116.179V767.999ZM96.4649 832.633H106.322V827.661H96.4649V832.633ZM81.6791 832.633V827.661H71.8218V832.633H81.6791Z" fill="black"/>
<path d="M49 349H51V331H43V347H37V331H29V349H31V351H49V349ZM60.9844 343H72.9844V341H74.9844V333H72.9844V331H66.9844H60.9844H52.9844V351H60.9844V343ZM60.9844 335H66.9844V339H60.9844V335ZM84.9688 343H90.9688V351H98.9688V331H90.9688V339H84.9688V331H76.9688V351H84.9688V343ZM102.953 351H122.953V347H108.953V343H114.953V339H108.953V335H122.953V331H102.953V333H100.953V349H102.953V351ZM132.938 343H138.938V351H146.938V333H144.938V331H138.938H126.938V333H124.938V351H132.938V343ZM132.938 335H138.938V339H132.938V335ZM162.922 349H164.922V347H166.922V345H168.922V343H170.922V331H162.922V341H160.922V343H158.922V345H156.922V331H148.922V351H162.922V349ZM180.906 343H186.906V351H194.906V333H192.906V331H186.906H174.906V333H172.906V351H180.906V343ZM180.906 335H186.906V339H180.906V335ZM196.891 351H218.891V347H204.891V331H196.891V351ZM248.859 335H254.859V331H234.859V335H240.859V351H248.859V335ZM270.852 335H276.852V331H256.852V335H262.852V351H270.852V335ZM300.828 335H306.828V331H294.828V333H292.828V349H294.828V351H306.828V347H300.828V335ZM328.844 349H330.844V343H328.844V339H330.844V333H328.844V331H316.844H308.844V351H328.844V349ZM316.844 343H322.844V347H316.844V343ZM316.844 335H322.844V339H316.844V335ZM340.828 343H346.828V351H354.828V343H352.828V339H354.828V333H352.828V331H346.828H340.828H332.828V351H340.828V343ZM340.828 335H346.828V339H340.828V335ZM364.813 345H366.812V347H368.813V349H370.813V351H380.813V347H378.813V345H376.812V343H374.813V339H376.812V337H378.813V335H380.813V331H378.813H370.813V333H368.813V335H366.812V337H364.813V331H356.812V351H364.813V345ZM382.828 351H394.828V349H396.828V333H394.828V331H382.828V335H388.828V347H382.828V351Z" fill="black"/>
<path d="M24 293H27V291H24V289H31V287H24H21V288H20V297H24V293ZM41.9922 296H42.9922V288H41.9922V287H32.9922V288H31.9922V296H32.9922V297H41.9922V296ZM38.9922 293V295H35.9922V289H38.9922V291V293ZM47.9844 292H48.9844V293H49.9844V294H50.9844V297H54.9844V287H50.9844V290H49.9844V289H48.9844V288H47.9844V287H43.9844V297H47.9844V292ZM62.9766 289H65.9766V287H55.9766V289H58.9766V297H62.9766V289ZM83.9648 296H84.9648V287H80.9648V295H77.9648V287H73.9648V296H74.9648V297H83.9648V296ZM85.957 297H95.957V296H96.957V292H95.957V291H92.957H89.957V289H96.957V287H86.957V288H85.957V292H86.957V293H92.957V295H85.957V297ZM98.9492 297H108.949V295H101.949V293H104.949V291H101.949V289H108.949V287H98.9492V288H97.9492V296H98.9492V297ZM118.941 296H119.941V295H120.941V289H119.941V288H118.941V287H116.941H115.941H109.941V297H118.941V296ZM115.941 290H116.941V294H115.941V295H113.941V289H115.941V290ZM132.926 292H133.926V293H134.926V294H135.926V297H139.926V287H135.926V290H134.926V289H133.926V288H132.926V287H128.926V297H132.926V292ZM144.918 293H147.918V297H151.918V288H150.918V287H147.918H141.918V288H140.918V297H144.918V293ZM144.918 289H147.918V291H144.918V289ZM156.91 292H157.91V293H158.91V294H159.91V293H160.91V292H161.91V297H165.91V287H161.91V288H160.91V289H159.91V290H158.91V289H157.91V288H156.91V287H152.91V297H156.91V292ZM167.914 297H177.914V295H170.914V293H173.914V291H170.914V289H177.914V287H167.914V288H166.914V296H167.914V297Z" fill="black"/>
<path d="M114 390H115.5V392H117.5V387H115.5V389H114V387H112V392H114V390ZM121.496 388H122.996V387H117.996V388H119.496V392H121.496V388ZM126.994 388H128.494V387H123.494V388H124.994V392H126.994V388ZM130.992 390H133.992V389.5H134.492V387.5H133.992V387H132.492H130.992H128.992V392H130.992V390ZM130.992 388H132.492V389H130.992V388ZM134.988 392H139.988V391.5H140.488V389.5H139.988V389H138.488H136.988V388H140.488V387H135.488V387.5H134.988V389.5H135.488V390H138.488V391H134.988V392ZM140.984 392H142.484V391H140.984V392ZM140.984 388H142.484V387H140.984V388ZM146.486 388H145.986V388.5H145.486V389H144.986V389.5H144.486V390H143.986V390.5H143.486V391H142.986V392H144.986V391.5H145.486V391H145.986V390.5H146.486V390H146.986V389.5H147.486V389H147.986V388.5H148.486V388H148.986V387H146.986V387.5H146.486V388ZM152.99 388H152.49V388.5H151.99V389H151.49V389.5H150.99V390H150.49V390.5H149.99V391H149.49V392H151.49V391.5H151.99V391H152.49V390.5H152.99V390H153.49V389.5H153.99V389H154.49V388.5H154.99V388H155.49V387H153.49V387.5H152.99V388ZM157.994 391.5H158.494V391H158.994V390.5H159.494V391H159.994V391.5H160.494V392H162.494V387H160.494V389.5H159.994V389H159.494V388.5H158.994V389H158.494V389.5H157.994V387H155.994V392H157.994V391.5ZM164.996 391.5H165.496V391H165.996V390.5H166.496V391H166.996V391.5H167.496V392H169.496V387H167.496V389.5H166.996V389H166.496V388.5H165.996V389H165.496V389.5H164.996V387H162.996V392H164.996V391.5ZM171.998 391.5H172.498V391H172.998V390.5H173.498V391H173.998V391.5H174.498V392H176.498V387H174.498V389.5H173.998V389H173.498V388.5H172.998V389H172.498V389.5H171.998V387H169.998V392H171.998V391.5ZM177 392H178.5V391H177V392ZM183.502 391.5H184.002V391H184.502V388H184.002V387.5H183.502V387H182.502H182.002H179.002V392H183.502V391.5ZM182.002 388.5H182.502V390.5H182.002V391H181.002V388H182.002V388.5ZM186.998 390H188.498V392H190.498V387.5H189.998V387H188.498H185.498V387.5H184.998V392H186.998V390ZM186.998 388H188.498V389H186.998V388ZM192.994 390H194.494V389H192.994V388H196.494V387H192.994H191.494V387.5H190.994V392H192.994V390ZM201.99 391.5H202.49V387.5H201.99V387H197.49V387.5H196.99V391.5H197.49V392H201.99V391.5ZM200.49 390V391H198.99V388H200.49V389V390ZM204.986 389.5H205.486V390H205.986V390.5H206.486V392H208.486V387H206.486V388.5H205.986V388H205.486V387.5H204.986V387H202.986V392H204.986V389.5ZM212.482 388H213.982V387H208.982V388H210.482V392H212.482V388ZM214.48 392H215.98V391H214.48V392ZM221.482 391.5H221.982V390H221.482H219.982V391H218.482V388H219.982V389H221.982V387.5H221.482V387H218.482H216.982V387.5H216.482V391.5H216.982V392H221.482V391.5ZM227.479 391.5H227.979V387.5H227.479V387H222.979V387.5H222.479V391.5H222.979V392H227.479V391.5ZM225.979 390V391H224.479V388H225.979V389V390ZM230.475 389.5H230.975V390H231.475V390.5H231.975V390H232.475V389.5H232.975V392H234.975V387H232.975V387.5H232.475V388H231.975V388.5H231.475V388H230.975V387.5H230.475V387H228.475V392H230.475V389.5ZM238.977 388H238.477V388.5H237.977V389H237.477V389.5H236.977V390H236.477V390.5H235.977V391H235.477V392H237.477V391.5H237.977V391H238.477V390.5H238.977V390H239.477V389.5H239.977V389H240.477V388.5H240.977V388H241.477V387H239.477V387.5H238.977V388ZM246.98 391.5H247.48V387H245.48V391H243.98V387H241.98V391.5H242.48V392H246.98V391.5ZM249.977 390H252.977V389.5H253.477V387.5H252.977V387H251.477H249.977H247.977V392H249.977V390ZM249.977 388H251.477V389H249.977V388ZM255.973 390H257.473V392H259.473V387H257.473V389H255.973V387H253.973V392H255.973V390ZM260.469 392H265.469V391H261.969V390H263.469V389H261.969V388H265.469V387H260.469V387.5H259.969V391.5H260.469V392ZM267.965 390H269.465V392H271.465V387.5H270.965V387H269.465H266.465V387.5H265.965V392H267.965V390ZM267.965 388H269.465V389H267.965V388ZM275.461 391.5H275.961V391H276.461V390.5H276.961V390H277.461V387H275.461V389.5H274.961V390H274.461V390.5H273.961V387H271.961V392H275.461V391.5ZM279.957 390H281.457V392H283.457V387.5H282.957V387H281.457H278.457V387.5H277.957V392H279.957V390ZM279.957 388H281.457V389H279.957V388ZM283.953 392H289.453V391H285.953V387H283.953V392ZM289.949 392H291.449V391H289.949V392ZM293.951 390H295.451V389H293.951V388H297.451V387H293.951H292.451V387.5H291.951V392H293.951V390ZM302.947 391.5H303.447V387.5H302.947V387H298.447V387.5H297.947V391.5H298.447V392H302.947V391.5ZM301.447 390V391H299.947V388H301.447V389V390ZM305.943 389.5H306.443V390H306.943V390.5H307.443V392H309.443V387H307.443V388.5H306.943V388H306.443V387.5H305.943V387H303.943V392H305.943V389.5ZM313.439 388H314.939V387H309.939V388H311.439V392H313.439V388Z" fill="black"/>
<path d="M28 637H34V645H42V627H40V625H34H22V627H20V645H28V637ZM28 629H34V633H28V629ZM57.9844 643H59.9844V641H61.9844V639H63.9844V637H65.9844V625H57.9844V635H55.9844V637H53.9844V639H51.9844V625H43.9844V645H57.9844V643ZM75.9688 637H81.9688V645H89.9688V627H87.9688V625H81.9688H69.9688V627H67.9688V645H75.9688V637ZM75.9688 629H81.9688V633H75.9688V629ZM105.953 629H111.953V625H91.9531V629H97.9531V645H105.953V629ZM121.945 637H127.945V645H135.945V627H133.945V625H127.945H115.945V627H113.945V645H121.945V637ZM121.945 629H127.945V633H121.945V629ZM145.93 637H151.93V645H159.93V637H157.93V633H159.93V627H157.93V625H151.93H145.93H137.93V645H145.93V637ZM145.93 629H151.93V633H145.93V629ZM161.914 645H181.914V643H183.914V635H181.914V633H175.914H169.914V629H183.914V625H163.914V627H161.914V635H163.914V637H175.914V641H161.914V645Z" fill="black"/>
</g>
<defs>
<filter id="filter0_d_2_913" x="37" y="86" width="357.863" height="33" filterUnits="userSpaceOnUse" color-interpolation-filters="sRGB">
<feFlood flood-opacity="0" result="BackgroundImageFix"/>
<feColorMatrix in="SourceAlpha" type="matrix" values="0 0 0 0 0 0 0 0 0 0 0 0 0 0 0 0 0 0 127 0" result="hardAlpha"/>
<feOffset dx="4" dy="4"/>
<feGaussianBlur stdDeviation="2"/>
<feComposite in2="hardAlpha" operator="out"/>
<feColorMatrix type="matrix" values="0 0 0 0 0 0 0 0 0 0 0 0 0 0 0 0 0 0 0.25 0"/>
<feBlend mode="normal" in2="BackgroundImageFix" result="effect1_dropShadow_2_913"/>
<feBlend mode="normal" in="SourceGraphic" in2="effect1_dropShadow_2_913" result="shape"/>
</filter>
<clipPath id="clip0_2_913">
<rect width="428" height="926" fill="white"/>
</clipPath>
</defs>
</svg>
