<svg width="428" height="926" viewBox="0 0 428 926" fill="none" xmlns="http://www.w3.org/2000/svg">
<g clip-path="url(#clip0_2_5032)">
<rect width="428" height="926" fill="#A4BBD6"/>
<g filter="url(#filter0_b_2_5032)">
<rect x="25.5" y="103.5" width="106" height="5" fill="#FFA800" stroke="black"/>
<rect x="296.5" y="103.5" width="106" height="5" fill="#FAF1AC" stroke="black"/>
<rect x="160.5" y="103.5" width="106" height="5" fill="#FFA800" stroke="black"/>
</g>
<path fill-rule="evenodd" clip-rule="evenodd" d="M328.805 17.5768H327.458C326.715 17.5768 326.112 18.158 326.112 18.8749V30.1249C326.112 30.8418 326.715 31.423 327.458 31.423H328.805C329.548 31.423 330.151 30.8418 330.151 30.1249V18.8749C330.151 18.158 329.548 17.5768 328.805 17.5768ZM321.124 20.6059H322.47C323.213 20.6059 323.816 21.187 323.816 21.9039V30.1251C323.816 30.842 323.213 31.4232 322.47 31.4232H321.124C320.38 31.4232 319.777 30.842 319.777 30.1251V21.9039C319.777 21.187 320.38 20.6059 321.124 20.6059ZM316.135 23.6345H314.789C314.045 23.6345 313.443 24.2156 313.443 24.9325V30.1248C313.443 30.8417 314.045 31.4229 314.789 31.4229H316.135C316.878 31.4229 317.481 30.8417 317.481 30.1248V24.9325C317.481 24.2156 316.878 23.6345 316.135 23.6345ZM309.8 26.2306H308.454C307.71 26.2306 307.108 26.8117 307.108 27.5286V30.1248C307.108 30.8417 307.71 31.4229 308.454 31.4229H309.8C310.543 31.4229 311.146 30.8417 311.146 30.1248V27.5286C311.146 26.8117 310.543 26.2306 309.8 26.2306Z" fill="black"/>
<path d="M340.983 31.4107C343.38 31.4107 345.068 29.8016 345.068 27.4669V27.4511C345.068 25.2662 343.538 23.6729 341.401 23.6729C340.352 23.6729 339.46 24.1146 338.979 24.8797H338.845L339.192 21.2514H344.422V19.7528H337.804L337.236 26.3626H338.758C338.892 26.1023 339.074 25.8815 339.279 25.7C339.728 25.2899 340.32 25.0848 341.014 25.0848C342.387 25.0848 343.38 26.0786 343.38 27.4826V27.4984C343.38 28.9261 342.402 29.9278 340.998 29.9278C339.752 29.9278 338.845 29.1312 338.695 28.1294L338.687 28.0663H337.031L337.039 28.1689C337.197 30.0146 338.743 31.4107 340.983 31.4107ZM352.108 31.4107C355.089 31.4107 357.022 29.5413 357.022 26.6544V25.2426H352.352V26.6702H355.279V26.9226C355.263 28.6737 353.993 29.8489 352.132 29.8489C349.994 29.8489 348.653 28.161 348.653 25.4398V25.424C348.653 22.7422 349.986 21.0385 352.092 21.0385C353.654 21.0385 354.742 21.7957 355.153 23.1445L355.176 23.2233H356.943L356.927 23.1445C356.517 20.9438 354.679 19.4767 352.092 19.4767C348.906 19.4767 346.847 21.8193 346.847 25.4319V25.4476C346.847 29.1075 348.882 31.4107 352.108 31.4107Z" fill="black"/>
<rect opacity="0.4" x="364.343" y="17.5769" width="27.6923" height="13.8462" rx="4.03846" stroke="black" stroke-width="1.15385"/>
<path opacity="0.5" d="M393.766 22.1923V26.8077C394.696 26.4168 395.301 25.5075 395.301 24.5C395.301 23.4925 394.696 22.5832 393.766 22.1923Z" fill="black"/>
<rect x="366.074" y="19.3077" width="19.6154" height="10.3846" rx="2.30769" fill="black"/>
<path d="M51.2676 11.001C48.5166 11.001 46.5566 12.8818 46.5566 15.457V15.4746C46.5566 17.8828 48.2617 19.6582 50.6963 19.6582C52.4365 19.6582 53.5439 18.7705 54.0098 17.7686H54.1855C54.1855 17.8652 54.1768 17.9619 54.1768 18.0586C54.0801 20.4844 53.2275 22.4531 51.2148 22.4531C50.0986 22.4531 49.3164 21.873 48.9824 20.9854L48.9561 20.8975H46.7236L46.7412 20.9941C47.1455 22.9365 48.8857 24.3164 51.2148 24.3164C54.4053 24.3164 56.3301 21.7852 56.3301 17.5137V17.4961C56.3301 12.9258 53.9746 11.001 51.2676 11.001ZM51.2588 17.918C49.8174 17.918 48.7715 16.8633 48.7715 15.3955V15.3779C48.7715 13.9629 49.8877 12.8467 51.2852 12.8467C52.6914 12.8467 53.79 13.9805 53.79 15.4307V15.4482C53.79 16.8809 52.6914 17.918 51.2588 17.918ZM59.8203 15.7822C60.6289 15.7822 61.2178 15.167 61.2178 14.3936C61.2178 13.6113 60.6289 13.0049 59.8203 13.0049C59.0205 13.0049 58.4229 13.6113 58.4229 14.3936C58.4229 15.167 59.0205 15.7822 59.8203 15.7822ZM59.8203 22.3037C60.6289 22.3037 61.2178 21.6973 61.2178 20.915C61.2178 20.1328 60.6289 19.5264 59.8203 19.5264C59.0205 19.5264 58.4229 20.1328 58.4229 20.915C58.4229 21.6973 59.0205 22.3037 59.8203 22.3037ZM69.4629 24H71.6338V21.5654H73.3389V19.6934H71.6338V11.3174H68.4258C66.7031 13.9365 64.9014 16.8545 63.2578 19.7109V21.5654H69.4629V24ZM65.3672 19.7461V19.6143C66.5977 17.4609 68.0654 15.1143 69.3662 13.1279H69.498V19.7461H65.3672ZM78.0947 24H80.3623V11.3174H78.1035L74.79 13.6465V15.7822L77.9453 13.5498H78.0947V24Z" fill="black"/>
<path d="M87.9448 17.937L93.2036 17.9517C93.2915 17.9517 93.3062 17.959 93.3062 18.0542L93.3208 23.291C93.3208 24.6533 95.042 24.9536 95.6426 23.6499L101.019 11.9751C101.656 10.5981 100.594 9.63867 99.2461 10.2539L87.52 15.6519C86.3042 16.2085 86.5605 17.9297 87.9448 17.937Z" fill="black"/>
<path d="M24.376 41H25.6382L26.3418 38.9053H29.3066L30.0049 41H31.2725L28.4741 33.2495H27.1743L24.376 41ZM27.7759 34.6084H27.8672L28.9844 37.9385H26.6641L27.7759 34.6084ZM32.4913 42.9443H33.6569V40.0762H33.7428C34.0543 40.7046 34.7364 41.0967 35.5367 41.0967C37.0192 41.0967 37.9537 39.9365 37.9537 38.0889V38.0781C37.9537 36.2412 37.0084 35.0649 35.5367 35.0649C34.7203 35.0649 34.0812 35.4463 33.7428 36.0854H33.6569V35.167H32.4913V42.9443ZM35.2091 40.103C34.2369 40.103 33.6354 39.335 33.6354 38.0889V38.0781C33.6354 36.832 34.2369 36.064 35.2091 36.064C36.1813 36.064 36.7667 36.8213 36.7667 38.0781V38.0889C36.7667 39.3403 36.1813 40.103 35.2091 40.103ZM39.3606 42.9443H40.5261V40.0762H40.6121C40.9236 40.7046 41.6057 41.0967 42.406 41.0967C43.8884 41.0967 44.823 39.9365 44.823 38.0889V38.0781C44.823 36.2412 43.8777 35.0649 42.406 35.0649C41.5896 35.0649 40.9504 35.4463 40.6121 36.0854H40.5261V35.167H39.3606V42.9443ZM42.0784 40.103C41.1062 40.103 40.5046 39.335 40.5046 38.0889V38.0781C40.5046 36.832 41.1062 36.064 42.0784 36.064C43.0505 36.064 43.636 36.8213 43.636 38.0781V38.0889C43.636 39.3403 43.0505 40.103 42.0784 40.103ZM51.998 41.188C53.8027 41.188 54.9575 40.2642 54.9575 38.7817V38.7764C54.9575 37.627 54.2915 36.9717 52.664 36.6226L51.8208 36.4346C50.8164 36.2197 50.4082 35.8438 50.4082 35.269V35.2637C50.4082 34.5332 51.0796 34.1089 51.9873 34.1089C52.9272 34.1035 53.5342 34.5654 53.6362 35.1992L53.647 35.269H54.8125L54.8071 35.1938C54.7212 33.9907 53.647 33.0615 52.0034 33.0615C50.3598 33.0615 49.1997 33.9854 49.1943 35.3228V35.3281C49.1943 36.4722 49.8711 37.2026 51.4448 37.5356L52.2934 37.7183C53.3193 37.9385 53.7383 38.3252 53.7383 38.9214V38.9268C53.7383 39.6465 53.0346 40.1406 52.0464 40.1406C51.0097 40.1406 50.2632 39.6895 50.1987 38.9858L50.1933 38.9268H49.0117L49.0171 38.9966C49.1245 40.3018 50.2471 41.188 51.998 41.188ZM58.6148 41.0376C58.8404 41.0376 59.0553 41.0107 59.2433 40.9785V40.0493C59.0821 40.0654 58.9801 40.0708 58.8028 40.0708C58.2281 40.0708 57.9918 39.813 57.9918 39.1846V36.0854H59.2433V35.167H57.9918V33.6953H56.8048V35.167H55.8917V36.0854H56.8048V39.4639C56.8048 40.5864 57.3312 41.0376 58.6148 41.0376ZM63.0134 41.1128C64.7214 41.1128 65.7688 39.9688 65.7688 38.0889V38.0781C65.7688 36.1982 64.716 35.0542 63.0134 35.0542C61.3054 35.0542 60.2527 36.2036 60.2527 38.0781V38.0889C60.2527 39.9688 61.3 41.1128 63.0134 41.1128ZM63.0134 40.1406C62.009 40.1406 61.445 39.3833 61.445 38.0889V38.0781C61.445 36.7837 62.009 36.0264 63.0134 36.0264C64.0124 36.0264 64.5818 36.7837 64.5818 38.0781V38.0889C64.5818 39.3779 64.0124 40.1406 63.0134 40.1406ZM67.1649 41H68.3304V37.5142C68.3304 36.6709 68.9373 36.123 69.8289 36.123C70.0492 36.123 70.2479 36.1499 70.4574 36.1929V35.1187C70.3392 35.0918 70.1351 35.0649 69.9471 35.0649C69.1683 35.0649 68.6258 35.4302 68.4163 36.0479H68.3304V35.167H67.1649V41ZM73.873 41.1128C75.3662 41.1128 76.1718 40.2534 76.3652 39.4854L76.3759 39.437L75.2534 39.4424L75.2319 39.4854C75.0922 39.7861 74.6464 40.1567 73.8999 40.1567C72.9384 40.1567 72.3261 39.5068 72.3046 38.3896H76.4404V37.9814C76.4404 36.2305 75.4414 35.0542 73.8139 35.0542C72.1865 35.0542 71.1338 36.2734 71.1338 38.0942V38.0996C71.1338 39.9473 72.165 41.1128 73.873 41.1128ZM73.8193 36.0103C74.6088 36.0103 75.1943 36.5151 75.2856 37.5571H72.3208C72.4228 36.5527 73.0244 36.0103 73.8193 36.0103Z" fill="black"/>
<path d="M19.5234 33.8115C19.3345 33.8115 19.1851 33.8906 18.9785 33.9917L13.4326 36.6768C13.0415 36.8657 12.8965 37.0635 12.8965 37.3315C12.8965 37.5996 13.0415 37.7974 13.4326 37.9907L18.9785 40.6714C19.1895 40.7725 19.3389 40.8516 19.5234 40.8516C19.875 40.8516 20.1211 40.5835 20.1211 40.1528V34.5103C20.1211 34.084 19.875 33.8115 19.5234 33.8115Z" fill="black"/>
<rect x="148" y="913" width="135" height="5" rx="2.5" fill="black"/>
<path d="M91.8226 188.34H108.374V190.705H110.739V193.069H113.103V223.808H110.739V226.172H108.374V228.537H94.1871V226.172H89.4581V223.808H87.0935V219.079H82.3645V211.985H84.729V193.069H87.0935V190.705H91.8226V188.34Z" fill="#FAE6CE"/>
<path fill-rule="evenodd" clip-rule="evenodd" d="M89.4581 230.901H108.374V233.266H110.739V237.995H108.374V252.182H110.739V256.911H108.374V268.734H103.645V256.911H101.281V261.64H98.9161V264.005H96.5516V268.734H91.8226V254.547H94.1871V252.182H87.0935V233.266H89.4581V230.901ZM91.8226 235.63H94.1871V249.818H91.8226V235.63Z" fill="#FAE6CE"/>
<path d="M110.739 237.995H113.103V245.088H115.468V249.818H110.739V237.995Z" fill="#FAE6CE"/>
<path d="M108.374 188.34H96.5517V190.705H106.01V193.069H110.739V211.985H113.103V193.069H110.739V190.705H108.374V188.34Z" fill="#E3C4A6"/>
<path d="M87.0936 193.069H84.7291V202.527H87.0936V193.069Z" fill="#E3C4A6"/>
<path d="M84.7291 214.35H87.0936V211.985H89.4581V223.808H87.0936V216.714H84.7291V214.35Z" fill="#E3C4A6"/>
<path d="M89.4581 223.808H96.5517V226.172H108.374V228.537H94.1871V226.172H89.4581V223.808Z" fill="#E3C4A6"/>
<path d="M110.739 237.995H113.103V245.088H115.468V249.818H110.739V237.995Z" fill="#E3C4A6"/>
<path d="M110.739 237.995H108.374V235.63H106.01V233.266H94.1871V230.901H108.374V233.266H110.739V237.995Z" fill="#E3C4A6"/>
<path d="M110.739 252.182H108.374V240.359H106.01V252.182H108.374V256.911H110.739V252.182Z" fill="#E3C4A6"/>
<path d="M106.01 259.276H108.374V268.734H106.01V259.276Z" fill="#E3C4A6"/>
<path d="M94.1871 254.547H91.8226V268.734H96.5517V264.005H94.1871V254.547Z" fill="#E3C4A6"/>
<path d="M98.9162 256.911H101.281V259.276H98.9162V256.911Z" fill="#E3C4A6"/>
<path d="M91.8226 240.359H89.4581V247.453H87.0936V252.182H94.1871V249.818H91.8226V240.359Z" fill="#E3C4A6"/>
<path d="M94.1871 193.069H96.5516V195.434H94.1871V193.069Z" fill="#FFF8EF"/>
<path d="M106.01 193.069H98.9161V195.434H106.01V197.798H108.374V200.163H110.739V197.798H108.374V195.434H106.01V193.069Z" fill="#FFF8EF"/>
<path d="M84.729 211.985H82.3645V214.35H84.729V211.985Z" fill="#FFF8EF"/>
<path d="M89.4581 230.901H94.1871V233.266H89.4581V230.901Z" fill="#FFF8EF"/>
<path d="M89.4581 233.266V235.63H87.0935V233.266H89.4581Z" fill="#FFF8EF"/>
<path d="M98.9161 239.177H96.5516V243.906H98.9161V239.177Z" fill="#FFF8EF"/>
<path d="M98.9161 239.177H101.281V236.813H98.9161V239.177Z" fill="#FFF8EF"/>
<path d="M103.645 254.547H101.281V256.911H103.645V254.547Z" fill="#FFF8EF"/>
<path fill-rule="evenodd" clip-rule="evenodd" d="M108.374 185.975H91.8226V188.34H87.0936V190.705H84.729V193.069H82.3645V211.985H80V219.079H82.3645V221.443H84.729V223.808H87.0936V226.172H89.4581V230.901H87.0936V233.266H84.729V252.182H87.0936V254.547H89.4581V271.098H98.9162V264.005H101.281V271.098H113.103V268.734H110.739V256.911H113.103V252.182H115.468V249.817H117.832V245.088H115.468V237.995H113.103V233.266H110.739V230.901H108.374V228.537H110.739V226.172H113.103V223.808H115.468V193.069H113.103V190.705H110.739V188.34H108.374V185.975ZM108.374 188.34V190.705H110.739V193.069H113.103V223.808H110.739V226.172H108.374V228.537H94.1871V226.172H89.4581V223.808H87.0936V219.079H82.3645V211.985H84.729V214.35H87.0936V211.985H84.729V193.069H87.0936V190.705H91.8226V188.34H108.374ZM110.739 237.995H108.374V252.182H110.739V256.911H108.374V268.734H103.645V256.911H101.281V259.276H98.9162V264.005H96.5516V268.734H91.8226V254.547H96.5516V249.817H94.1871V235.63H91.8226V249.817H94.1871V252.182H87.0936V233.266H89.4581V230.901H108.374V233.266H110.739V237.995ZM110.739 237.995V249.817H115.468V245.088H113.103V237.995H110.739Z" fill="black"/>
<path d="M304.166 185.257H320.606V187.605H322.954V189.954H325.303V220.485H322.954V222.833H320.606V225.182H306.515V222.833H301.817V220.485H299.469V215.788H294.772V208.742H297.12V189.954H299.469V187.605H304.166V185.257Z" fill="#F3CCA7"/>
<path fill-rule="evenodd" clip-rule="evenodd" d="M301.817 227.53H320.606V229.879H322.954V234.576H320.606V248.667H322.954V253.364H320.606V265.107H315.909V253.364H313.56V258.061H311.212V260.41H308.863V265.107H304.166V251.016H306.515V248.667H299.469V229.879H301.817V227.53ZM304.166 232.227H306.515V246.319H304.166V232.227Z" fill="#F3CCA7"/>
<path d="M322.954 234.576H325.303V241.622H327.651V246.319H322.954V234.576Z" fill="#F3CCA7"/>
<path d="M320.606 185.257H308.863V187.605H318.257V189.954H322.954V208.742H325.303V189.954H322.954V187.605H320.606V185.257Z" fill="#F3CCA7"/>
<path d="M299.469 189.954H297.12V199.348H299.469V189.954Z" fill="#F3CCA7"/>
<path d="M297.12 211.091H299.469V208.742H301.817V220.485H299.469V213.439H297.12V211.091Z" fill="#F3CCA7"/>
<path d="M301.817 220.485H308.863V222.833H320.606V225.182H306.515V222.833H301.817V220.485Z" fill="#F3CCA7"/>
<path d="M322.954 234.576H325.303V241.622H327.651V246.319H322.954V234.576Z" fill="#F3CCA7"/>
<path d="M322.954 234.576H320.606V232.227H318.257V229.879H306.515V227.53H320.606V229.879H322.954V234.576Z" fill="#F3CCA7"/>
<path d="M322.954 248.667H320.606V236.925H318.257V248.667H320.606V253.364H322.954V248.667Z" fill="#F3CCA7"/>
<path d="M318.257 255.713H320.606V265.107H318.257V255.713Z" fill="#F3CCA7"/>
<path d="M306.515 251.016H304.166V265.107H308.863V260.41H306.515V251.016Z" fill="#F3CCA7"/>
<path d="M311.212 253.364H313.56V255.713H311.212V253.364Z" fill="#F3CCA7"/>
<path d="M304.166 236.925H301.817V243.97H299.469V248.667H306.515V246.319H304.166V236.925Z" fill="#F3CCA7"/>
<path d="M306.515 189.954H308.863V192.302H306.515V189.954Z" fill="#D4B194"/>
<path d="M318.257 189.954H311.212V192.302H318.257V194.651H320.606V196.999H322.954V194.651H320.606V192.302H318.257V189.954Z" fill="#D4B194"/>
<path d="M297.12 208.742H294.772V211.09H297.12V208.742Z" fill="#D4B194"/>
<path d="M301.817 227.53H306.515V229.879H301.817V227.53Z" fill="#D4B194"/>
<path d="M301.817 229.879V232.227H299.469V229.879H301.817Z" fill="#D4B194"/>
<path d="M311.212 235.75H308.863V240.447H311.212V235.75Z" fill="#D4B194"/>
<path d="M311.212 235.75H313.56V233.402H311.212V235.75Z" fill="#D4B194"/>
<path d="M315.909 251.016H313.56V253.364H315.909V251.016Z" fill="#D4B194"/>
<path fill-rule="evenodd" clip-rule="evenodd" d="M320.606 182.908H304.166V185.257H299.469V187.605H297.12V189.954H294.772V208.742H292.423V215.788H294.772V218.136H297.12V220.485H299.469V222.833H301.818V227.53H299.469V229.879H297.12V248.667H299.469V251.016H301.818V267.455H311.212V260.41H313.56V267.455H325.303V265.107H322.954V253.364H325.303V248.667H327.651V246.319H330V241.622H327.651V234.576H325.303V229.879H322.954V227.53H320.606V225.182H322.954V222.833H325.303V220.485H327.651V189.954H325.303V187.605H322.954V185.257H320.606V182.908ZM320.606 185.257V187.605H322.954V189.954H325.303V220.485H322.954V222.833H320.606V225.182H306.515V222.833H301.818V220.485H299.469V215.788H294.772V208.742H297.12V211.09H299.469V208.742H297.12V189.954H299.469V187.605H304.166V185.257H320.606ZM322.954 234.576H320.606V248.667H322.954V253.364H320.606V265.107H315.909V253.364H313.56V255.713H311.212V260.41H308.863V265.107H304.166V251.016H308.863V246.319H306.515V232.227H304.166V246.319H306.515V248.667H299.469V229.879H301.818V227.53H320.606V229.879H322.954V234.576ZM322.954 234.576V246.319H327.651V241.622H325.303V234.576H322.954Z" fill="black"/>
<path d="M190.621 157.793H224.172V162.586H228.965V167.379H233.758V229.687H228.965V234.48H224.172V239.273H195.414V234.48H185.828V229.687H181.035V220.101H171.449V205.722H176.242V167.379H181.035V162.586H190.621V157.793Z" fill="#9C6F4B"/>
<path fill-rule="evenodd" clip-rule="evenodd" d="M185.828 244.066H224.172V248.859H228.965V258.445H224.172V287.202H228.965V296.788H224.172V320.753H214.586V296.788H209.793V306.374H205V311.167H200.207V320.753H190.621V291.995H195.414V287.202H181.035V248.859H185.828V244.066ZM190.621 253.652H195.414V282.41H190.621V253.652Z" fill="#9C6F4B"/>
<path d="M228.965 258.445H233.758V272.824H238.55V282.41H228.965V258.445Z" fill="#9C6F4B"/>
<path d="M224.172 157.793H200.207V162.586H219.379V167.379H228.965V205.722H233.757V167.379H228.965V162.586H224.172V157.793Z" fill="#714A1C" fill-opacity="0.25" style="mix-blend-mode:multiply"/>
<path d="M181.035 167.379H176.242V186.551H181.035V167.379Z" fill="#714A1C" fill-opacity="0.25" style="mix-blend-mode:multiply"/>
<path d="M176.242 210.515H181.035V205.722H185.828V229.687H181.035V215.308H176.242V210.515Z" fill="#714A1C" fill-opacity="0.25" style="mix-blend-mode:multiply"/>
<path d="M185.828 229.687H200.207V234.48H224.172V239.273H195.414V234.48H185.828V229.687Z" fill="#714A1C" fill-opacity="0.25" style="mix-blend-mode:multiply"/>
<path d="M228.965 258.445H233.757V272.824H238.55V282.41H228.965V258.445Z" fill="#714A1C" fill-opacity="0.25" style="mix-blend-mode:multiply"/>
<path d="M228.965 258.445H224.172V253.652H219.379V248.859H195.414V244.066H224.172V248.859H228.965V258.445Z" fill="#714A1C" fill-opacity="0.25" style="mix-blend-mode:multiply"/>
<path d="M228.965 287.202H224.172V263.238H219.379V287.202H224.172V296.788H228.965V287.202Z" fill="#714A1C" fill-opacity="0.25" style="mix-blend-mode:multiply"/>
<path d="M219.379 301.581H224.172V320.753H219.379V301.581Z" fill="#714A1C" fill-opacity="0.25" style="mix-blend-mode:multiply"/>
<path d="M195.414 291.995H190.621V320.753H200.207V311.167H195.414V291.995Z" fill="#714A1C" fill-opacity="0.25" style="mix-blend-mode:multiply"/>
<path d="M205 296.788H209.793V301.581H205V296.788Z" fill="#714A1C" fill-opacity="0.25" style="mix-blend-mode:multiply"/>
<path d="M190.621 263.238H185.828V277.617H181.035V287.202H195.414V282.41H190.621V263.238Z" fill="#714A1C" fill-opacity="0.25" style="mix-blend-mode:multiply"/>
<path d="M195.414 167.379H200.207V172.172H195.414V167.379Z" fill="#FFFCF9" fill-opacity="0.7" style="mix-blend-mode:lighten"/>
<path d="M219.379 167.379H205V172.172H219.379V176.965H224.172V181.758H228.965V176.965H224.172V172.172H219.379V167.379Z" fill="#FFFCF9" fill-opacity="0.7" style="mix-blend-mode:lighten"/>
<path d="M176.242 205.722H171.449V210.515H176.242V205.722Z" fill="#FFFCF9" fill-opacity="0.7" style="mix-blend-mode:lighten"/>
<path d="M185.828 244.066H195.414V248.859H185.828V244.066Z" fill="#FFFCF9" fill-opacity="0.7" style="mix-blend-mode:lighten"/>
<path d="M185.828 248.859V253.652H181.035V248.859H185.828Z" fill="#FFFCF9" fill-opacity="0.7" style="mix-blend-mode:lighten"/>
<path d="M205 260.841H200.207V270.427H205V260.841Z" fill="#FFFCF9" fill-opacity="0.7" style="mix-blend-mode:lighten"/>
<path d="M205 260.841H209.793V256.048H205V260.841Z" fill="#FFFCF9" fill-opacity="0.7" style="mix-blend-mode:lighten"/>
<path d="M214.586 291.995H209.793V296.788H214.586V291.995Z" fill="#FFFCF9" fill-opacity="0.7" style="mix-blend-mode:lighten"/>
<path fill-rule="evenodd" clip-rule="evenodd" d="M224.172 153H190.621V157.793H181.035V162.586H176.242V167.379H171.449V205.722H166.656V220.101H171.449V224.894H176.242V229.687H181.035V234.48H185.828V244.066H181.035V248.859H176.242V287.202H181.035V291.995H185.828V325.546H205V311.167H209.793V325.546H233.757V320.753H228.965V296.788H233.757V287.202H238.55V282.41H243.343V272.824H238.55V258.445H233.757V248.859H228.965V244.066H224.172V239.273H228.965V234.48H233.757V229.687H238.55V167.379H233.757V162.586H228.965V157.793H224.172V153ZM224.172 157.793V162.586H228.965V167.379H233.757V229.687H228.965V234.48H224.172V239.273H195.414V234.48H185.828V229.687H181.035V220.101H171.449V205.722H176.242V210.515H181.035V205.722H176.242V167.379H181.035V162.586H190.621V157.793H224.172ZM228.965 258.445H224.172V287.202H228.965V296.788H224.172V320.753H214.586V296.788H209.793V301.581H205V311.167H200.207V320.753H190.621V291.995H200.207V282.41H195.414V253.652H190.621V282.41H195.414V287.202H181.035V248.859H185.828V244.066H224.172V248.859H228.965V258.445ZM228.965 258.445V282.41H238.55V272.824H233.757V258.445H228.965Z" fill="black"/>
<path fill-rule="evenodd" clip-rule="evenodd" d="M224.6 156.895H191V161.789H186.2H181.4V166.684H176.6V205.842H171.8V220.526H176.6H181.4V230.316H186.2V235.211H191H195.8V240.105H224.6V235.211H229.4V230.316H234.2V166.684H229.4V161.789H224.6V156.895Z" fill="#9C6F4B"/>
<path fill-rule="evenodd" clip-rule="evenodd" d="M200.6 156.895H224.6V161.789H229.4V166.684L219.8 166.684V161.789H200.6V156.895ZM229.4 166.684H234.2V205.842H229.4V166.684ZM176.6 166.684H181.4V205.842H176.6V166.684ZM186.2 230.316H181.4V215.632H176.6V210.737H181.4V205.842H186.2V230.316ZM200.6 235.211V230.316L186.2 230.316V235.211H195.8V240.105H224.6V235.211H200.6ZM181.4 166.684V161.789H186.2V166.684L181.4 166.684Z" fill="#714A1C" fill-opacity="0.25" style="mix-blend-mode:multiply"/>
<path fill-rule="evenodd" clip-rule="evenodd" d="M200.6 166.684H195.8V171.579H200.6V166.684ZM205.4 166.684H219.8V171.579H205.4V166.684ZM224.6 176.474V171.579H219.8V176.474H224.6ZM224.6 176.474V181.368H229.4V176.474H224.6ZM171.8 205.842H176.6V210.737H171.8V205.842Z" fill="#FFFCF9" fill-opacity="0.7" style="mix-blend-mode:lighten"/>
<path fill-rule="evenodd" clip-rule="evenodd" d="M195.8 200.947H210.2V205.842H205.4V215.632H200.6V205.842H195.8V200.947ZM219.8 225.421H210.2V230.316H219.8V225.421ZM219.8 225.421H224.6V220.526H219.8V225.421ZM229.4 205.842H219.8V210.737H229.4V205.842Z" fill="black"/>
<path fill-rule="evenodd" clip-rule="evenodd" d="M215 200.947H210.2V205.842H205.4V210.737H210.2V205.842H215V200.947Z" fill="#714A1C" fill-opacity="0.25" style="mix-blend-mode:multiply"/>
<path fill-rule="evenodd" clip-rule="evenodd" d="M191 152H224.6V156.895H191V152ZM181.4 161.789V156.895H191V161.789H181.4ZM176.6 166.684V161.789H181.4V166.684H176.6ZM176.6 205.842V166.684H171.8V205.842H167V220.526H171.8V225.421H176.6V230.316H181.4V235.211H186.2V240.105H195.8V245H224.6V240.105H229.4V235.211H234.2V230.316H239V166.684H234.2V161.789H229.4V156.895H224.6L224.6 161.789H229.4V166.684H234.2V230.316L229.4 230.316V235.211H224.6V240.105H195.8V235.211H186.2V230.316H181.4V225.421V220.526H171.8V205.842L176.6 205.842ZM176.6 205.842V210.737H181.4V205.842L176.6 205.842Z" fill="black"/>
<path fill-rule="evenodd" clip-rule="evenodd" d="M108 188.368H91.6666L91.6666 190.737H89.3333H87L87 193.105H84.6666V212.053H82.3333V219.158H84.6666H87L87 223.895H89.3333V226.263L91.6666 226.263H94V228.632H108L108 226.263L110.333 226.263V223.895H112.667V193.105H110.333V190.737H108L108 188.368Z" fill="#FAE6CE"/>
<path fill-rule="evenodd" clip-rule="evenodd" d="M96.3334 188.368H108V190.737H110.333V193.105H105.667V190.737H96.3334V188.368ZM110.333 193.105H112.667V212.053H110.333V193.105ZM84.6667 193.105H87V212.053H84.6667V193.105ZM89.3334 223.895H87V216.789H84.6667V214.421H87V212.053L89.3334 212.053V223.895ZM96.3334 226.263V223.895L89.3334 223.895V226.263H94V228.632H108V226.263H96.3334ZM87 193.105V190.737H89.3334V193.105H87Z" fill="#714A1C" fill-opacity="0.25" style="mix-blend-mode:multiply"/>
<path fill-rule="evenodd" clip-rule="evenodd" d="M96.3333 193.105H94V195.474H96.3333V193.105ZM98.6666 193.105H105.667V195.474H98.6666V193.105ZM105.667 195.474H108V197.842H105.667L105.667 195.474ZM82.3333 212.053H84.6666V214.421H82.3333V212.053ZM110.333 197.842H108V200.211H110.333V197.842Z" fill="#FFFCF9" fill-opacity="0.7" style="mix-blend-mode:lighten"/>
<path fill-rule="evenodd" clip-rule="evenodd" d="M101 209.684H94V212.053H96.3333V216.789H98.6667V212.053H101V209.684ZM101 221.526H105.667V223.895H101V221.526ZM101 221.526H98.6667V219.158H101V221.526ZM105.667 209.684H108H110.333V212.053H108V216.789H105.667V209.684Z" fill="black"/>
<path fill-rule="evenodd" clip-rule="evenodd" d="M103.333 209.684H101V212.053H98.6667V214.421H101V212.053H103.333V209.684Z" fill="#714A1C" fill-opacity="0.25" style="mix-blend-mode:multiply"/>
<path fill-rule="evenodd" clip-rule="evenodd" d="M91.6667 186H108V188.368H91.6667V186ZM87 190.737V188.368H91.6667V190.737H87ZM84.6667 193.105V190.737H87V193.105H84.6667ZM84.6667 212.053V193.105H82.3333V212.053H80V219.158H82.3333V221.526H84.6667V223.895H87V226.263H89.3333V228.632H94V231H108V228.632H110.333V226.263H112.667V223.895H115V193.105H112.667V190.737H110.333V188.368H108V190.737H110.333V193.105H112.667V223.895H110.333V226.263H108V228.632H94V226.263H89.3333V223.895H87L87 221.526V219.158H82.3333V212.053L84.6667 212.053ZM84.6667 212.053V214.421H87V212.053L84.6667 212.053Z" fill="black"/>
<path d="M91.8226 188.34H108.374V190.705H110.739V193.069H113.103V223.808H110.739V226.172H108.374V228.537H94.1871V226.172H89.4581V223.808H87.0935V219.079H82.3645V211.985H84.729V193.069H87.0935V190.705H91.8226V188.34Z" fill="#FAE6CE"/>
<path fill-rule="evenodd" clip-rule="evenodd" d="M89.4581 230.901H108.374V233.266H110.739V237.995H108.374V252.182H110.739V256.911H108.374V268.734H103.645V256.911H101.281V261.64H98.9161V264.005H96.5516V268.734H91.8226V254.547H94.1871V252.182H87.0935V233.266H89.4581V230.901ZM91.8226 235.63H94.1871V249.818H91.8226V235.63Z" fill="#FAE6CE"/>
<path d="M110.739 237.995H113.103V245.088H115.468V249.818H110.739V237.995Z" fill="#FAE6CE"/>
<path d="M108.374 188.34H96.5517V190.705H106.01V193.069H110.739V211.985H113.103V193.069H110.739V190.705H108.374V188.34Z" fill="#E3C4A6"/>
<path d="M87.0936 193.069H84.7291V202.527H87.0936V193.069Z" fill="#E3C4A6"/>
<path d="M84.7291 214.35H87.0936V211.985H89.4581V223.808H87.0936V216.714H84.7291V214.35Z" fill="#E3C4A6"/>
<path d="M89.4581 223.808H96.5517V226.172H108.374V228.537H94.1871V226.172H89.4581V223.808Z" fill="#E3C4A6"/>
<path d="M110.739 237.995H113.103V245.088H115.468V249.818H110.739V237.995Z" fill="#E3C4A6"/>
<path d="M110.739 237.995H108.374V235.63H106.01V233.266H94.1871V230.901H108.374V233.266H110.739V237.995Z" fill="#E3C4A6"/>
<path d="M110.739 252.182H108.374V240.359H106.01V252.182H108.374V256.911H110.739V252.182Z" fill="#E3C4A6"/>
<path d="M106.01 259.276H108.374V268.734H106.01V259.276Z" fill="#E3C4A6"/>
<path d="M94.1871 254.547H91.8226V268.734H96.5517V264.005H94.1871V254.547Z" fill="#E3C4A6"/>
<path d="M98.9162 256.911H101.281V259.276H98.9162V256.911Z" fill="#E3C4A6"/>
<path d="M91.8226 240.359H89.4581V247.453H87.0936V252.182H94.1871V249.818H91.8226V240.359Z" fill="#E3C4A6"/>
<path d="M94.1871 193.069H96.5516V195.434H94.1871V193.069Z" fill="#FFF8EF"/>
<path d="M106.01 193.069H98.9161V195.434H106.01V197.798H108.374V200.163H110.739V197.798H108.374V195.434H106.01V193.069Z" fill="#FFF8EF"/>
<path d="M84.729 211.985H82.3645V214.35H84.729V211.985Z" fill="#FFF8EF"/>
<path d="M89.4581 230.901H94.1871V233.266H89.4581V230.901Z" fill="#FFF8EF"/>
<path d="M89.4581 233.266V235.63H87.0935V233.266H89.4581Z" fill="#FFF8EF"/>
<path d="M98.9161 239.177H96.5516V243.906H98.9161V239.177Z" fill="#FFF8EF"/>
<path d="M98.9161 239.177H101.281V236.813H98.9161V239.177Z" fill="#FFF8EF"/>
<path d="M103.645 254.547H101.281V256.911H103.645V254.547Z" fill="#FFF8EF"/>
<path fill-rule="evenodd" clip-rule="evenodd" d="M108.374 185.975H91.8226V188.34H87.0936V190.705H84.729V193.069H82.3645V211.985H80V219.079H82.3645V221.443H84.729V223.808H87.0936V226.172H89.4581V230.901H87.0936V233.266H84.729V252.182H87.0936V254.547H89.4581V271.098H98.9162V264.005H101.281V271.098H113.103V268.734H110.739V256.911H113.103V252.182H115.468V249.817H117.832V245.088H115.468V237.995H113.103V233.266H110.739V230.901H108.374V228.537H110.739V226.172H113.103V223.808H115.468V193.069H113.103V190.705H110.739V188.34H108.374V185.975ZM108.374 188.34V190.705H110.739V193.069H113.103V223.808H110.739V226.172H108.374V228.537H94.1871V226.172H89.4581V223.808H87.0936V219.079H82.3645V211.985H84.729V214.35H87.0936V211.985H84.729V193.069H87.0936V190.705H91.8226V188.34H108.374ZM110.739 237.995H108.374V252.182H110.739V256.911H108.374V268.734H103.645V256.911H101.281V259.276H98.9162V264.005H96.5516V268.734H91.8226V254.547H96.5516V249.817H94.1871V235.63H91.8226V249.817H94.1871V252.182H87.0936V233.266H89.4581V230.901H108.374V233.266H110.739V237.995ZM110.739 237.995V249.817H115.468V245.088H113.103V237.995H110.739Z" fill="black"/>
<path fill-rule="evenodd" clip-rule="evenodd" d="M108 188.368H91.6666L91.6666 190.737H89.3333H87L87 193.105H84.6666V212.053H82.3333V219.158H84.6666H87L87 223.895H89.3333V226.263L91.6666 226.263H94V228.632H108L108 226.263L110.333 226.263V223.895H112.667V193.105H110.333V190.737H108L108 188.368Z" fill="#FAE6CE"/>
<path fill-rule="evenodd" clip-rule="evenodd" d="M96.3334 188.368H108V190.737H110.333V193.105H105.667V190.737H96.3334V188.368ZM110.333 193.105H112.667V212.053H110.333V193.105ZM84.6667 193.105H87V212.053H84.6667V193.105ZM89.3334 223.895H87V216.789H84.6667V214.421H87V212.053L89.3334 212.053V223.895ZM96.3334 226.263V223.895L89.3334 223.895V226.263H94V228.632H108V226.263H96.3334ZM87 193.105V190.737H89.3334V193.105H87Z" fill="#714A1C" fill-opacity="0.25" style="mix-blend-mode:multiply"/>
<path fill-rule="evenodd" clip-rule="evenodd" d="M96.3333 193.105H94V195.474H96.3333V193.105ZM98.6666 193.105H105.667V195.474H98.6666V193.105ZM105.667 195.474H108V197.842H105.667L105.667 195.474ZM82.3333 212.053H84.6666V214.421H82.3333V212.053ZM110.333 197.842H108V200.211H110.333V197.842Z" fill="#FFFCF9" fill-opacity="0.7" style="mix-blend-mode:lighten"/>
<path fill-rule="evenodd" clip-rule="evenodd" d="M101 209.684H94V212.053H96.3333V216.789H98.6667V212.053H101V209.684ZM101 221.526H105.667V223.895H101V221.526ZM101 221.526H98.6667V219.158H101V221.526ZM105.667 209.684H108H110.333V212.053H108V216.789H105.667V209.684Z" fill="black"/>
<path fill-rule="evenodd" clip-rule="evenodd" d="M103.333 209.684H101V212.053H98.6667V214.421H101V212.053H103.333V209.684Z" fill="#714A1C" fill-opacity="0.25" style="mix-blend-mode:multiply"/>
<path fill-rule="evenodd" clip-rule="evenodd" d="M91.6667 186H108V188.368H91.6667V186ZM87 190.737V188.368H91.6667V190.737H87ZM84.6667 193.105V190.737H87V193.105H84.6667ZM84.6667 212.053V193.105H82.3333V212.053H80V219.158H82.3333V221.526H84.6667V223.895H87V226.263H89.3333V228.632H94V231H108V228.632H110.333V226.263H112.667V223.895H115V193.105H112.667V190.737H110.333V188.368H108V190.737H110.333V193.105H112.667V223.895H110.333V226.263H108V228.632H94V226.263H89.3333V223.895H87L87 221.526V219.158H82.3333V212.053L84.6667 212.053ZM84.6667 212.053V214.421H87V212.053L84.6667 212.053Z" fill="black"/>
<path d="M91.8226 188.34H108.374V190.705H110.739V193.069H113.103V223.808H110.739V226.172H108.374V228.537H94.1871V226.172H89.4581V223.808H87.0935V219.079H82.3645V211.985H84.729V193.069H87.0935V190.705H91.8226V188.34Z" fill="#FAE6CE"/>
<path fill-rule="evenodd" clip-rule="evenodd" d="M89.4581 230.901H108.374V233.266H110.739V237.995H108.374V252.182H110.739V256.911H108.374V268.734H103.645V256.911H101.281V261.64H98.9161V264.005H96.5516V268.734H91.8226V254.547H94.1871V252.182H87.0935V233.266H89.4581V230.901ZM91.8226 235.63H94.1871V249.818H91.8226V235.63Z" fill="#FAE6CE"/>
<path d="M110.739 237.995H113.103V245.088H115.468V249.818H110.739V237.995Z" fill="#FAE6CE"/>
<path d="M108.374 188.34H96.5517V190.705H106.01V193.069H110.739V211.985H113.103V193.069H110.739V190.705H108.374V188.34Z" fill="#E3C4A6"/>
<path d="M87.0936 193.069H84.7291V202.527H87.0936V193.069Z" fill="#E3C4A6"/>
<path d="M84.7291 214.35H87.0936V211.985H89.4581V223.808H87.0936V216.714H84.7291V214.35Z" fill="#E3C4A6"/>
<path d="M89.4581 223.808H96.5517V226.172H108.374V228.537H94.1871V226.172H89.4581V223.808Z" fill="#E3C4A6"/>
<path d="M110.739 237.995H113.103V245.088H115.468V249.818H110.739V237.995Z" fill="#E3C4A6"/>
<path d="M110.739 237.995H108.374V235.63H106.01V233.266H94.1871V230.901H108.374V233.266H110.739V237.995Z" fill="#E3C4A6"/>
<path d="M110.739 252.182H108.374V240.359H106.01V252.182H108.374V256.911H110.739V252.182Z" fill="#E3C4A6"/>
<path d="M106.01 259.276H108.374V268.734H106.01V259.276Z" fill="#E3C4A6"/>
<path d="M94.1871 254.547H91.8226V268.734H96.5517V264.005H94.1871V254.547Z" fill="#E3C4A6"/>
<path d="M98.9162 256.911H101.281V259.276H98.9162V256.911Z" fill="#E3C4A6"/>
<path d="M91.8226 240.359H89.4581V247.453H87.0936V252.182H94.1871V249.818H91.8226V240.359Z" fill="#E3C4A6"/>
<path d="M94.1871 193.069H96.5516V195.434H94.1871V193.069Z" fill="#FFF8EF"/>
<path d="M106.01 193.069H98.9161V195.434H106.01V197.798H108.374V200.163H110.739V197.798H108.374V195.434H106.01V193.069Z" fill="#FFF8EF"/>
<path d="M84.729 211.985H82.3645V214.35H84.729V211.985Z" fill="#FFF8EF"/>
<path d="M89.4581 230.901H94.1871V233.266H89.4581V230.901Z" fill="#FFF8EF"/>
<path d="M89.4581 233.266V235.63H87.0935V233.266H89.4581Z" fill="#FFF8EF"/>
<path d="M98.9161 239.177H96.5516V243.906H98.9161V239.177Z" fill="#FFF8EF"/>
<path d="M98.9161 239.177H101.281V236.813H98.9161V239.177Z" fill="#FFF8EF"/>
<path d="M103.645 254.547H101.281V256.911H103.645V254.547Z" fill="#FFF8EF"/>
<path fill-rule="evenodd" clip-rule="evenodd" d="M108.374 185.975H91.8226V188.34H87.0936V190.705H84.729V193.069H82.3645V211.985H80V219.079H82.3645V221.443H84.729V223.808H87.0936V226.172H89.4581V230.901H87.0936V233.266H84.729V252.182H87.0936V254.547H89.4581V271.098H98.9162V264.005H101.281V271.098H113.103V268.734H110.739V256.911H113.103V252.182H115.468V249.817H117.832V245.088H115.468V237.995H113.103V233.266H110.739V230.901H108.374V228.537H110.739V226.172H113.103V223.808H115.468V193.069H113.103V190.705H110.739V188.34H108.374V185.975ZM108.374 188.34V190.705H110.739V193.069H113.103V223.808H110.739V226.172H108.374V228.537H94.1871V226.172H89.4581V223.808H87.0936V219.079H82.3645V211.985H84.729V214.35H87.0936V211.985H84.729V193.069H87.0936V190.705H91.8226V188.34H108.374ZM110.739 237.995H108.374V252.182H110.739V256.911H108.374V268.734H103.645V256.911H101.281V259.276H98.9162V264.005H96.5516V268.734H91.8226V254.547H96.5516V249.817H94.1871V235.63H91.8226V249.817H94.1871V252.182H87.0936V233.266H89.4581V230.901H108.374V233.266H110.739V237.995ZM110.739 237.995V249.817H115.468V245.088H113.103V237.995H110.739Z" fill="black"/>
<path fill-rule="evenodd" clip-rule="evenodd" d="M103.2 231.615H98.2667V233.923H103.2V231.615ZM115.533 245.462H113.067H110.6V247.769H113.067L113.067 250.077H115.533V245.462ZM85.9333 247.769H83.4667V252.385H85.9333H88.4V247.769H85.9333ZM90.8667 247.769H88.4V250.077H90.8667V247.769Z" fill="#F3CCA7"/>
<path fill-rule="evenodd" clip-rule="evenodd" d="M98.2667 231.615H103.2V233.923H98.2667V231.615ZM110.6 245.462H113.067H115.533V250.077H113.067V247.769H110.6V245.462ZM88.4 247.769H90.8667V250.077H88.4V252.385H85.9333V247.769H88.4Z" fill="#714A1C" fill-opacity="0.25" style="mix-blend-mode:multiply"/>
<rect x="98.2667" y="236.231" width="4.93333" height="13.8462" fill="#8F00FF"/>
<path d="M100.733 236.231H103.2V250.077H100.733V236.231Z" fill="black" fill-opacity="0.2" style="mix-blend-mode:multiply"/>
<path fill-rule="evenodd" clip-rule="evenodd" d="M93.3334 229.308H90.8667L90.8667 231.615H88.4V233.923H85.9333V245.462H88.4H90.8667L90.8667 236.231H93.3334V250.077H90.8667V254.692H93.3334H95.8V231.615H93.3334V229.308ZM103.2 233.923H105.667L105.667 231.615H108.133L108.133 233.923H110.6V238.538H108.133V250.077H110.6V254.692H108.133H105.667L105.667 250.077H103.2V233.923ZM110.6 238.538V243.154H113.067V238.538H110.6Z" fill="black"/>
<path fill-rule="evenodd" clip-rule="evenodd" d="M90.8667 229.308H93.3334V231.615H90.8667V229.308ZM93.3334 233.923V231.615H95.8V233.923H93.3334ZM93.3334 233.923V236.231H90.8667V233.923H93.3334ZM105.667 231.615H108.133V233.923H105.667V231.615ZM110.6 238.538V233.923H108.133V238.538H110.6ZM110.6 238.538V243.154H113.067V238.538H110.6ZM108.133 245.462H105.667V254.692H108.133H110.6V250.077H108.133L108.133 245.462ZM90.8667 250.077V254.692H95.8V250.077H90.8667ZM88.4 240.846H90.8667V245.462H88.4V240.846Z" fill="black" fill-opacity="0.2" style="mix-blend-mode:multiply"/>
<path fill-rule="evenodd" clip-rule="evenodd" d="M93.3333 227H90.8667V229.308H88.4V231.615H85.9333V233.923H83.4667V247.769H81V252.385H83.4667V254.692H88.4H90.8667V257H95.8V254.692H98.2667V252.385H103.2V254.692H105.667V233.923V231.615H108.133V233.923H110.6V238.538H108.133V250.077H110.6V254.692H105.667V257H110.6V254.692H113.067V252.385H115.533V250.077H118V245.462H115.533V238.538H113.067V233.923H110.6V231.615H108.133V229.308H105.667V231.615H103.2V233.923H98.2667V231.615H95.8V229.308H93.3333V227ZM93.3333 229.308V231.615H95.8V254.692L90.8667 254.692V250.077H93.3333V236.231H90.8667V245.462H85.9333V233.923H88.4V231.615H90.8667V229.308H93.3333ZM115.533 245.462V250.077H113.067V247.769H110.6V245.462H113.067H115.533ZM113.067 238.538H110.6V243.154H113.067V238.538ZM103.2 250.077V236.231H98.2667V250.077H103.2ZM90.8667 250.077H88.4L88.4 252.385H83.4667V247.769H85.9333H90.8667V250.077Z" fill="black"/>
<path fill-rule="evenodd" clip-rule="evenodd" d="M200.4 289.556H190.8V316.889H200.4V312.333H205.2V307.778H210V294.111H214.8L214.8 316.889H224.4L224.4 312.333H229.2V289.556H224.4H214.8H210H205.2H200.4Z" fill="black"/>
<path fill-rule="evenodd" clip-rule="evenodd" d="M190.8 285H186V326H190.8H200.4H205.2V312.333H210V326H214.8H224.4H229.2H234V321.444H229.2V312.333H234V285H229.2H190.8ZM214.8 321.444H224.4V312.333H229.2V298.667H224.4V294.111H229.2V289.556H190.8V294.111H195.6V298.667H190.8V321.444H200.4V312.333H205.2V307.778H210V294.111H214.8V321.444Z" fill="black"/>
<path fill-rule="evenodd" clip-rule="evenodd" d="M190.8 289.556H195.6V294.111H190.8V289.556ZM190.8 298.667H195.6V303.222H190.8V298.667ZM200.4 312.333H195.6V316.889H200.4V312.333ZM205.2 307.778V312.333L200.4 312.333V307.778H205.2ZM205.2 307.778V294.111H210V307.778L205.2 307.778ZM229.2 289.556H224.4V294.111H229.2V289.556ZM224.4 298.667H229.2V303.222H224.4V298.667ZM219.6 298.667H214.8V316.889H219.6L224.4 316.889V307.778H219.6L219.6 298.667Z" fill="black" fill-opacity="0.2" style="mix-blend-mode:multiply"/>
<path fill-rule="evenodd" clip-rule="evenodd" d="M200.4 316.889H190.8V321.444H200.4V316.889ZM224.4 316.889H214.8V321.444H224.4V316.889Z" fill="black"/>
<path fill-rule="evenodd" clip-rule="evenodd" d="M195.6 316.889H190.8V321.444H195.6V316.889ZM219.6 316.889H214.8V321.444H219.6V316.889Z" fill="black" fill-opacity="0.2" style="mix-blend-mode:multiply"/>
<path fill-rule="evenodd" clip-rule="evenodd" d="M319.8 185.421H303V224.158H305.4V226.579H319.8V224.158L322.2 224.158V221.737H324.6V190.263H322.2V187.842H319.8V185.421ZM293.4 209.632H295.8V190.263H298.2V187.842H300.6H303V224.158H300.6V221.737H298.2V216.895L295.8 216.895H293.4V209.632Z" fill="#FAE6CE"/>
<path fill-rule="evenodd" clip-rule="evenodd" d="M307.8 185.421H319.8V187.842H322.2V190.263H317.4V187.842H307.8V185.421ZM322.2 190.263H324.6V209.632H322.2V190.263ZM295.8 190.263H298.2V209.632H295.8V190.263ZM300.6 221.737H298.2V214.474H295.8V212.053H298.2V209.632L300.6 209.632V221.737ZM307.8 224.158V221.737L300.6 221.737V224.158H305.4V226.579H319.8V224.158H307.8ZM298.2 190.263V187.842H300.6V190.263H298.2Z" fill="#714A1C" fill-opacity="0.25" style="mix-blend-mode:multiply"/>
<path fill-rule="evenodd" clip-rule="evenodd" d="M307.8 190.263H305.4V192.684H307.8V190.263ZM310.2 190.263H317.4V192.684H310.2V190.263ZM319.8 195.105V192.684H317.4V195.105H319.8ZM319.8 195.105V197.526H322.2V195.105H319.8ZM293.4 209.632H295.8V212.053H293.4V209.632Z" fill="#FFFCF9" fill-opacity="0.7" style="mix-blend-mode:lighten"/>
<path fill-rule="evenodd" clip-rule="evenodd" d="M307.8 207.211H310.2V209.632H307.8V207.211ZM307.8 209.632V212.053H305.4V209.632H307.8ZM310.2 209.632H312.6V212.053H310.2V209.632ZM312.6 219.316H317.4V221.737H312.6V219.316ZM312.6 219.316H310.2V216.895H312.6V219.316ZM317.4 219.316H319.8V216.895H317.4V219.316ZM317.4 209.632H315V212.053H317.4V209.632ZM319.8 209.632H317.4V207.211H319.8V209.632ZM319.8 209.632V212.053H322.2V209.632H319.8Z" fill="black"/>
<path fill-rule="evenodd" clip-rule="evenodd" d="M303 183H319.8V185.421H303V183ZM298.2 187.842V185.421H303V187.842H298.2ZM295.8 190.263V187.842H298.2V190.263H295.8ZM295.8 209.632V190.263H293.4V209.632H291V216.895H293.4V219.316H295.8V221.737H298.2V224.158H300.6V226.579H305.4V229H319.8V226.579H322.2V224.158H324.6V221.737H327V190.263H324.6V187.842H322.2V185.421H319.8V187.842H322.2V190.263H324.6V221.737L322.2 221.737V224.158H319.8V226.579H305.4V224.158H300.6V221.737H298.2V219.316V216.895H293.4V209.632L295.8 209.632ZM295.8 209.632V212.053H298.2V209.632L295.8 209.632Z" fill="black"/>
<path fill-rule="evenodd" clip-rule="evenodd" d="M303.947 185.13H301.789V187.261H297.474V189.391H295.316V206.435H297.474V208.565H301.789V204.304H303.947L303.947 202.174H308.263L308.263 200.043H312.579V197.913H314.737V195.783H316.895V197.913H319.053V200.043H321.21V202.174H323.368V187.261H321.21V185.13H319.053H316.895H314.737H312.579H308.263H303.947ZM295.316 217.087H297.474V219.217H299.632V221.348H301.789V225.609H299.632V227.739H297.474H295.316H293.158V225.609H295.316V217.087ZM323.368 191.522H325.526L325.526 197.913H327.684V219.217H325.526V223.478H327.684V225.609H329.842V227.739H327.684H325.526L325.526 229.87H323.368V214.957H325.526V206.435H323.368V191.522ZM323.368 221.348H321.21V227.739H323.368V221.348Z" fill="black"/>
<path fill-rule="evenodd" clip-rule="evenodd" d="M319.053 187.261H316.895V191.522H314.737V195.783H312.579V197.913H308.263V200.043H303.947V202.174L301.789 202.174L299.632 202.174V204.304H297.474V189.391H295.316V206.435H297.474V208.565H299.632H301.789L301.789 204.304H303.947V202.174H308.263V200.043H312.579V197.913L314.737 197.913V195.783H316.895L316.895 191.522H319.053V187.261ZM325.526 214.957H323.368V221.348H321.211V227.739H323.368V229.87H325.526V227.739H327.684H329.842V225.609H327.684V223.478H325.526V219.217H327.684V197.913H325.526V214.957Z" fill="black" fill-opacity="0.2" style="mix-blend-mode:multiply"/>
<path fill-rule="evenodd" clip-rule="evenodd" d="M312.579 187.261H314.737V191.522H312.579V187.261ZM310.421 193.652V191.522H312.579L312.579 193.652H310.421ZM306.105 193.652H310.421L310.421 195.783H306.105L306.105 193.652ZM301.789 193.652H306.105V191.522H308.263V187.261H306.105V191.522H301.789V193.652ZM301.789 193.652V195.783H299.632V193.652L301.789 193.652ZM303.947 195.783H306.105V197.913H303.947V195.783ZM299.632 195.783H297.474V200.043H299.632V195.783Z" fill="white" fill-opacity="0.3" style="mix-blend-mode:lighten"/>
<path fill-rule="evenodd" clip-rule="evenodd" d="M321.211 183H301.789V185.13H297.474V187.261H295.316V189.391H293.158V206.435H295.316V189.391H297.474V187.261H301.789V185.13H321.211V187.261H323.368V191.522H325.526V197.913H327.684V219.217H325.526V223.478H327.684V225.609H329.842V227.739H325.526V229.87H323.368V227.739H321.211V223.478H319.053V227.739H321.211V229.87H323.368V232H325.526V229.87H329.842V227.739H332V225.609H329.842V223.478H327.684V219.217H329.842V197.913H327.684V191.522H325.526V187.261H323.368V185.13H321.211V183ZM293.158 217.087H295.316V225.609H293.158V217.087ZM293.158 227.739H291V225.609H293.158V227.739ZM299.632 227.739V229.87H293.158V227.739H299.632ZM301.789 225.609V227.739H299.632L299.632 225.609H301.789ZM301.789 225.609V223.478H303.947V225.609H301.789ZM321.211 214.957H323.368V221.348H321.211V214.957Z" fill="black"/>
<path d="M152 379H177V376.5H179.5V366.5H177V364H169.5H162V359H179.5V354H154.5V356.5H152V366.5H154.5V369H169.5V374H152V379ZM181.98 379H206.98V376.5H209.48V366.5H206.98V364H199.48H191.98V359H209.48V354H184.48V356.5H181.98V366.5H184.48V369H199.48V374H181.98V379ZM221.961 369H229.461V379H239.461V356.5H236.961V354H229.461H214.461V356.5H211.961V379H221.961V369ZM221.961 359H229.461V364H221.961V359ZM251.941 366.5H254.441V369H256.941V371.5H259.441V369H261.941V366.5H264.441V379H274.441V354H264.441V356.5H261.941V359H259.441V361.5H256.941V359H254.441V356.5H251.941V354H241.941V379H251.941V366.5Z" fill="#FAF1AC"/>
<path d="M152 379H151V380H152V379ZM177 379V380H178V379H177ZM177 376.5V375.5H176V376.5H177ZM179.5 376.5V377.5H180.5V376.5H179.5ZM179.5 366.5H180.5V365.5H179.5V366.5ZM177 366.5H176V367.5H177V366.5ZM177 364H178V363H177V364ZM162 364H161V365H162V364ZM162 359V358H161V359H162ZM179.5 359V360H180.5V359H179.5ZM179.5 354H180.5V353H179.5V354ZM154.5 354V353H153.5V354H154.5ZM154.5 356.5V357.5H155.5V356.5H154.5ZM152 356.5V355.5H151V356.5H152ZM152 366.5H151V367.5H152V366.5ZM154.5 366.5H155.5V365.5H154.5V366.5ZM154.5 369H153.5V370H154.5V369ZM169.5 369H170.5V368H169.5V369ZM169.5 374V375H170.5V374H169.5ZM152 374V373H151V374H152ZM152 380H177V378H152V380ZM178 379V376.5H176V379H178ZM177 377.5H179.5V375.5H177V377.5ZM180.5 376.5V366.5H178.5V376.5H180.5ZM179.5 365.5H177V367.5H179.5V365.5ZM178 366.5V364H176V366.5H178ZM177 363H169.5V365H177V363ZM169.5 363H162V365H169.5V363ZM163 364V359H161V364H163ZM162 360H179.5V358H162V360ZM180.5 359V354H178.5V359H180.5ZM179.5 353H154.5V355H179.5V353ZM153.5 354V356.5H155.5V354H153.5ZM154.5 355.5H152V357.5H154.5V355.5ZM151 356.5V366.5H153V356.5H151ZM152 367.5H154.5V365.5H152V367.5ZM153.5 366.5V369H155.5V366.5H153.5ZM154.5 370H169.5V368H154.5V370ZM168.5 369V374H170.5V369H168.5ZM169.5 373H152V375H169.5V373ZM151 374V379H153V374H151ZM181.98 379H180.98V380H181.98V379ZM206.98 379V380H207.98V379H206.98ZM206.98 376.5V375.5H205.98V376.5H206.98ZM209.48 376.5V377.5H210.48V376.5H209.48ZM209.48 366.5H210.48V365.5H209.48V366.5ZM206.98 366.5H205.98V367.5H206.98V366.5ZM206.98 364H207.98V363H206.98V364ZM191.98 364H190.98V365H191.98V364ZM191.98 359V358H190.98V359H191.98ZM209.48 359V360H210.48V359H209.48ZM209.48 354H210.48V353H209.48V354ZM184.48 354V353H183.48V354H184.48ZM184.48 356.5V357.5H185.48V356.5H184.48ZM181.98 356.5V355.5H180.98V356.5H181.98ZM181.98 366.5H180.98V367.5H181.98V366.5ZM184.48 366.5H185.48V365.5H184.48V366.5ZM184.48 369H183.48V370H184.48V369ZM199.48 369H200.48V368H199.48V369ZM199.48 374V375H200.48V374H199.48ZM181.98 374V373H180.98V374H181.98ZM181.98 380H206.98V378H181.98V380ZM207.98 379V376.5H205.98V379H207.98ZM206.98 377.5H209.48V375.5H206.98V377.5ZM210.48 376.5V366.5H208.48V376.5H210.48ZM209.48 365.5H206.98V367.5H209.48V365.5ZM207.98 366.5V364H205.98V366.5H207.98ZM206.98 363H199.48V365H206.98V363ZM199.48 363H191.98V365H199.48V363ZM192.98 364V359H190.98V364H192.98ZM191.98 360H209.48V358H191.98V360ZM210.48 359V354H208.48V359H210.48ZM209.48 353H184.48V355H209.48V353ZM183.48 354V356.5H185.48V354H183.48ZM184.48 355.5H181.98V357.5H184.48V355.5ZM180.98 356.5V366.5H182.98V356.5H180.98ZM181.98 367.5H184.48V365.5H181.98V367.5ZM183.48 366.5V369H185.48V366.5H183.48ZM184.48 370H199.48V368H184.48V370ZM198.48 369V374H200.48V369H198.48ZM199.48 373H181.98V375H199.48V373ZM180.98 374V379H182.98V374H180.98ZM221.961 369V368H220.961V369H221.961ZM229.461 369H230.461V368H229.461V369ZM229.461 379H228.461V380H229.461V379ZM239.461 379V380H240.461V379H239.461ZM239.461 356.5H240.461V355.5H239.461V356.5ZM236.961 356.5H235.961V357.5H236.961V356.5ZM236.961 354H237.961V353H236.961V354ZM214.461 354V353H213.461V354H214.461ZM214.461 356.5V357.5H215.461V356.5H214.461ZM211.961 356.5V355.5H210.961V356.5H211.961ZM211.961 379H210.961V380H211.961V379ZM221.961 379V380H222.961V379H221.961ZM221.961 359V358H220.961V359H221.961ZM229.461 359H230.461V358H229.461V359ZM229.461 364V365H230.461V364H229.461ZM221.961 364H220.961V365H221.961V364ZM221.961 370H229.461V368H221.961V370ZM228.461 369V379H230.461V369H228.461ZM229.461 380H239.461V378H229.461V380ZM240.461 379V356.5H238.461V379H240.461ZM239.461 355.5H236.961V357.5H239.461V355.5ZM237.961 356.5V354H235.961V356.5H237.961ZM236.961 353H229.461V355H236.961V353ZM229.461 353H214.461V355H229.461V353ZM213.461 354V356.5H215.461V354H213.461ZM214.461 355.5H211.961V357.5H214.461V355.5ZM210.961 356.5V379H212.961V356.5H210.961ZM211.961 380H221.961V378H211.961V380ZM222.961 379V369H220.961V379H222.961ZM221.961 360H229.461V358H221.961V360ZM228.461 359V364H230.461V359H228.461ZM229.461 363H221.961V365H229.461V363ZM222.961 364V359H220.961V364H222.961ZM251.941 366.5V365.5H250.941V366.5H251.941ZM254.441 366.5H255.441V365.5H254.441V366.5ZM254.441 369H253.441V370H254.441V369ZM256.941 369H257.941V368H256.941V369ZM256.941 371.5H255.941V372.5H256.941V371.5ZM259.441 371.5V372.5H260.441V371.5H259.441ZM259.441 369V368H258.441V369H259.441ZM261.941 369V370H262.941V369H261.941ZM261.941 366.5V365.5H260.941V366.5H261.941ZM264.441 366.5H265.441V365.5H264.441V366.5ZM264.441 379H263.441V380H264.441V379ZM274.441 379V380H275.441V379H274.441ZM274.441 354H275.441V353H274.441V354ZM264.441 354V353H263.441V354H264.441ZM264.441 356.5V357.5H265.441V356.5H264.441ZM261.941 356.5V355.5H260.941V356.5H261.941ZM261.941 359V360H262.941V359H261.941ZM259.441 359V358H258.441V359H259.441ZM259.441 361.5V362.5H260.441V361.5H259.441ZM256.941 361.5H255.941V362.5H256.941V361.5ZM256.941 359H257.941V358H256.941V359ZM254.441 359H253.441V360H254.441V359ZM254.441 356.5H255.441V355.5H254.441V356.5ZM251.941 356.5H250.941V357.5H251.941V356.5ZM251.941 354H252.941V353H251.941V354ZM241.941 354V353H240.941V354H241.941ZM241.941 379H240.941V380H241.941V379ZM251.941 379V380H252.941V379H251.941ZM251.941 367.5H254.441V365.5H251.941V367.5ZM253.441 366.5V369H255.441V366.5H253.441ZM254.441 370H256.941V368H254.441V370ZM255.941 369V371.5H257.941V369H255.941ZM256.941 372.5H259.441V370.5H256.941V372.5ZM260.441 371.5V369H258.441V371.5H260.441ZM259.441 370H261.941V368H259.441V370ZM262.941 369V366.5H260.941V369H262.941ZM261.941 367.5H264.441V365.5H261.941V367.5ZM263.441 366.5V379H265.441V366.5H263.441ZM264.441 380H274.441V378H264.441V380ZM275.441 379V354H273.441V379H275.441ZM274.441 353H264.441V355H274.441V353ZM263.441 354V356.5H265.441V354H263.441ZM264.441 355.5H261.941V357.5H264.441V355.5ZM260.941 356.5V359H262.941V356.5H260.941ZM261.941 358H259.441V360H261.941V358ZM258.441 359V361.5H260.441V359H258.441ZM259.441 360.5H256.941V362.5H259.441V360.5ZM257.941 361.5V359H255.941V361.5H257.941ZM256.941 358H254.441V360H256.941V358ZM255.441 359V356.5H253.441V359H255.441ZM254.441 355.5H251.941V357.5H254.441V355.5ZM252.941 356.5V354H250.941V356.5H252.941ZM251.941 353H241.941V355H251.941V353ZM240.941 354V379H242.941V354H240.941ZM241.941 380H251.941V378H241.941V380ZM252.941 379V366.5H250.941V379H252.941Z" fill="black"/>
<path fill-rule="evenodd" clip-rule="evenodd" d="M196 235H191.2V239.917H186.4V244.833H181.6V249.75H176.8V279.25L172 279.25V289.083H176.8V294H186.4V289.083H239.2L239.2 284.167H244V274.333H239.2V259.583H234.4V249.75H229.6V244.833H224.8V239.917H220V244.833H215.2V249.75H205.6V244.833H200.8V239.917H196V235ZM196 239.917V244.833H200.8V249.75H205.6V254.667H215.2V249.75H220V244.833H224.8V249.75H229.6V259.583H224.8V284.167H196V254.667H191.2V259.583H181.6V249.75H186.4V244.833H191.2V239.917H196ZM234.4 284.167H239.2V274.333H234.4V259.583H229.6V279.25H234.4V284.167ZM191.2 284.167H186.4L186.4 289.083H176.8V279.25H181.6V264.5H191.2V284.167Z" fill="black"/>
<path fill-rule="evenodd" clip-rule="evenodd" d="M215.2 244.833H205.6V249.75H215.2V244.833ZM181.6 264.5H186.4V289.083H181.6L176.8 289.083V279.25H181.6V264.5ZM239.2 274.333H234.4V284.167H239.2V274.333ZM229.6 259.583H234.4V279.25H229.6V259.583ZM191.2 264.5H186.4V284.167H191.2V264.5Z" fill="#9C6F4B"/>
<path fill-rule="evenodd" clip-rule="evenodd" d="M205.6 244.833H215.2V249.75H205.6V244.833ZM229.6 259.583H234.4V274.333H239.2V284.167H234.4V279.25H229.6V259.583ZM186.4 264.5H191.2V284.167H186.4V289.083H181.6V279.25H186.4V264.5Z" fill="#714A1C" fill-opacity="0.25" style="mix-blend-mode:multiply"/>
<path fill-rule="evenodd" clip-rule="evenodd" d="M196 239.917H191.2L191.2 244.833H186.4V249.75H181.6V259.583H186.4H191.2L191.2 254.667H196V284.167H200.8H205.6H210.4H215.2H220V249.75H215.2L215.2 254.667H210.4H205.6V249.75H200.8V244.833H196V239.917ZM224.8 244.833H220V284.167H224.8L224.8 259.583H229.6V249.75H224.8L224.8 244.833Z" fill="white"/>
<path fill-rule="evenodd" clip-rule="evenodd" d="M191.2 239.917H196V244.833H191.2V239.917ZM220 244.833H224.8V249.75H220V244.833ZM224.8 249.75L224.8 259.583H229.6V249.75H224.8ZM224.8 279.25H196V284.167H224.8V279.25ZM196 249.75H191.2V254.667H186.4V259.583H191.2V254.667H196V249.75Z" fill="black" fill-opacity="0.2" style="mix-blend-mode:multiply"/>
<path fill-rule="evenodd" clip-rule="evenodd" d="M94.9 254.168H90.3V267.178H94.9V265.01H97.2V262.842H99.5V256.337H101.8L101.8 267.178H106.4L106.4 265.01H108.7V254.168H106.4H101.8H99.5H97.2H94.9Z" fill="black"/>
<path fill-rule="evenodd" clip-rule="evenodd" d="M90.3 252H88V271.515H90.3H94.9H97.2V265.01H99.5V271.515L101.8 271.515H106.4H108.7H111V269.347H108.7V265.01H111V252H108.7H90.3ZM101.8 269.347H106.4V265.01H108.7V258.505H106.4V256.337H108.7V254.168H90.3V256.337H92.6V258.505H90.3V269.347H94.9L94.9 265.01H97.2V262.842H99.5V256.337H101.8V269.347Z" fill="black"/>
<path fill-rule="evenodd" clip-rule="evenodd" d="M90.3 254.168H92.6V256.337H90.3V254.168ZM90.3 258.505H92.6V260.673H90.3V258.505ZM94.9 265.01H92.6V267.178H94.9V265.01ZM97.2 262.842V265.01L94.9 265.01L94.9 262.842H97.2ZM97.2 262.842V256.337H99.5V262.842L97.2 262.842ZM108.7 254.168H106.4V256.337H108.7V254.168ZM106.4 258.505H108.7V260.673H106.4V258.505ZM104.1 258.505H101.8V267.178H104.1L106.4 267.178V262.842H104.1V258.505Z" fill="black" fill-opacity="0.2" style="mix-blend-mode:multiply"/>
<path fill-rule="evenodd" clip-rule="evenodd" d="M94.9 267.178H90.3V269.347H94.9V267.178ZM106.4 267.178H101.8V269.347H106.4V267.178Z" fill="white"/>
<path fill-rule="evenodd" clip-rule="evenodd" d="M92.6 267.178H90.3V269.347H92.6V267.178ZM104.1 267.178H101.8V269.347H104.1V267.178Z" fill="black" fill-opacity="0.2" style="mix-blend-mode:multiply"/>
<path fill-rule="evenodd" clip-rule="evenodd" d="M319 224.421H309.4V226.842H311.8V229.263H316.6V226.842H319V224.421ZM299.8 229.263H302.2H304.6V246.211H302.2V248.632H299.8H297.4V243.789H299.8V229.263ZM326.2 241.368H328.6V246.211H326.2H323.8V234.105H326.2V241.368Z" fill="#FAE6CE"/>
<path fill-rule="evenodd" clip-rule="evenodd" d="M319 224.421H309.4V226.842H319V224.421ZM323.8 234.105H326.2V241.368H328.6V246.211H326.2H323.8V234.105ZM302.2 236.526H304.6V248.632H302.2H297.4V243.789H302.2V236.526Z" fill="#714A1C" fill-opacity="0.25" style="mix-blend-mode:multiply"/>
<path d="M299.8 229.263H302.2V231.684H299.8V229.263Z" fill="#FFFCF9" fill-opacity="0.7" style="mix-blend-mode:lighten"/>
<path fill-rule="evenodd" clip-rule="evenodd" d="M304.6 224.421H307V226.842H309.4V229.263H311.8V260.737L309.4 260.737L307 260.737H304.6H302.2L299.8 260.737V258.316H302.2V253.474H304.6V246.211H307V229.263H304.6V224.421ZM316.6 231.684H311.8V260.737H316.6L319 260.737L321.4 260.737L323.8 260.737H326.2V255.895H323.8V248.632H321.4V226.842H319V229.263H316.6V231.684Z" fill="#E62E2E"/>
<path fill-rule="evenodd" clip-rule="evenodd" d="M304.6 224.421H307V226.842H304.6V224.421ZM307 226.842H309.4V229.263H307V226.842ZM321.4 226.842H319V229.263H316.6V231.684H319V234.105H321.4V226.842ZM316.6 251.053H319V255.895H316.6V251.053ZM316.6 255.895V260.737H314.2V255.895H316.6ZM319 246.211H316.6V248.632H319V246.211ZM316.6 238.947H319V243.789H316.6V238.947ZM311.8 253.474H309.4V255.895H307V258.316H309.4V255.895H311.8V253.474ZM311.8 253.474H314.2V248.632H311.8L311.8 253.474ZM309.4 238.947H307V246.211H304.6V251.053H307V246.211H309.4V238.947ZM304.6 253.474H302.2V255.895H304.6V253.474ZM323.8 255.895H326.2V260.737H323.8V255.895ZM323.8 248.632H321.4V253.474H323.8V248.632Z" fill="black" fill-opacity="0.2" style="mix-blend-mode:multiply"/>
<path fill-rule="evenodd" clip-rule="evenodd" d="M307 226.842H304.6V229.263H307V226.842ZM316.6 241.368H314.2V246.211H316.6V241.368ZM309.4 251.053H311.8V253.474H309.4V251.053ZM307 255.895V253.474L309.4 253.474V255.895H307ZM307 255.895V260.737H304.6V255.895L307 255.895ZM311.8 255.895H314.2V260.737H311.8V255.895ZM314.2 255.895V253.474H316.6V255.895L314.2 255.895Z" fill="white" fill-opacity="0.3" style="mix-blend-mode:lighten"/>
<path fill-rule="evenodd" clip-rule="evenodd" d="M309.4 263.158H304.6V265.579H309.4V263.158ZM321.4 263.158H316.6V265.579H321.4V263.158Z" fill="black"/>
<path fill-rule="evenodd" clip-rule="evenodd" d="M307 263.158H304.6V265.579H307V263.158ZM319 263.158H316.6V265.579H319V263.158Z" fill="black" fill-opacity="0.2" style="mix-blend-mode:multiply"/>
<path fill-rule="evenodd" clip-rule="evenodd" d="M304.6 222H307V224.421H304.6V222ZM304.6 229.263V224.421H302.2V226.842H299.8V229.263H297.4V243.789H295V248.632H297.4V251.053H302.2V253.474H299.8V258.316H297.4V260.737V263.158H302.2V268H304.6H309.4H311.8V263.158H314.2V268H316.6H326.2V265.579H323.8V263.158H328.6L328.6 260.737V255.895H326.2V248.632H328.6V246.211H331V241.368H328.6V234.105H326.2V229.263H323.8V226.842H321.4V224.421H319V226.842H316.6V229.263H311.8V226.842H309.4V224.421H307V226.842H309.4V229.263H311.8V231.684H316.6V229.263H319V226.842H321.4V248.632H323.8V255.895H326.2V260.737H299.8V258.316H302.2V253.474H304.6V246.211H307V229.263H304.6ZM304.6 229.263H302.2H299.8V243.789H297.4V248.632H302.2V246.211L304.6 246.211V229.263ZM326.2 234.105H323.8V246.211H326.2H328.6V241.368H326.2V234.105ZM316.6 265.579H321.4V263.158H316.6V265.579ZM309.4 265.579V263.158H304.6V265.579H309.4Z" fill="black"/>
<path fill-rule="evenodd" clip-rule="evenodd" d="M108.8 189.474H92V191.947H89.6H87.2L87.2 194.421H84.8V214.211H82.4V221.632H84.8L87.2 221.632L87.2 226.579H89.6V229.053L92 229.053H94.4V231.526H108.8L108.8 229.053L111.2 229.053V226.579H113.6V194.421H111.2V191.947H108.8L108.8 189.474Z" fill="#F3CCA7"/>
<path fill-rule="evenodd" clip-rule="evenodd" d="M96.8 189.474H108.8V191.947H111.2V194.421H106.4V191.947H96.8V189.474ZM111.2 194.421H113.6V214.211H111.2V194.421ZM84.8 194.421H87.2V214.211H84.8V194.421ZM89.6 226.579H87.2V219.158H84.8V216.684H87.2V214.211L89.6 214.211V226.579ZM96.8 229.053V226.579H89.6V229.053L94.4 229.053V231.526H108.8V229.053L96.8 229.053ZM87.2 194.421V191.947H89.6V194.421H87.2Z" fill="#714A1C" fill-opacity="0.25" style="mix-blend-mode:multiply"/>
<path fill-rule="evenodd" clip-rule="evenodd" d="M96.8 194.421H94.4V196.895H96.8V194.421ZM99.2 194.421H106.4V196.895H99.2V194.421ZM106.4 196.895H108.8V199.368H106.4L106.4 196.895ZM82.4 214.211H84.8V216.684H82.4V214.211ZM111.2 199.368H108.8V201.842H111.2V199.368Z" fill="#FFFCF9" fill-opacity="0.7" style="mix-blend-mode:lighten"/>
<path fill-rule="evenodd" clip-rule="evenodd" d="M101.6 211.737H94.4V214.211H96.8V219.158H99.2V214.211H101.6V211.737ZM101.6 224.105H106.4V226.579H101.6V224.105ZM101.6 224.105H99.2V221.632H101.6V224.105ZM106.4 211.737H108.8H111.2V214.211H108.8V219.158H106.4V211.737Z" fill="black"/>
<path fill-rule="evenodd" clip-rule="evenodd" d="M104 211.737H101.6V214.211H99.2V216.684H101.6V214.211H104V211.737Z" fill="#714A1C" fill-opacity="0.25" style="mix-blend-mode:multiply"/>
<path fill-rule="evenodd" clip-rule="evenodd" d="M92 187H108.8V189.474H92V187ZM87.2 191.947V189.474H92V191.947H87.2ZM84.8 194.421V191.947H87.2V194.421H84.8ZM84.8 194.421V214.211H82.4V194.421H84.8ZM82.4 214.211H80V221.632H82.4V224.105H84.8V226.579H87.2V229.053H89.6V231.526H94.4V234H108.8V231.526H111.2V229.053H113.6V226.579H116V194.421H113.6V191.947H111.2V189.474H108.8V191.947H111.2V194.421H113.6V226.579H111.2V229.053H108.8V231.526H94.4V229.053H89.6V226.579H87.2L87.2 224.105V221.632H82.4V214.211ZM87.2 214.211H84.8V216.684H87.2V214.211Z" fill="black"/>
<path fill-rule="evenodd" clip-rule="evenodd" d="M95.2632 187.133H93.1053V189.267H90.9474V191.4H88.7895L88.7895 193.533H86.6316H84.4737V195.667H82.3158H80.1579V197.8H82.3158V208.467H84.4737V210.6H86.6316V212.733H88.7895L88.7895 217H90.9474V208.467H93.1053V204.2H95.2632V202.067H103.895H110.368V204.2H112.526V206.333H114.684V199.933H116.842V197.8H114.684V195.667H116.842V193.533H114.684H112.526V191.4H110.368V189.267H103.895L103.895 187.133H95.2632Z" fill="black"/>
<path fill-rule="evenodd" clip-rule="evenodd" d="M88.7895 191.4H90.9474V193.533H93.1053L93.1053 195.667H95.2632L95.2632 197.8H99.579L99.579 199.933H110.368V202.067L99.579 202.067H95.2632L95.2632 204.2H93.1053L93.1053 208.467H90.9474V217H88.7895V212.733H86.6316V210.6H84.4737V208.467H82.3158V202.067H84.4737V204.2H86.6316L88.7895 204.2V202.067H90.9474V199.933H93.1053V197.8H90.9474V195.667H88.7895V191.4ZM114.684 199.933H112.526L112.526 202.067L110.368 202.067V204.2H112.526L112.526 206.333H114.684V199.933ZM114.684 199.933H116.842V197.8H114.684V199.933ZM108.211 195.667H101.737V197.8H108.211V195.667ZM108.211 195.667H112.526V193.533H108.211V195.667Z" fill="black" fill-opacity="0.2" style="mix-blend-mode:multiply"/>
<path fill-rule="evenodd" clip-rule="evenodd" d="M95.2632 191.4H101.737V193.533H95.2632V191.4ZM88.7895 195.667H86.6316V197.8H84.4737V199.933H86.6316V197.8H88.7895V195.667ZM106.053 191.4H103.895V193.533H106.053V191.4Z" fill="white" fill-opacity="0.3" style="mix-blend-mode:lighten"/>
<path fill-rule="evenodd" clip-rule="evenodd" d="M93.1053 185H103.895V187.133H93.1053V185ZM90.9474 189.267V187.133H93.1053V189.267H90.9474ZM88.7895 191.4V189.267H90.9474V191.4H88.7895ZM84.4737 193.533V191.4H88.7895V193.533H84.4737ZM80.1579 195.667V193.533H84.4737L84.4737 195.667H80.1579ZM80.1579 197.8H78V195.667H80.1579V197.8ZM82.3158 208.467H80.1579V197.8H82.3158V208.467ZM82.3158 208.467H84.4737V212.733H82.3158V208.467ZM110.368 189.267H103.895V187.133H110.368V189.267ZM112.526 191.4H110.368V189.267H112.526V191.4ZM116.842 193.533H112.526V191.4H116.842V193.533ZM116.842 195.667V193.533H119V195.667H116.842ZM116.842 197.8H114.684V195.667H116.842V197.8ZM116.842 199.933H119V197.8H116.842V199.933ZM116.842 199.933V208.467H114.684V199.933H116.842Z" fill="black"/>
<path d="M32.9393 862.939C32.3536 863.525 32.3536 864.475 32.9393 865.061L42.4853 874.607C43.0711 875.192 44.0208 875.192 44.6066 874.607C45.1924 874.021 45.1924 873.071 44.6066 872.485L36.1213 864L44.6066 855.515C45.1924 854.929 45.1924 853.979 44.6066 853.393C44.0208 852.808 43.0711 852.808 42.4853 853.393L32.9393 862.939ZM62 862.5H34V865.5H62V862.5Z" fill="black"/>
<path d="M32.9393 862.939C32.3536 863.525 32.3536 864.475 32.9393 865.061L42.4853 874.607C43.0711 875.192 44.0208 875.192 44.6066 874.607C45.1924 874.021 45.1924 873.071 44.6066 872.485L36.1213 864L44.6066 855.515C45.1924 854.929 45.1924 853.979 44.6066 853.393C44.0208 852.808 43.0711 852.808 42.4853 853.393L32.9393 862.939ZM62 862.5H34V865.5H62V862.5Z" fill="black"/>
<path d="M43 873L45 875" stroke="black" stroke-width="3"/>
<path d="M43 873L45 875" stroke="black" stroke-width="3"/>
<path d="M32.9393 862.939C32.3536 863.525 32.3536 864.475 32.9393 865.061L42.4853 874.607C43.0711 875.192 44.0208 875.192 44.6066 874.607C45.1924 874.021 45.1924 873.071 44.6066 872.485L36.1213 864L44.6066 855.515C45.1924 854.929 45.1924 853.979 44.6066 853.393C44.0208 852.808 43.0711 852.808 42.4853 853.393L32.9393 862.939ZM62 862.5H34V865.5H62V862.5Z" fill="black"/>
<path d="M32.9393 862.939C32.3536 863.525 32.3536 864.475 32.9393 865.061L42.4853 874.607C43.0711 875.192 44.0208 875.192 44.6066 874.607C45.1924 874.021 45.1924 873.071 44.6066 872.485L36.1213 864L44.6066 855.515C45.1924 854.929 45.1924 853.979 44.6066 853.393C44.0208 852.808 43.0711 852.808 42.4853 853.393L32.9393 862.939ZM62 862.5H34V865.5H62V862.5Z" fill="black"/>
<path d="M43 873L45 875" stroke="black" stroke-width="3"/>
<path d="M43 873L45 875" stroke="black" stroke-width="3"/>
<path d="M370 867L366.5 870.5" stroke="black" stroke-width="4"/>
<path d="M42 856L45 853" stroke="black" stroke-width="3"/>
<path d="M42 856L45 853" stroke="black" stroke-width="3"/>
<path d="M76.7931 876.968V880H17.2069V876.968H15L15 851.368H17.2069V848H76.7931L76.7931 851.368H79L79 876.968H76.7931Z" stroke="black" stroke-width="4"/>
<path d="M76.7931 876.968V880H17.2069V876.968H15L15 851.368H17.2069V848H76.7931L76.7931 851.368H79L79 876.968H76.7931Z" stroke="black" stroke-width="4"/>
<path d="M42 856L45 853" stroke="black" stroke-width="3"/>
<path d="M42 856L45 853" stroke="black" stroke-width="3"/>
<path d="M76.7931 876.968V880H17.2069V876.968H15L15 851.368H17.2069V848H76.7931L76.7931 851.368H79L79 876.968H76.7931Z" stroke="black" stroke-width="4"/>
<path d="M76.7931 876.968V880H17.2069V876.968H15L15 851.368H17.2069V848H76.7931L76.7931 851.368H79L79 876.968H76.7931Z" stroke="black" stroke-width="4"/>
<g filter="url(#filter1_d_2_5032)">
<rect x="308" y="832" width="103" height="48" fill="#FFBE00"/>
<rect x="310.5" y="834.5" width="98" height="43" stroke="black" stroke-width="5"/>
</g>
<g style="mix-blend-mode:hard-light" filter="url(#filter2_d_2_5032)">
<path d="M338 854H336V858H338V854ZM382.414 857.414C383.195 856.633 383.195 855.367 382.414 854.586L369.686 841.858C368.905 841.077 367.639 841.077 366.858 841.858C366.077 842.639 366.077 843.905 366.858 844.686L378.172 856L366.858 867.314C366.077 868.095 366.077 869.361 366.858 870.142C367.639 870.923 368.905 870.923 369.686 870.142L382.414 857.414ZM338 858H381V854H338V858Z" fill="black"/>
</g>
<path d="M312.483 836.547V832H406.517V836.547H410V874.947H406.517V880H312.483V874.947H309V836.547H312.483Z" stroke="black" stroke-width="4"/>
<path d="M369 844L366.5 841.5" stroke="black" stroke-width="4"/>
<g filter="url(#filter3_d_2_5032)">
<rect x="308" y="832" width="103" height="48" fill="#FFBE00"/>
<rect x="310.5" y="834.5" width="98" height="43" stroke="black" stroke-width="5"/>
</g>
<g style="mix-blend-mode:hard-light" filter="url(#filter4_d_2_5032)">
<path d="M338 854H336V858H338V854ZM382.414 857.414C383.195 856.633 383.195 855.367 382.414 854.586L369.686 841.858C368.905 841.077 367.639 841.077 366.858 841.858C366.077 842.639 366.077 843.905 366.858 844.686L378.172 856L366.858 867.314C366.077 868.095 366.077 869.361 366.858 870.142C367.639 870.923 368.905 870.923 369.686 870.142L382.414 857.414ZM338 858H381V854H338V858Z" fill="black"/>
</g>
<path d="M312.483 836.547V832H406.517V836.547H410V874.947H406.517V880H312.483V874.947H309V836.547H312.483Z" stroke="black" stroke-width="4"/>
<path d="M369 844L366.5 841.5" stroke="black" stroke-width="4"/>
<path d="M42 856L45 853" stroke="black" stroke-width="3"/>
<path d="M42 856L45 853" stroke="black" stroke-width="3"/>
<path d="M76.7931 876.968V880H17.2069V876.968H15L15 851.368H17.2069V848H76.7931L76.7931 851.368H79L79 876.968H76.7931Z" stroke="black" stroke-width="4"/>
<path d="M76.7931 876.968V880H17.2069V876.968H15L15 851.368H17.2069V848H76.7931L76.7931 851.368H79L79 876.968H76.7931Z" stroke="black" stroke-width="4"/>
<path d="M42 856L45 853" stroke="black" stroke-width="3"/>
<path d="M42 856L45 853" stroke="black" stroke-width="3"/>
<path d="M76.7931 876.968V880H17.2069V876.968H15L15 851.368H17.2069V848H76.7931L76.7931 851.368H79L79 876.968H76.7931Z" stroke="black" stroke-width="4"/>
<path d="M76.7931 876.968V880H17.2069V876.968H15L15 851.368H17.2069V848H76.7931L76.7931 851.368H79L79 876.968H76.7931Z" stroke="black" stroke-width="4"/>
<g filter="url(#filter5_d_2_5032)">
<rect x="308" y="832" width="103" height="48" fill="#FFBE00"/>
<rect x="310.5" y="834.5" width="98" height="43" stroke="black" stroke-width="5"/>
</g>
<g style="mix-blend-mode:hard-light" filter="url(#filter6_d_2_5032)">
<path d="M338 854H336V858H338V854ZM382.414 857.414C383.195 856.633 383.195 855.367 382.414 854.586L369.686 841.858C368.905 841.077 367.639 841.077 366.858 841.858C366.077 842.639 366.077 843.905 366.858 844.686L378.172 856L366.858 867.314C366.077 868.095 366.077 869.361 366.858 870.142C367.639 870.923 368.905 870.923 369.686 870.142L382.414 857.414ZM338 858H381V854H338V858Z" fill="black"/>
</g>
<path d="M312.483 836.547V832H406.517V836.547H410V874.947H406.517V880H312.483V874.947H309V836.547H312.483Z" stroke="black" stroke-width="4"/>
<path d="M369 844L366.5 841.5" stroke="black" stroke-width="4"/>
<g filter="url(#filter7_d_2_5032)">
<rect x="308" y="832" width="103" height="48" fill="#FFBE00"/>
<rect x="310.5" y="834.5" width="98" height="43" stroke="black" stroke-width="5"/>
</g>
<g style="mix-blend-mode:hard-light" filter="url(#filter8_d_2_5032)">
<path d="M338 854H336V858H338V854ZM382.414 857.414C383.195 856.633 383.195 855.367 382.414 854.586L369.686 841.858C368.905 841.077 367.639 841.077 366.858 841.858C366.077 842.639 366.077 843.905 366.858 844.686L378.172 856L366.858 867.314C366.077 868.095 366.077 869.361 366.858 870.142C367.639 870.923 368.905 870.923 369.686 870.142L382.414 857.414ZM338 858H381V854H338V858Z" fill="black"/>
</g>
<path d="M312.483 836.547V832H406.517V836.547H410V874.947H406.517V880H312.483V874.947H309V836.547H312.483Z" stroke="black" stroke-width="4"/>
<path d="M369 844L366.5 841.5" stroke="black" stroke-width="4"/>
<path d="M370 867L366.5 870.5" stroke="black" stroke-width="4"/>
<g filter="url(#filter9_d_2_5032)">
<rect x="37" y="521" width="352" height="65" fill="#FFC700"/>
<rect x="35.5" y="519.5" width="355" height="68" stroke="black" stroke-width="3"/>
</g>
<g filter="url(#filter10_d_2_5032)">
<rect x="38" y="428" width="352" height="65" fill="#FFC700"/>
<rect x="36.5" y="426.5" width="355" height="68" stroke="black" stroke-width="3"/>
</g>
<g filter="url(#filter11_d_2_5032)">
<rect x="59" y="527" width="296" height="40" fill="#FFA800"/>
</g>
<g filter="url(#filter12_d_2_5032)">
<rect x="60" y="434" width="296" height="40" fill="#FFA800"/>
</g>
<g filter="url(#filter13_d_2_5032)">
<rect x="41" y="527" width="344" height="53" fill="#FAF1AC"/>
</g>
<g filter="url(#filter14_d_2_5032)">
<rect x="42" y="434" width="344" height="53" fill="#FAF1AC"/>
</g>
<path opacity="0.75" d="M90 466H97.5V476H107.5V466H105V461H107.5V453.5H105V451H97.5H90H80V476H90V466ZM90 456H97.5V461H90V456ZM134.98 473.5H137.48V453.5H134.98V451H112.48V453.5H109.98V473.5H112.48V476H134.98V473.5ZM127.48 466V471H119.98V456H127.48V461V466ZM164.961 473.5H167.461V453.5H164.961V451H142.461V453.5H139.961V473.5H142.461V476H164.961V473.5ZM157.461 466V471H149.961V456H157.461V461V466ZM179.941 463.5H182.441V466H184.941V468.5H187.441V466H189.941V463.5H192.441V476H202.441V451H192.441V453.5H189.941V456H187.441V458.5H184.941V456H182.441V453.5H179.941V451H169.941V476H179.941V463.5ZM247.432 473.5H249.932V466H247.432H239.932V471H232.432V456H239.932V461H249.932V453.5H247.432V451H232.432H224.932V453.5H222.432V473.5H224.932V476H247.432V473.5ZM277.412 473.5H279.912V453.5H277.412V451H254.912V453.5H252.412V473.5H254.912V476H277.412V473.5ZM269.912 466V471H262.412V456H269.912V461V466ZM304.893 473.5H307.393V471H309.893V456H307.393V453.5H304.893V451H299.893H297.393H282.393V476H304.893V473.5ZM297.393 458.5H299.893V468.5H297.393V471H292.393V456H297.393V458.5ZM314.873 476H339.873V471H322.373V466H329.873V461H322.373V456H339.873V451H314.873V453.5H312.373V473.5H314.873V476Z" fill="black"/>
<path opacity="0.75" d="M81 566.5H83.5V559H81H73.5V564H66V549H73.5V554H83.5V546.5H81V544H66H58.5V546.5H56V566.5H58.5V569H81V566.5ZM95.9805 559H103.48V569H113.48V559H110.98V554H113.48V546.5H110.98V544H103.48H95.9805H85.9805V569H95.9805V559ZM95.9805 549H103.48V554H95.9805V549ZM118.461 569H143.461V564H125.961V559H133.461V554H125.961V549H143.461V544H118.461V546.5H115.961V566.5H118.461V569ZM155.941 559H163.441V569H173.441V546.5H170.941V544H163.441H148.441V546.5H145.941V569H155.941V559ZM155.941 549H163.441V554H155.941V549ZM193.422 549H200.922V544H175.922V549H183.422V569H193.422V549ZM205.912 569H230.912V564H213.412V559H220.912V554H213.412V549H230.912V544H205.912V546.5H203.412V566.5H205.912V569ZM260.873 559H268.373V569H278.373V559H275.873V554H278.373V546.5H275.873V544H268.373H260.873H250.873V569H260.873V559ZM260.873 549H268.373V554H260.873V549ZM305.854 566.5H308.354V546.5H305.854V544H283.354V546.5H280.854V566.5H283.354V569H305.854V566.5ZM298.354 559V564H290.854V549H298.354V554V559ZM335.834 566.5H338.334V546.5H335.834V544H313.334V546.5H310.834V566.5H313.334V569H335.834V566.5ZM328.334 559V564H320.834V549H328.334V554V559ZM350.814 556.5H353.314V559H355.814V561.5H358.314V559H360.814V556.5H363.314V569H373.314V544H363.314V546.5H360.814V549H358.314V551.5H355.814V549H353.314V546.5H350.814V544H340.814V569H350.814V556.5Z" fill="black"/>
<g filter="url(#filter15_d_2_5032)">
<rect x="146" y="642" width="135" height="85.1875" fill="#FFC700"/>
<rect x="144.5" y="640.5" width="138" height="88.1875" stroke="black" stroke-width="3"/>
</g>
<g filter="url(#filter16_d_2_5032)">
<rect x="148.813" y="647.438" width="129.375" height="72.5" fill="#FAF1AC"/>
</g>
<path opacity="0.75" d="M179 657H182V661H186V657H185V655H186V652H185V651H182H179H175V661H179V657ZM179 653H182V655H179V653ZM196.992 660H197.992V652H196.992V651H187.992V652H186.992V660H187.992V661H196.992V660ZM193.992 657V659H190.992V653H193.992V655V657ZM208.984 660H209.984V651H205.984V659H202.984V651H198.984V660H199.984V661H208.984V660ZM214.977 656H215.977V657H216.977V658H217.977V661H221.977V651H217.977V654H216.977V653H215.977V652H214.977V651H210.977V661H214.977V656ZM231.969 660H232.969V659H233.969V653H232.969V652H231.969V651H229.969H228.969H222.969V661H231.969V660ZM228.969 654H229.969V658H228.969V659H226.969V653H228.969V654ZM234.961 661H244.961V660H245.961V656H244.961V655H241.961H238.961V653H245.961V651H235.961V652H234.961V656H235.961V657H241.961V659H234.961V661Z" fill="black"/>
<path opacity="0.75" d="M207 700H217V675H207V700Z" fill="black"/>
<g filter="url(#filter17_d_2_5032)">
<rect x="324" y="653" width="66.383" height="65" fill="#FFC700"/>
<rect x="322.5" y="651.5" width="69.383" height="68" stroke="black" stroke-width="3"/>
</g>
<g filter="url(#filter18_d_2_5032)">
<rect x="328.149" y="658.532" width="55.3191" height="40.1064" fill="#FFA800"/>
</g>
<g filter="url(#filter19_d_2_5032)">
<rect x="325.383" y="657.149" width="63.617" height="55.3191" fill="#FAF1AC"/>
</g>
<path opacity="0.75" d="M361.5 690H371.5V685H361.5V680H354V685H344V690H354V695H361.5V690Z" fill="black"/>
<g filter="url(#filter20_d_2_5032)">
<rect x="37" y="652" width="66.383" height="65" fill="#FFC700"/>
<rect x="35.5" y="650.5" width="69.383" height="68" stroke="black" stroke-width="3"/>
</g>
<g filter="url(#filter21_d_2_5032)">
<rect x="41.1489" y="657.532" width="55.3191" height="40.1064" fill="#FFA800"/>
</g>
<g filter="url(#filter22_d_2_5032)">
<rect x="38.383" y="656.149" width="63.617" height="55.3191" fill="#FAF1AC"/>
</g>
<path opacity="0.75" d="M56 689H83.5V684H56V689Z" fill="black"/>
</g>
<defs>
<filter id="filter0_b_2_5032" x="21" y="99" width="386" height="14" filterUnits="userSpaceOnUse" color-interpolation-filters="sRGB">
<feFlood flood-opacity="0" result="BackgroundImageFix"/>
<feGaussianBlur in="BackgroundImage" stdDeviation="2"/>
<feComposite in2="SourceAlpha" operator="in" result="effect1_backgroundBlur_2_5032"/>
<feBlend mode="normal" in="SourceGraphic" in2="effect1_backgroundBlur_2_5032" result="shape"/>
</filter>
<filter id="filter1_d_2_5032" x="304" y="832" width="111" height="56" filterUnits="userSpaceOnUse" color-interpolation-filters="sRGB">
<feFlood flood-opacity="0" result="BackgroundImageFix"/>
<feColorMatrix in="SourceAlpha" type="matrix" values="0 0 0 0 0 0 0 0 0 0 0 0 0 0 0 0 0 0 127 0" result="hardAlpha"/>
<feOffset dy="4"/>
<feGaussianBlur stdDeviation="2"/>
<feComposite in2="hardAlpha" operator="out"/>
<feColorMatrix type="matrix" values="0 0 0 0 0 0 0 0 0 0 0 0 0 0 0 0 0 0 0.25 0"/>
<feBlend mode="normal" in2="BackgroundImageFix" result="effect1_dropShadow_2_5032"/>
<feBlend mode="normal" in="SourceGraphic" in2="effect1_dropShadow_2_5032" result="shape"/>
</filter>
<filter id="filter2_d_2_5032" x="332" y="841.272" width="55" height="37.4558" filterUnits="userSpaceOnUse" color-interpolation-filters="sRGB">
<feFlood flood-opacity="0" result="BackgroundImageFix"/>
<feColorMatrix in="SourceAlpha" type="matrix" values="0 0 0 0 0 0 0 0 0 0 0 0 0 0 0 0 0 0 127 0" result="hardAlpha"/>
<feOffset dy="4"/>
<feGaussianBlur stdDeviation="2"/>
<feComposite in2="hardAlpha" operator="out"/>
<feColorMatrix type="matrix" values="0 0 0 0 0 0 0 0 0 0 0 0 0 0 0 0 0 0 0.25 0"/>
<feBlend mode="normal" in2="BackgroundImageFix" result="effect1_dropShadow_2_5032"/>
<feBlend mode="normal" in="SourceGraphic" in2="effect1_dropShadow_2_5032" result="shape"/>
</filter>
<filter id="filter3_d_2_5032" x="304" y="832" width="111" height="56" filterUnits="userSpaceOnUse" color-interpolation-filters="sRGB">
<feFlood flood-opacity="0" result="BackgroundImageFix"/>
<feColorMatrix in="SourceAlpha" type="matrix" values="0 0 0 0 0 0 0 0 0 0 0 0 0 0 0 0 0 0 127 0" result="hardAlpha"/>
<feOffset dy="4"/>
<feGaussianBlur stdDeviation="2"/>
<feComposite in2="hardAlpha" operator="out"/>
<feColorMatrix type="matrix" values="0 0 0 0 0 0 0 0 0 0 0 0 0 0 0 0 0 0 0.25 0"/>
<feBlend mode="normal" in2="BackgroundImageFix" result="effect1_dropShadow_2_5032"/>
<feBlend mode="normal" in="SourceGraphic" in2="effect1_dropShadow_2_5032" result="shape"/>
</filter>
<filter id="filter4_d_2_5032" x="332" y="841.272" width="55" height="37.4558" filterUnits="userSpaceOnUse" color-interpolation-filters="sRGB">
<feFlood flood-opacity="0" result="BackgroundImageFix"/>
<feColorMatrix in="SourceAlpha" type="matrix" values="0 0 0 0 0 0 0 0 0 0 0 0 0 0 0 0 0 0 127 0" result="hardAlpha"/>
<feOffset dy="4"/>
<feGaussianBlur stdDeviation="2"/>
<feComposite in2="hardAlpha" operator="out"/>
<feColorMatrix type="matrix" values="0 0 0 0 0 0 0 0 0 0 0 0 0 0 0 0 0 0 0.25 0"/>
<feBlend mode="normal" in2="BackgroundImageFix" result="effect1_dropShadow_2_5032"/>
<feBlend mode="normal" in="SourceGraphic" in2="effect1_dropShadow_2_5032" result="shape"/>
</filter>
<filter id="filter5_d_2_5032" x="304" y="832" width="111" height="56" filterUnits="userSpaceOnUse" color-interpolation-filters="sRGB">
<feFlood flood-opacity="0" result="BackgroundImageFix"/>
<feColorMatrix in="SourceAlpha" type="matrix" values="0 0 0 0 0 0 0 0 0 0 0 0 0 0 0 0 0 0 127 0" result="hardAlpha"/>
<feOffset dy="4"/>
<feGaussianBlur stdDeviation="2"/>
<feComposite in2="hardAlpha" operator="out"/>
<feColorMatrix type="matrix" values="0 0 0 0 0 0 0 0 0 0 0 0 0 0 0 0 0 0 0.25 0"/>
<feBlend mode="normal" in2="BackgroundImageFix" result="effect1_dropShadow_2_5032"/>
<feBlend mode="normal" in="SourceGraphic" in2="effect1_dropShadow_2_5032" result="shape"/>
</filter>
<filter id="filter6_d_2_5032" x="332" y="841.272" width="55" height="37.4558" filterUnits="userSpaceOnUse" color-interpolation-filters="sRGB">
<feFlood flood-opacity="0" result="BackgroundImageFix"/>
<feColorMatrix in="SourceAlpha" type="matrix" values="0 0 0 0 0 0 0 0 0 0 0 0 0 0 0 0 0 0 127 0" result="hardAlpha"/>
<feOffset dy="4"/>
<feGaussianBlur stdDeviation="2"/>
<feComposite in2="hardAlpha" operator="out"/>
<feColorMatrix type="matrix" values="0 0 0 0 0 0 0 0 0 0 0 0 0 0 0 0 0 0 0.25 0"/>
<feBlend mode="normal" in2="BackgroundImageFix" result="effect1_dropShadow_2_5032"/>
<feBlend mode="normal" in="SourceGraphic" in2="effect1_dropShadow_2_5032" result="shape"/>
</filter>
<filter id="filter7_d_2_5032" x="304" y="832" width="111" height="56" filterUnits="userSpaceOnUse" color-interpolation-filters="sRGB">
<feFlood flood-opacity="0" result="BackgroundImageFix"/>
<feColorMatrix in="SourceAlpha" type="matrix" values="0 0 0 0 0 0 0 0 0 0 0 0 0 0 0 0 0 0 127 0" result="hardAlpha"/>
<feOffset dy="4"/>
<feGaussianBlur stdDeviation="2"/>
<feComposite in2="hardAlpha" operator="out"/>
<feColorMatrix type="matrix" values="0 0 0 0 0 0 0 0 0 0 0 0 0 0 0 0 0 0 0.25 0"/>
<feBlend mode="normal" in2="BackgroundImageFix" result="effect1_dropShadow_2_5032"/>
<feBlend mode="normal" in="SourceGraphic" in2="effect1_dropShadow_2_5032" result="shape"/>
</filter>
<filter id="filter8_d_2_5032" x="332" y="841.272" width="55" height="37.4558" filterUnits="userSpaceOnUse" color-interpolation-filters="sRGB">
<feFlood flood-opacity="0" result="BackgroundImageFix"/>
<feColorMatrix in="SourceAlpha" type="matrix" values="0 0 0 0 0 0 0 0 0 0 0 0 0 0 0 0 0 0 127 0" result="hardAlpha"/>
<feOffset dy="4"/>
<feGaussianBlur stdDeviation="2"/>
<feComposite in2="hardAlpha" operator="out"/>
<feColorMatrix type="matrix" values="0 0 0 0 0 0 0 0 0 0 0 0 0 0 0 0 0 0 0.25 0"/>
<feBlend mode="normal" in2="BackgroundImageFix" result="effect1_dropShadow_2_5032"/>
<feBlend mode="normal" in="SourceGraphic" in2="effect1_dropShadow_2_5032" result="shape"/>
</filter>
<filter id="filter9_d_2_5032" x="30" y="518" width="366" height="79" filterUnits="userSpaceOnUse" color-interpolation-filters="sRGB">
<feFlood flood-opacity="0" result="BackgroundImageFix"/>
<feColorMatrix in="SourceAlpha" type="matrix" values="0 0 0 0 0 0 0 0 0 0 0 0 0 0 0 0 0 0 127 0" result="hardAlpha"/>
<feOffset dy="4"/>
<feGaussianBlur stdDeviation="2"/>
<feComposite in2="hardAlpha" operator="out"/>
<feColorMatrix type="matrix" values="0 0 0 0 0 0 0 0 0 0 0 0 0 0 0 0 0 0 0.25 0"/>
<feBlend mode="normal" in2="BackgroundImageFix" result="effect1_dropShadow_2_5032"/>
<feBlend mode="normal" in="SourceGraphic" in2="effect1_dropShadow_2_5032" result="shape"/>
</filter>
<filter id="filter10_d_2_5032" x="31" y="425" width="366" height="79" filterUnits="userSpaceOnUse" color-interpolation-filters="sRGB">
<feFlood flood-opacity="0" result="BackgroundImageFix"/>
<feColorMatrix in="SourceAlpha" type="matrix" values="0 0 0 0 0 0 0 0 0 0 0 0 0 0 0 0 0 0 127 0" result="hardAlpha"/>
<feOffset dy="4"/>
<feGaussianBlur stdDeviation="2"/>
<feComposite in2="hardAlpha" operator="out"/>
<feColorMatrix type="matrix" values="0 0 0 0 0 0 0 0 0 0 0 0 0 0 0 0 0 0 0.25 0"/>
<feBlend mode="normal" in2="BackgroundImageFix" result="effect1_dropShadow_2_5032"/>
<feBlend mode="normal" in="SourceGraphic" in2="effect1_dropShadow_2_5032" result="shape"/>
</filter>
<filter id="filter11_d_2_5032" x="55" y="527" width="304" height="48" filterUnits="userSpaceOnUse" color-interpolation-filters="sRGB">
<feFlood flood-opacity="0" result="BackgroundImageFix"/>
<feColorMatrix in="SourceAlpha" type="matrix" values="0 0 0 0 0 0 0 0 0 0 0 0 0 0 0 0 0 0 127 0" result="hardAlpha"/>
<feOffset dy="4"/>
<feGaussianBlur stdDeviation="2"/>
<feComposite in2="hardAlpha" operator="out"/>
<feColorMatrix type="matrix" values="0 0 0 0 0 0 0 0 0 0 0 0 0 0 0 0 0 0 0.25 0"/>
<feBlend mode="normal" in2="BackgroundImageFix" result="effect1_dropShadow_2_5032"/>
<feBlend mode="normal" in="SourceGraphic" in2="effect1_dropShadow_2_5032" result="shape"/>
</filter>
<filter id="filter12_d_2_5032" x="56" y="434" width="304" height="48" filterUnits="userSpaceOnUse" color-interpolation-filters="sRGB">
<feFlood flood-opacity="0" result="BackgroundImageFix"/>
<feColorMatrix in="SourceAlpha" type="matrix" values="0 0 0 0 0 0 0 0 0 0 0 0 0 0 0 0 0 0 127 0" result="hardAlpha"/>
<feOffset dy="4"/>
<feGaussianBlur stdDeviation="2"/>
<feComposite in2="hardAlpha" operator="out"/>
<feColorMatrix type="matrix" values="0 0 0 0 0 0 0 0 0 0 0 0 0 0 0 0 0 0 0.25 0"/>
<feBlend mode="normal" in2="BackgroundImageFix" result="effect1_dropShadow_2_5032"/>
<feBlend mode="normal" in="SourceGraphic" in2="effect1_dropShadow_2_5032" result="shape"/>
</filter>
<filter id="filter13_d_2_5032" x="37" y="527" width="352" height="61" filterUnits="userSpaceOnUse" color-interpolation-filters="sRGB">
<feFlood flood-opacity="0" result="BackgroundImageFix"/>
<feColorMatrix in="SourceAlpha" type="matrix" values="0 0 0 0 0 0 0 0 0 0 0 0 0 0 0 0 0 0 127 0" result="hardAlpha"/>
<feOffset dy="4"/>
<feGaussianBlur stdDeviation="2"/>
<feComposite in2="hardAlpha" operator="out"/>
<feColorMatrix type="matrix" values="0 0 0 0 0 0 0 0 0 0 0 0 0 0 0 0 0 0 0.25 0"/>
<feBlend mode="normal" in2="BackgroundImageFix" result="effect1_dropShadow_2_5032"/>
<feBlend mode="normal" in="SourceGraphic" in2="effect1_dropShadow_2_5032" result="shape"/>
</filter>
<filter id="filter14_d_2_5032" x="38" y="434" width="352" height="61" filterUnits="userSpaceOnUse" color-interpolation-filters="sRGB">
<feFlood flood-opacity="0" result="BackgroundImageFix"/>
<feColorMatrix in="SourceAlpha" type="matrix" values="0 0 0 0 0 0 0 0 0 0 0 0 0 0 0 0 0 0 127 0" result="hardAlpha"/>
<feOffset dy="4"/>
<feGaussianBlur stdDeviation="2"/>
<feComposite in2="hardAlpha" operator="out"/>
<feColorMatrix type="matrix" values="0 0 0 0 0 0 0 0 0 0 0 0 0 0 0 0 0 0 0.25 0"/>
<feBlend mode="normal" in2="BackgroundImageFix" result="effect1_dropShadow_2_5032"/>
<feBlend mode="normal" in="SourceGraphic" in2="effect1_dropShadow_2_5032" result="shape"/>
</filter>
<filter id="filter15_d_2_5032" x="139" y="639" width="149" height="99.1875" filterUnits="userSpaceOnUse" color-interpolation-filters="sRGB">
<feFlood flood-opacity="0" result="BackgroundImageFix"/>
<feColorMatrix in="SourceAlpha" type="matrix" values="0 0 0 0 0 0 0 0 0 0 0 0 0 0 0 0 0 0 127 0" result="hardAlpha"/>
<feOffset dy="4"/>
<feGaussianBlur stdDeviation="2"/>
<feComposite in2="hardAlpha" operator="out"/>
<feColorMatrix type="matrix" values="0 0 0 0 0 0 0 0 0 0 0 0 0 0 0 0 0 0 0.25 0"/>
<feBlend mode="normal" in2="BackgroundImageFix" result="effect1_dropShadow_2_5032"/>
<feBlend mode="normal" in="SourceGraphic" in2="effect1_dropShadow_2_5032" result="shape"/>
</filter>
<filter id="filter16_d_2_5032" x="144.813" y="647.438" width="137.375" height="80.5" filterUnits="userSpaceOnUse" color-interpolation-filters="sRGB">
<feFlood flood-opacity="0" result="BackgroundImageFix"/>
<feColorMatrix in="SourceAlpha" type="matrix" values="0 0 0 0 0 0 0 0 0 0 0 0 0 0 0 0 0 0 127 0" result="hardAlpha"/>
<feOffset dy="4"/>
<feGaussianBlur stdDeviation="2"/>
<feComposite in2="hardAlpha" operator="out"/>
<feColorMatrix type="matrix" values="0 0 0 0 0 0 0 0 0 0 0 0 0 0 0 0 0 0 0.25 0"/>
<feBlend mode="normal" in2="BackgroundImageFix" result="effect1_dropShadow_2_5032"/>
<feBlend mode="normal" in="SourceGraphic" in2="effect1_dropShadow_2_5032" result="shape"/>
</filter>
<filter id="filter17_d_2_5032" x="317" y="650" width="80.3829" height="79" filterUnits="userSpaceOnUse" color-interpolation-filters="sRGB">
<feFlood flood-opacity="0" result="BackgroundImageFix"/>
<feColorMatrix in="SourceAlpha" type="matrix" values="0 0 0 0 0 0 0 0 0 0 0 0 0 0 0 0 0 0 127 0" result="hardAlpha"/>
<feOffset dy="4"/>
<feGaussianBlur stdDeviation="2"/>
<feComposite in2="hardAlpha" operator="out"/>
<feColorMatrix type="matrix" values="0 0 0 0 0 0 0 0 0 0 0 0 0 0 0 0 0 0 0.25 0"/>
<feBlend mode="normal" in2="BackgroundImageFix" result="effect1_dropShadow_2_5032"/>
<feBlend mode="normal" in="SourceGraphic" in2="effect1_dropShadow_2_5032" result="shape"/>
</filter>
<filter id="filter18_d_2_5032" x="324.149" y="658.532" width="63.3191" height="48.1064" filterUnits="userSpaceOnUse" color-interpolation-filters="sRGB">
<feFlood flood-opacity="0" result="BackgroundImageFix"/>
<feColorMatrix in="SourceAlpha" type="matrix" values="0 0 0 0 0 0 0 0 0 0 0 0 0 0 0 0 0 0 127 0" result="hardAlpha"/>
<feOffset dy="4"/>
<feGaussianBlur stdDeviation="2"/>
<feComposite in2="hardAlpha" operator="out"/>
<feColorMatrix type="matrix" values="0 0 0 0 0 0 0 0 0 0 0 0 0 0 0 0 0 0 0.25 0"/>
<feBlend mode="normal" in2="BackgroundImageFix" result="effect1_dropShadow_2_5032"/>
<feBlend mode="normal" in="SourceGraphic" in2="effect1_dropShadow_2_5032" result="shape"/>
</filter>
<filter id="filter19_d_2_5032" x="321.383" y="657.149" width="71.6171" height="63.3192" filterUnits="userSpaceOnUse" color-interpolation-filters="sRGB">
<feFlood flood-opacity="0" result="BackgroundImageFix"/>
<feColorMatrix in="SourceAlpha" type="matrix" values="0 0 0 0 0 0 0 0 0 0 0 0 0 0 0 0 0 0 127 0" result="hardAlpha"/>
<feOffset dy="4"/>
<feGaussianBlur stdDeviation="2"/>
<feComposite in2="hardAlpha" operator="out"/>
<feColorMatrix type="matrix" values="0 0 0 0 0 0 0 0 0 0 0 0 0 0 0 0 0 0 0.25 0"/>
<feBlend mode="normal" in2="BackgroundImageFix" result="effect1_dropShadow_2_5032"/>
<feBlend mode="normal" in="SourceGraphic" in2="effect1_dropShadow_2_5032" result="shape"/>
</filter>
<filter id="filter20_d_2_5032" x="30" y="649" width="80.383" height="79" filterUnits="userSpaceOnUse" color-interpolation-filters="sRGB">
<feFlood flood-opacity="0" result="BackgroundImageFix"/>
<feColorMatrix in="SourceAlpha" type="matrix" values="0 0 0 0 0 0 0 0 0 0 0 0 0 0 0 0 0 0 127 0" result="hardAlpha"/>
<feOffset dy="4"/>
<feGaussianBlur stdDeviation="2"/>
<feComposite in2="hardAlpha" operator="out"/>
<feColorMatrix type="matrix" values="0 0 0 0 0 0 0 0 0 0 0 0 0 0 0 0 0 0 0.25 0"/>
<feBlend mode="normal" in2="BackgroundImageFix" result="effect1_dropShadow_2_5032"/>
<feBlend mode="normal" in="SourceGraphic" in2="effect1_dropShadow_2_5032" result="shape"/>
</filter>
<filter id="filter21_d_2_5032" x="37.1489" y="657.532" width="63.3192" height="48.1064" filterUnits="userSpaceOnUse" color-interpolation-filters="sRGB">
<feFlood flood-opacity="0" result="BackgroundImageFix"/>
<feColorMatrix in="SourceAlpha" type="matrix" values="0 0 0 0 0 0 0 0 0 0 0 0 0 0 0 0 0 0 127 0" result="hardAlpha"/>
<feOffset dy="4"/>
<feGaussianBlur stdDeviation="2"/>
<feComposite in2="hardAlpha" operator="out"/>
<feColorMatrix type="matrix" values="0 0 0 0 0 0 0 0 0 0 0 0 0 0 0 0 0 0 0.25 0"/>
<feBlend mode="normal" in2="BackgroundImageFix" result="effect1_dropShadow_2_5032"/>
<feBlend mode="normal" in="SourceGraphic" in2="effect1_dropShadow_2_5032" result="shape"/>
</filter>
<filter id="filter22_d_2_5032" x="34.383" y="656.149" width="71.617" height="63.3192" filterUnits="userSpaceOnUse" color-interpolation-filters="sRGB">
<feFlood flood-opacity="0" result="BackgroundImageFix"/>
<feColorMatrix in="SourceAlpha" type="matrix" values="0 0 0 0 0 0 0 0 0 0 0 0 0 0 0 0 0 0 127 0" result="hardAlpha"/>
<feOffset dy="4"/>
<feGaussianBlur stdDeviation="2"/>
<feComposite in2="hardAlpha" operator="out"/>
<feColorMatrix type="matrix" values="0 0 0 0 0 0 0 0 0 0 0 0 0 0 0 0 0 0 0.25 0"/>
<feBlend mode="normal" in2="BackgroundImageFix" result="effect1_dropShadow_2_5032"/>
<feBlend mode="normal" in="SourceGraphic" in2="effect1_dropShadow_2_5032" result="shape"/>
</filter>
<clipPath id="clip0_2_5032">
<rect width="428" height="926" fill="white"/>
</clipPath>
</defs>
</svg>
