<svg width="428" height="926" viewBox="0 0 428 926" fill="none" xmlns="http://www.w3.org/2000/svg">
<g clip-path="url(#clip0_2_2585)">
<rect width="428" height="926" fill="#A4BBD6"/>
<g filter="url(#filter0_d_2_2585)">
<path d="M38 379H63V376.5H65.5V366.5H63V364H55.5H48V359H65.5V354H40.5V356.5H38V366.5H40.5V369H55.5V374H38V379ZM77.9805 371.5H80.4805V374H82.9805V376.5H85.4805V379H97.9805V374H95.4805V371.5H92.9805V369H90.4805V364H92.9805V361.5H95.4805V359H97.9805V354H95.4805H85.4805V356.5H82.9805V359H80.4805V361.5H77.9805V354H67.9805V379H77.9805V371.5ZM110.5 369H118V379H128V369H125.5V364H128V356.5H125.5V354H118H110.5H100.5V379H110.5V369ZM110.5 359H118V364H110.5V359ZM130.48 359H137.98V374H130.48V379H155.48V374H147.98V359H155.48V354H130.48V359ZM182.971 376.5H185.471V369H182.971V364H185.471V356.5H182.971V354H167.971H157.971V379H182.971V376.5ZM167.971 369H175.471V374H167.971V369ZM167.971 359H175.471V364H167.971V359ZM212.951 376.5H215.451V369H212.951V364H215.451V356.5H212.951V354H197.951H187.951V379H212.951V376.5ZM197.951 369H205.451V374H197.951V369ZM197.951 359H205.451V364H197.951V359ZM217.932 379H245.432V374H227.932V354H217.932V379ZM290.393 376.5H292.893V366.5H290.393V364H277.893V369H282.893V374H275.393V359H292.893V354H267.893V356.5H265.393V376.5H267.893V379H290.393V376.5ZM305.373 369H312.873V379H322.873V356.5H320.373V354H312.873H297.873V356.5H295.373V379H305.373V369ZM305.373 359H312.873V364H305.373V359ZM335.354 366.5H337.854V369H340.354V371.5H342.854V369H345.354V366.5H347.854V379H357.854V354H347.854V356.5H345.354V359H342.854V361.5H340.354V359H337.854V356.5H335.354V354H325.354V379H335.354V366.5ZM362.863 379H387.863V374H370.363V369H377.863V364H370.363V359H387.863V354H362.863V356.5H360.363V376.5H362.863V379Z" fill="#FFC700"/>
<path d="M38 379H36V381H38V379ZM63 379V381H65V379H63ZM63 376.5V374.5H61V376.5H63ZM65.5 376.5V378.5H67.5V376.5H65.5ZM65.5 366.5H67.5V364.5H65.5V366.5ZM63 366.5H61V368.5H63V366.5ZM63 364H65V362H63V364ZM48 364H46V366H48V364ZM48 359V357H46V359H48ZM65.5 359V361H67.5V359H65.5ZM65.5 354H67.5V352H65.5V354ZM40.5 354V352H38.5V354H40.5ZM40.5 356.5V358.5H42.5V356.5H40.5ZM38 356.5V354.5H36V356.5H38ZM38 366.5H36V368.5H38V366.5ZM40.5 366.5H42.5V364.5H40.5V366.5ZM40.5 369H38.5V371H40.5V369ZM55.5 369H57.5V367H55.5V369ZM55.5 374V376H57.5V374H55.5ZM38 374V372H36V374H38ZM38 381H63V377H38V381ZM65 379V376.5H61V379H65ZM63 378.5H65.5V374.5H63V378.5ZM67.5 376.5V366.5H63.5V376.5H67.5ZM65.5 364.5H63V368.5H65.5V364.5ZM65 366.5V364H61V366.5H65ZM63 362H55.5V366H63V362ZM55.5 362H48V366H55.5V362ZM50 364V359H46V364H50ZM48 361H65.5V357H48V361ZM67.5 359V354H63.5V359H67.5ZM65.5 352H40.5V356H65.5V352ZM38.5 354V356.5H42.5V354H38.5ZM40.5 354.5H38V358.5H40.5V354.5ZM36 356.5V366.5H40V356.5H36ZM38 368.5H40.5V364.5H38V368.5ZM38.5 366.5V369H42.5V366.5H38.5ZM40.5 371H55.5V367H40.5V371ZM53.5 369V374H57.5V369H53.5ZM55.5 372H38V376H55.5V372ZM36 374V379H40V374H36ZM77.9805 371.5V369.5H75.9805V371.5H77.9805ZM80.4805 371.5H82.4805V369.5H80.4805V371.5ZM80.4805 374H78.4805V376H80.4805V374ZM82.9805 374H84.9805V372H82.9805V374ZM82.9805 376.5H80.9805V378.5H82.9805V376.5ZM85.4805 376.5H87.4805V374.5H85.4805V376.5ZM85.4805 379H83.4805V381H85.4805V379ZM97.9805 379V381H99.9805V379H97.9805ZM97.9805 374H99.9805V372H97.9805V374ZM95.4805 374H93.4805V376H95.4805V374ZM95.4805 371.5H97.4805V369.5H95.4805V371.5ZM92.9805 371.5H90.9805V373.5H92.9805V371.5ZM92.9805 369H94.9805V367H92.9805V369ZM90.4805 369H88.4805V371H90.4805V369ZM90.4805 364V362H88.4805V364H90.4805ZM92.9805 364V366H94.9805V364H92.9805ZM92.9805 361.5V359.5H90.9805V361.5H92.9805ZM95.4805 361.5V363.5H97.4805V361.5H95.4805ZM95.4805 359V357H93.4805V359H95.4805ZM97.9805 359V361H99.9805V359H97.9805ZM97.9805 354H99.9805V352H97.9805V354ZM85.4805 354V352H83.4805V354H85.4805ZM85.4805 356.5V358.5H87.4805V356.5H85.4805ZM82.9805 356.5V354.5H80.9805V356.5H82.9805ZM82.9805 359V361H84.9805V359H82.9805ZM80.4805 359V357H78.4805V359H80.4805ZM80.4805 361.5V363.5H82.4805V361.5H80.4805ZM77.9805 361.5H75.9805V363.5H77.9805V361.5ZM77.9805 354H79.9805V352H77.9805V354ZM67.9805 354V352H65.9805V354H67.9805ZM67.9805 379H65.9805V381H67.9805V379ZM77.9805 379V381H79.9805V379H77.9805ZM77.9805 373.5H80.4805V369.5H77.9805V373.5ZM78.4805 371.5V374H82.4805V371.5H78.4805ZM80.4805 376H82.9805V372H80.4805V376ZM80.9805 374V376.5H84.9805V374H80.9805ZM82.9805 378.5H85.4805V374.5H82.9805V378.5ZM83.4805 376.5V379H87.4805V376.5H83.4805ZM85.4805 381H97.9805V377H85.4805V381ZM99.9805 379V374H95.9805V379H99.9805ZM97.9805 372H95.4805V376H97.9805V372ZM97.4805 374V371.5H93.4805V374H97.4805ZM95.4805 369.5H92.9805V373.5H95.4805V369.5ZM94.9805 371.5V369H90.9805V371.5H94.9805ZM92.9805 367H90.4805V371H92.9805V367ZM92.4805 369V364H88.4805V369H92.4805ZM90.4805 366H92.9805V362H90.4805V366ZM94.9805 364V361.5H90.9805V364H94.9805ZM92.9805 363.5H95.4805V359.5H92.9805V363.5ZM97.4805 361.5V359H93.4805V361.5H97.4805ZM95.4805 361H97.9805V357H95.4805V361ZM99.9805 359V354H95.9805V359H99.9805ZM97.9805 352H95.4805V356H97.9805V352ZM95.4805 352H85.4805V356H95.4805V352ZM83.4805 354V356.5H87.4805V354H83.4805ZM85.4805 354.5H82.9805V358.5H85.4805V354.5ZM80.9805 356.5V359H84.9805V356.5H80.9805ZM82.9805 357H80.4805V361H82.9805V357ZM78.4805 359V361.5H82.4805V359H78.4805ZM80.4805 359.5H77.9805V363.5H80.4805V359.5ZM79.9805 361.5V354H75.9805V361.5H79.9805ZM77.9805 352H67.9805V356H77.9805V352ZM65.9805 354V379H69.9805V354H65.9805ZM67.9805 381H77.9805V377H67.9805V381ZM79.9805 379V371.5H75.9805V379H79.9805ZM110.5 369V367H108.5V369H110.5ZM118 369H120V367H118V369ZM118 379H116V381H118V379ZM128 379V381H130V379H128ZM128 369H130V367H128V369ZM125.5 369H123.5V371H125.5V369ZM125.5 364V362H123.5V364H125.5ZM128 364V366H130V364H128ZM128 356.5H130V354.5H128V356.5ZM125.5 356.5H123.5V358.5H125.5V356.5ZM125.5 354H127.5V352H125.5V354ZM100.5 354V352H98.5V354H100.5ZM100.5 379H98.5V381H100.5V379ZM110.5 379V381H112.5V379H110.5ZM110.5 359V357H108.5V359H110.5ZM118 359H120V357H118V359ZM118 364V366H120V364H118ZM110.5 364H108.5V366H110.5V364ZM110.5 371H118V367H110.5V371ZM116 369V379H120V369H116ZM118 381H128V377H118V381ZM130 379V369H126V379H130ZM128 367H125.5V371H128V367ZM127.5 369V364H123.5V369H127.5ZM125.5 366H128V362H125.5V366ZM130 364V356.5H126V364H130ZM128 354.5H125.5V358.5H128V354.5ZM127.5 356.5V354H123.5V356.5H127.5ZM125.5 352H118V356H125.5V352ZM118 352H110.5V356H118V352ZM110.5 352H100.5V356H110.5V352ZM98.5 354V379H102.5V354H98.5ZM100.5 381H110.5V377H100.5V381ZM112.5 379V369H108.5V379H112.5ZM110.5 361H118V357H110.5V361ZM116 359V364H120V359H116ZM118 362H110.5V366H118V362ZM112.5 364V359H108.5V364H112.5ZM130.48 359H128.48V361H130.48V359ZM137.98 359H139.98V357H137.98V359ZM137.98 374V376H139.98V374H137.98ZM130.48 374V372H128.48V374H130.48ZM130.48 379H128.48V381H130.48V379ZM155.48 379V381H157.48V379H155.48ZM155.48 374H157.48V372H155.48V374ZM147.98 374H145.98V376H147.98V374ZM147.98 359V357H145.98V359H147.98ZM155.48 359V361H157.48V359H155.48ZM155.48 354H157.48V352H155.48V354ZM130.48 354V352H128.48V354H130.48ZM130.48 361H137.98V357H130.48V361ZM135.98 359V374H139.98V359H135.98ZM137.98 372H130.48V376H137.98V372ZM128.48 374V379H132.48V374H128.48ZM130.48 381H155.48V377H130.48V381ZM157.48 379V374H153.48V379H157.48ZM155.48 372H147.98V376H155.48V372ZM149.98 374V359H145.98V374H149.98ZM147.98 361H155.48V357H147.98V361ZM157.48 359V354H153.48V359H157.48ZM155.48 352H130.48V356H155.48V352ZM128.48 354V359H132.48V354H128.48ZM182.971 376.5V374.5H180.971V376.5H182.971ZM185.471 376.5V378.5H187.471V376.5H185.471ZM185.471 369H187.471V367H185.471V369ZM182.971 369H180.971V371H182.971V369ZM182.971 364V362H180.971V364H182.971ZM185.471 364V366H187.471V364H185.471ZM185.471 356.5H187.471V354.5H185.471V356.5ZM182.971 356.5H180.971V358.5H182.971V356.5ZM182.971 354H184.971V352H182.971V354ZM157.971 354V352H155.971V354H157.971ZM157.971 379H155.971V381H157.971V379ZM182.971 379V381H184.971V379H182.971ZM167.971 369V367H165.971V369H167.971ZM175.471 369H177.471V367H175.471V369ZM175.471 374V376H177.471V374H175.471ZM167.971 374H165.971V376H167.971V374ZM167.971 359V357H165.971V359H167.971ZM175.471 359H177.471V357H175.471V359ZM175.471 364V366H177.471V364H175.471ZM167.971 364H165.971V366H167.971V364ZM182.971 378.5H185.471V374.5H182.971V378.5ZM187.471 376.5V369H183.471V376.5H187.471ZM185.471 367H182.971V371H185.471V367ZM184.971 369V364H180.971V369H184.971ZM182.971 366H185.471V362H182.971V366ZM187.471 364V356.5H183.471V364H187.471ZM185.471 354.5H182.971V358.5H185.471V354.5ZM184.971 356.5V354H180.971V356.5H184.971ZM182.971 352H167.971V356H182.971V352ZM167.971 352H157.971V356H167.971V352ZM155.971 354V379H159.971V354H155.971ZM157.971 381H182.971V377H157.971V381ZM184.971 379V376.5H180.971V379H184.971ZM167.971 371H175.471V367H167.971V371ZM173.471 369V374H177.471V369H173.471ZM175.471 372H167.971V376H175.471V372ZM169.971 374V369H165.971V374H169.971ZM167.971 361H175.471V357H167.971V361ZM173.471 359V364H177.471V359H173.471ZM175.471 362H167.971V366H175.471V362ZM169.971 364V359H165.971V364H169.971ZM212.951 376.5V374.5H210.951V376.5H212.951ZM215.451 376.5V378.5H217.451V376.5H215.451ZM215.451 369H217.451V367H215.451V369ZM212.951 369H210.951V371H212.951V369ZM212.951 364V362H210.951V364H212.951ZM215.451 364V366H217.451V364H215.451ZM215.451 356.5H217.451V354.5H215.451V356.5ZM212.951 356.5H210.951V358.5H212.951V356.5ZM212.951 354H214.951V352H212.951V354ZM187.951 354V352H185.951V354H187.951ZM187.951 379H185.951V381H187.951V379ZM212.951 379V381H214.951V379H212.951ZM197.951 369V367H195.951V369H197.951ZM205.451 369H207.451V367H205.451V369ZM205.451 374V376H207.451V374H205.451ZM197.951 374H195.951V376H197.951V374ZM197.951 359V357H195.951V359H197.951ZM205.451 359H207.451V357H205.451V359ZM205.451 364V366H207.451V364H205.451ZM197.951 364H195.951V366H197.951V364ZM212.951 378.5H215.451V374.5H212.951V378.5ZM217.451 376.5V369H213.451V376.5H217.451ZM215.451 367H212.951V371H215.451V367ZM214.951 369V364H210.951V369H214.951ZM212.951 366H215.451V362H212.951V366ZM217.451 364V356.5H213.451V364H217.451ZM215.451 354.5H212.951V358.5H215.451V354.5ZM214.951 356.5V354H210.951V356.5H214.951ZM212.951 352H197.951V356H212.951V352ZM197.951 352H187.951V356H197.951V352ZM185.951 354V379H189.951V354H185.951ZM187.951 381H212.951V377H187.951V381ZM214.951 379V376.5H210.951V379H214.951ZM197.951 371H205.451V367H197.951V371ZM203.451 369V374H207.451V369H203.451ZM205.451 372H197.951V376H205.451V372ZM199.951 374V369H195.951V374H199.951ZM197.951 361H205.451V357H197.951V361ZM203.451 359V364H207.451V359H203.451ZM205.451 362H197.951V366H205.451V362ZM199.951 364V359H195.951V364H199.951ZM217.932 379H215.932V381H217.932V379ZM245.432 379V381H247.432V379H245.432ZM245.432 374H247.432V372H245.432V374ZM227.932 374H225.932V376H227.932V374ZM227.932 354H229.932V352H227.932V354ZM217.932 354V352H215.932V354H217.932ZM217.932 381H245.432V377H217.932V381ZM247.432 379V374H243.432V379H247.432ZM245.432 372H227.932V376H245.432V372ZM229.932 374V354H225.932V374H229.932ZM227.932 352H217.932V356H227.932V352ZM215.932 354V379H219.932V354H215.932ZM290.393 376.5V374.5H288.393V376.5H290.393ZM292.893 376.5V378.5H294.893V376.5H292.893ZM292.893 366.5H294.893V364.5H292.893V366.5ZM290.393 366.5H288.393V368.5H290.393V366.5ZM290.393 364H292.393V362H290.393V364ZM277.893 364V362H275.893V364H277.893ZM277.893 369H275.893V371H277.893V369ZM282.893 369H284.893V367H282.893V369ZM282.893 374V376H284.893V374H282.893ZM275.393 374H273.393V376H275.393V374ZM275.393 359V357H273.393V359H275.393ZM292.893 359V361H294.893V359H292.893ZM292.893 354H294.893V352H292.893V354ZM267.893 354V352H265.893V354H267.893ZM267.893 356.5V358.5H269.893V356.5H267.893ZM265.393 356.5V354.5H263.393V356.5H265.393ZM265.393 376.5H263.393V378.5H265.393V376.5ZM267.893 376.5H269.893V374.5H267.893V376.5ZM267.893 379H265.893V381H267.893V379ZM290.393 379V381H292.393V379H290.393ZM290.393 378.5H292.893V374.5H290.393V378.5ZM294.893 376.5V366.5H290.893V376.5H294.893ZM292.893 364.5H290.393V368.5H292.893V364.5ZM292.393 366.5V364H288.393V366.5H292.393ZM290.393 362H277.893V366H290.393V362ZM275.893 364V369H279.893V364H275.893ZM277.893 371H282.893V367H277.893V371ZM280.893 369V374H284.893V369H280.893ZM282.893 372H275.393V376H282.893V372ZM277.393 374V359H273.393V374H277.393ZM275.393 361H292.893V357H275.393V361ZM294.893 359V354H290.893V359H294.893ZM292.893 352H267.893V356H292.893V352ZM265.893 354V356.5H269.893V354H265.893ZM267.893 354.5H265.393V358.5H267.893V354.5ZM263.393 356.5V376.5H267.393V356.5H263.393ZM265.393 378.5H267.893V374.5H265.393V378.5ZM265.893 376.5V379H269.893V376.5H265.893ZM267.893 381H290.393V377H267.893V381ZM292.393 379V376.5H288.393V379H292.393ZM305.373 369V367H303.373V369H305.373ZM312.873 369H314.873V367H312.873V369ZM312.873 379H310.873V381H312.873V379ZM322.873 379V381H324.873V379H322.873ZM322.873 356.5H324.873V354.5H322.873V356.5ZM320.373 356.5H318.373V358.5H320.373V356.5ZM320.373 354H322.373V352H320.373V354ZM297.873 354V352H295.873V354H297.873ZM297.873 356.5V358.5H299.873V356.5H297.873ZM295.373 356.5V354.5H293.373V356.5H295.373ZM295.373 379H293.373V381H295.373V379ZM305.373 379V381H307.373V379H305.373ZM305.373 359V357H303.373V359H305.373ZM312.873 359H314.873V357H312.873V359ZM312.873 364V366H314.873V364H312.873ZM305.373 364H303.373V366H305.373V364ZM305.373 371H312.873V367H305.373V371ZM310.873 369V379H314.873V369H310.873ZM312.873 381H322.873V377H312.873V381ZM324.873 379V356.5H320.873V379H324.873ZM322.873 354.5H320.373V358.5H322.873V354.5ZM322.373 356.5V354H318.373V356.5H322.373ZM320.373 352H312.873V356H320.373V352ZM312.873 352H297.873V356H312.873V352ZM295.873 354V356.5H299.873V354H295.873ZM297.873 354.5H295.373V358.5H297.873V354.5ZM293.373 356.5V379H297.373V356.5H293.373ZM295.373 381H305.373V377H295.373V381ZM307.373 379V369H303.373V379H307.373ZM305.373 361H312.873V357H305.373V361ZM310.873 359V364H314.873V359H310.873ZM312.873 362H305.373V366H312.873V362ZM307.373 364V359H303.373V364H307.373ZM335.354 366.5V364.5H333.354V366.5H335.354ZM337.854 366.5H339.854V364.5H337.854V366.5ZM337.854 369H335.854V371H337.854V369ZM340.354 369H342.354V367H340.354V369ZM340.354 371.5H338.354V373.5H340.354V371.5ZM342.854 371.5V373.5H344.854V371.5H342.854ZM342.854 369V367H340.854V369H342.854ZM345.354 369V371H347.354V369H345.354ZM345.354 366.5V364.5H343.354V366.5H345.354ZM347.854 366.5H349.854V364.5H347.854V366.5ZM347.854 379H345.854V381H347.854V379ZM357.854 379V381H359.854V379H357.854ZM357.854 354H359.854V352H357.854V354ZM347.854 354V352H345.854V354H347.854ZM347.854 356.5V358.5H349.854V356.5H347.854ZM345.354 356.5V354.5H343.354V356.5H345.354ZM345.354 359V361H347.354V359H345.354ZM342.854 359V357H340.854V359H342.854ZM342.854 361.5V363.5H344.854V361.5H342.854ZM340.354 361.5H338.354V363.5H340.354V361.5ZM340.354 359H342.354V357H340.354V359ZM337.854 359H335.854V361H337.854V359ZM337.854 356.5H339.854V354.5H337.854V356.5ZM335.354 356.5H333.354V358.5H335.354V356.5ZM335.354 354H337.354V352H335.354V354ZM325.354 354V352H323.354V354H325.354ZM325.354 379H323.354V381H325.354V379ZM335.354 379V381H337.354V379H335.354ZM335.354 368.5H337.854V364.5H335.354V368.5ZM335.854 366.5V369H339.854V366.5H335.854ZM337.854 371H340.354V367H337.854V371ZM338.354 369V371.5H342.354V369H338.354ZM340.354 373.5H342.854V369.5H340.354V373.5ZM344.854 371.5V369H340.854V371.5H344.854ZM342.854 371H345.354V367H342.854V371ZM347.354 369V366.5H343.354V369H347.354ZM345.354 368.5H347.854V364.5H345.354V368.5ZM345.854 366.5V379H349.854V366.5H345.854ZM347.854 381H357.854V377H347.854V381ZM359.854 379V354H355.854V379H359.854ZM357.854 352H347.854V356H357.854V352ZM345.854 354V356.5H349.854V354H345.854ZM347.854 354.5H345.354V358.5H347.854V354.5ZM343.354 356.5V359H347.354V356.5H343.354ZM345.354 357H342.854V361H345.354V357ZM340.854 359V361.5H344.854V359H340.854ZM342.854 359.5H340.354V363.5H342.854V359.5ZM342.354 361.5V359H338.354V361.5H342.354ZM340.354 357H337.854V361H340.354V357ZM339.854 359V356.5H335.854V359H339.854ZM337.854 354.5H335.354V358.5H337.854V354.5ZM337.354 356.5V354H333.354V356.5H337.354ZM335.354 352H325.354V356H335.354V352ZM323.354 354V379H327.354V354H323.354ZM325.354 381H335.354V377H325.354V381ZM337.354 379V366.5H333.354V379H337.354ZM362.863 379H360.863V381H362.863V379ZM387.863 379V381H389.863V379H387.863ZM387.863 374H389.863V372H387.863V374ZM370.363 374H368.363V376H370.363V374ZM370.363 369V367H368.363V369H370.363ZM377.863 369V371H379.863V369H377.863ZM377.863 364H379.863V362H377.863V364ZM370.363 364H368.363V366H370.363V364ZM370.363 359V357H368.363V359H370.363ZM387.863 359V361H389.863V359H387.863ZM387.863 354H389.863V352H387.863V354ZM362.863 354V352H360.863V354H362.863ZM362.863 356.5V358.5H364.863V356.5H362.863ZM360.363 356.5V354.5H358.363V356.5H360.363ZM360.363 376.5H358.363V378.5H360.363V376.5ZM362.863 376.5H364.863V374.5H362.863V376.5ZM362.863 381H387.863V377H362.863V381ZM389.863 379V374H385.863V379H389.863ZM387.863 372H370.363V376H387.863V372ZM372.363 374V369H368.363V374H372.363ZM370.363 371H377.863V367H370.363V371ZM379.863 369V364H375.863V369H379.863ZM377.863 362H370.363V366H377.863V362ZM372.363 364V359H368.363V364H372.363ZM370.363 361H387.863V357H370.363V361ZM389.863 359V354H385.863V359H389.863ZM387.863 352H362.863V356H387.863V352ZM360.863 354V356.5H364.863V354H360.863ZM362.863 354.5H360.363V358.5H362.863V354.5ZM358.363 356.5V376.5H362.363V356.5H358.363ZM360.363 378.5H362.863V374.5H360.363V378.5ZM360.863 376.5V379H364.863V376.5H360.863Z" fill="black"/>
</g>
<path d="M77.5 354.5H68.5V358.5H77.5V354.5Z" fill="#FCE740"/>
<path d="M97.5 354.5H86V357H83.5V358.5H97.5V354.5Z" fill="#FCE740"/>
<path d="M125 354.5H101V358.5H127V357H125V354.5Z" fill="#FCE740"/>
<path d="M155 354.5H131V358.5H155V354.5Z" fill="#FCE740"/>
<path d="M185 358.5H158.5V354.5H182.5V357H185V358.5Z" fill="#FCE740"/>
<path d="M212.5 354.5H188.5V358.5H215V357H212.5V354.5Z" fill="#FCE740"/>
<path d="M227 354.5H218.5V358.5H227.5V354.5H227Z" fill="#FCE740"/>
<path d="M292.5 358.5H266V358V357H268.5V354.5H292.5V358.5Z" fill="#FCE740"/>
<path d="M322.5 358.5H296V357H298.5V354.5H320V357H322.5V358.5Z" fill="#FCE740"/>
<path d="M326 354.5V358.5H337.5V357H335V354.5H326Z" fill="#FCE740"/>
<path d="M346 357V358.5H357.5V354.5H348.5V357H346Z" fill="#FCE740"/>
<path d="M387.5 358.5H361V357H363.5V354.5H387.5V358.5Z" fill="#FCE740"/>
<path d="M77.5 354.5H68.5V358.5H77.5V354.5Z" stroke="#FCE740"/>
<path d="M97.5 354.5H86V357H83.5V358.5H97.5V354.5Z" stroke="#FCE740"/>
<path d="M125 354.5H101V358.5H127V357H125V354.5Z" stroke="#FCE740"/>
<path d="M155 354.5H131V358.5H155V354.5Z" stroke="#FCE740"/>
<path d="M185 358.5H158.5V354.5H182.5V357H185V358.5Z" stroke="#FCE740"/>
<path d="M212.5 354.5H188.5V358.5H215V357H212.5V354.5Z" stroke="#FCE740"/>
<path d="M227 354.5H218.5V358.5H227.5V354.5H227Z" stroke="#FCE740"/>
<path d="M292.5 358.5H266V358V357H268.5V354.5H292.5V358.5Z" stroke="#FCE740"/>
<path d="M322.5 358.5H296V357H298.5V354.5H320V357H322.5V358.5Z" stroke="#FCE740"/>
<path d="M326 354.5V358.5H337.5V357H335V354.5H326Z" stroke="#FCE740"/>
<path d="M346 357V358.5H357.5V354.5H348.5V357H346Z" stroke="#FCE740"/>
<path d="M387.5 358.5H361V357H363.5V354.5H387.5V358.5Z" stroke="#FCE740"/>
<path d="M38.5 374.5V378.5H62.5V376H65V369.5H56V374.5H38.5Z" fill="#FFA800" stroke="#FFA800"/>
<path d="M110 369.5H101V378.5H110V369.5Z" fill="#FFA800"/>
<path d="M127.5 369.5H118.5V378.5H127.5V369.5Z" fill="#FFA800"/>
<path d="M147.5 369.5H138.5V374.5H131V378.5H155V374.5H147.5V369.5Z" fill="#FFA800"/>
<path d="M158.5 378.5V369.5H167.5V374.5H176V369.5H185V376H182.5V378.5H158.5Z" fill="#FFA800"/>
<path d="M188.5 378.5V369.5H197.5V374.5H206V369.5H215V376H212.5V378.5H188.5Z" fill="#FFA800"/>
<path d="M227.5 369.5H218.5V378.5H245V374.5H227.5V369.5Z" fill="#FFA800"/>
<path d="M275 369.5H266V376H268.5V378.5H290V376H292.5V369.5H283.5V374.5H275V369.5Z" fill="#FFA800"/>
<path d="M296 378.5V369.5H305V378.5H296Z" fill="#FFA800"/>
<path d="M322.5 369.5H313.5V378.5H322.5V369.5Z" fill="#FFA800"/>
<path d="M334.5 369.5H326V378.5H334.5V369.5Z" fill="#FFA800"/>
<path d="M357.5 369.5H348.5V378.5H357.5V369.5Z" fill="#FFA800"/>
<path d="M370 369.5H361V376H363.5V378.5H387V374.5H370V369.5Z" fill="#FFA800"/>
<path d="M110 369.5H101V378.5H110V369.5Z" stroke="#FFA800"/>
<path d="M127.5 369.5H118.5V378.5H127.5V369.5Z" stroke="#FFA800"/>
<path d="M147.5 369.5H138.5V374.5H131V378.5H155V374.5H147.5V369.5Z" stroke="#FFA800"/>
<path d="M158.5 378.5V369.5H167.5V374.5H176V369.5H185V376H182.5V378.5H158.5Z" stroke="#FFA800"/>
<path d="M188.5 378.5V369.5H197.5V374.5H206V369.5H215V376H212.5V378.5H188.5Z" stroke="#FFA800"/>
<path d="M227.5 369.5H218.5V378.5H245V374.5H227.5V369.5Z" stroke="#FFA800"/>
<path d="M275 369.5H266V376H268.5V378.5H290V376H292.5V369.5H283.5V374.5H275V369.5Z" stroke="#FFA800"/>
<path d="M296 378.5V369.5H305V378.5H296Z" stroke="#FFA800"/>
<path d="M322.5 369.5H313.5V378.5H322.5V369.5Z" stroke="#FFA800"/>
<path d="M334.5 369.5H326V378.5H334.5V369.5Z" stroke="#FFA800"/>
<path d="M357.5 369.5H348.5V378.5H357.5V369.5Z" stroke="#FFA800"/>
<path d="M370 369.5H361V376H363.5V378.5H387V374.5H370V369.5Z" stroke="#FFA800"/>
<path d="M65 354.5V358.5H38.5V357H41V354.5H65Z" fill="#FCE740" stroke="#FCE740"/>
<path d="M77.5 378.5H68.5V369.5H90H92.5V372H95V374.5H97.5V378.5H86V376H83.5V373.5H81V371H77.5V378.5Z" fill="#FFA800" stroke="#FFA800"/>
<g filter="url(#filter1_d_2_2585)">
<rect x="78" y="457" width="273" height="12" fill="#FFC700"/>
</g>
<g filter="url(#filter2_d_2_2585)">
<rect x="78" y="457" width="273" height="12" fill="black"/>
</g>
<g filter="url(#filter3_d_2_2585)">
<rect x="74" y="461" width="281" height="4" fill="#FFA800"/>
</g>
<g filter="url(#filter4_d_2_2585)">
<rect x="74" y="461" width="281" height="4" fill="black"/>
</g>
<g filter="url(#filter5_d_2_2585)">
<rect x="76" y="459" width="277" height="8" fill="#FAF1AC"/>
</g>
<g filter="url(#filter6_d_2_2585)">
<rect x="76" y="459" width="275" height="8" fill="url(#paint0_linear_2_2585)"/>
</g>
<path fill-rule="evenodd" clip-rule="evenodd" d="M329.804 17.5768H328.458C327.715 17.5768 327.112 18.158 327.112 18.8749V30.1249C327.112 30.8418 327.715 31.423 328.458 31.423H329.804C330.548 31.423 331.15 30.8418 331.15 30.1249V18.8749C331.15 18.158 330.548 17.5768 329.804 17.5768ZM322.123 20.6059H323.469C324.213 20.6059 324.816 21.187 324.816 21.9039V30.1251C324.816 30.842 324.213 31.4232 323.469 31.4232H322.123C321.38 31.4232 320.777 30.842 320.777 30.1251V21.9039C320.777 21.187 321.38 20.6059 322.123 20.6059ZM317.135 23.6345H315.788C315.045 23.6345 314.442 24.2156 314.442 24.9325V30.1248C314.442 30.8417 315.045 31.4229 315.788 31.4229H317.135C317.878 31.4229 318.481 30.8417 318.481 30.1248V24.9325C318.481 24.2156 317.878 23.6345 317.135 23.6345ZM310.8 26.2306H309.454C308.71 26.2306 308.107 26.8117 308.107 27.5286V30.1248C308.107 30.8417 308.71 31.4229 309.454 31.4229H310.8C311.543 31.4229 312.146 30.8417 312.146 30.1248V27.5286C312.146 26.8117 311.543 26.2306 310.8 26.2306Z" fill="black"/>
<path d="M341.982 31.4107C344.38 31.4107 346.068 29.8016 346.068 27.4669V27.4511C346.068 25.2662 344.538 23.6729 342.4 23.6729C341.351 23.6729 340.46 24.1146 339.979 24.8797H339.845L340.192 21.2514H345.421V19.7528H338.803L338.236 26.3626H339.758C339.892 26.1023 340.073 25.8815 340.278 25.7C340.728 25.2899 341.32 25.0848 342.014 25.0848C343.386 25.0848 344.38 26.0786 344.38 27.4826V27.4984C344.38 28.9261 343.402 29.9278 341.998 29.9278C340.752 29.9278 339.845 29.1312 339.695 28.1294L339.687 28.0663H338.03L338.038 28.1689C338.196 30.0146 339.742 31.4107 341.982 31.4107ZM353.107 31.4107C356.089 31.4107 358.021 29.5413 358.021 26.6544V25.2426H353.352V26.6702H356.278V26.9226C356.262 28.6737 354.993 29.8489 353.131 29.8489C350.994 29.8489 349.653 28.161 349.653 25.4398V25.424C349.653 22.7422 350.986 21.0385 353.092 21.0385C354.653 21.0385 355.742 21.7957 356.152 23.1445L356.176 23.2233H357.943L357.927 23.1445C357.517 20.9438 355.679 19.4767 353.092 19.4767C349.905 19.4767 347.846 21.8193 347.846 25.4319V25.4476C347.846 29.1075 349.881 31.4107 353.107 31.4107Z" fill="black"/>
<rect opacity="0.4" x="365.343" y="17.5769" width="27.6923" height="13.8462" rx="4.03846" stroke="black" stroke-width="1.15385"/>
<path opacity="0.5" d="M394.766 22.1923V26.8077C395.696 26.4168 396.3 25.5075 396.3 24.5C396.3 23.4925 395.696 22.5832 394.766 22.1923Z" fill="black"/>
<rect x="367.073" y="19.3077" width="19.6154" height="10.3846" rx="2.30769" fill="black"/>
<path d="M52.2676 11.001C49.5166 11.001 47.5566 12.8818 47.5566 15.457V15.4746C47.5566 17.8828 49.2617 19.6582 51.6963 19.6582C53.4365 19.6582 54.5439 18.7705 55.0098 17.7686H55.1855C55.1855 17.8652 55.1768 17.9619 55.1768 18.0586C55.0801 20.4844 54.2275 22.4531 52.2148 22.4531C51.0986 22.4531 50.3164 21.873 49.9824 20.9854L49.9561 20.8975H47.7236L47.7412 20.9941C48.1455 22.9365 49.8857 24.3164 52.2148 24.3164C55.4053 24.3164 57.3301 21.7852 57.3301 17.5137V17.4961C57.3301 12.9258 54.9746 11.001 52.2676 11.001ZM52.2588 17.918C50.8174 17.918 49.7715 16.8633 49.7715 15.3955V15.3779C49.7715 13.9629 50.8877 12.8467 52.2852 12.8467C53.6914 12.8467 54.79 13.9805 54.79 15.4307V15.4482C54.79 16.8809 53.6914 17.918 52.2588 17.918ZM60.8203 15.7822C61.6289 15.7822 62.2178 15.167 62.2178 14.3936C62.2178 13.6113 61.6289 13.0049 60.8203 13.0049C60.0205 13.0049 59.4229 13.6113 59.4229 14.3936C59.4229 15.167 60.0205 15.7822 60.8203 15.7822ZM60.8203 22.3037C61.6289 22.3037 62.2178 21.6973 62.2178 20.915C62.2178 20.1328 61.6289 19.5264 60.8203 19.5264C60.0205 19.5264 59.4229 20.1328 59.4229 20.915C59.4229 21.6973 60.0205 22.3037 60.8203 22.3037ZM70.4629 24H72.6338V21.5654H74.3389V19.6934H72.6338V11.3174H69.4258C67.7031 13.9365 65.9014 16.8545 64.2578 19.7109V21.5654H70.4629V24ZM66.3672 19.7461V19.6143C67.5977 17.4609 69.0654 15.1143 70.3662 13.1279H70.498V19.7461H66.3672ZM79.0947 24H81.3623V11.3174H79.1035L75.79 13.6465V15.7822L78.9453 13.5498H79.0947V24Z" fill="black"/>
<path d="M88.9448 17.937L94.2036 17.9517C94.2915 17.9517 94.3062 17.959 94.3062 18.0542L94.3208 23.291C94.3208 24.6533 96.042 24.9536 96.6426 23.6499L102.019 11.9751C102.656 10.5981 101.594 9.63867 100.246 10.2539L88.52 15.6519C87.3042 16.2085 87.5605 17.9297 88.9448 17.937Z" fill="black"/>
<path d="M25.376 41H26.6382L27.3418 38.9053H30.3066L31.0049 41H32.2725L29.4741 33.2495H28.1743L25.376 41ZM28.7759 34.6084H28.8672L29.9844 37.9385H27.6641L28.7759 34.6084ZM33.4913 42.9443H34.6569V40.0762H34.7428C35.0543 40.7046 35.7364 41.0967 36.5367 41.0967C38.0192 41.0967 38.9537 39.9365 38.9537 38.0889V38.0781C38.9537 36.2412 38.0084 35.0649 36.5367 35.0649C35.7203 35.0649 35.0812 35.4463 34.7428 36.0854H34.6569V35.167H33.4913V42.9443ZM36.2091 40.103C35.2369 40.103 34.6354 39.335 34.6354 38.0889V38.0781C34.6354 36.832 35.2369 36.064 36.2091 36.064C37.1813 36.064 37.7667 36.8213 37.7667 38.0781V38.0889C37.7667 39.3403 37.1813 40.103 36.2091 40.103ZM40.3606 42.9443H41.5261V40.0762H41.6121C41.9236 40.7046 42.6057 41.0967 43.406 41.0967C44.8884 41.0967 45.823 39.9365 45.823 38.0889V38.0781C45.823 36.2412 44.8777 35.0649 43.406 35.0649C42.5896 35.0649 41.9504 35.4463 41.6121 36.0854H41.5261V35.167H40.3606V42.9443ZM43.0784 40.103C42.1062 40.103 41.5046 39.335 41.5046 38.0889V38.0781C41.5046 36.832 42.1062 36.064 43.0784 36.064C44.0505 36.064 44.636 36.8213 44.636 38.0781V38.0889C44.636 39.3403 44.0505 40.103 43.0784 40.103ZM52.998 41.188C54.8027 41.188 55.9575 40.2642 55.9575 38.7817V38.7764C55.9575 37.627 55.2915 36.9717 53.664 36.6226L52.8208 36.4346C51.8164 36.2197 51.4082 35.8438 51.4082 35.269V35.2637C51.4082 34.5332 52.0796 34.1089 52.9873 34.1089C53.9272 34.1035 54.5342 34.5654 54.6362 35.1992L54.647 35.269H55.8125L55.8071 35.1938C55.7212 33.9907 54.647 33.0615 53.0034 33.0615C51.3598 33.0615 50.1997 33.9854 50.1943 35.3228V35.3281C50.1943 36.4722 50.8711 37.2026 52.4448 37.5356L53.2934 37.7183C54.3193 37.9385 54.7383 38.3252 54.7383 38.9214V38.9268C54.7383 39.6465 54.0346 40.1406 53.0464 40.1406C52.0097 40.1406 51.2632 39.6895 51.1987 38.9858L51.1933 38.9268H50.0117L50.0171 38.9966C50.1245 40.3018 51.2471 41.188 52.998 41.188ZM59.6148 41.0376C59.8404 41.0376 60.0553 41.0107 60.2433 40.9785V40.0493C60.0821 40.0654 59.9801 40.0708 59.8028 40.0708C59.2281 40.0708 58.9918 39.813 58.9918 39.1846V36.0854H60.2433V35.167H58.9918V33.6953H57.8048V35.167H56.8917V36.0854H57.8048V39.4639C57.8048 40.5864 58.3312 41.0376 59.6148 41.0376ZM64.0134 41.1128C65.7214 41.1128 66.7688 39.9688 66.7688 38.0889V38.0781C66.7688 36.1982 65.716 35.0542 64.0134 35.0542C62.3054 35.0542 61.2527 36.2036 61.2527 38.0781V38.0889C61.2527 39.9688 62.3 41.1128 64.0134 41.1128ZM64.0134 40.1406C63.009 40.1406 62.445 39.3833 62.445 38.0889V38.0781C62.445 36.7837 63.009 36.0264 64.0134 36.0264C65.0124 36.0264 65.5818 36.7837 65.5818 38.0781V38.0889C65.5818 39.3779 65.0124 40.1406 64.0134 40.1406ZM68.1649 41H69.3304V37.5142C69.3304 36.6709 69.9373 36.123 70.8289 36.123C71.0492 36.123 71.2479 36.1499 71.4574 36.1929V35.1187C71.3392 35.0918 71.1351 35.0649 70.9471 35.0649C70.1683 35.0649 69.6258 35.4302 69.4163 36.0479H69.3304V35.167H68.1649V41ZM74.873 41.1128C76.3662 41.1128 77.1718 40.2534 77.3652 39.4854L77.3759 39.437L76.2534 39.4424L76.2319 39.4854C76.0922 39.7861 75.6464 40.1567 74.8999 40.1567C73.9384 40.1567 73.3261 39.5068 73.3046 38.3896H77.4404V37.9814C77.4404 36.2305 76.4414 35.0542 74.8139 35.0542C73.1865 35.0542 72.1338 36.2734 72.1338 38.0942V38.0996C72.1338 39.9473 73.165 41.1128 74.873 41.1128ZM74.8193 36.0103C75.6088 36.0103 76.1943 36.5151 76.2856 37.5571H73.3208C73.4228 36.5527 74.0244 36.0103 74.8193 36.0103Z" fill="black"/>
<path d="M20.5234 33.8115C20.3345 33.8115 20.1851 33.8906 19.9785 33.9917L14.4326 36.6768C14.0415 36.8657 13.8965 37.0635 13.8965 37.3315C13.8965 37.5996 14.0415 37.7974 14.4326 37.9907L19.9785 40.6714C20.1895 40.7725 20.3389 40.8516 20.5234 40.8516C20.875 40.8516 21.1211 40.5835 21.1211 40.1528V34.5103C21.1211 34.084 20.875 33.8115 20.5234 33.8115Z" fill="black"/>
<rect x="146" y="913" width="135" height="5" rx="2.5" fill="black"/>
</g>
<defs>
<filter id="filter0_d_2_2585" x="38" y="354" width="357.863" height="33" filterUnits="userSpaceOnUse" color-interpolation-filters="sRGB">
<feFlood flood-opacity="0" result="BackgroundImageFix"/>
<feColorMatrix in="SourceAlpha" type="matrix" values="0 0 0 0 0 0 0 0 0 0 0 0 0 0 0 0 0 0 127 0" result="hardAlpha"/>
<feOffset dx="4" dy="4"/>
<feGaussianBlur stdDeviation="2"/>
<feComposite in2="hardAlpha" operator="out"/>
<feColorMatrix type="matrix" values="0 0 0 0 0 0 0 0 0 0 0 0 0 0 0 0 0 0 0.25 0"/>
<feBlend mode="normal" in2="BackgroundImageFix" result="effect1_dropShadow_2_2585"/>
<feBlend mode="normal" in="SourceGraphic" in2="effect1_dropShadow_2_2585" result="shape"/>
</filter>
<filter id="filter1_d_2_2585" x="74" y="457" width="281" height="20" filterUnits="userSpaceOnUse" color-interpolation-filters="sRGB">
<feFlood flood-opacity="0" result="BackgroundImageFix"/>
<feColorMatrix in="SourceAlpha" type="matrix" values="0 0 0 0 0 0 0 0 0 0 0 0 0 0 0 0 0 0 127 0" result="hardAlpha"/>
<feOffset dy="4"/>
<feGaussianBlur stdDeviation="2"/>
<feComposite in2="hardAlpha" operator="out"/>
<feColorMatrix type="matrix" values="0 0 0 0 0 0 0 0 0 0 0 0 0 0 0 0 0 0 0.25 0"/>
<feBlend mode="normal" in2="BackgroundImageFix" result="effect1_dropShadow_2_2585"/>
<feBlend mode="normal" in="SourceGraphic" in2="effect1_dropShadow_2_2585" result="shape"/>
</filter>
<filter id="filter2_d_2_2585" x="74" y="457" width="281" height="20" filterUnits="userSpaceOnUse" color-interpolation-filters="sRGB">
<feFlood flood-opacity="0" result="BackgroundImageFix"/>
<feColorMatrix in="SourceAlpha" type="matrix" values="0 0 0 0 0 0 0 0 0 0 0 0 0 0 0 0 0 0 127 0" result="hardAlpha"/>
<feOffset dy="4"/>
<feGaussianBlur stdDeviation="2"/>
<feComposite in2="hardAlpha" operator="out"/>
<feColorMatrix type="matrix" values="0 0 0 0 0 0 0 0 0 0 0 0 0 0 0 0 0 0 0.25 0"/>
<feBlend mode="normal" in2="BackgroundImageFix" result="effect1_dropShadow_2_2585"/>
<feBlend mode="normal" in="SourceGraphic" in2="effect1_dropShadow_2_2585" result="shape"/>
</filter>
<filter id="filter3_d_2_2585" x="70" y="461" width="289" height="12" filterUnits="userSpaceOnUse" color-interpolation-filters="sRGB">
<feFlood flood-opacity="0" result="BackgroundImageFix"/>
<feColorMatrix in="SourceAlpha" type="matrix" values="0 0 0 0 0 0 0 0 0 0 0 0 0 0 0 0 0 0 127 0" result="hardAlpha"/>
<feOffset dy="4"/>
<feGaussianBlur stdDeviation="2"/>
<feComposite in2="hardAlpha" operator="out"/>
<feColorMatrix type="matrix" values="0 0 0 0 0 0 0 0 0 0 0 0 0 0 0 0 0 0 0.25 0"/>
<feBlend mode="normal" in2="BackgroundImageFix" result="effect1_dropShadow_2_2585"/>
<feBlend mode="normal" in="SourceGraphic" in2="effect1_dropShadow_2_2585" result="shape"/>
</filter>
<filter id="filter4_d_2_2585" x="70" y="461" width="289" height="12" filterUnits="userSpaceOnUse" color-interpolation-filters="sRGB">
<feFlood flood-opacity="0" result="BackgroundImageFix"/>
<feColorMatrix in="SourceAlpha" type="matrix" values="0 0 0 0 0 0 0 0 0 0 0 0 0 0 0 0 0 0 127 0" result="hardAlpha"/>
<feOffset dy="4"/>
<feGaussianBlur stdDeviation="2"/>
<feComposite in2="hardAlpha" operator="out"/>
<feColorMatrix type="matrix" values="0 0 0 0 0 0 0 0 0 0 0 0 0 0 0 0 0 0 0.25 0"/>
<feBlend mode="normal" in2="BackgroundImageFix" result="effect1_dropShadow_2_2585"/>
<feBlend mode="normal" in="SourceGraphic" in2="effect1_dropShadow_2_2585" result="shape"/>
</filter>
<filter id="filter5_d_2_2585" x="72" y="459" width="285" height="16" filterUnits="userSpaceOnUse" color-interpolation-filters="sRGB">
<feFlood flood-opacity="0" result="BackgroundImageFix"/>
<feColorMatrix in="SourceAlpha" type="matrix" values="0 0 0 0 0 0 0 0 0 0 0 0 0 0 0 0 0 0 127 0" result="hardAlpha"/>
<feOffset dy="4"/>
<feGaussianBlur stdDeviation="2"/>
<feComposite in2="hardAlpha" operator="out"/>
<feColorMatrix type="matrix" values="0 0 0 0 0 0 0 0 0 0 0 0 0 0 0 0 0 0 0.25 0"/>
<feBlend mode="normal" in2="BackgroundImageFix" result="effect1_dropShadow_2_2585"/>
<feBlend mode="normal" in="SourceGraphic" in2="effect1_dropShadow_2_2585" result="shape"/>
</filter>
<filter id="filter6_d_2_2585" x="72" y="459" width="283" height="16" filterUnits="userSpaceOnUse" color-interpolation-filters="sRGB">
<feFlood flood-opacity="0" result="BackgroundImageFix"/>
<feColorMatrix in="SourceAlpha" type="matrix" values="0 0 0 0 0 0 0 0 0 0 0 0 0 0 0 0 0 0 127 0" result="hardAlpha"/>
<feOffset dy="4"/>
<feGaussianBlur stdDeviation="2"/>
<feComposite in2="hardAlpha" operator="out"/>
<feColorMatrix type="matrix" values="0 0 0 0 0 0 0 0 0 0 0 0 0 0 0 0 0 0 0.25 0"/>
<feBlend mode="normal" in2="BackgroundImageFix" result="effect1_dropShadow_2_2585"/>
<feBlend mode="normal" in="SourceGraphic" in2="effect1_dropShadow_2_2585" result="shape"/>
</filter>
<linearGradient id="paint0_linear_2_2585" x1="324.195" y1="518.5" x2="108.575" y2="404.795" gradientUnits="userSpaceOnUse">
<stop offset="0.619792" stop-color="#FFA800"/>
<stop offset="1" stop-color="#FFC700"/>
</linearGradient>
<clipPath id="clip0_2_2585">
<rect width="428" height="926" fill="white"/>
</clipPath>
</defs>
</svg>
